%TF.GenerationSoftware,KiCad,Pcbnew,10.0.0*%
%TF.CreationDate,2026-04-22T16:36:54+05:30*%
%TF.ProjectId,F411-TableClock,46343131-2d54-4616-926c-65436c6f636b,rev?*%
%TF.SameCoordinates,Original*%
%TF.FileFunction,Soldermask,Bot*%
%TF.FilePolarity,Negative*%
%FSLAX46Y46*%
G04 Gerber Fmt 4.6, Leading zero omitted, Abs format (unit mm)*
G04 Created by KiCad (PCBNEW 10.0.0) date 2026-04-22 16:36:54*
%MOMM*%
%LPD*%
G01*
G04 APERTURE LIST*
G04 Aperture macros list*
%AMRoundRect*
0 Rectangle with rounded corners*
0 $1 Rounding radius*
0 $2 $3 $4 $5 $6 $7 $8 $9 X,Y pos of 4 corners*
0 Add a 4 corners polygon primitive as box body*
4,1,4,$2,$3,$4,$5,$6,$7,$8,$9,$2,$3,0*
0 Add four circle primitives for the rounded corners*
1,1,$1+$1,$2,$3*
1,1,$1+$1,$4,$5*
1,1,$1+$1,$6,$7*
1,1,$1+$1,$8,$9*
0 Add four rect primitives between the rounded corners*
20,1,$1+$1,$2,$3,$4,$5,0*
20,1,$1+$1,$4,$5,$6,$7,0*
20,1,$1+$1,$6,$7,$8,$9,0*
20,1,$1+$1,$8,$9,$2,$3,0*%
G04 Aperture macros list end*
%ADD10C,0.650000*%
%ADD11O,2.100000X1.000000*%
%ADD12O,1.800000X1.000000*%
%ADD13R,1.700000X1.700000*%
%ADD14C,1.700000*%
%ADD15RoundRect,0.250000X0.500000X0.500000X-0.500000X0.500000X-0.500000X-0.500000X0.500000X-0.500000X0*%
%ADD16C,1.500000*%
%ADD17C,1.000000*%
%ADD18C,3.200000*%
%ADD19RoundRect,0.249999X-1.250001X-1.250001X1.250001X-1.250001X1.250001X1.250001X-1.250001X1.250001X0*%
%ADD20C,3.000000*%
%ADD21R,1.600000X2.000000*%
%ADD22O,1.600000X2.000000*%
G04 APERTURE END LIST*
D10*
%TO.C,J1*%
X97815000Y-68710000D03*
X97815000Y-74490000D03*
D11*
X98315000Y-67280000D03*
D12*
X94135000Y-67280000D03*
D11*
X98315000Y-75920000D03*
D12*
X94135000Y-75920000D03*
%TD*%
D13*
%TO.C,J5*%
X115460000Y-83700000D03*
D14*
X118000000Y-83700000D03*
X120540000Y-83700000D03*
X123080000Y-83700000D03*
X125620000Y-83700000D03*
X128160000Y-83700000D03*
X130700000Y-83700000D03*
X133240000Y-83700000D03*
%TD*%
D15*
%TO.C,Q2*%
X121000000Y-52600000D03*
D16*
X118460000Y-55140000D03*
X115920000Y-52600000D03*
%TD*%
D17*
%TO.C,Y1*%
X132300000Y-68430000D03*
X132300000Y-70970000D03*
%TD*%
D18*
%TO.C,BT1*%
X102855000Y-109500000D03*
X158465000Y-109500000D03*
D19*
X94410000Y-109500000D03*
D20*
X167310000Y-109500000D03*
%TD*%
D13*
%TO.C,J4*%
X168500000Y-71520000D03*
D14*
X168500000Y-74060000D03*
X168500000Y-76600000D03*
X168500000Y-79140000D03*
%TD*%
D13*
%TO.C,J2*%
X163260000Y-52600000D03*
D14*
X160720000Y-52600000D03*
X158180000Y-52600000D03*
X155640000Y-52600000D03*
X153100000Y-52600000D03*
X150560000Y-52600000D03*
X148020000Y-52600000D03*
X145480000Y-52600000D03*
X142940000Y-52600000D03*
X140400000Y-52600000D03*
X137860000Y-52600000D03*
X135320000Y-52600000D03*
X132780000Y-52600000D03*
X130240000Y-52600000D03*
X127700000Y-52600000D03*
X125160000Y-52600000D03*
%TD*%
D13*
%TO.C,J6*%
X115220000Y-123200000D03*
D14*
X117760000Y-123200000D03*
X120300000Y-123200000D03*
X122840000Y-123200000D03*
X125380000Y-123200000D03*
X127920000Y-123200000D03*
X130460000Y-123200000D03*
X133000000Y-123200000D03*
%TD*%
D21*
%TO.C,BT2*%
X141600000Y-68000121D03*
D22*
X162100000Y-68000121D03*
%TD*%
M02*
