%TF.GenerationSoftware,KiCad,Pcbnew,10.0.0*%
%TF.CreationDate,2026-04-22T16:36:54+05:30*%
%TF.ProjectId,F411-TableClock,46343131-2d54-4616-926c-65436c6f636b,rev?*%
%TF.SameCoordinates,Original*%
%TF.FileFunction,Legend,Top*%
%TF.FilePolarity,Positive*%
%FSLAX46Y46*%
G04 Gerber Fmt 4.6, Leading zero omitted, Abs format (unit mm)*
G04 Created by KiCad (PCBNEW 10.0.0) date 2026-04-22 16:36:54*
%MOMM*%
%LPD*%
G01*
G04 APERTURE LIST*
%ADD10C,0.150000*%
%ADD11C,0.120000*%
G04 APERTURE END LIST*
D10*
X102533333Y-82559580D02*
X102485714Y-82607200D01*
X102485714Y-82607200D02*
X102342857Y-82654819D01*
X102342857Y-82654819D02*
X102247619Y-82654819D01*
X102247619Y-82654819D02*
X102104762Y-82607200D01*
X102104762Y-82607200D02*
X102009524Y-82511961D01*
X102009524Y-82511961D02*
X101961905Y-82416723D01*
X101961905Y-82416723D02*
X101914286Y-82226247D01*
X101914286Y-82226247D02*
X101914286Y-82083390D01*
X101914286Y-82083390D02*
X101961905Y-81892914D01*
X101961905Y-81892914D02*
X102009524Y-81797676D01*
X102009524Y-81797676D02*
X102104762Y-81702438D01*
X102104762Y-81702438D02*
X102247619Y-81654819D01*
X102247619Y-81654819D02*
X102342857Y-81654819D01*
X102342857Y-81654819D02*
X102485714Y-81702438D01*
X102485714Y-81702438D02*
X102533333Y-81750057D01*
X102866667Y-81654819D02*
X103533333Y-81654819D01*
X103533333Y-81654819D02*
X103104762Y-82654819D01*
X115457142Y-60459580D02*
X115409523Y-60507200D01*
X115409523Y-60507200D02*
X115266666Y-60554819D01*
X115266666Y-60554819D02*
X115171428Y-60554819D01*
X115171428Y-60554819D02*
X115028571Y-60507200D01*
X115028571Y-60507200D02*
X114933333Y-60411961D01*
X114933333Y-60411961D02*
X114885714Y-60316723D01*
X114885714Y-60316723D02*
X114838095Y-60126247D01*
X114838095Y-60126247D02*
X114838095Y-59983390D01*
X114838095Y-59983390D02*
X114885714Y-59792914D01*
X114885714Y-59792914D02*
X114933333Y-59697676D01*
X114933333Y-59697676D02*
X115028571Y-59602438D01*
X115028571Y-59602438D02*
X115171428Y-59554819D01*
X115171428Y-59554819D02*
X115266666Y-59554819D01*
X115266666Y-59554819D02*
X115409523Y-59602438D01*
X115409523Y-59602438D02*
X115457142Y-59650057D01*
X116409523Y-60554819D02*
X115838095Y-60554819D01*
X116123809Y-60554819D02*
X116123809Y-59554819D01*
X116123809Y-59554819D02*
X116028571Y-59697676D01*
X116028571Y-59697676D02*
X115933333Y-59792914D01*
X115933333Y-59792914D02*
X115838095Y-59840533D01*
X117028571Y-59554819D02*
X117123809Y-59554819D01*
X117123809Y-59554819D02*
X117219047Y-59602438D01*
X117219047Y-59602438D02*
X117266666Y-59650057D01*
X117266666Y-59650057D02*
X117314285Y-59745295D01*
X117314285Y-59745295D02*
X117361904Y-59935771D01*
X117361904Y-59935771D02*
X117361904Y-60173866D01*
X117361904Y-60173866D02*
X117314285Y-60364342D01*
X117314285Y-60364342D02*
X117266666Y-60459580D01*
X117266666Y-60459580D02*
X117219047Y-60507200D01*
X117219047Y-60507200D02*
X117123809Y-60554819D01*
X117123809Y-60554819D02*
X117028571Y-60554819D01*
X117028571Y-60554819D02*
X116933333Y-60507200D01*
X116933333Y-60507200D02*
X116885714Y-60459580D01*
X116885714Y-60459580D02*
X116838095Y-60364342D01*
X116838095Y-60364342D02*
X116790476Y-60173866D01*
X116790476Y-60173866D02*
X116790476Y-59935771D01*
X116790476Y-59935771D02*
X116838095Y-59745295D01*
X116838095Y-59745295D02*
X116885714Y-59650057D01*
X116885714Y-59650057D02*
X116933333Y-59602438D01*
X116933333Y-59602438D02*
X117028571Y-59554819D01*
X138569642Y-69159580D02*
X138522023Y-69207200D01*
X138522023Y-69207200D02*
X138379166Y-69254819D01*
X138379166Y-69254819D02*
X138283928Y-69254819D01*
X138283928Y-69254819D02*
X138141071Y-69207200D01*
X138141071Y-69207200D02*
X138045833Y-69111961D01*
X138045833Y-69111961D02*
X137998214Y-69016723D01*
X137998214Y-69016723D02*
X137950595Y-68826247D01*
X137950595Y-68826247D02*
X137950595Y-68683390D01*
X137950595Y-68683390D02*
X137998214Y-68492914D01*
X137998214Y-68492914D02*
X138045833Y-68397676D01*
X138045833Y-68397676D02*
X138141071Y-68302438D01*
X138141071Y-68302438D02*
X138283928Y-68254819D01*
X138283928Y-68254819D02*
X138379166Y-68254819D01*
X138379166Y-68254819D02*
X138522023Y-68302438D01*
X138522023Y-68302438D02*
X138569642Y-68350057D01*
X139522023Y-69254819D02*
X138950595Y-69254819D01*
X139236309Y-69254819D02*
X139236309Y-68254819D01*
X139236309Y-68254819D02*
X139141071Y-68397676D01*
X139141071Y-68397676D02*
X139045833Y-68492914D01*
X139045833Y-68492914D02*
X138950595Y-68540533D01*
X139902976Y-68350057D02*
X139950595Y-68302438D01*
X139950595Y-68302438D02*
X140045833Y-68254819D01*
X140045833Y-68254819D02*
X140283928Y-68254819D01*
X140283928Y-68254819D02*
X140379166Y-68302438D01*
X140379166Y-68302438D02*
X140426785Y-68350057D01*
X140426785Y-68350057D02*
X140474404Y-68445295D01*
X140474404Y-68445295D02*
X140474404Y-68540533D01*
X140474404Y-68540533D02*
X140426785Y-68683390D01*
X140426785Y-68683390D02*
X139855357Y-69254819D01*
X139855357Y-69254819D02*
X140474404Y-69254819D01*
X108875595Y-76604819D02*
X108875595Y-77414342D01*
X108875595Y-77414342D02*
X108923214Y-77509580D01*
X108923214Y-77509580D02*
X108970833Y-77557200D01*
X108970833Y-77557200D02*
X109066071Y-77604819D01*
X109066071Y-77604819D02*
X109256547Y-77604819D01*
X109256547Y-77604819D02*
X109351785Y-77557200D01*
X109351785Y-77557200D02*
X109399404Y-77509580D01*
X109399404Y-77509580D02*
X109447023Y-77414342D01*
X109447023Y-77414342D02*
X109447023Y-76604819D01*
X109875595Y-76700057D02*
X109923214Y-76652438D01*
X109923214Y-76652438D02*
X110018452Y-76604819D01*
X110018452Y-76604819D02*
X110256547Y-76604819D01*
X110256547Y-76604819D02*
X110351785Y-76652438D01*
X110351785Y-76652438D02*
X110399404Y-76700057D01*
X110399404Y-76700057D02*
X110447023Y-76795295D01*
X110447023Y-76795295D02*
X110447023Y-76890533D01*
X110447023Y-76890533D02*
X110399404Y-77033390D01*
X110399404Y-77033390D02*
X109827976Y-77604819D01*
X109827976Y-77604819D02*
X110447023Y-77604819D01*
X104957142Y-82554819D02*
X104623809Y-82078628D01*
X104385714Y-82554819D02*
X104385714Y-81554819D01*
X104385714Y-81554819D02*
X104766666Y-81554819D01*
X104766666Y-81554819D02*
X104861904Y-81602438D01*
X104861904Y-81602438D02*
X104909523Y-81650057D01*
X104909523Y-81650057D02*
X104957142Y-81745295D01*
X104957142Y-81745295D02*
X104957142Y-81888152D01*
X104957142Y-81888152D02*
X104909523Y-81983390D01*
X104909523Y-81983390D02*
X104861904Y-82031009D01*
X104861904Y-82031009D02*
X104766666Y-82078628D01*
X104766666Y-82078628D02*
X104385714Y-82078628D01*
X105909523Y-82554819D02*
X105338095Y-82554819D01*
X105623809Y-82554819D02*
X105623809Y-81554819D01*
X105623809Y-81554819D02*
X105528571Y-81697676D01*
X105528571Y-81697676D02*
X105433333Y-81792914D01*
X105433333Y-81792914D02*
X105338095Y-81840533D01*
X106766666Y-81888152D02*
X106766666Y-82554819D01*
X106528571Y-81507200D02*
X106290476Y-82221485D01*
X106290476Y-82221485D02*
X106909523Y-82221485D01*
X122157142Y-77554819D02*
X121823809Y-77078628D01*
X121585714Y-77554819D02*
X121585714Y-76554819D01*
X121585714Y-76554819D02*
X121966666Y-76554819D01*
X121966666Y-76554819D02*
X122061904Y-76602438D01*
X122061904Y-76602438D02*
X122109523Y-76650057D01*
X122109523Y-76650057D02*
X122157142Y-76745295D01*
X122157142Y-76745295D02*
X122157142Y-76888152D01*
X122157142Y-76888152D02*
X122109523Y-76983390D01*
X122109523Y-76983390D02*
X122061904Y-77031009D01*
X122061904Y-77031009D02*
X121966666Y-77078628D01*
X121966666Y-77078628D02*
X121585714Y-77078628D01*
X123109523Y-77554819D02*
X122538095Y-77554819D01*
X122823809Y-77554819D02*
X122823809Y-76554819D01*
X122823809Y-76554819D02*
X122728571Y-76697676D01*
X122728571Y-76697676D02*
X122633333Y-76792914D01*
X122633333Y-76792914D02*
X122538095Y-76840533D01*
X124061904Y-77554819D02*
X123490476Y-77554819D01*
X123776190Y-77554819D02*
X123776190Y-76554819D01*
X123776190Y-76554819D02*
X123680952Y-76697676D01*
X123680952Y-76697676D02*
X123585714Y-76792914D01*
X123585714Y-76792914D02*
X123490476Y-76840533D01*
X110561905Y-60854819D02*
X110561905Y-59854819D01*
X110561905Y-59854819D02*
X110800000Y-59854819D01*
X110800000Y-59854819D02*
X110942857Y-59902438D01*
X110942857Y-59902438D02*
X111038095Y-59997676D01*
X111038095Y-59997676D02*
X111085714Y-60092914D01*
X111085714Y-60092914D02*
X111133333Y-60283390D01*
X111133333Y-60283390D02*
X111133333Y-60426247D01*
X111133333Y-60426247D02*
X111085714Y-60616723D01*
X111085714Y-60616723D02*
X111038095Y-60711961D01*
X111038095Y-60711961D02*
X110942857Y-60807200D01*
X110942857Y-60807200D02*
X110800000Y-60854819D01*
X110800000Y-60854819D02*
X110561905Y-60854819D01*
X112085714Y-60854819D02*
X111514286Y-60854819D01*
X111800000Y-60854819D02*
X111800000Y-59854819D01*
X111800000Y-59854819D02*
X111704762Y-59997676D01*
X111704762Y-59997676D02*
X111609524Y-60092914D01*
X111609524Y-60092914D02*
X111514286Y-60140533D01*
X108616667Y-97457200D02*
X108759524Y-97504819D01*
X108759524Y-97504819D02*
X108997619Y-97504819D01*
X108997619Y-97504819D02*
X109092857Y-97457200D01*
X109092857Y-97457200D02*
X109140476Y-97409580D01*
X109140476Y-97409580D02*
X109188095Y-97314342D01*
X109188095Y-97314342D02*
X109188095Y-97219104D01*
X109188095Y-97219104D02*
X109140476Y-97123866D01*
X109140476Y-97123866D02*
X109092857Y-97076247D01*
X109092857Y-97076247D02*
X108997619Y-97028628D01*
X108997619Y-97028628D02*
X108807143Y-96981009D01*
X108807143Y-96981009D02*
X108711905Y-96933390D01*
X108711905Y-96933390D02*
X108664286Y-96885771D01*
X108664286Y-96885771D02*
X108616667Y-96790533D01*
X108616667Y-96790533D02*
X108616667Y-96695295D01*
X108616667Y-96695295D02*
X108664286Y-96600057D01*
X108664286Y-96600057D02*
X108711905Y-96552438D01*
X108711905Y-96552438D02*
X108807143Y-96504819D01*
X108807143Y-96504819D02*
X109045238Y-96504819D01*
X109045238Y-96504819D02*
X109188095Y-96552438D01*
X109521429Y-96504819D02*
X109759524Y-97504819D01*
X109759524Y-97504819D02*
X109950000Y-96790533D01*
X109950000Y-96790533D02*
X110140476Y-97504819D01*
X110140476Y-97504819D02*
X110378572Y-96504819D01*
X111283333Y-97504819D02*
X110711905Y-97504819D01*
X110997619Y-97504819D02*
X110997619Y-96504819D01*
X110997619Y-96504819D02*
X110902381Y-96647676D01*
X110902381Y-96647676D02*
X110807143Y-96742914D01*
X110807143Y-96742914D02*
X110711905Y-96790533D01*
X106533333Y-123609580D02*
X106485714Y-123657200D01*
X106485714Y-123657200D02*
X106342857Y-123704819D01*
X106342857Y-123704819D02*
X106247619Y-123704819D01*
X106247619Y-123704819D02*
X106104762Y-123657200D01*
X106104762Y-123657200D02*
X106009524Y-123561961D01*
X106009524Y-123561961D02*
X105961905Y-123466723D01*
X105961905Y-123466723D02*
X105914286Y-123276247D01*
X105914286Y-123276247D02*
X105914286Y-123133390D01*
X105914286Y-123133390D02*
X105961905Y-122942914D01*
X105961905Y-122942914D02*
X106009524Y-122847676D01*
X106009524Y-122847676D02*
X106104762Y-122752438D01*
X106104762Y-122752438D02*
X106247619Y-122704819D01*
X106247619Y-122704819D02*
X106342857Y-122704819D01*
X106342857Y-122704819D02*
X106485714Y-122752438D01*
X106485714Y-122752438D02*
X106533333Y-122800057D01*
X107438095Y-122704819D02*
X106961905Y-122704819D01*
X106961905Y-122704819D02*
X106914286Y-123181009D01*
X106914286Y-123181009D02*
X106961905Y-123133390D01*
X106961905Y-123133390D02*
X107057143Y-123085771D01*
X107057143Y-123085771D02*
X107295238Y-123085771D01*
X107295238Y-123085771D02*
X107390476Y-123133390D01*
X107390476Y-123133390D02*
X107438095Y-123181009D01*
X107438095Y-123181009D02*
X107485714Y-123276247D01*
X107485714Y-123276247D02*
X107485714Y-123514342D01*
X107485714Y-123514342D02*
X107438095Y-123609580D01*
X107438095Y-123609580D02*
X107390476Y-123657200D01*
X107390476Y-123657200D02*
X107295238Y-123704819D01*
X107295238Y-123704819D02*
X107057143Y-123704819D01*
X107057143Y-123704819D02*
X106961905Y-123657200D01*
X106961905Y-123657200D02*
X106914286Y-123609580D01*
X91866666Y-64954819D02*
X91866666Y-65669104D01*
X91866666Y-65669104D02*
X91819047Y-65811961D01*
X91819047Y-65811961D02*
X91723809Y-65907200D01*
X91723809Y-65907200D02*
X91580952Y-65954819D01*
X91580952Y-65954819D02*
X91485714Y-65954819D01*
X92866666Y-65954819D02*
X92295238Y-65954819D01*
X92580952Y-65954819D02*
X92580952Y-64954819D01*
X92580952Y-64954819D02*
X92485714Y-65097676D01*
X92485714Y-65097676D02*
X92390476Y-65192914D01*
X92390476Y-65192914D02*
X92295238Y-65240533D01*
X112356666Y-83154819D02*
X112356666Y-83869104D01*
X112356666Y-83869104D02*
X112309047Y-84011961D01*
X112309047Y-84011961D02*
X112213809Y-84107200D01*
X112213809Y-84107200D02*
X112070952Y-84154819D01*
X112070952Y-84154819D02*
X111975714Y-84154819D01*
X113309047Y-83154819D02*
X112832857Y-83154819D01*
X112832857Y-83154819D02*
X112785238Y-83631009D01*
X112785238Y-83631009D02*
X112832857Y-83583390D01*
X112832857Y-83583390D02*
X112928095Y-83535771D01*
X112928095Y-83535771D02*
X113166190Y-83535771D01*
X113166190Y-83535771D02*
X113261428Y-83583390D01*
X113261428Y-83583390D02*
X113309047Y-83631009D01*
X113309047Y-83631009D02*
X113356666Y-83726247D01*
X113356666Y-83726247D02*
X113356666Y-83964342D01*
X113356666Y-83964342D02*
X113309047Y-84059580D01*
X113309047Y-84059580D02*
X113261428Y-84107200D01*
X113261428Y-84107200D02*
X113166190Y-84154819D01*
X113166190Y-84154819D02*
X112928095Y-84154819D01*
X112928095Y-84154819D02*
X112832857Y-84107200D01*
X112832857Y-84107200D02*
X112785238Y-84059580D01*
X124433333Y-75342319D02*
X124100000Y-74866128D01*
X123861905Y-75342319D02*
X123861905Y-74342319D01*
X123861905Y-74342319D02*
X124242857Y-74342319D01*
X124242857Y-74342319D02*
X124338095Y-74389938D01*
X124338095Y-74389938D02*
X124385714Y-74437557D01*
X124385714Y-74437557D02*
X124433333Y-74532795D01*
X124433333Y-74532795D02*
X124433333Y-74675652D01*
X124433333Y-74675652D02*
X124385714Y-74770890D01*
X124385714Y-74770890D02*
X124338095Y-74818509D01*
X124338095Y-74818509D02*
X124242857Y-74866128D01*
X124242857Y-74866128D02*
X123861905Y-74866128D01*
X125290476Y-74342319D02*
X125100000Y-74342319D01*
X125100000Y-74342319D02*
X125004762Y-74389938D01*
X125004762Y-74389938D02*
X124957143Y-74437557D01*
X124957143Y-74437557D02*
X124861905Y-74580414D01*
X124861905Y-74580414D02*
X124814286Y-74770890D01*
X124814286Y-74770890D02*
X124814286Y-75151842D01*
X124814286Y-75151842D02*
X124861905Y-75247080D01*
X124861905Y-75247080D02*
X124909524Y-75294700D01*
X124909524Y-75294700D02*
X125004762Y-75342319D01*
X125004762Y-75342319D02*
X125195238Y-75342319D01*
X125195238Y-75342319D02*
X125290476Y-75294700D01*
X125290476Y-75294700D02*
X125338095Y-75247080D01*
X125338095Y-75247080D02*
X125385714Y-75151842D01*
X125385714Y-75151842D02*
X125385714Y-74913747D01*
X125385714Y-74913747D02*
X125338095Y-74818509D01*
X125338095Y-74818509D02*
X125290476Y-74770890D01*
X125290476Y-74770890D02*
X125195238Y-74723271D01*
X125195238Y-74723271D02*
X125004762Y-74723271D01*
X125004762Y-74723271D02*
X124909524Y-74770890D01*
X124909524Y-74770890D02*
X124861905Y-74818509D01*
X124861905Y-74818509D02*
X124814286Y-74913747D01*
X104733333Y-62854819D02*
X104400000Y-62378628D01*
X104161905Y-62854819D02*
X104161905Y-61854819D01*
X104161905Y-61854819D02*
X104542857Y-61854819D01*
X104542857Y-61854819D02*
X104638095Y-61902438D01*
X104638095Y-61902438D02*
X104685714Y-61950057D01*
X104685714Y-61950057D02*
X104733333Y-62045295D01*
X104733333Y-62045295D02*
X104733333Y-62188152D01*
X104733333Y-62188152D02*
X104685714Y-62283390D01*
X104685714Y-62283390D02*
X104638095Y-62331009D01*
X104638095Y-62331009D02*
X104542857Y-62378628D01*
X104542857Y-62378628D02*
X104161905Y-62378628D01*
X105638095Y-61854819D02*
X105161905Y-61854819D01*
X105161905Y-61854819D02*
X105114286Y-62331009D01*
X105114286Y-62331009D02*
X105161905Y-62283390D01*
X105161905Y-62283390D02*
X105257143Y-62235771D01*
X105257143Y-62235771D02*
X105495238Y-62235771D01*
X105495238Y-62235771D02*
X105590476Y-62283390D01*
X105590476Y-62283390D02*
X105638095Y-62331009D01*
X105638095Y-62331009D02*
X105685714Y-62426247D01*
X105685714Y-62426247D02*
X105685714Y-62664342D01*
X105685714Y-62664342D02*
X105638095Y-62759580D01*
X105638095Y-62759580D02*
X105590476Y-62807200D01*
X105590476Y-62807200D02*
X105495238Y-62854819D01*
X105495238Y-62854819D02*
X105257143Y-62854819D01*
X105257143Y-62854819D02*
X105161905Y-62807200D01*
X105161905Y-62807200D02*
X105114286Y-62759580D01*
X102533333Y-62979819D02*
X102200000Y-62503628D01*
X101961905Y-62979819D02*
X101961905Y-61979819D01*
X101961905Y-61979819D02*
X102342857Y-61979819D01*
X102342857Y-61979819D02*
X102438095Y-62027438D01*
X102438095Y-62027438D02*
X102485714Y-62075057D01*
X102485714Y-62075057D02*
X102533333Y-62170295D01*
X102533333Y-62170295D02*
X102533333Y-62313152D01*
X102533333Y-62313152D02*
X102485714Y-62408390D01*
X102485714Y-62408390D02*
X102438095Y-62456009D01*
X102438095Y-62456009D02*
X102342857Y-62503628D01*
X102342857Y-62503628D02*
X101961905Y-62503628D01*
X102866667Y-61979819D02*
X103485714Y-61979819D01*
X103485714Y-61979819D02*
X103152381Y-62360771D01*
X103152381Y-62360771D02*
X103295238Y-62360771D01*
X103295238Y-62360771D02*
X103390476Y-62408390D01*
X103390476Y-62408390D02*
X103438095Y-62456009D01*
X103438095Y-62456009D02*
X103485714Y-62551247D01*
X103485714Y-62551247D02*
X103485714Y-62789342D01*
X103485714Y-62789342D02*
X103438095Y-62884580D01*
X103438095Y-62884580D02*
X103390476Y-62932200D01*
X103390476Y-62932200D02*
X103295238Y-62979819D01*
X103295238Y-62979819D02*
X103009524Y-62979819D01*
X103009524Y-62979819D02*
X102914286Y-62932200D01*
X102914286Y-62932200D02*
X102866667Y-62884580D01*
X111058333Y-56559580D02*
X111010714Y-56607200D01*
X111010714Y-56607200D02*
X110867857Y-56654819D01*
X110867857Y-56654819D02*
X110772619Y-56654819D01*
X110772619Y-56654819D02*
X110629762Y-56607200D01*
X110629762Y-56607200D02*
X110534524Y-56511961D01*
X110534524Y-56511961D02*
X110486905Y-56416723D01*
X110486905Y-56416723D02*
X110439286Y-56226247D01*
X110439286Y-56226247D02*
X110439286Y-56083390D01*
X110439286Y-56083390D02*
X110486905Y-55892914D01*
X110486905Y-55892914D02*
X110534524Y-55797676D01*
X110534524Y-55797676D02*
X110629762Y-55702438D01*
X110629762Y-55702438D02*
X110772619Y-55654819D01*
X110772619Y-55654819D02*
X110867857Y-55654819D01*
X110867857Y-55654819D02*
X111010714Y-55702438D01*
X111010714Y-55702438D02*
X111058333Y-55750057D01*
X112010714Y-56654819D02*
X111439286Y-56654819D01*
X111725000Y-56654819D02*
X111725000Y-55654819D01*
X111725000Y-55654819D02*
X111629762Y-55797676D01*
X111629762Y-55797676D02*
X111534524Y-55892914D01*
X111534524Y-55892914D02*
X111439286Y-55940533D01*
X118364761Y-53190057D02*
X118269523Y-53142438D01*
X118269523Y-53142438D02*
X118174285Y-53047200D01*
X118174285Y-53047200D02*
X118031428Y-52904342D01*
X118031428Y-52904342D02*
X117936190Y-52856723D01*
X117936190Y-52856723D02*
X117840952Y-52856723D01*
X117888571Y-53094819D02*
X117793333Y-53047200D01*
X117793333Y-53047200D02*
X117698095Y-52951961D01*
X117698095Y-52951961D02*
X117650476Y-52761485D01*
X117650476Y-52761485D02*
X117650476Y-52428152D01*
X117650476Y-52428152D02*
X117698095Y-52237676D01*
X117698095Y-52237676D02*
X117793333Y-52142438D01*
X117793333Y-52142438D02*
X117888571Y-52094819D01*
X117888571Y-52094819D02*
X118079047Y-52094819D01*
X118079047Y-52094819D02*
X118174285Y-52142438D01*
X118174285Y-52142438D02*
X118269523Y-52237676D01*
X118269523Y-52237676D02*
X118317142Y-52428152D01*
X118317142Y-52428152D02*
X118317142Y-52761485D01*
X118317142Y-52761485D02*
X118269523Y-52951961D01*
X118269523Y-52951961D02*
X118174285Y-53047200D01*
X118174285Y-53047200D02*
X118079047Y-53094819D01*
X118079047Y-53094819D02*
X117888571Y-53094819D01*
X118698095Y-52190057D02*
X118745714Y-52142438D01*
X118745714Y-52142438D02*
X118840952Y-52094819D01*
X118840952Y-52094819D02*
X119079047Y-52094819D01*
X119079047Y-52094819D02*
X119174285Y-52142438D01*
X119174285Y-52142438D02*
X119221904Y-52190057D01*
X119221904Y-52190057D02*
X119269523Y-52285295D01*
X119269523Y-52285295D02*
X119269523Y-52380533D01*
X119269523Y-52380533D02*
X119221904Y-52523390D01*
X119221904Y-52523390D02*
X118650476Y-53094819D01*
X118650476Y-53094819D02*
X119269523Y-53094819D01*
X117466667Y-97457200D02*
X117609524Y-97504819D01*
X117609524Y-97504819D02*
X117847619Y-97504819D01*
X117847619Y-97504819D02*
X117942857Y-97457200D01*
X117942857Y-97457200D02*
X117990476Y-97409580D01*
X117990476Y-97409580D02*
X118038095Y-97314342D01*
X118038095Y-97314342D02*
X118038095Y-97219104D01*
X118038095Y-97219104D02*
X117990476Y-97123866D01*
X117990476Y-97123866D02*
X117942857Y-97076247D01*
X117942857Y-97076247D02*
X117847619Y-97028628D01*
X117847619Y-97028628D02*
X117657143Y-96981009D01*
X117657143Y-96981009D02*
X117561905Y-96933390D01*
X117561905Y-96933390D02*
X117514286Y-96885771D01*
X117514286Y-96885771D02*
X117466667Y-96790533D01*
X117466667Y-96790533D02*
X117466667Y-96695295D01*
X117466667Y-96695295D02*
X117514286Y-96600057D01*
X117514286Y-96600057D02*
X117561905Y-96552438D01*
X117561905Y-96552438D02*
X117657143Y-96504819D01*
X117657143Y-96504819D02*
X117895238Y-96504819D01*
X117895238Y-96504819D02*
X118038095Y-96552438D01*
X118371429Y-96504819D02*
X118609524Y-97504819D01*
X118609524Y-97504819D02*
X118800000Y-96790533D01*
X118800000Y-96790533D02*
X118990476Y-97504819D01*
X118990476Y-97504819D02*
X119228572Y-96504819D01*
X119561905Y-96600057D02*
X119609524Y-96552438D01*
X119609524Y-96552438D02*
X119704762Y-96504819D01*
X119704762Y-96504819D02*
X119942857Y-96504819D01*
X119942857Y-96504819D02*
X120038095Y-96552438D01*
X120038095Y-96552438D02*
X120085714Y-96600057D01*
X120085714Y-96600057D02*
X120133333Y-96695295D01*
X120133333Y-96695295D02*
X120133333Y-96790533D01*
X120133333Y-96790533D02*
X120085714Y-96933390D01*
X120085714Y-96933390D02*
X119514286Y-97504819D01*
X119514286Y-97504819D02*
X120133333Y-97504819D01*
X111354761Y-64887557D02*
X111259523Y-64839938D01*
X111259523Y-64839938D02*
X111164285Y-64744700D01*
X111164285Y-64744700D02*
X111021428Y-64601842D01*
X111021428Y-64601842D02*
X110926190Y-64554223D01*
X110926190Y-64554223D02*
X110830952Y-64554223D01*
X110878571Y-64792319D02*
X110783333Y-64744700D01*
X110783333Y-64744700D02*
X110688095Y-64649461D01*
X110688095Y-64649461D02*
X110640476Y-64458985D01*
X110640476Y-64458985D02*
X110640476Y-64125652D01*
X110640476Y-64125652D02*
X110688095Y-63935176D01*
X110688095Y-63935176D02*
X110783333Y-63839938D01*
X110783333Y-63839938D02*
X110878571Y-63792319D01*
X110878571Y-63792319D02*
X111069047Y-63792319D01*
X111069047Y-63792319D02*
X111164285Y-63839938D01*
X111164285Y-63839938D02*
X111259523Y-63935176D01*
X111259523Y-63935176D02*
X111307142Y-64125652D01*
X111307142Y-64125652D02*
X111307142Y-64458985D01*
X111307142Y-64458985D02*
X111259523Y-64649461D01*
X111259523Y-64649461D02*
X111164285Y-64744700D01*
X111164285Y-64744700D02*
X111069047Y-64792319D01*
X111069047Y-64792319D02*
X110878571Y-64792319D01*
X112259523Y-64792319D02*
X111688095Y-64792319D01*
X111973809Y-64792319D02*
X111973809Y-63792319D01*
X111973809Y-63792319D02*
X111878571Y-63935176D01*
X111878571Y-63935176D02*
X111783333Y-64030414D01*
X111783333Y-64030414D02*
X111688095Y-64078033D01*
X127045833Y-75947080D02*
X126998214Y-75994700D01*
X126998214Y-75994700D02*
X126855357Y-76042319D01*
X126855357Y-76042319D02*
X126760119Y-76042319D01*
X126760119Y-76042319D02*
X126617262Y-75994700D01*
X126617262Y-75994700D02*
X126522024Y-75899461D01*
X126522024Y-75899461D02*
X126474405Y-75804223D01*
X126474405Y-75804223D02*
X126426786Y-75613747D01*
X126426786Y-75613747D02*
X126426786Y-75470890D01*
X126426786Y-75470890D02*
X126474405Y-75280414D01*
X126474405Y-75280414D02*
X126522024Y-75185176D01*
X126522024Y-75185176D02*
X126617262Y-75089938D01*
X126617262Y-75089938D02*
X126760119Y-75042319D01*
X126760119Y-75042319D02*
X126855357Y-75042319D01*
X126855357Y-75042319D02*
X126998214Y-75089938D01*
X126998214Y-75089938D02*
X127045833Y-75137557D01*
X127902976Y-75375652D02*
X127902976Y-76042319D01*
X127664881Y-74994700D02*
X127426786Y-75708985D01*
X127426786Y-75708985D02*
X128045833Y-75708985D01*
X132133333Y-66254819D02*
X131800000Y-65778628D01*
X131561905Y-66254819D02*
X131561905Y-65254819D01*
X131561905Y-65254819D02*
X131942857Y-65254819D01*
X131942857Y-65254819D02*
X132038095Y-65302438D01*
X132038095Y-65302438D02*
X132085714Y-65350057D01*
X132085714Y-65350057D02*
X132133333Y-65445295D01*
X132133333Y-65445295D02*
X132133333Y-65588152D01*
X132133333Y-65588152D02*
X132085714Y-65683390D01*
X132085714Y-65683390D02*
X132038095Y-65731009D01*
X132038095Y-65731009D02*
X131942857Y-65778628D01*
X131942857Y-65778628D02*
X131561905Y-65778628D01*
X132466667Y-65254819D02*
X133133333Y-65254819D01*
X133133333Y-65254819D02*
X132704762Y-66254819D01*
X111058333Y-58459580D02*
X111010714Y-58507200D01*
X111010714Y-58507200D02*
X110867857Y-58554819D01*
X110867857Y-58554819D02*
X110772619Y-58554819D01*
X110772619Y-58554819D02*
X110629762Y-58507200D01*
X110629762Y-58507200D02*
X110534524Y-58411961D01*
X110534524Y-58411961D02*
X110486905Y-58316723D01*
X110486905Y-58316723D02*
X110439286Y-58126247D01*
X110439286Y-58126247D02*
X110439286Y-57983390D01*
X110439286Y-57983390D02*
X110486905Y-57792914D01*
X110486905Y-57792914D02*
X110534524Y-57697676D01*
X110534524Y-57697676D02*
X110629762Y-57602438D01*
X110629762Y-57602438D02*
X110772619Y-57554819D01*
X110772619Y-57554819D02*
X110867857Y-57554819D01*
X110867857Y-57554819D02*
X111010714Y-57602438D01*
X111010714Y-57602438D02*
X111058333Y-57650057D01*
X111391667Y-57554819D02*
X112010714Y-57554819D01*
X112010714Y-57554819D02*
X111677381Y-57935771D01*
X111677381Y-57935771D02*
X111820238Y-57935771D01*
X111820238Y-57935771D02*
X111915476Y-57983390D01*
X111915476Y-57983390D02*
X111963095Y-58031009D01*
X111963095Y-58031009D02*
X112010714Y-58126247D01*
X112010714Y-58126247D02*
X112010714Y-58364342D01*
X112010714Y-58364342D02*
X111963095Y-58459580D01*
X111963095Y-58459580D02*
X111915476Y-58507200D01*
X111915476Y-58507200D02*
X111820238Y-58554819D01*
X111820238Y-58554819D02*
X111534524Y-58554819D01*
X111534524Y-58554819D02*
X111439286Y-58507200D01*
X111439286Y-58507200D02*
X111391667Y-58459580D01*
X126266667Y-97457200D02*
X126409524Y-97504819D01*
X126409524Y-97504819D02*
X126647619Y-97504819D01*
X126647619Y-97504819D02*
X126742857Y-97457200D01*
X126742857Y-97457200D02*
X126790476Y-97409580D01*
X126790476Y-97409580D02*
X126838095Y-97314342D01*
X126838095Y-97314342D02*
X126838095Y-97219104D01*
X126838095Y-97219104D02*
X126790476Y-97123866D01*
X126790476Y-97123866D02*
X126742857Y-97076247D01*
X126742857Y-97076247D02*
X126647619Y-97028628D01*
X126647619Y-97028628D02*
X126457143Y-96981009D01*
X126457143Y-96981009D02*
X126361905Y-96933390D01*
X126361905Y-96933390D02*
X126314286Y-96885771D01*
X126314286Y-96885771D02*
X126266667Y-96790533D01*
X126266667Y-96790533D02*
X126266667Y-96695295D01*
X126266667Y-96695295D02*
X126314286Y-96600057D01*
X126314286Y-96600057D02*
X126361905Y-96552438D01*
X126361905Y-96552438D02*
X126457143Y-96504819D01*
X126457143Y-96504819D02*
X126695238Y-96504819D01*
X126695238Y-96504819D02*
X126838095Y-96552438D01*
X127171429Y-96504819D02*
X127409524Y-97504819D01*
X127409524Y-97504819D02*
X127600000Y-96790533D01*
X127600000Y-96790533D02*
X127790476Y-97504819D01*
X127790476Y-97504819D02*
X128028572Y-96504819D01*
X128314286Y-96504819D02*
X128933333Y-96504819D01*
X128933333Y-96504819D02*
X128600000Y-96885771D01*
X128600000Y-96885771D02*
X128742857Y-96885771D01*
X128742857Y-96885771D02*
X128838095Y-96933390D01*
X128838095Y-96933390D02*
X128885714Y-96981009D01*
X128885714Y-96981009D02*
X128933333Y-97076247D01*
X128933333Y-97076247D02*
X128933333Y-97314342D01*
X128933333Y-97314342D02*
X128885714Y-97409580D01*
X128885714Y-97409580D02*
X128838095Y-97457200D01*
X128838095Y-97457200D02*
X128742857Y-97504819D01*
X128742857Y-97504819D02*
X128457143Y-97504819D01*
X128457143Y-97504819D02*
X128361905Y-97457200D01*
X128361905Y-97457200D02*
X128314286Y-97409580D01*
X115133333Y-77209580D02*
X115085714Y-77257200D01*
X115085714Y-77257200D02*
X114942857Y-77304819D01*
X114942857Y-77304819D02*
X114847619Y-77304819D01*
X114847619Y-77304819D02*
X114704762Y-77257200D01*
X114704762Y-77257200D02*
X114609524Y-77161961D01*
X114609524Y-77161961D02*
X114561905Y-77066723D01*
X114561905Y-77066723D02*
X114514286Y-76876247D01*
X114514286Y-76876247D02*
X114514286Y-76733390D01*
X114514286Y-76733390D02*
X114561905Y-76542914D01*
X114561905Y-76542914D02*
X114609524Y-76447676D01*
X114609524Y-76447676D02*
X114704762Y-76352438D01*
X114704762Y-76352438D02*
X114847619Y-76304819D01*
X114847619Y-76304819D02*
X114942857Y-76304819D01*
X114942857Y-76304819D02*
X115085714Y-76352438D01*
X115085714Y-76352438D02*
X115133333Y-76400057D01*
X115704762Y-76733390D02*
X115609524Y-76685771D01*
X115609524Y-76685771D02*
X115561905Y-76638152D01*
X115561905Y-76638152D02*
X115514286Y-76542914D01*
X115514286Y-76542914D02*
X115514286Y-76495295D01*
X115514286Y-76495295D02*
X115561905Y-76400057D01*
X115561905Y-76400057D02*
X115609524Y-76352438D01*
X115609524Y-76352438D02*
X115704762Y-76304819D01*
X115704762Y-76304819D02*
X115895238Y-76304819D01*
X115895238Y-76304819D02*
X115990476Y-76352438D01*
X115990476Y-76352438D02*
X116038095Y-76400057D01*
X116038095Y-76400057D02*
X116085714Y-76495295D01*
X116085714Y-76495295D02*
X116085714Y-76542914D01*
X116085714Y-76542914D02*
X116038095Y-76638152D01*
X116038095Y-76638152D02*
X115990476Y-76685771D01*
X115990476Y-76685771D02*
X115895238Y-76733390D01*
X115895238Y-76733390D02*
X115704762Y-76733390D01*
X115704762Y-76733390D02*
X115609524Y-76781009D01*
X115609524Y-76781009D02*
X115561905Y-76828628D01*
X115561905Y-76828628D02*
X115514286Y-76923866D01*
X115514286Y-76923866D02*
X115514286Y-77114342D01*
X115514286Y-77114342D02*
X115561905Y-77209580D01*
X115561905Y-77209580D02*
X115609524Y-77257200D01*
X115609524Y-77257200D02*
X115704762Y-77304819D01*
X115704762Y-77304819D02*
X115895238Y-77304819D01*
X115895238Y-77304819D02*
X115990476Y-77257200D01*
X115990476Y-77257200D02*
X116038095Y-77209580D01*
X116038095Y-77209580D02*
X116085714Y-77114342D01*
X116085714Y-77114342D02*
X116085714Y-76923866D01*
X116085714Y-76923866D02*
X116038095Y-76828628D01*
X116038095Y-76828628D02*
X115990476Y-76781009D01*
X115990476Y-76781009D02*
X115895238Y-76733390D01*
X125157142Y-77654819D02*
X124823809Y-77178628D01*
X124585714Y-77654819D02*
X124585714Y-76654819D01*
X124585714Y-76654819D02*
X124966666Y-76654819D01*
X124966666Y-76654819D02*
X125061904Y-76702438D01*
X125061904Y-76702438D02*
X125109523Y-76750057D01*
X125109523Y-76750057D02*
X125157142Y-76845295D01*
X125157142Y-76845295D02*
X125157142Y-76988152D01*
X125157142Y-76988152D02*
X125109523Y-77083390D01*
X125109523Y-77083390D02*
X125061904Y-77131009D01*
X125061904Y-77131009D02*
X124966666Y-77178628D01*
X124966666Y-77178628D02*
X124585714Y-77178628D01*
X126109523Y-77654819D02*
X125538095Y-77654819D01*
X125823809Y-77654819D02*
X125823809Y-76654819D01*
X125823809Y-76654819D02*
X125728571Y-76797676D01*
X125728571Y-76797676D02*
X125633333Y-76892914D01*
X125633333Y-76892914D02*
X125538095Y-76940533D01*
X126728571Y-76654819D02*
X126823809Y-76654819D01*
X126823809Y-76654819D02*
X126919047Y-76702438D01*
X126919047Y-76702438D02*
X126966666Y-76750057D01*
X126966666Y-76750057D02*
X127014285Y-76845295D01*
X127014285Y-76845295D02*
X127061904Y-77035771D01*
X127061904Y-77035771D02*
X127061904Y-77273866D01*
X127061904Y-77273866D02*
X127014285Y-77464342D01*
X127014285Y-77464342D02*
X126966666Y-77559580D01*
X126966666Y-77559580D02*
X126919047Y-77607200D01*
X126919047Y-77607200D02*
X126823809Y-77654819D01*
X126823809Y-77654819D02*
X126728571Y-77654819D01*
X126728571Y-77654819D02*
X126633333Y-77607200D01*
X126633333Y-77607200D02*
X126585714Y-77559580D01*
X126585714Y-77559580D02*
X126538095Y-77464342D01*
X126538095Y-77464342D02*
X126490476Y-77273866D01*
X126490476Y-77273866D02*
X126490476Y-77035771D01*
X126490476Y-77035771D02*
X126538095Y-76845295D01*
X126538095Y-76845295D02*
X126585714Y-76750057D01*
X126585714Y-76750057D02*
X126633333Y-76702438D01*
X126633333Y-76702438D02*
X126728571Y-76654819D01*
X111058333Y-54459580D02*
X111010714Y-54507200D01*
X111010714Y-54507200D02*
X110867857Y-54554819D01*
X110867857Y-54554819D02*
X110772619Y-54554819D01*
X110772619Y-54554819D02*
X110629762Y-54507200D01*
X110629762Y-54507200D02*
X110534524Y-54411961D01*
X110534524Y-54411961D02*
X110486905Y-54316723D01*
X110486905Y-54316723D02*
X110439286Y-54126247D01*
X110439286Y-54126247D02*
X110439286Y-53983390D01*
X110439286Y-53983390D02*
X110486905Y-53792914D01*
X110486905Y-53792914D02*
X110534524Y-53697676D01*
X110534524Y-53697676D02*
X110629762Y-53602438D01*
X110629762Y-53602438D02*
X110772619Y-53554819D01*
X110772619Y-53554819D02*
X110867857Y-53554819D01*
X110867857Y-53554819D02*
X111010714Y-53602438D01*
X111010714Y-53602438D02*
X111058333Y-53650057D01*
X111439286Y-53650057D02*
X111486905Y-53602438D01*
X111486905Y-53602438D02*
X111582143Y-53554819D01*
X111582143Y-53554819D02*
X111820238Y-53554819D01*
X111820238Y-53554819D02*
X111915476Y-53602438D01*
X111915476Y-53602438D02*
X111963095Y-53650057D01*
X111963095Y-53650057D02*
X112010714Y-53745295D01*
X112010714Y-53745295D02*
X112010714Y-53840533D01*
X112010714Y-53840533D02*
X111963095Y-53983390D01*
X111963095Y-53983390D02*
X111391667Y-54554819D01*
X111391667Y-54554819D02*
X112010714Y-54554819D01*
X138569642Y-71059580D02*
X138522023Y-71107200D01*
X138522023Y-71107200D02*
X138379166Y-71154819D01*
X138379166Y-71154819D02*
X138283928Y-71154819D01*
X138283928Y-71154819D02*
X138141071Y-71107200D01*
X138141071Y-71107200D02*
X138045833Y-71011961D01*
X138045833Y-71011961D02*
X137998214Y-70916723D01*
X137998214Y-70916723D02*
X137950595Y-70726247D01*
X137950595Y-70726247D02*
X137950595Y-70583390D01*
X137950595Y-70583390D02*
X137998214Y-70392914D01*
X137998214Y-70392914D02*
X138045833Y-70297676D01*
X138045833Y-70297676D02*
X138141071Y-70202438D01*
X138141071Y-70202438D02*
X138283928Y-70154819D01*
X138283928Y-70154819D02*
X138379166Y-70154819D01*
X138379166Y-70154819D02*
X138522023Y-70202438D01*
X138522023Y-70202438D02*
X138569642Y-70250057D01*
X139522023Y-71154819D02*
X138950595Y-71154819D01*
X139236309Y-71154819D02*
X139236309Y-70154819D01*
X139236309Y-70154819D02*
X139141071Y-70297676D01*
X139141071Y-70297676D02*
X139045833Y-70392914D01*
X139045833Y-70392914D02*
X138950595Y-70440533D01*
X140474404Y-71154819D02*
X139902976Y-71154819D01*
X140188690Y-71154819D02*
X140188690Y-70154819D01*
X140188690Y-70154819D02*
X140093452Y-70297676D01*
X140093452Y-70297676D02*
X139998214Y-70392914D01*
X139998214Y-70392914D02*
X139902976Y-70440533D01*
X115457142Y-58554819D02*
X115123809Y-58078628D01*
X114885714Y-58554819D02*
X114885714Y-57554819D01*
X114885714Y-57554819D02*
X115266666Y-57554819D01*
X115266666Y-57554819D02*
X115361904Y-57602438D01*
X115361904Y-57602438D02*
X115409523Y-57650057D01*
X115409523Y-57650057D02*
X115457142Y-57745295D01*
X115457142Y-57745295D02*
X115457142Y-57888152D01*
X115457142Y-57888152D02*
X115409523Y-57983390D01*
X115409523Y-57983390D02*
X115361904Y-58031009D01*
X115361904Y-58031009D02*
X115266666Y-58078628D01*
X115266666Y-58078628D02*
X114885714Y-58078628D01*
X116409523Y-58554819D02*
X115838095Y-58554819D01*
X116123809Y-58554819D02*
X116123809Y-57554819D01*
X116123809Y-57554819D02*
X116028571Y-57697676D01*
X116028571Y-57697676D02*
X115933333Y-57792914D01*
X115933333Y-57792914D02*
X115838095Y-57840533D01*
X116790476Y-57650057D02*
X116838095Y-57602438D01*
X116838095Y-57602438D02*
X116933333Y-57554819D01*
X116933333Y-57554819D02*
X117171428Y-57554819D01*
X117171428Y-57554819D02*
X117266666Y-57602438D01*
X117266666Y-57602438D02*
X117314285Y-57650057D01*
X117314285Y-57650057D02*
X117361904Y-57745295D01*
X117361904Y-57745295D02*
X117361904Y-57840533D01*
X117361904Y-57840533D02*
X117314285Y-57983390D01*
X117314285Y-57983390D02*
X116742857Y-58554819D01*
X116742857Y-58554819D02*
X117361904Y-58554819D01*
X100433333Y-82559580D02*
X100385714Y-82607200D01*
X100385714Y-82607200D02*
X100242857Y-82654819D01*
X100242857Y-82654819D02*
X100147619Y-82654819D01*
X100147619Y-82654819D02*
X100004762Y-82607200D01*
X100004762Y-82607200D02*
X99909524Y-82511961D01*
X99909524Y-82511961D02*
X99861905Y-82416723D01*
X99861905Y-82416723D02*
X99814286Y-82226247D01*
X99814286Y-82226247D02*
X99814286Y-82083390D01*
X99814286Y-82083390D02*
X99861905Y-81892914D01*
X99861905Y-81892914D02*
X99909524Y-81797676D01*
X99909524Y-81797676D02*
X100004762Y-81702438D01*
X100004762Y-81702438D02*
X100147619Y-81654819D01*
X100147619Y-81654819D02*
X100242857Y-81654819D01*
X100242857Y-81654819D02*
X100385714Y-81702438D01*
X100385714Y-81702438D02*
X100433333Y-81750057D01*
X101290476Y-81654819D02*
X101100000Y-81654819D01*
X101100000Y-81654819D02*
X101004762Y-81702438D01*
X101004762Y-81702438D02*
X100957143Y-81750057D01*
X100957143Y-81750057D02*
X100861905Y-81892914D01*
X100861905Y-81892914D02*
X100814286Y-82083390D01*
X100814286Y-82083390D02*
X100814286Y-82464342D01*
X100814286Y-82464342D02*
X100861905Y-82559580D01*
X100861905Y-82559580D02*
X100909524Y-82607200D01*
X100909524Y-82607200D02*
X101004762Y-82654819D01*
X101004762Y-82654819D02*
X101195238Y-82654819D01*
X101195238Y-82654819D02*
X101290476Y-82607200D01*
X101290476Y-82607200D02*
X101338095Y-82559580D01*
X101338095Y-82559580D02*
X101385714Y-82464342D01*
X101385714Y-82464342D02*
X101385714Y-82226247D01*
X101385714Y-82226247D02*
X101338095Y-82131009D01*
X101338095Y-82131009D02*
X101290476Y-82083390D01*
X101290476Y-82083390D02*
X101195238Y-82035771D01*
X101195238Y-82035771D02*
X101004762Y-82035771D01*
X101004762Y-82035771D02*
X100909524Y-82083390D01*
X100909524Y-82083390D02*
X100861905Y-82131009D01*
X100861905Y-82131009D02*
X100814286Y-82226247D01*
X109233333Y-74454819D02*
X108900000Y-73978628D01*
X108661905Y-74454819D02*
X108661905Y-73454819D01*
X108661905Y-73454819D02*
X109042857Y-73454819D01*
X109042857Y-73454819D02*
X109138095Y-73502438D01*
X109138095Y-73502438D02*
X109185714Y-73550057D01*
X109185714Y-73550057D02*
X109233333Y-73645295D01*
X109233333Y-73645295D02*
X109233333Y-73788152D01*
X109233333Y-73788152D02*
X109185714Y-73883390D01*
X109185714Y-73883390D02*
X109138095Y-73931009D01*
X109138095Y-73931009D02*
X109042857Y-73978628D01*
X109042857Y-73978628D02*
X108661905Y-73978628D01*
X110090476Y-73788152D02*
X110090476Y-74454819D01*
X109852381Y-73407200D02*
X109614286Y-74121485D01*
X109614286Y-74121485D02*
X110233333Y-74121485D01*
X119733333Y-77454819D02*
X119400000Y-76978628D01*
X119161905Y-77454819D02*
X119161905Y-76454819D01*
X119161905Y-76454819D02*
X119542857Y-76454819D01*
X119542857Y-76454819D02*
X119638095Y-76502438D01*
X119638095Y-76502438D02*
X119685714Y-76550057D01*
X119685714Y-76550057D02*
X119733333Y-76645295D01*
X119733333Y-76645295D02*
X119733333Y-76788152D01*
X119733333Y-76788152D02*
X119685714Y-76883390D01*
X119685714Y-76883390D02*
X119638095Y-76931009D01*
X119638095Y-76931009D02*
X119542857Y-76978628D01*
X119542857Y-76978628D02*
X119161905Y-76978628D01*
X120209524Y-77454819D02*
X120400000Y-77454819D01*
X120400000Y-77454819D02*
X120495238Y-77407200D01*
X120495238Y-77407200D02*
X120542857Y-77359580D01*
X120542857Y-77359580D02*
X120638095Y-77216723D01*
X120638095Y-77216723D02*
X120685714Y-77026247D01*
X120685714Y-77026247D02*
X120685714Y-76645295D01*
X120685714Y-76645295D02*
X120638095Y-76550057D01*
X120638095Y-76550057D02*
X120590476Y-76502438D01*
X120590476Y-76502438D02*
X120495238Y-76454819D01*
X120495238Y-76454819D02*
X120304762Y-76454819D01*
X120304762Y-76454819D02*
X120209524Y-76502438D01*
X120209524Y-76502438D02*
X120161905Y-76550057D01*
X120161905Y-76550057D02*
X120114286Y-76645295D01*
X120114286Y-76645295D02*
X120114286Y-76883390D01*
X120114286Y-76883390D02*
X120161905Y-76978628D01*
X120161905Y-76978628D02*
X120209524Y-77026247D01*
X120209524Y-77026247D02*
X120304762Y-77073866D01*
X120304762Y-77073866D02*
X120495238Y-77073866D01*
X120495238Y-77073866D02*
X120590476Y-77026247D01*
X120590476Y-77026247D02*
X120638095Y-76978628D01*
X120638095Y-76978628D02*
X120685714Y-76883390D01*
X109233333Y-70454819D02*
X108900000Y-69978628D01*
X108661905Y-70454819D02*
X108661905Y-69454819D01*
X108661905Y-69454819D02*
X109042857Y-69454819D01*
X109042857Y-69454819D02*
X109138095Y-69502438D01*
X109138095Y-69502438D02*
X109185714Y-69550057D01*
X109185714Y-69550057D02*
X109233333Y-69645295D01*
X109233333Y-69645295D02*
X109233333Y-69788152D01*
X109233333Y-69788152D02*
X109185714Y-69883390D01*
X109185714Y-69883390D02*
X109138095Y-69931009D01*
X109138095Y-69931009D02*
X109042857Y-69978628D01*
X109042857Y-69978628D02*
X108661905Y-69978628D01*
X110185714Y-70454819D02*
X109614286Y-70454819D01*
X109900000Y-70454819D02*
X109900000Y-69454819D01*
X109900000Y-69454819D02*
X109804762Y-69597676D01*
X109804762Y-69597676D02*
X109709524Y-69692914D01*
X109709524Y-69692914D02*
X109614286Y-69740533D01*
X117233333Y-77354819D02*
X116900000Y-76878628D01*
X116661905Y-77354819D02*
X116661905Y-76354819D01*
X116661905Y-76354819D02*
X117042857Y-76354819D01*
X117042857Y-76354819D02*
X117138095Y-76402438D01*
X117138095Y-76402438D02*
X117185714Y-76450057D01*
X117185714Y-76450057D02*
X117233333Y-76545295D01*
X117233333Y-76545295D02*
X117233333Y-76688152D01*
X117233333Y-76688152D02*
X117185714Y-76783390D01*
X117185714Y-76783390D02*
X117138095Y-76831009D01*
X117138095Y-76831009D02*
X117042857Y-76878628D01*
X117042857Y-76878628D02*
X116661905Y-76878628D01*
X117804762Y-76783390D02*
X117709524Y-76735771D01*
X117709524Y-76735771D02*
X117661905Y-76688152D01*
X117661905Y-76688152D02*
X117614286Y-76592914D01*
X117614286Y-76592914D02*
X117614286Y-76545295D01*
X117614286Y-76545295D02*
X117661905Y-76450057D01*
X117661905Y-76450057D02*
X117709524Y-76402438D01*
X117709524Y-76402438D02*
X117804762Y-76354819D01*
X117804762Y-76354819D02*
X117995238Y-76354819D01*
X117995238Y-76354819D02*
X118090476Y-76402438D01*
X118090476Y-76402438D02*
X118138095Y-76450057D01*
X118138095Y-76450057D02*
X118185714Y-76545295D01*
X118185714Y-76545295D02*
X118185714Y-76592914D01*
X118185714Y-76592914D02*
X118138095Y-76688152D01*
X118138095Y-76688152D02*
X118090476Y-76735771D01*
X118090476Y-76735771D02*
X117995238Y-76783390D01*
X117995238Y-76783390D02*
X117804762Y-76783390D01*
X117804762Y-76783390D02*
X117709524Y-76831009D01*
X117709524Y-76831009D02*
X117661905Y-76878628D01*
X117661905Y-76878628D02*
X117614286Y-76973866D01*
X117614286Y-76973866D02*
X117614286Y-77164342D01*
X117614286Y-77164342D02*
X117661905Y-77259580D01*
X117661905Y-77259580D02*
X117709524Y-77307200D01*
X117709524Y-77307200D02*
X117804762Y-77354819D01*
X117804762Y-77354819D02*
X117995238Y-77354819D01*
X117995238Y-77354819D02*
X118090476Y-77307200D01*
X118090476Y-77307200D02*
X118138095Y-77259580D01*
X118138095Y-77259580D02*
X118185714Y-77164342D01*
X118185714Y-77164342D02*
X118185714Y-76973866D01*
X118185714Y-76973866D02*
X118138095Y-76878628D01*
X118138095Y-76878628D02*
X118090476Y-76831009D01*
X118090476Y-76831009D02*
X117995238Y-76783390D01*
X113133333Y-77259580D02*
X113085714Y-77307200D01*
X113085714Y-77307200D02*
X112942857Y-77354819D01*
X112942857Y-77354819D02*
X112847619Y-77354819D01*
X112847619Y-77354819D02*
X112704762Y-77307200D01*
X112704762Y-77307200D02*
X112609524Y-77211961D01*
X112609524Y-77211961D02*
X112561905Y-77116723D01*
X112561905Y-77116723D02*
X112514286Y-76926247D01*
X112514286Y-76926247D02*
X112514286Y-76783390D01*
X112514286Y-76783390D02*
X112561905Y-76592914D01*
X112561905Y-76592914D02*
X112609524Y-76497676D01*
X112609524Y-76497676D02*
X112704762Y-76402438D01*
X112704762Y-76402438D02*
X112847619Y-76354819D01*
X112847619Y-76354819D02*
X112942857Y-76354819D01*
X112942857Y-76354819D02*
X113085714Y-76402438D01*
X113085714Y-76402438D02*
X113133333Y-76450057D01*
X113609524Y-77354819D02*
X113800000Y-77354819D01*
X113800000Y-77354819D02*
X113895238Y-77307200D01*
X113895238Y-77307200D02*
X113942857Y-77259580D01*
X113942857Y-77259580D02*
X114038095Y-77116723D01*
X114038095Y-77116723D02*
X114085714Y-76926247D01*
X114085714Y-76926247D02*
X114085714Y-76545295D01*
X114085714Y-76545295D02*
X114038095Y-76450057D01*
X114038095Y-76450057D02*
X113990476Y-76402438D01*
X113990476Y-76402438D02*
X113895238Y-76354819D01*
X113895238Y-76354819D02*
X113704762Y-76354819D01*
X113704762Y-76354819D02*
X113609524Y-76402438D01*
X113609524Y-76402438D02*
X113561905Y-76450057D01*
X113561905Y-76450057D02*
X113514286Y-76545295D01*
X113514286Y-76545295D02*
X113514286Y-76783390D01*
X113514286Y-76783390D02*
X113561905Y-76878628D01*
X113561905Y-76878628D02*
X113609524Y-76926247D01*
X113609524Y-76926247D02*
X113704762Y-76973866D01*
X113704762Y-76973866D02*
X113895238Y-76973866D01*
X113895238Y-76973866D02*
X113990476Y-76926247D01*
X113990476Y-76926247D02*
X114038095Y-76878628D01*
X114038095Y-76878628D02*
X114085714Y-76783390D01*
X97257142Y-109537200D02*
X99542857Y-109537200D01*
X98399999Y-110680057D02*
X98399999Y-108394342D01*
X168166666Y-68594819D02*
X168166666Y-69309104D01*
X168166666Y-69309104D02*
X168119047Y-69451961D01*
X168119047Y-69451961D02*
X168023809Y-69547200D01*
X168023809Y-69547200D02*
X167880952Y-69594819D01*
X167880952Y-69594819D02*
X167785714Y-69594819D01*
X169071428Y-68928152D02*
X169071428Y-69594819D01*
X168833333Y-68547200D02*
X168595238Y-69261485D01*
X168595238Y-69261485D02*
X169214285Y-69261485D01*
X132107142Y-62759580D02*
X132059523Y-62807200D01*
X132059523Y-62807200D02*
X131916666Y-62854819D01*
X131916666Y-62854819D02*
X131821428Y-62854819D01*
X131821428Y-62854819D02*
X131678571Y-62807200D01*
X131678571Y-62807200D02*
X131583333Y-62711961D01*
X131583333Y-62711961D02*
X131535714Y-62616723D01*
X131535714Y-62616723D02*
X131488095Y-62426247D01*
X131488095Y-62426247D02*
X131488095Y-62283390D01*
X131488095Y-62283390D02*
X131535714Y-62092914D01*
X131535714Y-62092914D02*
X131583333Y-61997676D01*
X131583333Y-61997676D02*
X131678571Y-61902438D01*
X131678571Y-61902438D02*
X131821428Y-61854819D01*
X131821428Y-61854819D02*
X131916666Y-61854819D01*
X131916666Y-61854819D02*
X132059523Y-61902438D01*
X132059523Y-61902438D02*
X132107142Y-61950057D01*
X133059523Y-62854819D02*
X132488095Y-62854819D01*
X132773809Y-62854819D02*
X132773809Y-61854819D01*
X132773809Y-61854819D02*
X132678571Y-61997676D01*
X132678571Y-61997676D02*
X132583333Y-62092914D01*
X132583333Y-62092914D02*
X132488095Y-62140533D01*
X133392857Y-61854819D02*
X134011904Y-61854819D01*
X134011904Y-61854819D02*
X133678571Y-62235771D01*
X133678571Y-62235771D02*
X133821428Y-62235771D01*
X133821428Y-62235771D02*
X133916666Y-62283390D01*
X133916666Y-62283390D02*
X133964285Y-62331009D01*
X133964285Y-62331009D02*
X134011904Y-62426247D01*
X134011904Y-62426247D02*
X134011904Y-62664342D01*
X134011904Y-62664342D02*
X133964285Y-62759580D01*
X133964285Y-62759580D02*
X133916666Y-62807200D01*
X133916666Y-62807200D02*
X133821428Y-62854819D01*
X133821428Y-62854819D02*
X133535714Y-62854819D01*
X133535714Y-62854819D02*
X133440476Y-62807200D01*
X133440476Y-62807200D02*
X133392857Y-62759580D01*
X109233333Y-72454819D02*
X108900000Y-71978628D01*
X108661905Y-72454819D02*
X108661905Y-71454819D01*
X108661905Y-71454819D02*
X109042857Y-71454819D01*
X109042857Y-71454819D02*
X109138095Y-71502438D01*
X109138095Y-71502438D02*
X109185714Y-71550057D01*
X109185714Y-71550057D02*
X109233333Y-71645295D01*
X109233333Y-71645295D02*
X109233333Y-71788152D01*
X109233333Y-71788152D02*
X109185714Y-71883390D01*
X109185714Y-71883390D02*
X109138095Y-71931009D01*
X109138095Y-71931009D02*
X109042857Y-71978628D01*
X109042857Y-71978628D02*
X108661905Y-71978628D01*
X109614286Y-71550057D02*
X109661905Y-71502438D01*
X109661905Y-71502438D02*
X109757143Y-71454819D01*
X109757143Y-71454819D02*
X109995238Y-71454819D01*
X109995238Y-71454819D02*
X110090476Y-71502438D01*
X110090476Y-71502438D02*
X110138095Y-71550057D01*
X110138095Y-71550057D02*
X110185714Y-71645295D01*
X110185714Y-71645295D02*
X110185714Y-71740533D01*
X110185714Y-71740533D02*
X110138095Y-71883390D01*
X110138095Y-71883390D02*
X109566667Y-72454819D01*
X109566667Y-72454819D02*
X110185714Y-72454819D01*
X135066667Y-97457200D02*
X135209524Y-97504819D01*
X135209524Y-97504819D02*
X135447619Y-97504819D01*
X135447619Y-97504819D02*
X135542857Y-97457200D01*
X135542857Y-97457200D02*
X135590476Y-97409580D01*
X135590476Y-97409580D02*
X135638095Y-97314342D01*
X135638095Y-97314342D02*
X135638095Y-97219104D01*
X135638095Y-97219104D02*
X135590476Y-97123866D01*
X135590476Y-97123866D02*
X135542857Y-97076247D01*
X135542857Y-97076247D02*
X135447619Y-97028628D01*
X135447619Y-97028628D02*
X135257143Y-96981009D01*
X135257143Y-96981009D02*
X135161905Y-96933390D01*
X135161905Y-96933390D02*
X135114286Y-96885771D01*
X135114286Y-96885771D02*
X135066667Y-96790533D01*
X135066667Y-96790533D02*
X135066667Y-96695295D01*
X135066667Y-96695295D02*
X135114286Y-96600057D01*
X135114286Y-96600057D02*
X135161905Y-96552438D01*
X135161905Y-96552438D02*
X135257143Y-96504819D01*
X135257143Y-96504819D02*
X135495238Y-96504819D01*
X135495238Y-96504819D02*
X135638095Y-96552438D01*
X135971429Y-96504819D02*
X136209524Y-97504819D01*
X136209524Y-97504819D02*
X136400000Y-96790533D01*
X136400000Y-96790533D02*
X136590476Y-97504819D01*
X136590476Y-97504819D02*
X136828572Y-96504819D01*
X137638095Y-96838152D02*
X137638095Y-97504819D01*
X137400000Y-96457200D02*
X137161905Y-97171485D01*
X137161905Y-97171485D02*
X137780952Y-97171485D01*
%TO.C,C7*%
D11*
X102015000Y-79488748D02*
X102015000Y-80011252D01*
X103485000Y-79488748D02*
X103485000Y-80011252D01*
%TO.C,C10*%
X119561252Y-59365000D02*
X119038748Y-59365000D01*
X119561252Y-60835000D02*
X119038748Y-60835000D01*
%TO.C,C12*%
X135885436Y-67965000D02*
X136339564Y-67965000D01*
X135885436Y-69435000D02*
X136339564Y-69435000D01*
%TO.C,U2*%
X108727500Y-77990000D02*
X110547500Y-77990000D01*
X108727500Y-78040000D02*
X108727500Y-77990000D01*
X108727500Y-81110000D02*
X108727500Y-81060000D01*
X110547500Y-77990000D02*
X110547500Y-78040000D01*
X110547500Y-79160000D02*
X110547500Y-79940000D01*
X110547500Y-81060000D02*
X110547500Y-81110000D01*
X110547500Y-81110000D02*
X108727500Y-81110000D01*
X108187500Y-78040000D02*
X107947500Y-77710000D01*
X108427500Y-77710000D01*
X108187500Y-78040000D01*
G36*
X108187500Y-78040000D02*
G01*
X107947500Y-77710000D01*
X108427500Y-77710000D01*
X108187500Y-78040000D01*
G37*
%TO.C,R14*%
X104865000Y-79485436D02*
X104865000Y-79939564D01*
X106335000Y-79485436D02*
X106335000Y-79939564D01*
%TO.C,R11*%
X122165000Y-79285436D02*
X122165000Y-79739564D01*
X123635000Y-79285436D02*
X123635000Y-79739564D01*
%TO.C,D1*%
X107337500Y-61260000D02*
X110022500Y-61260000D01*
X110022500Y-59340000D02*
X107337500Y-59340000D01*
X110022500Y-61260000D02*
X110022500Y-59340000D01*
%TO.C,SW1*%
X107200000Y-94300000D02*
X107200000Y-92300000D01*
X108250000Y-91000000D02*
X108700000Y-90550000D01*
X108250000Y-95600000D02*
X108700000Y-96050000D01*
X111200000Y-90550000D02*
X108700000Y-90550000D01*
X111200000Y-96050000D02*
X108700000Y-96050000D01*
X111650000Y-91000000D02*
X111200000Y-90550000D01*
X111650000Y-95600000D02*
X111200000Y-96050000D01*
X112700000Y-94300000D02*
X112700000Y-92300000D01*
%TO.C,C5*%
X107965000Y-123511252D02*
X107965000Y-122988748D01*
X109435000Y-123511252D02*
X109435000Y-122988748D01*
%TO.C,J1*%
X95310000Y-66930000D02*
X97010000Y-66930000D01*
X95310000Y-76270000D02*
X97010000Y-76270000D01*
%TO.C,J5*%
X114130000Y-82370000D02*
X115460000Y-82370000D01*
X114130000Y-83700000D02*
X114130000Y-82370000D01*
X116730000Y-82370000D02*
X134570000Y-82370000D01*
X116730000Y-85030000D02*
X116730000Y-82370000D01*
X116730000Y-85030000D02*
X134570000Y-85030000D01*
X134570000Y-85030000D02*
X134570000Y-82370000D01*
%TO.C,R6*%
X123865000Y-72172936D02*
X123865000Y-72627064D01*
X125335000Y-72172936D02*
X125335000Y-72627064D01*
%TO.C,R5*%
X104265000Y-64572936D02*
X104265000Y-65027064D01*
X105735000Y-64572936D02*
X105735000Y-65027064D01*
%TO.C,R3*%
X101965000Y-65039564D02*
X101965000Y-64585436D01*
X103435000Y-65039564D02*
X103435000Y-64585436D01*
%TO.C,C1*%
X108611252Y-55465000D02*
X108088748Y-55465000D01*
X108611252Y-56935000D02*
X108088748Y-56935000D01*
%TO.C,Q2*%
X120400000Y-50900000D02*
X116550000Y-50900000D01*
X116157617Y-51487736D02*
G75*
G02*
X116550000Y-50900000I2302383J-1112264D01*
G01*
X117400000Y-54950000D02*
G75*
G02*
X116123537Y-53689513I1060000J2350000D01*
G01*
X120400000Y-50900000D02*
G75*
G02*
X120782631Y-51477955I-1940000J-1700000D01*
G01*
X120807774Y-53694786D02*
G75*
G02*
X119550000Y-54950000I-2347774J1094786D01*
G01*
X121250000Y-51580000D02*
X120910000Y-51110000D01*
X121590000Y-51110000D01*
X121250000Y-51580000D01*
G36*
X121250000Y-51580000D02*
G01*
X120910000Y-51110000D01*
X121590000Y-51110000D01*
X121250000Y-51580000D01*
G37*
%TO.C,SW2*%
X116050000Y-94300000D02*
X116050000Y-92300000D01*
X117100000Y-91000000D02*
X117550000Y-90550000D01*
X117100000Y-95600000D02*
X117550000Y-96050000D01*
X120050000Y-90550000D02*
X117550000Y-90550000D01*
X120050000Y-96050000D02*
X117550000Y-96050000D01*
X120500000Y-91000000D02*
X120050000Y-90550000D01*
X120500000Y-95600000D02*
X120050000Y-96050000D01*
X121550000Y-94300000D02*
X121550000Y-92300000D01*
%TO.C,Q1*%
X106940000Y-63577500D02*
X107940000Y-63577500D01*
X106940000Y-65097500D02*
X106940000Y-63577500D01*
X106990000Y-65097500D02*
X106940000Y-65097500D01*
X108890000Y-65097500D02*
X108110000Y-65097500D01*
X109060000Y-63577500D02*
X110060000Y-63577500D01*
X110060000Y-63577500D02*
X110060000Y-65097500D01*
X110060000Y-65097500D02*
X110010000Y-65097500D01*
X108450000Y-65877500D02*
X108120000Y-65637500D01*
X108450000Y-65397500D01*
X108450000Y-65877500D01*
G36*
X108450000Y-65877500D02*
G01*
X108120000Y-65637500D01*
X108450000Y-65397500D01*
X108450000Y-65877500D01*
G37*
%TO.C,C4*%
X126477500Y-72826248D02*
X126477500Y-73348752D01*
X127947500Y-72826248D02*
X127947500Y-73348752D01*
%TO.C,R7*%
X129827064Y-64965000D02*
X129372936Y-64965000D01*
X129827064Y-66435000D02*
X129372936Y-66435000D01*
%TO.C,C3*%
X108611252Y-57565000D02*
X108088748Y-57565000D01*
X108611252Y-59035000D02*
X108088748Y-59035000D01*
%TO.C,SW3*%
X124850000Y-94300000D02*
X124850000Y-92300000D01*
X125900000Y-91000000D02*
X126350000Y-90550000D01*
X125900000Y-95600000D02*
X126350000Y-96050000D01*
X128850000Y-90550000D02*
X126350000Y-90550000D01*
X128850000Y-96050000D02*
X126350000Y-96050000D01*
X129300000Y-91000000D02*
X128850000Y-90550000D01*
X129300000Y-95600000D02*
X128850000Y-96050000D01*
X130350000Y-94300000D02*
X130350000Y-92300000D01*
%TO.C,C8*%
X114565000Y-79288748D02*
X114565000Y-79811252D01*
X116035000Y-79288748D02*
X116035000Y-79811252D01*
%TO.C,R10*%
X125065000Y-79285436D02*
X125065000Y-79739564D01*
X126535000Y-79285436D02*
X126535000Y-79739564D01*
%TO.C,C2*%
X108611252Y-53365000D02*
X108088748Y-53365000D01*
X108611252Y-54835000D02*
X108088748Y-54835000D01*
%TO.C,C11*%
X136352064Y-69965000D02*
X135897936Y-69965000D01*
X136352064Y-71435000D02*
X135897936Y-71435000D01*
%TO.C,R12*%
X119527064Y-57365000D02*
X119072936Y-57365000D01*
X119527064Y-58835000D02*
X119072936Y-58835000D01*
%TO.C,C6*%
X99915000Y-79488748D02*
X99915000Y-80011252D01*
X101385000Y-79488748D02*
X101385000Y-80011252D01*
%TO.C,R4*%
X106572936Y-74735000D02*
X107027064Y-74735000D01*
X106572936Y-73265000D02*
X107027064Y-73265000D01*
%TO.C,R9*%
X119265000Y-79272936D02*
X119265000Y-79727064D01*
X120735000Y-79272936D02*
X120735000Y-79727064D01*
%TO.C,Y1*%
X131557000Y-71128000D02*
G75*
G02*
X131557000Y-68272000I742500J1428000D01*
G01*
X133043000Y-68272000D02*
G75*
G02*
X133043000Y-71128000I-742500J-1428000D01*
G01*
%TO.C,U1*%
X118440000Y-62327500D02*
X118915000Y-62327500D01*
X118440000Y-62802500D02*
X118440000Y-62327500D01*
X118440000Y-69547500D02*
X118440000Y-69072500D01*
X118915000Y-69547500D02*
X118440000Y-69547500D01*
X125185000Y-62327500D02*
X125660000Y-62327500D01*
X125660000Y-62327500D02*
X125660000Y-62802500D01*
X125660000Y-69072500D02*
X125660000Y-69547500D01*
X125660000Y-69547500D02*
X125185000Y-69547500D01*
X126520000Y-68927500D02*
X126190000Y-68687500D01*
X126520000Y-68447500D01*
X126520000Y-68927500D01*
G36*
X126520000Y-68927500D02*
G01*
X126190000Y-68687500D01*
X126520000Y-68447500D01*
X126520000Y-68927500D01*
G37*
%TO.C,R1*%
X107027064Y-69065000D02*
X106572936Y-69065000D01*
X107027064Y-70535000D02*
X106572936Y-70535000D01*
%TO.C,R8*%
X116665000Y-79272936D02*
X116665000Y-79727064D01*
X118135000Y-79272936D02*
X118135000Y-79727064D01*
%TO.C,C9*%
X112465000Y-79288748D02*
X112465000Y-79811252D01*
X113935000Y-79288748D02*
X113935000Y-79811252D01*
%TO.C,BT1*%
X91570000Y-98400000D02*
X169750000Y-98400000D01*
X91570000Y-120600000D02*
X91570000Y-98400000D01*
X169750000Y-98400000D02*
X169750000Y-120600000D01*
X169750000Y-120600000D02*
X91570000Y-120600000D01*
%TO.C,J4*%
X167120000Y-70140000D02*
X168500000Y-70140000D01*
X167120000Y-71520000D02*
X167120000Y-70140000D01*
X167120000Y-72790000D02*
X167120000Y-80520000D01*
X167120000Y-72790000D02*
X169880000Y-72790000D01*
X167120000Y-80520000D02*
X169880000Y-80520000D01*
X169880000Y-72790000D02*
X169880000Y-80520000D01*
%TO.C,C13*%
X129238748Y-61665000D02*
X129761252Y-61665000D01*
X129238748Y-63135000D02*
X129761252Y-63135000D01*
%TO.C,R2*%
X107014564Y-71165000D02*
X106560436Y-71165000D01*
X107014564Y-72635000D02*
X106560436Y-72635000D01*
%TO.C,SW4*%
X133650000Y-94300000D02*
X133650000Y-92300000D01*
X134700000Y-91000000D02*
X135150000Y-90550000D01*
X134700000Y-95600000D02*
X135150000Y-96050000D01*
X137650000Y-90550000D02*
X135150000Y-90550000D01*
X137650000Y-96050000D02*
X135150000Y-96050000D01*
X138100000Y-91000000D02*
X137650000Y-90550000D01*
X138100000Y-95600000D02*
X137650000Y-96050000D01*
X139150000Y-94300000D02*
X139150000Y-92300000D01*
%TD*%
M02*
