%TF.GenerationSoftware,KiCad,Pcbnew,10.0.0*%
%TF.CreationDate,2026-04-22T16:36:54+05:30*%
%TF.ProjectId,F411-TableClock,46343131-2d54-4616-926c-65436c6f636b,rev?*%
%TF.SameCoordinates,Original*%
%TF.FileFunction,Legend,Bot*%
%TF.FilePolarity,Positive*%
%FSLAX46Y46*%
G04 Gerber Fmt 4.6, Leading zero omitted, Abs format (unit mm)*
G04 Created by KiCad (PCBNEW 10.0.0) date 2026-04-22 16:36:54*
%MOMM*%
%LPD*%
G01*
G04 APERTURE LIST*
%ADD10C,0.150000*%
%ADD11C,0.120000*%
G04 APERTURE END LIST*
D10*
X166353333Y-52114819D02*
X166353333Y-52829104D01*
X166353333Y-52829104D02*
X166400952Y-52971961D01*
X166400952Y-52971961D02*
X166496190Y-53067200D01*
X166496190Y-53067200D02*
X166639047Y-53114819D01*
X166639047Y-53114819D02*
X166734285Y-53114819D01*
X165924761Y-52210057D02*
X165877142Y-52162438D01*
X165877142Y-52162438D02*
X165781904Y-52114819D01*
X165781904Y-52114819D02*
X165543809Y-52114819D01*
X165543809Y-52114819D02*
X165448571Y-52162438D01*
X165448571Y-52162438D02*
X165400952Y-52210057D01*
X165400952Y-52210057D02*
X165353333Y-52305295D01*
X165353333Y-52305295D02*
X165353333Y-52400533D01*
X165353333Y-52400533D02*
X165400952Y-52543390D01*
X165400952Y-52543390D02*
X165972380Y-53114819D01*
X165972380Y-53114819D02*
X165353333Y-53114819D01*
X112933333Y-122654819D02*
X112933333Y-123369104D01*
X112933333Y-123369104D02*
X112980952Y-123511961D01*
X112980952Y-123511961D02*
X113076190Y-123607200D01*
X113076190Y-123607200D02*
X113219047Y-123654819D01*
X113219047Y-123654819D02*
X113314285Y-123654819D01*
X112028571Y-122654819D02*
X112219047Y-122654819D01*
X112219047Y-122654819D02*
X112314285Y-122702438D01*
X112314285Y-122702438D02*
X112361904Y-122750057D01*
X112361904Y-122750057D02*
X112457142Y-122892914D01*
X112457142Y-122892914D02*
X112504761Y-123083390D01*
X112504761Y-123083390D02*
X112504761Y-123464342D01*
X112504761Y-123464342D02*
X112457142Y-123559580D01*
X112457142Y-123559580D02*
X112409523Y-123607200D01*
X112409523Y-123607200D02*
X112314285Y-123654819D01*
X112314285Y-123654819D02*
X112123809Y-123654819D01*
X112123809Y-123654819D02*
X112028571Y-123607200D01*
X112028571Y-123607200D02*
X111980952Y-123559580D01*
X111980952Y-123559580D02*
X111933333Y-123464342D01*
X111933333Y-123464342D02*
X111933333Y-123226247D01*
X111933333Y-123226247D02*
X111980952Y-123131009D01*
X111980952Y-123131009D02*
X112028571Y-123083390D01*
X112028571Y-123083390D02*
X112123809Y-123035771D01*
X112123809Y-123035771D02*
X112314285Y-123035771D01*
X112314285Y-123035771D02*
X112409523Y-123083390D01*
X112409523Y-123083390D02*
X112457142Y-123131009D01*
X112457142Y-123131009D02*
X112504761Y-123226247D01*
X153385714Y-78931130D02*
X153242857Y-78978749D01*
X153242857Y-78978749D02*
X153195238Y-79026368D01*
X153195238Y-79026368D02*
X153147619Y-79121606D01*
X153147619Y-79121606D02*
X153147619Y-79264463D01*
X153147619Y-79264463D02*
X153195238Y-79359701D01*
X153195238Y-79359701D02*
X153242857Y-79407321D01*
X153242857Y-79407321D02*
X153338095Y-79454940D01*
X153338095Y-79454940D02*
X153719047Y-79454940D01*
X153719047Y-79454940D02*
X153719047Y-78454940D01*
X153719047Y-78454940D02*
X153385714Y-78454940D01*
X153385714Y-78454940D02*
X153290476Y-78502559D01*
X153290476Y-78502559D02*
X153242857Y-78550178D01*
X153242857Y-78550178D02*
X153195238Y-78645416D01*
X153195238Y-78645416D02*
X153195238Y-78740654D01*
X153195238Y-78740654D02*
X153242857Y-78835892D01*
X153242857Y-78835892D02*
X153290476Y-78883511D01*
X153290476Y-78883511D02*
X153385714Y-78931130D01*
X153385714Y-78931130D02*
X153719047Y-78931130D01*
X152861904Y-78454940D02*
X152290476Y-78454940D01*
X152576190Y-79454940D02*
X152576190Y-78454940D01*
X152004761Y-78550178D02*
X151957142Y-78502559D01*
X151957142Y-78502559D02*
X151861904Y-78454940D01*
X151861904Y-78454940D02*
X151623809Y-78454940D01*
X151623809Y-78454940D02*
X151528571Y-78502559D01*
X151528571Y-78502559D02*
X151480952Y-78550178D01*
X151480952Y-78550178D02*
X151433333Y-78645416D01*
X151433333Y-78645416D02*
X151433333Y-78740654D01*
X151433333Y-78740654D02*
X151480952Y-78883511D01*
X151480952Y-78883511D02*
X152052380Y-79454940D01*
X152052380Y-79454940D02*
X151433333Y-79454940D01*
X144203428Y-68241821D02*
X143060571Y-68241821D01*
X143631999Y-68813249D02*
X143631999Y-67670392D01*
%TO.C,J2*%
D11*
X123830000Y-53930000D02*
X123830000Y-51270000D01*
X161990000Y-51270000D02*
X123830000Y-51270000D01*
X161990000Y-53930000D02*
X123830000Y-53930000D01*
X161990000Y-53930000D02*
X161990000Y-51270000D01*
X164590000Y-51270000D02*
X163260000Y-51270000D01*
X164590000Y-52600000D02*
X164590000Y-51270000D01*
%TO.C,J6*%
X113840000Y-121820000D02*
X113840000Y-123200000D01*
X115220000Y-121820000D02*
X113840000Y-121820000D01*
X116490000Y-121820000D02*
X116490000Y-124580000D01*
X116490000Y-121820000D02*
X134380000Y-121820000D01*
X116490000Y-124580000D02*
X134380000Y-124580000D01*
X134380000Y-121820000D02*
X134380000Y-124580000D01*
%TO.C,BT2*%
X141450000Y-65850121D02*
X141450000Y-66350121D01*
X141450000Y-65850121D02*
X142600000Y-65850121D01*
X141450000Y-70150121D02*
X141450000Y-69650121D01*
X141450000Y-70150121D02*
X142600000Y-70150121D01*
X142600000Y-65850121D02*
X142600000Y-66350121D01*
X142600000Y-70150121D02*
X142600000Y-69650121D01*
X142190000Y-65850121D02*
G75*
G02*
X162150000Y-66650121I9909758J-2152544D01*
G01*
X162150000Y-69350121D02*
G75*
G02*
X142190000Y-70150121I-10050242J1352544D01*
G01*
%TD*%
M02*
