%TF.GenerationSoftware,KiCad,Pcbnew,10.0.0*%
%TF.CreationDate,2026-04-22T16:36:54+05:30*%
%TF.ProjectId,F411-TableClock,46343131-2d54-4616-926c-65436c6f636b,rev?*%
%TF.SameCoordinates,Original*%
%TF.FileFunction,Profile,NP*%
%FSLAX46Y46*%
G04 Gerber Fmt 4.6, Leading zero omitted, Abs format (unit mm)*
G04 Created by KiCad (PCBNEW 10.0.0) date 2026-04-22 16:36:54*
%MOMM*%
%LPD*%
G01*
G04 APERTURE LIST*
%TA.AperFunction,Profile*%
%ADD10C,0.050000*%
%TD*%
G04 APERTURE END LIST*
D10*
X90820000Y-89310000D02*
X171320000Y-89310000D01*
X90820000Y-125810000D02*
X90820000Y-89310000D01*
X91020000Y-49810000D02*
X171520000Y-49810000D01*
X91020000Y-86310000D02*
X91020000Y-49810000D01*
X94852996Y-92100000D02*
G75*
G02*
X92347004Y-92100000I-1252996J0D01*
G01*
X92347004Y-92100000D02*
G75*
G02*
X94852996Y-92100000I1252996J0D01*
G01*
X94852996Y-123100000D02*
G75*
G02*
X92347004Y-123100000I-1252996J0D01*
G01*
X92347004Y-123100000D02*
G75*
G02*
X94852996Y-123100000I1252996J0D01*
G01*
X95052996Y-52600000D02*
G75*
G02*
X92547004Y-52600000I-1252996J0D01*
G01*
X92547004Y-52600000D02*
G75*
G02*
X95052996Y-52600000I1252996J0D01*
G01*
X95052996Y-83600000D02*
G75*
G02*
X92547004Y-83600000I-1252996J0D01*
G01*
X92547004Y-83600000D02*
G75*
G02*
X95052996Y-83600000I1252996J0D01*
G01*
X169852996Y-92100000D02*
G75*
G02*
X167347004Y-92100000I-1252996J0D01*
G01*
X167347004Y-92100000D02*
G75*
G02*
X169852996Y-92100000I1252996J0D01*
G01*
X169852996Y-123100000D02*
G75*
G02*
X167347004Y-123100000I-1252996J0D01*
G01*
X167347004Y-123100000D02*
G75*
G02*
X169852996Y-123100000I1252996J0D01*
G01*
X170052996Y-52600000D02*
G75*
G02*
X167547004Y-52600000I-1252996J0D01*
G01*
X167547004Y-52600000D02*
G75*
G02*
X170052996Y-52600000I1252996J0D01*
G01*
X170052996Y-83600000D02*
G75*
G02*
X167547004Y-83600000I-1252996J0D01*
G01*
X167547004Y-83600000D02*
G75*
G02*
X170052996Y-83600000I1252996J0D01*
G01*
X171320000Y-89310000D02*
X171320000Y-125810000D01*
X171320000Y-125810000D02*
X90820000Y-125810000D01*
X171520000Y-49810000D02*
X171520000Y-86310000D01*
X171520000Y-86310000D02*
X91020000Y-86310000D01*
M02*
