%TF.GenerationSoftware,KiCad,Pcbnew,10.0.0*%
%TF.CreationDate,2026-04-22T16:36:54+05:30*%
%TF.ProjectId,F411-TableClock,46343131-2d54-4616-926c-65436c6f636b,rev?*%
%TF.SameCoordinates,Original*%
%TF.FileFunction,Copper,L1,Top*%
%TF.FilePolarity,Positive*%
%FSLAX46Y46*%
G04 Gerber Fmt 4.6, Leading zero omitted, Abs format (unit mm)*
G04 Created by KiCad (PCBNEW 10.0.0) date 2026-04-22 16:36:54*
%MOMM*%
%LPD*%
G01*
G04 APERTURE LIST*
G04 Aperture macros list*
%AMRoundRect*
0 Rectangle with rounded corners*
0 $1 Rounding radius*
0 $2 $3 $4 $5 $6 $7 $8 $9 X,Y pos of 4 corners*
0 Add a 4 corners polygon primitive as box body*
4,1,4,$2,$3,$4,$5,$6,$7,$8,$9,$2,$3,0*
0 Add four circle primitives for the rounded corners*
1,1,$1+$1,$2,$3*
1,1,$1+$1,$4,$5*
1,1,$1+$1,$6,$7*
1,1,$1+$1,$8,$9*
0 Add four rect primitives between the rounded corners*
20,1,$1+$1,$2,$3,$4,$5,0*
20,1,$1+$1,$4,$5,$6,$7,0*
20,1,$1+$1,$6,$7,$8,$9,0*
20,1,$1+$1,$8,$9,$2,$3,0*%
G04 Aperture macros list end*
%TA.AperFunction,SMDPad,CuDef*%
%ADD10RoundRect,0.250000X-0.475000X0.250000X-0.475000X-0.250000X0.475000X-0.250000X0.475000X0.250000X0*%
%TD*%
%TA.AperFunction,SMDPad,CuDef*%
%ADD11RoundRect,0.250000X0.250000X0.475000X-0.250000X0.475000X-0.250000X-0.475000X0.250000X-0.475000X0*%
%TD*%
%TA.AperFunction,SMDPad,CuDef*%
%ADD12RoundRect,0.250000X-0.262500X-0.450000X0.262500X-0.450000X0.262500X0.450000X-0.262500X0.450000X0*%
%TD*%
%TA.AperFunction,SMDPad,CuDef*%
%ADD13RoundRect,0.150000X-0.512500X-0.150000X0.512500X-0.150000X0.512500X0.150000X-0.512500X0.150000X0*%
%TD*%
%TA.AperFunction,SMDPad,CuDef*%
%ADD14RoundRect,0.250000X-0.450000X0.262500X-0.450000X-0.262500X0.450000X-0.262500X0.450000X0.262500X0*%
%TD*%
%TA.AperFunction,SMDPad,CuDef*%
%ADD15RoundRect,0.243750X0.243750X0.456250X-0.243750X0.456250X-0.243750X-0.456250X0.243750X-0.456250X0*%
%TD*%
%TA.AperFunction,SMDPad,CuDef*%
%ADD16R,1.700000X1.000000*%
%TD*%
%TA.AperFunction,SMDPad,CuDef*%
%ADD17RoundRect,0.250000X0.475000X-0.250000X0.475000X0.250000X-0.475000X0.250000X-0.475000X-0.250000X0*%
%TD*%
%TA.AperFunction,SMDPad,CuDef*%
%ADD18RoundRect,0.150000X-0.425000X0.150000X-0.425000X-0.150000X0.425000X-0.150000X0.425000X0.150000X0*%
%TD*%
%TA.AperFunction,SMDPad,CuDef*%
%ADD19RoundRect,0.075000X-0.500000X0.075000X-0.500000X-0.075000X0.500000X-0.075000X0.500000X0.075000X0*%
%TD*%
%TA.AperFunction,ComponentPad*%
%ADD20O,2.100000X1.000000*%
%TD*%
%TA.AperFunction,ComponentPad*%
%ADD21O,1.800000X1.000000*%
%TD*%
%TA.AperFunction,ComponentPad*%
%ADD22R,1.700000X1.700000*%
%TD*%
%TA.AperFunction,ComponentPad*%
%ADD23C,1.700000*%
%TD*%
%TA.AperFunction,SMDPad,CuDef*%
%ADD24RoundRect,0.250000X0.450000X-0.262500X0.450000X0.262500X-0.450000X0.262500X-0.450000X-0.262500X0*%
%TD*%
%TA.AperFunction,ComponentPad*%
%ADD25RoundRect,0.250000X0.500000X0.500000X-0.500000X0.500000X-0.500000X-0.500000X0.500000X-0.500000X0*%
%TD*%
%TA.AperFunction,ComponentPad*%
%ADD26C,1.500000*%
%TD*%
%TA.AperFunction,SMDPad,CuDef*%
%ADD27RoundRect,0.150000X0.150000X-0.587500X0.150000X0.587500X-0.150000X0.587500X-0.150000X-0.587500X0*%
%TD*%
%TA.AperFunction,SMDPad,CuDef*%
%ADD28RoundRect,0.250000X0.262500X0.450000X-0.262500X0.450000X-0.262500X-0.450000X0.262500X-0.450000X0*%
%TD*%
%TA.AperFunction,ComponentPad*%
%ADD29C,1.000000*%
%TD*%
%TA.AperFunction,SMDPad,CuDef*%
%ADD30RoundRect,0.062500X0.375000X0.062500X-0.375000X0.062500X-0.375000X-0.062500X0.375000X-0.062500X0*%
%TD*%
%TA.AperFunction,SMDPad,CuDef*%
%ADD31RoundRect,0.062500X0.062500X0.375000X-0.062500X0.375000X-0.062500X-0.375000X0.062500X-0.375000X0*%
%TD*%
%TA.AperFunction,HeatsinkPad*%
%ADD32R,5.150000X5.150000*%
%TD*%
%TA.AperFunction,ComponentPad*%
%ADD33RoundRect,0.249999X-1.250001X-1.250001X1.250001X-1.250001X1.250001X1.250001X-1.250001X1.250001X0*%
%TD*%
%TA.AperFunction,ComponentPad*%
%ADD34C,3.000000*%
%TD*%
%TA.AperFunction,SMDPad,CuDef*%
%ADD35RoundRect,0.250000X-0.250000X-0.475000X0.250000X-0.475000X0.250000X0.475000X-0.250000X0.475000X0*%
%TD*%
%TA.AperFunction,ComponentPad*%
%ADD36R,1.600000X2.000000*%
%TD*%
%TA.AperFunction,ComponentPad*%
%ADD37O,1.600000X2.000000*%
%TD*%
%TA.AperFunction,ViaPad*%
%ADD38C,0.600000*%
%TD*%
%TA.AperFunction,ViaPad*%
%ADD39C,1.000000*%
%TD*%
%TA.AperFunction,Conductor*%
%ADD40C,0.200000*%
%TD*%
%TA.AperFunction,Conductor*%
%ADD41C,0.500000*%
%TD*%
%TA.AperFunction,Conductor*%
%ADD42C,0.400000*%
%TD*%
G04 APERTURE END LIST*
D10*
%TO.P,C7,1*%
%TO.N,VBUS*%
X102750000Y-78800000D03*
%TO.P,C7,2*%
%TO.N,GND*%
X102750000Y-80700000D03*
%TD*%
D11*
%TO.P,C10,1*%
%TO.N,Net-(U1-VCAP1)*%
X120250000Y-60100000D03*
%TO.P,C10,2*%
%TO.N,GND*%
X118350000Y-60100000D03*
%TD*%
D12*
%TO.P,C12,1*%
%TO.N,Net-(U1-PC15)*%
X135200000Y-68700000D03*
%TO.P,C12,2*%
%TO.N,GND*%
X137025000Y-68700000D03*
%TD*%
D13*
%TO.P,U2,1,VIN_1*%
%TO.N,VBUS*%
X108500000Y-78600000D03*
%TO.P,U2,2,GND_2*%
%TO.N,GND*%
X108500000Y-79550000D03*
%TO.P,U2,3,EN_3*%
%TO.N,Net-(U2-EN)*%
X108500000Y-80500000D03*
%TO.P,U2,4,NC_4*%
%TO.N,unconnected-(U2-NC-Pad4)*%
X110775000Y-80500000D03*
%TO.P,U2,5,VOUT_5*%
%TO.N,+3.3V*%
X110775000Y-78600000D03*
%TD*%
D14*
%TO.P,R14,1*%
%TO.N,VBUS*%
X105600000Y-78800000D03*
%TO.P,R14,2*%
%TO.N,Net-(U2-EN)*%
X105600000Y-80625000D03*
%TD*%
%TO.P,R11,1*%
%TO.N,+3.3V*%
X122900000Y-78600000D03*
%TO.P,R11,2*%
%TO.N,/ENTER*%
X122900000Y-80425000D03*
%TD*%
D15*
%TO.P,D1,1,K_1*%
%TO.N,VBUS*%
X109275000Y-60300000D03*
%TO.P,D1,2,A_2*%
%TO.N,+5V*%
X107400000Y-60300000D03*
%TD*%
D16*
%TO.P,SW1,1,1_1*%
%TO.N,/UP_1*%
X113100000Y-95200000D03*
X106800000Y-95200000D03*
%TO.P,SW1,2,2_2*%
%TO.N,GND_1*%
X113100000Y-91400000D03*
X106800000Y-91400000D03*
%TD*%
D17*
%TO.P,C5,1*%
%TO.N,+BATT_1*%
X108700000Y-124200000D03*
%TO.P,C5,2*%
%TO.N,GND_1*%
X108700000Y-122300000D03*
%TD*%
D18*
%TO.P,J1,A1,GND_A1*%
%TO.N,GND*%
X98890000Y-68400000D03*
%TO.P,J1,A4,VBUS_A4*%
%TO.N,+5V*%
X98890000Y-69200000D03*
D19*
%TO.P,J1,A5,CC1_A5*%
%TO.N,Net-(J1-CC1)*%
X98890000Y-70350000D03*
%TO.P,J1,A6,D+_A6*%
%TO.N,Net-(J1-D+-PadA6)*%
X98890000Y-71350000D03*
%TO.P,J1,A7,D-_A7*%
%TO.N,Net-(J1-D--PadA7)*%
X98890000Y-71850000D03*
%TO.P,J1,A8,SBU1_A8*%
%TO.N,unconnected-(J1-SBU1-PadA8)*%
X98890000Y-72850000D03*
D18*
%TO.P,J1,A9,VBUS_A9*%
%TO.N,+5V*%
X98890000Y-74000000D03*
%TO.P,J1,A12,GND_A12*%
%TO.N,GND*%
X98890000Y-74800000D03*
%TO.P,J1,B1,GND_B1*%
X98890000Y-74800000D03*
%TO.P,J1,B4,VBUS_B4*%
%TO.N,+5V*%
X98890000Y-74000000D03*
D19*
%TO.P,J1,B5,CC2_B5*%
%TO.N,Net-(J1-CC2)*%
X98890000Y-73350000D03*
%TO.P,J1,B6,D+_B6*%
%TO.N,Net-(J1-D+-PadA6)*%
X98890000Y-72350000D03*
%TO.P,J1,B7,D-_B7*%
%TO.N,Net-(J1-D--PadA7)*%
X98890000Y-70850000D03*
%TO.P,J1,B8,SBU2_B8*%
%TO.N,unconnected-(J1-SBU2-PadB8)*%
X98890000Y-69850000D03*
D18*
%TO.P,J1,B9,VBUS_B9*%
%TO.N,+5V*%
X98890000Y-69200000D03*
%TO.P,J1,B12,GND_B12*%
%TO.N,GND*%
X98890000Y-68400000D03*
D20*
%TO.P,J1,SH,SHIELD_SH*%
X98315000Y-67280000D03*
D21*
X94135000Y-67280000D03*
D20*
X98315000Y-75920000D03*
D21*
X94135000Y-75920000D03*
%TD*%
D22*
%TO.P,J5,1,Pin_1_1*%
%TO.N,/UP*%
X115460000Y-83700000D03*
D23*
%TO.P,J5,2,Pin_2_2*%
%TO.N,/DOWN*%
X118000000Y-83700000D03*
%TO.P,J5,3,Pin_3_3*%
%TO.N,/ENTER*%
X120540000Y-83700000D03*
%TO.P,J5,4,Pin_4_4*%
%TO.N,/BACK*%
X123080000Y-83700000D03*
%TO.P,J5,5,Pin_5_5*%
%TO.N,+BATT*%
X125620000Y-83700000D03*
%TO.P,J5,6,Pin_6_6*%
%TO.N,+5V*%
X128160000Y-83700000D03*
%TO.P,J5,7,Pin_7_7*%
%TO.N,/EXT*%
X130700000Y-83700000D03*
%TO.P,J5,8,Pin_8_8*%
%TO.N,GND*%
X133240000Y-83700000D03*
%TD*%
D14*
%TO.P,R6,1*%
%TO.N,Net-(U1-BOOT0)*%
X124600000Y-71487500D03*
%TO.P,R6,2*%
%TO.N,GND*%
X124600000Y-73312500D03*
%TD*%
%TO.P,R5,1*%
%TO.N,GND*%
X105000000Y-63887500D03*
%TO.P,R5,2*%
%TO.N,+5V*%
X105000000Y-65712500D03*
%TD*%
D24*
%TO.P,R3,1*%
%TO.N,Net-(J1-CC1)*%
X102700000Y-65725000D03*
%TO.P,R3,2*%
%TO.N,GND*%
X102700000Y-63900000D03*
%TD*%
D11*
%TO.P,C1,1*%
%TO.N,VBUS*%
X109300000Y-56200000D03*
%TO.P,C1,2*%
%TO.N,GND*%
X107400000Y-56200000D03*
%TD*%
D25*
%TO.P,Q2,1,C_1*%
%TO.N,Net-(J2-Pin_16)*%
X121000000Y-52600000D03*
D26*
%TO.P,Q2,2,B_2*%
%TO.N,Net-(Q2-B)*%
X118460000Y-55140000D03*
%TO.P,Q2,3,E_3*%
%TO.N,GND*%
X115920000Y-52600000D03*
%TD*%
D16*
%TO.P,SW2,1,1_1*%
%TO.N,/DOWN_2*%
X121950000Y-95200000D03*
X115650000Y-95200000D03*
%TO.P,SW2,2,2_2*%
%TO.N,GND_1*%
X121950000Y-91400000D03*
X115650000Y-91400000D03*
%TD*%
D27*
%TO.P,Q1,1,G_1*%
%TO.N,+5V*%
X107550000Y-65275000D03*
%TO.P,Q1,2,S_2*%
%TO.N,VBUS*%
X109450000Y-65275000D03*
%TO.P,Q1,3,D_3*%
%TO.N,+BATT*%
X108500000Y-63400000D03*
%TD*%
D10*
%TO.P,C4,1*%
%TO.N,+BATT_2*%
X127212500Y-72137500D03*
%TO.P,C4,2*%
%TO.N,GND*%
X127212500Y-74037500D03*
%TD*%
D28*
%TO.P,R7,1*%
%TO.N,+3.3V*%
X130512500Y-65700000D03*
%TO.P,R7,2*%
%TO.N,Net-(U1-NRST)*%
X128687500Y-65700000D03*
%TD*%
D11*
%TO.P,C3,1*%
%TO.N,VBUS*%
X109300000Y-58300000D03*
%TO.P,C3,2*%
%TO.N,GND*%
X107400000Y-58300000D03*
%TD*%
D16*
%TO.P,SW3,1,1_1*%
%TO.N,/ENTER_3*%
X130750000Y-95200000D03*
X124450000Y-95200000D03*
%TO.P,SW3,2,2_2*%
%TO.N,GND_1*%
X130750000Y-91400000D03*
X124450000Y-91400000D03*
%TD*%
D10*
%TO.P,C8,1*%
%TO.N,+3.3V*%
X115300000Y-78600000D03*
%TO.P,C8,2*%
%TO.N,GND*%
X115300000Y-80500000D03*
%TD*%
D14*
%TO.P,R10,1*%
%TO.N,+3.3V*%
X125800000Y-78600000D03*
%TO.P,R10,2*%
%TO.N,/BACK*%
X125800000Y-80425000D03*
%TD*%
D11*
%TO.P,C2,1*%
%TO.N,VBUS*%
X109300000Y-54100000D03*
%TO.P,C2,2*%
%TO.N,GND*%
X107400000Y-54100000D03*
%TD*%
D28*
%TO.P,C11,1*%
%TO.N,GND*%
X137037500Y-70700000D03*
%TO.P,C11,2*%
%TO.N,Net-(U1-PC14)*%
X135212500Y-70700000D03*
%TD*%
%TO.P,R12,1*%
%TO.N,/BL*%
X120212500Y-58100000D03*
%TO.P,R12,2*%
%TO.N,Net-(Q2-B)*%
X118387500Y-58100000D03*
%TD*%
D10*
%TO.P,C6,1*%
%TO.N,VBUS*%
X100650000Y-78800000D03*
%TO.P,C6,2*%
%TO.N,GND*%
X100650000Y-80700000D03*
%TD*%
D12*
%TO.P,R4,1*%
%TO.N,Net-(J1-CC2)*%
X105887500Y-74000000D03*
%TO.P,R4,2*%
%TO.N,GND*%
X107712500Y-74000000D03*
%TD*%
D14*
%TO.P,R9,1*%
%TO.N,+3.3V*%
X120000000Y-78587500D03*
%TO.P,R9,2*%
%TO.N,/DOWN*%
X120000000Y-80412500D03*
%TD*%
D29*
%TO.P,Y1,1,1_1*%
%TO.N,Net-(U1-PC15)*%
X132300000Y-68430000D03*
%TO.P,Y1,2,2_2*%
%TO.N,Net-(U1-PC14)*%
X132300000Y-70970000D03*
%TD*%
D30*
%TO.P,U1,1,VBAT_1*%
%TO.N,+BATT_2*%
X125487500Y-68687500D03*
%TO.P,U1,2,PC13_2*%
%TO.N,unconnected-(U1-PC13-Pad2)*%
X125487500Y-68187500D03*
%TO.P,U1,3,PC14_3*%
%TO.N,Net-(U1-PC14)*%
X125487500Y-67687500D03*
%TO.P,U1,4,PC15_4*%
%TO.N,Net-(U1-PC15)*%
X125487500Y-67187500D03*
%TO.P,U1,5,PH0_5*%
%TO.N,unconnected-(U1-PH0-Pad5)*%
X125487500Y-66687500D03*
%TO.P,U1,6,PH1_6*%
%TO.N,unconnected-(U1-PH1-Pad6)*%
X125487500Y-66187500D03*
%TO.P,U1,7,NRST_7*%
%TO.N,Net-(U1-NRST)*%
X125487500Y-65687500D03*
%TO.P,U1,8,VSSA_8*%
%TO.N,GND*%
X125487500Y-65187500D03*
%TO.P,U1,9,VDDA_9*%
%TO.N,+3.3V*%
X125487500Y-64687500D03*
%TO.P,U1,10,PA0_10*%
%TO.N,unconnected-(U1-PA0-Pad10)*%
X125487500Y-64187500D03*
%TO.P,U1,11,PA1_11*%
%TO.N,unconnected-(U1-PA1-Pad11)*%
X125487500Y-63687500D03*
%TO.P,U1,12,PA2_12*%
%TO.N,unconnected-(U1-PA2-Pad12)*%
X125487500Y-63187500D03*
D31*
%TO.P,U1,13,PA3_13*%
%TO.N,/RS*%
X124800000Y-62500000D03*
%TO.P,U1,14,PA4_14*%
%TO.N,/E*%
X124300000Y-62500000D03*
%TO.P,U1,15,PA5_15*%
%TO.N,/D4*%
X123800000Y-62500000D03*
%TO.P,U1,16,PA6_16*%
%TO.N,/D5*%
X123300000Y-62500000D03*
%TO.P,U1,17,PA7_17*%
%TO.N,/D6*%
X122800000Y-62500000D03*
%TO.P,U1,18,PB0_18*%
%TO.N,/D7*%
X122300000Y-62500000D03*
%TO.P,U1,19,PB1_19*%
%TO.N,/BL*%
X121800000Y-62500000D03*
%TO.P,U1,20,PB2_20*%
%TO.N,unconnected-(U1-PB2-Pad20)*%
X121300000Y-62500000D03*
%TO.P,U1,21,PB10_21*%
%TO.N,unconnected-(U1-PB10-Pad21)*%
X120800000Y-62500000D03*
%TO.P,U1,22,VCAP1_22*%
%TO.N,Net-(U1-VCAP1)*%
X120300000Y-62500000D03*
%TO.P,U1,23,VSS_23*%
%TO.N,GND*%
X119800000Y-62500000D03*
%TO.P,U1,24,VDD_24*%
%TO.N,+3.3V*%
X119300000Y-62500000D03*
D30*
%TO.P,U1,25,PB12_25*%
%TO.N,unconnected-(U1-PB12-Pad25)*%
X118612500Y-63187500D03*
%TO.P,U1,26,PB13_26*%
%TO.N,unconnected-(U1-PB13-Pad26)*%
X118612500Y-63687500D03*
%TO.P,U1,27,PB14_27*%
%TO.N,unconnected-(U1-PB14-Pad27)*%
X118612500Y-64187500D03*
%TO.P,U1,28,PB15_28*%
%TO.N,unconnected-(U1-PB15-Pad28)*%
X118612500Y-64687500D03*
%TO.P,U1,29,PA8_29*%
%TO.N,unconnected-(U1-PA8-Pad29)*%
X118612500Y-65187500D03*
%TO.P,U1,30,PA9_30*%
%TO.N,unconnected-(U1-PA9-Pad30)*%
X118612500Y-65687500D03*
%TO.P,U1,31,PA10_31*%
%TO.N,unconnected-(U1-PA10-Pad31)*%
X118612500Y-66187500D03*
%TO.P,U1,32,PA11_32*%
%TO.N,/DN*%
X118612500Y-66687500D03*
%TO.P,U1,33,PA12_33*%
%TO.N,/DP*%
X118612500Y-67187500D03*
%TO.P,U1,34,PA13_34*%
%TO.N,/SWDIO*%
X118612500Y-67687500D03*
%TO.P,U1,35,VSS_35*%
%TO.N,GND*%
X118612500Y-68187500D03*
%TO.P,U1,36,VDD_36*%
%TO.N,+3.3V*%
X118612500Y-68687500D03*
D31*
%TO.P,U1,37,PA14_37*%
%TO.N,/SWCLK*%
X119300000Y-69375000D03*
%TO.P,U1,38,PA15_38*%
%TO.N,/UP*%
X119800000Y-69375000D03*
%TO.P,U1,39,PB3_39*%
%TO.N,/DOWN*%
X120300000Y-69375000D03*
%TO.P,U1,40,PB4_40*%
%TO.N,/ENTER*%
X120800000Y-69375000D03*
%TO.P,U1,41,PB5_41*%
%TO.N,/BACK*%
X121300000Y-69375000D03*
%TO.P,U1,42,PB6_42*%
%TO.N,/EXT*%
X121800000Y-69375000D03*
%TO.P,U1,43,PB7_43*%
%TO.N,unconnected-(U1-PB7-Pad43)*%
X122300000Y-69375000D03*
%TO.P,U1,44,BOOT0_44*%
%TO.N,Net-(U1-BOOT0)*%
X122800000Y-69375000D03*
%TO.P,U1,45,PB8_45*%
%TO.N,unconnected-(U1-PB8-Pad45)*%
X123300000Y-69375000D03*
%TO.P,U1,46,PB9_46*%
%TO.N,unconnected-(U1-PB9-Pad46)*%
X123800000Y-69375000D03*
%TO.P,U1,47,VSS_47*%
%TO.N,GND*%
X124300000Y-69375000D03*
%TO.P,U1,48,VDD_48*%
%TO.N,+3.3V*%
X124800000Y-69375000D03*
D32*
%TO.P,U1,49,VSS_49*%
%TO.N,GND*%
X122050000Y-65937500D03*
%TD*%
D28*
%TO.P,R1,1*%
%TO.N,/DN*%
X107712500Y-69800000D03*
%TO.P,R1,2*%
%TO.N,Net-(J1-D--PadA7)*%
X105887500Y-69800000D03*
%TD*%
D14*
%TO.P,R8,1*%
%TO.N,+3.3V*%
X117400000Y-78587500D03*
%TO.P,R8,2*%
%TO.N,/UP*%
X117400000Y-80412500D03*
%TD*%
D10*
%TO.P,C9,1*%
%TO.N,+3.3V*%
X113200000Y-78600000D03*
%TO.P,C9,2*%
%TO.N,GND*%
X113200000Y-80500000D03*
%TD*%
D33*
%TO.P,BT1,1,+_1*%
%TO.N,+BATT_1*%
X94410000Y-109500000D03*
D34*
%TO.P,BT1,2,-_2*%
%TO.N,GND_1*%
X167310000Y-109500000D03*
%TD*%
D22*
%TO.P,J4,1,Pin_1_1*%
%TO.N,+3.3V*%
X168500000Y-71520000D03*
D23*
%TO.P,J4,2,Pin_2_2*%
%TO.N,/SWDIO*%
X168500000Y-74060000D03*
%TO.P,J4,3,Pin_3_3*%
%TO.N,/SWCLK*%
X168500000Y-76600000D03*
%TO.P,J4,4,Pin_4_4*%
%TO.N,GND*%
X168500000Y-79140000D03*
%TD*%
D35*
%TO.P,C13,1*%
%TO.N,+3.3V*%
X128550000Y-62400000D03*
%TO.P,C13,2*%
%TO.N,GND*%
X130450000Y-62400000D03*
%TD*%
D28*
%TO.P,R2,1*%
%TO.N,/DP*%
X107700000Y-71900000D03*
%TO.P,R2,2*%
%TO.N,Net-(J1-D+-PadA6)*%
X105875000Y-71900000D03*
%TD*%
D16*
%TO.P,SW4,1,1_1*%
%TO.N,/BACK_4*%
X139550000Y-95200000D03*
X133250000Y-95200000D03*
%TO.P,SW4,2,2_2*%
%TO.N,GND_1*%
X139550000Y-91400000D03*
X133250000Y-91400000D03*
%TD*%
D22*
%TO.P,J2,1,Pin_1_1*%
%TO.N,GND*%
X163260000Y-52600000D03*
D23*
%TO.P,J2,2,Pin_2_2*%
%TO.N,VBUS*%
X160720000Y-52600000D03*
%TO.P,J2,3,Pin_3_3*%
%TO.N,GND*%
X158180000Y-52600000D03*
%TO.P,J2,4,Pin_4_4*%
%TO.N,/RS*%
X155640000Y-52600000D03*
%TO.P,J2,5,Pin_5_5*%
%TO.N,GND*%
X153100000Y-52600000D03*
%TO.P,J2,6,Pin_6_6*%
%TO.N,/E*%
X150560000Y-52600000D03*
%TO.P,J2,7,Pin_7_7*%
%TO.N,unconnected-(J2-Pin_7-Pad7)*%
X148020000Y-52600000D03*
%TO.P,J2,8,Pin_8_8*%
%TO.N,unconnected-(J2-Pin_8-Pad8)*%
X145480000Y-52600000D03*
%TO.P,J2,9,Pin_9_9*%
%TO.N,unconnected-(J2-Pin_9-Pad9)*%
X142940000Y-52600000D03*
%TO.P,J2,10,Pin_10_10*%
%TO.N,unconnected-(J2-Pin_10-Pad10)*%
X140400000Y-52600000D03*
%TO.P,J2,11,Pin_11_11*%
%TO.N,/D4*%
X137860000Y-52600000D03*
%TO.P,J2,12,Pin_12_12*%
%TO.N,/D5*%
X135320000Y-52600000D03*
%TO.P,J2,13,Pin_13_13*%
%TO.N,/D6*%
X132780000Y-52600000D03*
%TO.P,J2,14,Pin_14_14*%
%TO.N,/D7*%
X130240000Y-52600000D03*
%TO.P,J2,15,Pin_15_15*%
%TO.N,+3.3V*%
X127700000Y-52600000D03*
%TO.P,J2,16,Pin_16_16*%
%TO.N,Net-(J2-Pin_16)*%
X125160000Y-52600000D03*
%TD*%
D22*
%TO.P,J6,1,Pin_1_1*%
%TO.N,/UP_1*%
X115220000Y-123200000D03*
D23*
%TO.P,J6,2,Pin_2_2*%
%TO.N,/DOWN_2*%
X117760000Y-123200000D03*
%TO.P,J6,3,Pin_3_3*%
%TO.N,/ENTER_3*%
X120300000Y-123200000D03*
%TO.P,J6,4,Pin_4_4*%
%TO.N,/BACK_4*%
X122840000Y-123200000D03*
%TO.P,J6,5,Pin_5_5*%
%TO.N,+BATT_1*%
X125380000Y-123200000D03*
%TO.P,J6,6,Pin_6_6*%
%TO.N,+5V_1*%
X127920000Y-123200000D03*
%TO.P,J6,7,Pin_7_7*%
%TO.N,unconnected-(J6-Pin_7-Pad7)*%
X130460000Y-123200000D03*
%TO.P,J6,8,Pin_8_8*%
%TO.N,GND_1*%
X133000000Y-123200000D03*
%TD*%
D36*
%TO.P,BT2,1,+_1*%
%TO.N,+BATT_2*%
X141600000Y-68000121D03*
D37*
%TO.P,BT2,2,-_2*%
%TO.N,GND*%
X162100000Y-68000121D03*
%TD*%
D38*
%TO.N,GND*%
X153200000Y-58600000D03*
X152500000Y-59300000D03*
X153200000Y-59300000D03*
X152500000Y-58600000D03*
X156400000Y-63900000D03*
X147400000Y-71900000D03*
X147700000Y-82800000D03*
X155700000Y-64600000D03*
X147700000Y-82100000D03*
X145300000Y-71900000D03*
X146000000Y-70500000D03*
X157100000Y-63200000D03*
X156400000Y-65300000D03*
X97800000Y-55000000D03*
X98500000Y-56400000D03*
X148100000Y-70500000D03*
X99900000Y-56400000D03*
X147400000Y-71200000D03*
X97800000Y-54300000D03*
X166700000Y-57900000D03*
X99200000Y-54300000D03*
X148100000Y-71200000D03*
X166000000Y-57900000D03*
X99200000Y-56400000D03*
X145300000Y-70500000D03*
X168100000Y-58600000D03*
X145600000Y-83500000D03*
X98500000Y-54300000D03*
X145300000Y-69800000D03*
X99900000Y-55000000D03*
X100600000Y-55000000D03*
X99200000Y-55000000D03*
X166700000Y-59300000D03*
X146300000Y-84200000D03*
X147000000Y-84200000D03*
X148100000Y-71900000D03*
X167400000Y-57200000D03*
X168100000Y-57900000D03*
X98500000Y-55000000D03*
X155700000Y-63900000D03*
X154300000Y-63200000D03*
X146000000Y-69800000D03*
X168800000Y-57900000D03*
X156400000Y-63200000D03*
X146300000Y-82100000D03*
X146700000Y-71900000D03*
X155700000Y-65300000D03*
X97800000Y-55700000D03*
X147400000Y-70500000D03*
X154300000Y-64600000D03*
X156400000Y-64600000D03*
X146300000Y-83500000D03*
X100600000Y-56400000D03*
X155000000Y-64600000D03*
X148100000Y-69800000D03*
X166000000Y-59300000D03*
X145600000Y-84200000D03*
X157100000Y-63900000D03*
X168100000Y-59300000D03*
X147700000Y-84200000D03*
X148400000Y-82800000D03*
X166000000Y-57200000D03*
X155000000Y-63900000D03*
X146000000Y-71900000D03*
X145300000Y-71200000D03*
X166700000Y-57200000D03*
X157100000Y-65300000D03*
X99200000Y-55700000D03*
X168800000Y-57200000D03*
X147000000Y-82100000D03*
X100600000Y-55700000D03*
X146700000Y-69800000D03*
X154300000Y-65300000D03*
X168800000Y-58600000D03*
X166000000Y-58600000D03*
X148400000Y-84200000D03*
X154300000Y-63900000D03*
X145600000Y-82800000D03*
X167400000Y-59300000D03*
X147000000Y-82800000D03*
X167400000Y-57900000D03*
X148400000Y-83500000D03*
X146300000Y-82800000D03*
X147400000Y-69800000D03*
X148400000Y-82100000D03*
X166700000Y-58600000D03*
X146000000Y-71200000D03*
X99900000Y-54300000D03*
X157100000Y-64600000D03*
X168800000Y-59300000D03*
X155700000Y-63200000D03*
X146700000Y-71200000D03*
X99900000Y-55700000D03*
X146700000Y-70500000D03*
X147700000Y-83500000D03*
X145600000Y-82100000D03*
X155000000Y-65300000D03*
X155000000Y-63200000D03*
X168100000Y-57200000D03*
X147000000Y-83500000D03*
X167400000Y-58600000D03*
X98500000Y-55700000D03*
X100600000Y-54300000D03*
X97800000Y-56400000D03*
D39*
%TO.N,VBUS*%
X110925000Y-74575000D03*
X113200000Y-65000000D03*
X158280000Y-56400000D03*
%TO.N,+3.3V*%
X116200000Y-64100000D03*
X117400000Y-76700000D03*
X120000000Y-76800000D03*
X125800000Y-76700000D03*
X131400000Y-77200000D03*
X116200000Y-70400000D03*
X122900000Y-76800000D03*
X125100000Y-55800000D03*
%TO.N,+BATT*%
X106800000Y-67700000D03*
%TO.N,/SWDIO*%
X113730000Y-72700000D03*
%TO.N,/SWCLK*%
X117900000Y-74100000D03*
%TD*%
%TO.N,Net-(J1-D--PadA7)*%
D40*
X97450000Y-70850000D02*
X98890000Y-70850000D01*
X97200000Y-71100000D02*
X97450000Y-70850000D01*
X97450000Y-71850000D02*
X97200000Y-71600000D01*
X97200000Y-71600000D02*
X97200000Y-71100000D01*
X98890000Y-71850000D02*
X97450000Y-71850000D01*
%TO.N,/DP*%
X110600000Y-71900000D02*
X115312500Y-67187500D01*
X107812500Y-71900000D02*
X110600000Y-71900000D01*
X107712500Y-71800000D02*
X107812500Y-71900000D01*
X115312500Y-67187500D02*
X118612500Y-67187500D01*
%TO.N,/DN*%
X114612500Y-66687500D02*
X118612500Y-66687500D01*
X111500000Y-69800000D02*
X114612500Y-66687500D01*
X107912500Y-69800000D02*
X111500000Y-69800000D01*
X107712500Y-70000000D02*
X107912500Y-69800000D01*
%TO.N,Net-(J1-D--PadA7)*%
X103600000Y-69800000D02*
X105887500Y-69800000D01*
X102550000Y-70850000D02*
X103600000Y-69800000D01*
X98890000Y-70850000D02*
X102550000Y-70850000D01*
%TO.N,Net-(J1-D+-PadA6)*%
X100800000Y-71900000D02*
X105875000Y-71900000D01*
%TO.N,Net-(J1-CC2)*%
X102350000Y-73350000D02*
X103000000Y-74000000D01*
X103000000Y-74000000D02*
X105887500Y-74000000D01*
X98890000Y-73350000D02*
X102350000Y-73350000D01*
%TO.N,+5V*%
X96600000Y-69500000D02*
X98015001Y-69500000D01*
X92300000Y-66000000D02*
X92300000Y-69300000D01*
X93500000Y-64800000D02*
X92300000Y-66000000D01*
X104600000Y-64800000D02*
X93500000Y-64800000D01*
X92300000Y-69300000D02*
X93500000Y-70500000D01*
X105000000Y-65200000D02*
X104600000Y-64800000D01*
X105000000Y-65712500D02*
X105000000Y-65200000D01*
X93500000Y-70500000D02*
X95900000Y-70500000D01*
D41*
X95900000Y-70500000D02*
X95900000Y-70200000D01*
%TO.N,Net-(J1-CC1)*%
D40*
X102700000Y-67700000D02*
X102700000Y-65725000D01*
X100050000Y-70350000D02*
X102700000Y-67700000D01*
X98890000Y-70350000D02*
X100050000Y-70350000D01*
%TO.N,+3.3V*%
D42*
X117400000Y-75900000D02*
X117400000Y-76700000D01*
X115800000Y-74300000D02*
X117400000Y-75900000D01*
X115800000Y-71530000D02*
X115800000Y-74300000D01*
X116200000Y-70400000D02*
X116200000Y-71130000D01*
X116200000Y-71130000D02*
X115800000Y-71530000D01*
%TO.N,/SWDIO*%
D40*
X113730000Y-70070000D02*
X116112500Y-67687500D01*
X113730000Y-72700000D02*
X113730000Y-70070000D01*
X116112500Y-67687500D02*
X118612500Y-67687500D01*
%TO.N,VBUS*%
D42*
X108500000Y-77000000D02*
X108500000Y-78600000D01*
X110925000Y-74575000D02*
X108500000Y-77000000D01*
%TO.N,/SWCLK*%
D40*
X117900000Y-74100000D02*
X117900000Y-72800000D01*
X117900000Y-72800000D02*
X119300000Y-71400000D01*
X119300000Y-71400000D02*
X119300000Y-69375000D01*
%TO.N,Net-(U1-VCAP1)*%
X120300000Y-62500000D02*
X120300000Y-61700000D01*
X120300000Y-61700000D02*
X120250000Y-61650000D01*
X120250000Y-61650000D02*
X120250000Y-60500000D01*
%TO.N,GND*%
X129600000Y-66800000D02*
X130200000Y-67400000D01*
X102750000Y-80700000D02*
X103837500Y-79612500D01*
D42*
X166000000Y-81300000D02*
X167500000Y-81300000D01*
D40*
X153100000Y-52620000D02*
X153180000Y-52700000D01*
X103837500Y-79612500D02*
X108437500Y-79612500D01*
X129300000Y-64200000D02*
X129600000Y-64500000D01*
D42*
X163260000Y-51620000D02*
X162240000Y-50600000D01*
X98900000Y-80700000D02*
X100650000Y-80700000D01*
D40*
X108437500Y-79612500D02*
X108500000Y-79550000D01*
X119800000Y-68187500D02*
X122050000Y-65937500D01*
D42*
X98890000Y-74800000D02*
X98890000Y-75345000D01*
X103312500Y-63887500D02*
X105000000Y-63887500D01*
D40*
X130200000Y-67400000D02*
X136600000Y-67400000D01*
D41*
X100650000Y-80700000D02*
X102750000Y-80700000D01*
D40*
X137025000Y-67825000D02*
X137025000Y-68700000D01*
D42*
X126037500Y-74037500D02*
X127212500Y-74037500D01*
X133800000Y-85300000D02*
X164300000Y-85300000D01*
D40*
X118600000Y-61500000D02*
X118350000Y-61250000D01*
X137037500Y-68712500D02*
X137025000Y-68700000D01*
D42*
X98890000Y-75345000D02*
X98315000Y-75920000D01*
X164300000Y-85300000D02*
X164900000Y-84700000D01*
X129000000Y-75100000D02*
X129000000Y-78100000D01*
D40*
X108500000Y-79550000D02*
X111450000Y-79550000D01*
D42*
X153100000Y-51520000D02*
X153100000Y-52620000D01*
X98315000Y-80115000D02*
X98900000Y-80700000D01*
D40*
X153100000Y-51480000D02*
X153100000Y-52600000D01*
X119800000Y-63687500D02*
X122050000Y-65937500D01*
D42*
X158180000Y-51560000D02*
X158180000Y-52600000D01*
X163260000Y-61340000D02*
X162100000Y-62500000D01*
X153200121Y-68000121D02*
X162100000Y-68000121D01*
X107400000Y-54100000D02*
X107400000Y-56200000D01*
X130450000Y-62400000D02*
X147600000Y-62400000D01*
X164900000Y-84700000D02*
X164900000Y-82400000D01*
X162100000Y-62500000D02*
X162100000Y-68000121D01*
X164900000Y-82400000D02*
X166000000Y-81300000D01*
X106000000Y-58300000D02*
X107400000Y-58300000D01*
D40*
X119600000Y-61500000D02*
X118600000Y-61500000D01*
X126112500Y-65187500D02*
X127100000Y-64200000D01*
D42*
X125312500Y-73312500D02*
X126037500Y-74037500D01*
X98315000Y-75920000D02*
X94135000Y-75920000D01*
X107400000Y-54100000D02*
X107400000Y-52900000D01*
D40*
X124300000Y-69375000D02*
X124300000Y-68187500D01*
D42*
X98890000Y-74800000D02*
X99700000Y-74800000D01*
X116000000Y-52700000D02*
X116000000Y-51580000D01*
D40*
X119800000Y-62500000D02*
X119800000Y-61700000D01*
D42*
X98890000Y-67855000D02*
X98315000Y-67280000D01*
D40*
X122800000Y-65187500D02*
X122050000Y-65937500D01*
D42*
X170400000Y-69100000D02*
X170400000Y-78500000D01*
X133240000Y-83700000D02*
X133240000Y-84740000D01*
X116000000Y-51580000D02*
X116980000Y-50600000D01*
X115920000Y-52600000D02*
X115920000Y-59320000D01*
D40*
X136600000Y-67400000D02*
X137025000Y-67825000D01*
D42*
X127212500Y-74037500D02*
X127937500Y-74037500D01*
X159140000Y-50600000D02*
X158180000Y-51560000D01*
X98890000Y-68400000D02*
X98890000Y-67855000D01*
X129000000Y-78100000D02*
X133240000Y-82340000D01*
D40*
X112400000Y-80500000D02*
X113200000Y-80500000D01*
D42*
X115920000Y-59320000D02*
X116700000Y-60100000D01*
D40*
X137037500Y-70700000D02*
X137037500Y-68712500D01*
X111450000Y-79550000D02*
X112400000Y-80500000D01*
D42*
X147600000Y-62400000D02*
X153200121Y-68000121D01*
D41*
X113200000Y-80500000D02*
X115300000Y-80500000D01*
D42*
X169760000Y-79140000D02*
X168500000Y-79140000D01*
X168500000Y-80300000D02*
X168500000Y-79140000D01*
D40*
X119800000Y-61700000D02*
X119600000Y-61500000D01*
D42*
X158180000Y-51500000D02*
X157280000Y-50600000D01*
D40*
X119800000Y-62500000D02*
X119800000Y-63687500D01*
D42*
X116980000Y-50600000D02*
X152180000Y-50600000D01*
X152180000Y-50600000D02*
X153100000Y-51520000D01*
X107400000Y-56200000D02*
X107400000Y-58300000D01*
D40*
X127100000Y-64200000D02*
X129300000Y-64200000D01*
D42*
X163260000Y-52600000D02*
X163260000Y-61340000D01*
D40*
X125487500Y-65187500D02*
X126112500Y-65187500D01*
X124600000Y-73312500D02*
X125312500Y-73312500D01*
D42*
X163260000Y-52600000D02*
X163260000Y-51620000D01*
X107700000Y-52600000D02*
X115920000Y-52600000D01*
X167500000Y-81300000D02*
X168500000Y-80300000D01*
D40*
X129600000Y-64500000D02*
X129600000Y-66800000D01*
D42*
X153980000Y-50600000D02*
X153100000Y-51480000D01*
X98315000Y-75920000D02*
X98315000Y-80115000D01*
D40*
X102750000Y-80700000D02*
X103050000Y-80700000D01*
D42*
X133240000Y-82340000D02*
X133240000Y-83700000D01*
X133240000Y-84740000D02*
X133800000Y-85300000D01*
D40*
X118612500Y-68187500D02*
X119800000Y-68187500D01*
D42*
X105000000Y-63887500D02*
X105000000Y-59300000D01*
X127937500Y-74037500D02*
X129000000Y-75100000D01*
X162240000Y-50600000D02*
X159140000Y-50600000D01*
D40*
X158180000Y-52600000D02*
X158180000Y-51500000D01*
D42*
X170400000Y-78500000D02*
X169760000Y-79140000D01*
X116700000Y-60100000D02*
X118350000Y-60100000D01*
X169300121Y-68000121D02*
X170400000Y-69100000D01*
X105000000Y-59300000D02*
X106000000Y-58300000D01*
X107400000Y-52900000D02*
X107700000Y-52600000D01*
D40*
X125487500Y-65187500D02*
X122800000Y-65187500D01*
X118350000Y-61250000D02*
X118350000Y-60500000D01*
X124300000Y-68187500D02*
X122050000Y-65937500D01*
D42*
X98315000Y-67280000D02*
X94135000Y-67280000D01*
X157280000Y-50600000D02*
X153980000Y-50600000D01*
X162100000Y-68000121D02*
X169300121Y-68000121D01*
%TO.N,Net-(U1-PC15)*%
D40*
X133730000Y-68430000D02*
X134000000Y-68700000D01*
X132265000Y-68465000D02*
X132300000Y-68430000D01*
X132300000Y-68430000D02*
X133730000Y-68430000D01*
X125487500Y-67187500D02*
X127887500Y-67187500D01*
X132337500Y-68392500D02*
X132300000Y-68430000D01*
X127887500Y-67187500D02*
X129130000Y-68430000D01*
X129130000Y-68430000D02*
X132300000Y-68430000D01*
X134000000Y-68700000D02*
X135200000Y-68700000D01*
%TO.N,VBUS*%
D42*
X109275000Y-60300000D02*
X109275000Y-58325000D01*
D40*
X109275000Y-58325000D02*
X109300000Y-58300000D01*
D42*
X109300000Y-58300000D02*
X109300000Y-56200000D01*
X110400000Y-62500000D02*
X109275000Y-61375000D01*
X159900000Y-56400000D02*
X158280000Y-56400000D01*
X113200000Y-65000000D02*
X113200000Y-65600000D01*
X109275000Y-60300000D02*
X109275000Y-61375000D01*
X110400000Y-65000000D02*
X110400000Y-62500000D01*
D41*
X102750000Y-78800000D02*
X105600000Y-78800000D01*
X108500000Y-78600000D02*
X105800000Y-78600000D01*
D42*
X109300000Y-56200000D02*
X109300000Y-54100000D01*
D40*
X105800000Y-78600000D02*
X105600000Y-78800000D01*
D41*
X100650000Y-78800000D02*
X102750000Y-78800000D01*
D42*
X110125000Y-65275000D02*
X110850000Y-66000000D01*
X110125000Y-65275000D02*
X110400000Y-65000000D01*
X113200000Y-65600000D02*
X112800000Y-66000000D01*
D40*
X110850000Y-66000000D02*
X110800000Y-65950000D01*
D42*
X109450000Y-65275000D02*
X110125000Y-65275000D01*
X160800000Y-52600000D02*
X160800000Y-55500000D01*
X112800000Y-66000000D02*
X110850000Y-66000000D01*
X160800000Y-55500000D02*
X159900000Y-56400000D01*
%TO.N,Net-(U2-EN)*%
D41*
X105600000Y-80625000D02*
X105725000Y-80500000D01*
X105725000Y-80500000D02*
X108500000Y-80500000D01*
D40*
X108375000Y-80625000D02*
X108500000Y-80500000D01*
%TO.N,+3.3V*%
X116200000Y-70400000D02*
X116200000Y-69600000D01*
D42*
X147900000Y-77200000D02*
X131400000Y-77200000D01*
D40*
X125900000Y-72700000D02*
X125900000Y-71100000D01*
X130000000Y-63800000D02*
X130512500Y-64312500D01*
X131400000Y-77200000D02*
X130300000Y-77200000D01*
X115312500Y-78587500D02*
X115300000Y-78600000D01*
X128400000Y-73000000D02*
X126200000Y-73000000D01*
D42*
X120000000Y-78687500D02*
X120000000Y-76800000D01*
X146600000Y-64500000D02*
X137900000Y-64500000D01*
D40*
X126934314Y-62965686D02*
X127500000Y-62400000D01*
D41*
X113200000Y-78600000D02*
X115300000Y-78600000D01*
D40*
X129800000Y-74400000D02*
X128400000Y-73000000D01*
D41*
X117400000Y-78587500D02*
X115312500Y-78587500D01*
D40*
X127500000Y-62400000D02*
X128550000Y-62400000D01*
X130512500Y-64312500D02*
X130512500Y-65700000D01*
D42*
X155600000Y-71520000D02*
X153620000Y-71520000D01*
X155600000Y-71520000D02*
X153580000Y-71520000D01*
X168500000Y-71520000D02*
X155600000Y-71520000D01*
D40*
X117300000Y-62100000D02*
X118900000Y-62100000D01*
D42*
X125800000Y-78587500D02*
X125800000Y-76700000D01*
D40*
X125487500Y-64687500D02*
X126046814Y-64687500D01*
X126934314Y-63800000D02*
X130000000Y-63800000D01*
D42*
X153620000Y-71520000D02*
X146600000Y-64500000D01*
X122900000Y-78687500D02*
X122900000Y-76800000D01*
D40*
X130612500Y-65600000D02*
X130512500Y-65700000D01*
X129800000Y-76700000D02*
X129800000Y-74400000D01*
X130300000Y-77200000D02*
X129800000Y-76700000D01*
X116200000Y-63200000D02*
X117300000Y-62100000D01*
X126046814Y-64687500D02*
X126934314Y-63800000D01*
X116200000Y-69600000D02*
X117112500Y-68687500D01*
D42*
X137900000Y-64500000D02*
X136800000Y-65600000D01*
X127100000Y-55800000D02*
X125200000Y-55800000D01*
D40*
X116200000Y-64100000D02*
X116200000Y-63200000D01*
D42*
X153580000Y-71520000D02*
X147900000Y-77200000D01*
X117400000Y-78587500D02*
X117400000Y-76700000D01*
D40*
X124800000Y-70000000D02*
X124800000Y-69375000D01*
D42*
X127700000Y-55200000D02*
X127100000Y-55800000D01*
D40*
X126934314Y-63800000D02*
X126934314Y-62965686D01*
X117112500Y-68687500D02*
X118612500Y-68687500D01*
D42*
X136800000Y-65600000D02*
X130612500Y-65600000D01*
D41*
X110775000Y-78600000D02*
X113200000Y-78600000D01*
D40*
X118900000Y-62100000D02*
X119300000Y-62500000D01*
X125900000Y-71100000D02*
X124800000Y-70000000D01*
D42*
X127700000Y-52600000D02*
X127700000Y-55200000D01*
D40*
X126200000Y-73000000D02*
X125900000Y-72700000D01*
%TO.N,/ENTER*%
X122900000Y-81700000D02*
X122900000Y-80425000D01*
X121000000Y-82100000D02*
X122500000Y-82100000D01*
X120540000Y-82560000D02*
X121000000Y-82100000D01*
X120540000Y-83700000D02*
X120540000Y-82560000D01*
X124075000Y-80425000D02*
X124400000Y-80100000D01*
X124400000Y-77000000D02*
X120800000Y-73400000D01*
X120800000Y-73400000D02*
X120800000Y-69375000D01*
X124400000Y-80100000D02*
X124400000Y-77000000D01*
X122500000Y-82100000D02*
X122900000Y-81700000D01*
X122900000Y-80425000D02*
X124075000Y-80425000D01*
%TO.N,+5V*%
D41*
X98500000Y-85500000D02*
X127700000Y-85500000D01*
X92100000Y-75000000D02*
X92100000Y-78000000D01*
D40*
X106875000Y-65275000D02*
X106900000Y-65275000D01*
X98300000Y-74000000D02*
X98000000Y-73700000D01*
X98015001Y-69500000D02*
X98315001Y-69200000D01*
D41*
X95900000Y-73100000D02*
X95900000Y-70500000D01*
X96500000Y-73700000D02*
X95900000Y-74300000D01*
X95900000Y-74300000D02*
X92800000Y-74300000D01*
X92100000Y-78000000D02*
X92900000Y-78800000D01*
X96500000Y-73700000D02*
X95900000Y-73100000D01*
D42*
X106900000Y-65275000D02*
X107550000Y-65275000D01*
D41*
X95300000Y-78800000D02*
X96600000Y-80100000D01*
X96600000Y-83600000D02*
X98500000Y-85500000D01*
D40*
X98000000Y-73700000D02*
X96500000Y-73700000D01*
D42*
X107400000Y-60300000D02*
X107400000Y-61300000D01*
D41*
X92800000Y-74300000D02*
X92100000Y-75000000D01*
D42*
X107400000Y-61300000D02*
X106500000Y-62200000D01*
D41*
X96600000Y-80100000D02*
X96600000Y-83600000D01*
X95900000Y-70200000D02*
X96600000Y-69500000D01*
X127700000Y-85500000D02*
X128160000Y-85040000D01*
D42*
X106500000Y-64900000D02*
X106875000Y-65275000D01*
D40*
X98890000Y-74000000D02*
X98300000Y-74000000D01*
D41*
X128160000Y-85040000D02*
X128160000Y-83700000D01*
D42*
X105000000Y-65712500D02*
X106462500Y-65712500D01*
D41*
X92900000Y-78800000D02*
X95300000Y-78800000D01*
D42*
X106462500Y-65712500D02*
X106900000Y-65275000D01*
X106500000Y-62200000D02*
X106500000Y-64900000D01*
D40*
X98315001Y-69200000D02*
X98890000Y-69200000D01*
%TO.N,/UP_1*%
D41*
X113100000Y-100300000D02*
X113100000Y-95200000D01*
X113100000Y-95200000D02*
X106800000Y-95200000D01*
X115220000Y-123200000D02*
X115220000Y-102420000D01*
X115220000Y-102420000D02*
X113100000Y-100300000D01*
%TO.N,GND_1*%
X140200000Y-98200000D02*
X142300000Y-96100000D01*
X130910000Y-91300000D02*
X124610000Y-91300000D01*
X164100000Y-120000000D02*
X134100000Y-120000000D01*
X134100000Y-120000000D02*
X133000000Y-121100000D01*
X142300000Y-96100000D02*
X142300000Y-93000000D01*
X135400000Y-98200000D02*
X140200000Y-98200000D01*
X140700000Y-91400000D02*
X139550000Y-91400000D01*
X108700000Y-102700000D02*
X104000000Y-98000000D01*
X105400000Y-91400000D02*
X106800000Y-91400000D01*
X142300000Y-93000000D02*
X140700000Y-91400000D01*
X122310000Y-91300000D02*
X116010000Y-91300000D01*
X167310000Y-109500000D02*
X167310000Y-116790000D01*
X133000000Y-100600000D02*
X135400000Y-98200000D01*
X104000000Y-92800000D02*
X105400000Y-91400000D01*
D40*
X133000000Y-123200000D02*
X133000000Y-121200000D01*
D41*
X133000000Y-123200000D02*
X133000000Y-100600000D01*
X139550000Y-91400000D02*
X133250000Y-91400000D01*
X133000000Y-121100000D02*
X133000000Y-123200000D01*
X167310000Y-116790000D02*
X164100000Y-120000000D01*
X108700000Y-122200000D02*
X108700000Y-102700000D01*
X106800000Y-91400000D02*
X113100000Y-91400000D01*
D40*
X108600000Y-122300000D02*
X108700000Y-122200000D01*
D41*
X113100000Y-91400000D02*
X115650000Y-91400000D01*
X130750000Y-91400000D02*
X133250000Y-91400000D01*
X121950000Y-91400000D02*
X124450000Y-91400000D01*
X104000000Y-98000000D02*
X104000000Y-92800000D01*
%TO.N,+BATT_1*%
X111500000Y-124200000D02*
X112300000Y-125000000D01*
X94410000Y-115110000D02*
X103500000Y-124200000D01*
X125380000Y-124520000D02*
X125380000Y-123200000D01*
X94410000Y-109500000D02*
X94410000Y-115110000D01*
X112300000Y-125000000D02*
X124900000Y-125000000D01*
X124900000Y-125000000D02*
X125380000Y-124520000D01*
X108600000Y-124200000D02*
X111500000Y-124200000D01*
X103500000Y-124200000D02*
X108600000Y-124200000D01*
%TO.N,Net-(J1-D+-PadA6)*%
D40*
X100550000Y-72350000D02*
X98890000Y-72350000D01*
X100800000Y-71800000D02*
X100800000Y-72100000D01*
X100550000Y-71350000D02*
X100800000Y-71600000D01*
X98890000Y-71350000D02*
X100550000Y-71350000D01*
X100800000Y-72100000D02*
X100550000Y-72350000D01*
X100800000Y-71600000D02*
X100800000Y-71800000D01*
%TO.N,/UP*%
X119800000Y-75200000D02*
X119800000Y-69375000D01*
X117400000Y-81100000D02*
X117400000Y-80412500D01*
X118287500Y-80412500D02*
X118700000Y-80000000D01*
X115460000Y-83040000D02*
X117400000Y-81100000D01*
X118700000Y-76300000D02*
X119800000Y-75200000D01*
X115460000Y-83700000D02*
X115460000Y-83040000D01*
X118700000Y-80000000D02*
X118700000Y-76300000D01*
X117400000Y-80412500D02*
X118287500Y-80412500D01*
%TO.N,/DOWN*%
X121500000Y-76200000D02*
X121500000Y-80000000D01*
X120000000Y-81400000D02*
X120000000Y-80412500D01*
X118600000Y-81900000D02*
X119500000Y-81900000D01*
X120300000Y-75000000D02*
X121500000Y-76200000D01*
X121087500Y-80412500D02*
X120000000Y-80412500D01*
X118000000Y-83700000D02*
X118000000Y-82500000D01*
X118000000Y-82500000D02*
X118600000Y-81900000D01*
X120300000Y-69375000D02*
X120300000Y-75000000D01*
X119500000Y-81900000D02*
X120000000Y-81400000D01*
X121500000Y-80000000D02*
X121087500Y-80412500D01*
%TO.N,/BACK*%
X124100000Y-75800000D02*
X126600000Y-75800000D01*
X125500000Y-82100000D02*
X125800000Y-81800000D01*
X123080000Y-82620000D02*
X123600000Y-82100000D01*
X121300000Y-69375000D02*
X121300000Y-73000000D01*
X126600000Y-75800000D02*
X127500000Y-76700000D01*
X127175000Y-80425000D02*
X125800000Y-80425000D01*
X123080000Y-83700000D02*
X123080000Y-82620000D01*
X127500000Y-76700000D02*
X127500000Y-80100000D01*
X127500000Y-80100000D02*
X127175000Y-80425000D01*
X123600000Y-82100000D02*
X125500000Y-82100000D01*
X125800000Y-81800000D02*
X125800000Y-80425000D01*
X121300000Y-73000000D02*
X124100000Y-75800000D01*
%TO.N,+BATT*%
X107900000Y-67700000D02*
X108500000Y-67100000D01*
X106800000Y-67700000D02*
X107900000Y-67700000D01*
X108500000Y-67100000D02*
X108500000Y-63400000D01*
%TO.N,/EXT*%
X128000000Y-76000000D02*
X128000000Y-78900000D01*
X121800000Y-72600000D02*
X124400000Y-75200000D01*
X130700000Y-83200000D02*
X130492893Y-83200000D01*
X130200000Y-83492893D02*
X130200000Y-83700000D01*
X127200000Y-75200000D02*
X128000000Y-76000000D01*
X124400000Y-75200000D02*
X127200000Y-75200000D01*
X121800000Y-69375000D02*
X121800000Y-72600000D01*
X130492893Y-83200000D02*
X130200000Y-83492893D01*
X128000000Y-78900000D02*
X130700000Y-81600000D01*
X130700000Y-81600000D02*
X130700000Y-83200000D01*
%TO.N,Net-(U1-BOOT0)*%
X124300000Y-70800000D02*
X124600000Y-71100000D01*
X122800000Y-69375000D02*
X122800000Y-70400000D01*
X123200000Y-70800000D02*
X124300000Y-70800000D01*
X122800000Y-70400000D02*
X123200000Y-70800000D01*
%TO.N,Net-(J2-Pin_16)*%
D41*
X121000000Y-52600000D02*
X125160000Y-52600000D01*
D40*
X124660000Y-52560000D02*
X124700000Y-52600000D01*
%TO.N,Net-(Q2-B)*%
X118387500Y-55212500D02*
X118460000Y-55140000D01*
D42*
X118387500Y-58100000D02*
X118387500Y-55212500D01*
%TO.N,/DOWN_2*%
D41*
X121950000Y-95200000D02*
X115650000Y-95200000D01*
X117760000Y-123200000D02*
X117760000Y-102060000D01*
X117760000Y-102060000D02*
X115650000Y-99950000D01*
X115650000Y-99950000D02*
X115650000Y-95200000D01*
%TO.N,+BATT_2*%
D40*
X125487500Y-68687500D02*
X126487500Y-68687500D01*
D42*
X127212500Y-72137500D02*
X140762500Y-72137500D01*
D40*
X127212500Y-69412500D02*
X127212500Y-72137500D01*
D42*
X141600000Y-71300000D02*
X141600000Y-68000121D01*
D40*
X126487500Y-68687500D02*
X127212500Y-69412500D01*
D42*
X140762500Y-72137500D02*
X141600000Y-71300000D01*
%TO.N,Net-(U1-NRST)*%
D40*
X125487500Y-65687500D02*
X128675000Y-65687500D01*
X128675000Y-65687500D02*
X128687500Y-65700000D01*
%TO.N,/ENTER_3*%
D41*
X130750000Y-95200000D02*
X124450000Y-95200000D01*
X124450000Y-97950000D02*
X124450000Y-95200000D01*
X120300000Y-102100000D02*
X124450000Y-97950000D01*
X120300000Y-123200000D02*
X120300000Y-102100000D01*
%TO.N,Net-(U1-PC14)*%
D40*
X132300000Y-70970000D02*
X133230000Y-70970000D01*
X133230000Y-70970000D02*
X133500000Y-70700000D01*
X125487500Y-67687500D02*
X127687500Y-67687500D01*
X133500000Y-70700000D02*
X135212500Y-70700000D01*
X127687500Y-67687500D02*
X130970000Y-70970000D01*
X130970000Y-70970000D02*
X132300000Y-70970000D01*
%TO.N,/BL*%
X121100000Y-58100000D02*
X120212500Y-58100000D01*
X121600000Y-58600000D02*
X121100000Y-58100000D01*
X121800000Y-62500000D02*
X121800000Y-61300000D01*
X121800000Y-61300000D02*
X121600000Y-61100000D01*
X121600000Y-61100000D02*
X121600000Y-58600000D01*
%TO.N,/RS*%
X124800000Y-62500000D02*
X124800000Y-61600000D01*
X125600000Y-60800000D02*
X154600000Y-60800000D01*
X154600000Y-60800000D02*
X155640000Y-59760000D01*
X124800000Y-61600000D02*
X125600000Y-60800000D01*
X155640000Y-59760000D02*
X155640000Y-52600000D01*
%TO.N,/E*%
X124300000Y-62500000D02*
X124300000Y-61534315D01*
X125434315Y-60400000D02*
X149400000Y-60400000D01*
X150560000Y-59240000D02*
X150560000Y-52600000D01*
X149400000Y-60400000D02*
X150560000Y-59240000D01*
X124300000Y-61534315D02*
X125434315Y-60400000D01*
%TO.N,/D4*%
X125268630Y-60000000D02*
X137000000Y-60000000D01*
X137000000Y-60000000D02*
X137860000Y-59140000D01*
X137860000Y-59140000D02*
X137860000Y-52600000D01*
X123800000Y-61468630D02*
X125268630Y-60000000D01*
X123800000Y-62500000D02*
X123800000Y-61468630D01*
%TO.N,/D5*%
X123300000Y-62500000D02*
X123300000Y-61402945D01*
X134900000Y-59600000D02*
X135320000Y-59180000D01*
X123300000Y-61402945D02*
X125102945Y-59600000D01*
X135320000Y-59180000D02*
X135320000Y-52600000D01*
X125102945Y-59600000D02*
X134900000Y-59600000D01*
%TO.N,/D6*%
X132780000Y-58620000D02*
X132780000Y-52600000D01*
X122800000Y-61337259D02*
X124937259Y-59200000D01*
X132200000Y-59200000D02*
X132780000Y-58620000D01*
X122800000Y-62500000D02*
X122800000Y-61337259D01*
X124937259Y-59200000D02*
X132200000Y-59200000D01*
%TO.N,/D7*%
X129500000Y-58800000D02*
X130240000Y-58060000D01*
X122300000Y-61271573D02*
X124771574Y-58800000D01*
X130240000Y-58060000D02*
X130240000Y-52600000D01*
X124771574Y-58800000D02*
X129500000Y-58800000D01*
X122300000Y-62500000D02*
X122300000Y-61271573D01*
%TO.N,/BACK_4*%
D41*
X122840000Y-102660000D02*
X125800000Y-99700000D01*
X133250000Y-95200000D02*
X139550000Y-95200000D01*
X125800000Y-99700000D02*
X131200000Y-99700000D01*
X122840000Y-123200000D02*
X122840000Y-102660000D01*
X131200000Y-99700000D02*
X133250000Y-97650000D01*
X133250000Y-97650000D02*
X133250000Y-95200000D01*
%TD*%
%TA.AperFunction,Conductor*%
%TO.N,GND*%
G36*
X170962539Y-50330185D02*
G01*
X171008294Y-50382989D01*
X171019500Y-50434500D01*
X171019500Y-85685500D01*
X170999815Y-85752539D01*
X170947011Y-85798294D01*
X170895500Y-85809500D01*
X128751230Y-85809500D01*
X128684191Y-85789815D01*
X128638436Y-85737011D01*
X128628492Y-85667853D01*
X128657517Y-85604297D01*
X128663549Y-85597819D01*
X128742948Y-85518419D01*
X128742947Y-85518419D01*
X128742951Y-85518416D01*
X128825084Y-85395495D01*
X128881658Y-85258913D01*
X128898143Y-85176039D01*
X128910500Y-85113920D01*
X128910500Y-84887220D01*
X128930185Y-84820181D01*
X128961614Y-84786902D01*
X129039792Y-84730104D01*
X129190104Y-84579792D01*
X129190106Y-84579788D01*
X129190109Y-84579786D01*
X129315048Y-84407820D01*
X129315047Y-84407820D01*
X129315051Y-84407816D01*
X129319514Y-84399054D01*
X129367488Y-84348259D01*
X129435308Y-84331463D01*
X129501444Y-84353999D01*
X129540486Y-84399056D01*
X129544951Y-84407820D01*
X129669890Y-84579786D01*
X129820213Y-84730109D01*
X129992179Y-84855048D01*
X129992181Y-84855049D01*
X129992184Y-84855051D01*
X130181588Y-84951557D01*
X130383757Y-85017246D01*
X130593713Y-85050500D01*
X130593714Y-85050500D01*
X130806286Y-85050500D01*
X130806287Y-85050500D01*
X131016243Y-85017246D01*
X131218412Y-84951557D01*
X131407816Y-84855051D01*
X131462572Y-84815269D01*
X131579786Y-84730109D01*
X131579788Y-84730106D01*
X131579792Y-84730104D01*
X131730104Y-84579792D01*
X131730106Y-84579788D01*
X131730109Y-84579786D01*
X131815890Y-84461717D01*
X131855051Y-84407816D01*
X131859793Y-84398508D01*
X131907763Y-84347711D01*
X131975583Y-84330911D01*
X132041719Y-84353445D01*
X132080763Y-84398500D01*
X132085373Y-84407547D01*
X132124728Y-84461716D01*
X132757037Y-83829408D01*
X132774075Y-83892993D01*
X132839901Y-84007007D01*
X132932993Y-84100099D01*
X133047007Y-84165925D01*
X133110590Y-84182962D01*
X132478282Y-84815269D01*
X132478282Y-84815270D01*
X132532449Y-84854624D01*
X132721782Y-84951095D01*
X132923870Y-85016757D01*
X133133754Y-85050000D01*
X133346246Y-85050000D01*
X133556127Y-85016757D01*
X133556130Y-85016757D01*
X133758217Y-84951095D01*
X133947554Y-84854622D01*
X134001716Y-84815270D01*
X134001717Y-84815270D01*
X133369408Y-84182962D01*
X133432993Y-84165925D01*
X133547007Y-84100099D01*
X133640099Y-84007007D01*
X133705925Y-83892993D01*
X133722962Y-83829408D01*
X134355270Y-84461717D01*
X134355270Y-84461716D01*
X134394622Y-84407554D01*
X134491095Y-84218217D01*
X134556757Y-84016130D01*
X134556757Y-84016127D01*
X134590000Y-83806246D01*
X134590000Y-83593752D01*
X134575216Y-83500408D01*
X134572785Y-83485062D01*
X167046504Y-83485062D01*
X167046504Y-83714937D01*
X167060194Y-83818917D01*
X167076507Y-83942824D01*
X167106177Y-84053554D01*
X167135998Y-84164850D01*
X167223960Y-84377208D01*
X167223964Y-84377218D01*
X167338892Y-84576279D01*
X167478821Y-84758639D01*
X167478827Y-84758646D01*
X167641353Y-84921172D01*
X167641360Y-84921178D01*
X167823720Y-85061107D01*
X168022781Y-85176035D01*
X168022782Y-85176035D01*
X168022785Y-85176037D01*
X168235148Y-85264001D01*
X168457176Y-85323493D01*
X168685070Y-85353496D01*
X168685077Y-85353496D01*
X168914923Y-85353496D01*
X168914930Y-85353496D01*
X169142824Y-85323493D01*
X169364852Y-85264001D01*
X169577215Y-85176037D01*
X169776280Y-85061107D01*
X169958641Y-84921177D01*
X170121177Y-84758641D01*
X170261107Y-84576280D01*
X170376037Y-84377215D01*
X170464001Y-84164852D01*
X170523493Y-83942824D01*
X170553496Y-83714930D01*
X170553496Y-83485070D01*
X170523493Y-83257176D01*
X170464001Y-83035148D01*
X170376037Y-82822785D01*
X170372415Y-82816512D01*
X170261107Y-82623720D01*
X170121178Y-82441360D01*
X170121172Y-82441353D01*
X169958646Y-82278827D01*
X169958639Y-82278821D01*
X169776279Y-82138892D01*
X169577218Y-82023964D01*
X169577208Y-82023960D01*
X169364850Y-81935998D01*
X169230863Y-81900097D01*
X169142824Y-81876507D01*
X169104738Y-81871492D01*
X168914937Y-81846504D01*
X168914930Y-81846504D01*
X168685070Y-81846504D01*
X168685062Y-81846504D01*
X168478201Y-81873739D01*
X168457176Y-81876507D01*
X168410253Y-81889079D01*
X168235149Y-81935998D01*
X168022791Y-82023960D01*
X168022781Y-82023964D01*
X167823720Y-82138892D01*
X167641360Y-82278821D01*
X167641353Y-82278827D01*
X167478827Y-82441353D01*
X167478821Y-82441360D01*
X167338892Y-82623720D01*
X167223964Y-82822781D01*
X167223960Y-82822791D01*
X167135998Y-83035149D01*
X167076508Y-83257173D01*
X167076506Y-83257184D01*
X167046504Y-83485062D01*
X134572785Y-83485062D01*
X134556757Y-83383872D01*
X134556757Y-83383869D01*
X134491095Y-83181782D01*
X134394624Y-82992449D01*
X134355270Y-82938282D01*
X134355269Y-82938282D01*
X133722962Y-83570590D01*
X133705925Y-83507007D01*
X133640099Y-83392993D01*
X133547007Y-83299901D01*
X133432993Y-83234075D01*
X133369409Y-83217037D01*
X134001716Y-82584728D01*
X133947550Y-82545375D01*
X133758217Y-82448904D01*
X133556129Y-82383242D01*
X133346246Y-82350000D01*
X133133754Y-82350000D01*
X132923872Y-82383242D01*
X132923869Y-82383242D01*
X132721782Y-82448904D01*
X132532439Y-82545380D01*
X132478282Y-82584727D01*
X132478282Y-82584728D01*
X133110591Y-83217037D01*
X133047007Y-83234075D01*
X132932993Y-83299901D01*
X132839901Y-83392993D01*
X132774075Y-83507007D01*
X132757037Y-83570591D01*
X132124728Y-82938282D01*
X132124727Y-82938282D01*
X132085380Y-82992440D01*
X132085376Y-82992446D01*
X132080760Y-83001505D01*
X132032781Y-83052297D01*
X131964959Y-83069087D01*
X131898826Y-83046543D01*
X131859794Y-83001493D01*
X131855051Y-82992184D01*
X131855049Y-82992181D01*
X131855048Y-82992179D01*
X131730109Y-82820213D01*
X131579786Y-82669890D01*
X131407815Y-82544948D01*
X131407814Y-82544947D01*
X131368205Y-82524765D01*
X131317409Y-82476791D01*
X131300500Y-82414281D01*
X131300500Y-81689060D01*
X131300501Y-81689047D01*
X131300501Y-81520944D01*
X131294889Y-81499999D01*
X131259577Y-81368216D01*
X131218806Y-81297598D01*
X131180524Y-81231290D01*
X131180518Y-81231282D01*
X128636819Y-78687583D01*
X128603334Y-78626260D01*
X128600500Y-78599902D01*
X128600500Y-76089059D01*
X128600501Y-76089046D01*
X128600501Y-75920945D01*
X128600501Y-75920943D01*
X128559577Y-75768215D01*
X128508946Y-75680520D01*
X128480520Y-75631284D01*
X128368716Y-75519480D01*
X128368715Y-75519479D01*
X128364385Y-75515149D01*
X128364374Y-75515139D01*
X128002762Y-75153527D01*
X127969277Y-75092204D01*
X127974261Y-75022512D01*
X128016133Y-74966579D01*
X128025347Y-74960307D01*
X128155843Y-74879817D01*
X128279815Y-74755845D01*
X128371856Y-74606624D01*
X128371858Y-74606619D01*
X128427005Y-74440197D01*
X128427006Y-74440190D01*
X128437499Y-74337486D01*
X128437499Y-74186097D01*
X128457183Y-74119057D01*
X128509987Y-74073302D01*
X128579145Y-74063358D01*
X128642701Y-74092383D01*
X128649180Y-74098415D01*
X129163181Y-74612416D01*
X129196666Y-74673739D01*
X129199500Y-74700097D01*
X129199500Y-76613330D01*
X129199499Y-76613348D01*
X129199499Y-76779054D01*
X129199498Y-76779054D01*
X129199499Y-76779057D01*
X129240423Y-76931785D01*
X129261457Y-76968216D01*
X129319480Y-77068716D01*
X129431284Y-77180520D01*
X129431285Y-77180521D01*
X129931284Y-77680520D01*
X129931286Y-77680521D01*
X129931290Y-77680524D01*
X130041433Y-77744114D01*
X130068216Y-77759577D01*
X130220943Y-77800501D01*
X130220945Y-77800501D01*
X130386654Y-77800501D01*
X130386670Y-77800500D01*
X130534216Y-77800500D01*
X130601255Y-77820185D01*
X130621897Y-77836819D01*
X130762214Y-77977136D01*
X130762218Y-77977139D01*
X130926079Y-78086628D01*
X130926092Y-78086635D01*
X131108160Y-78162049D01*
X131108165Y-78162051D01*
X131108169Y-78162051D01*
X131108170Y-78162052D01*
X131301456Y-78200500D01*
X131301459Y-78200500D01*
X131498543Y-78200500D01*
X131628582Y-78174632D01*
X131691835Y-78162051D01*
X131873914Y-78086632D01*
X132037782Y-77977139D01*
X132078101Y-77936820D01*
X132139424Y-77903334D01*
X132165783Y-77900500D01*
X147968996Y-77900500D01*
X148094238Y-77875587D01*
X148104328Y-77873580D01*
X148177658Y-77843206D01*
X148231807Y-77820777D01*
X148231808Y-77820776D01*
X148231811Y-77820775D01*
X148346543Y-77744114D01*
X153833838Y-72256819D01*
X153895161Y-72223334D01*
X153921519Y-72220500D01*
X155531007Y-72220500D01*
X167025501Y-72220500D01*
X167092540Y-72240185D01*
X167138295Y-72292989D01*
X167149501Y-72344500D01*
X167149501Y-72417876D01*
X167155908Y-72477483D01*
X167206202Y-72612328D01*
X167206206Y-72612335D01*
X167292452Y-72727544D01*
X167292455Y-72727547D01*
X167407664Y-72813793D01*
X167407671Y-72813797D01*
X167539082Y-72862810D01*
X167595016Y-72904681D01*
X167619433Y-72970145D01*
X167604582Y-73038418D01*
X167583431Y-73066673D01*
X167469889Y-73180215D01*
X167344951Y-73352179D01*
X167248444Y-73541585D01*
X167182753Y-73743760D01*
X167155608Y-73915149D01*
X167149500Y-73953713D01*
X167149500Y-74166287D01*
X167151121Y-74176520D01*
X167182238Y-74372989D01*
X167182754Y-74376243D01*
X167246979Y-74573907D01*
X167248444Y-74578414D01*
X167344951Y-74767820D01*
X167469890Y-74939786D01*
X167620213Y-75090109D01*
X167792182Y-75215050D01*
X167800946Y-75219516D01*
X167851742Y-75267491D01*
X167868536Y-75335312D01*
X167845998Y-75401447D01*
X167800946Y-75440484D01*
X167792182Y-75444949D01*
X167620213Y-75569890D01*
X167469890Y-75720213D01*
X167344951Y-75892179D01*
X167248444Y-76081585D01*
X167182753Y-76283760D01*
X167149500Y-76493713D01*
X167149500Y-76706286D01*
X167177262Y-76881572D01*
X167182754Y-76916243D01*
X167232295Y-77068715D01*
X167248444Y-77118414D01*
X167344951Y-77307820D01*
X167469890Y-77479786D01*
X167620213Y-77630109D01*
X167792179Y-77755048D01*
X167792181Y-77755049D01*
X167792184Y-77755051D01*
X167801493Y-77759794D01*
X167852290Y-77807766D01*
X167869087Y-77875587D01*
X167846552Y-77941722D01*
X167801505Y-77980760D01*
X167792446Y-77985376D01*
X167792440Y-77985380D01*
X167738282Y-78024727D01*
X167738282Y-78024728D01*
X168370591Y-78657037D01*
X168307007Y-78674075D01*
X168192993Y-78739901D01*
X168099901Y-78832993D01*
X168034075Y-78947007D01*
X168017037Y-79010591D01*
X167384728Y-78378282D01*
X167384727Y-78378282D01*
X167345380Y-78432439D01*
X167248904Y-78621782D01*
X167183242Y-78823869D01*
X167183242Y-78823872D01*
X167150000Y-79033753D01*
X167150000Y-79246246D01*
X167183242Y-79456127D01*
X167183242Y-79456130D01*
X167248904Y-79658217D01*
X167345375Y-79847550D01*
X167384728Y-79901716D01*
X168017037Y-79269408D01*
X168034075Y-79332993D01*
X168099901Y-79447007D01*
X168192993Y-79540099D01*
X168307007Y-79605925D01*
X168370590Y-79622962D01*
X167738282Y-80255269D01*
X167738282Y-80255270D01*
X167792449Y-80294624D01*
X167981782Y-80391095D01*
X168183870Y-80456757D01*
X168393754Y-80490000D01*
X168606246Y-80490000D01*
X168816127Y-80456757D01*
X168816130Y-80456757D01*
X169018217Y-80391095D01*
X169207554Y-80294622D01*
X169261716Y-80255270D01*
X169261717Y-80255270D01*
X168629408Y-79622962D01*
X168692993Y-79605925D01*
X168807007Y-79540099D01*
X168900099Y-79447007D01*
X168965925Y-79332993D01*
X168982962Y-79269409D01*
X169615270Y-79901717D01*
X169615270Y-79901716D01*
X169654622Y-79847554D01*
X169751095Y-79658217D01*
X169816757Y-79456130D01*
X169816757Y-79456127D01*
X169850000Y-79246246D01*
X169850000Y-79033753D01*
X169816757Y-78823872D01*
X169816757Y-78823869D01*
X169751095Y-78621782D01*
X169654624Y-78432449D01*
X169615270Y-78378282D01*
X169615269Y-78378282D01*
X168982962Y-79010590D01*
X168965925Y-78947007D01*
X168900099Y-78832993D01*
X168807007Y-78739901D01*
X168692993Y-78674075D01*
X168629409Y-78657037D01*
X169261716Y-78024728D01*
X169207547Y-77985373D01*
X169207547Y-77985372D01*
X169198500Y-77980763D01*
X169147706Y-77932788D01*
X169130912Y-77864966D01*
X169153451Y-77798832D01*
X169198508Y-77759793D01*
X169207816Y-77755051D01*
X169298546Y-77689132D01*
X169379786Y-77630109D01*
X169379788Y-77630106D01*
X169379792Y-77630104D01*
X169530104Y-77479792D01*
X169530106Y-77479788D01*
X169530109Y-77479786D01*
X169655048Y-77307820D01*
X169655047Y-77307820D01*
X169655051Y-77307816D01*
X169751557Y-77118412D01*
X169817246Y-76916243D01*
X169850500Y-76706287D01*
X169850500Y-76493713D01*
X169817246Y-76283757D01*
X169751557Y-76081588D01*
X169655051Y-75892184D01*
X169655049Y-75892181D01*
X169655048Y-75892179D01*
X169530109Y-75720213D01*
X169379786Y-75569890D01*
X169207820Y-75444951D01*
X169205981Y-75444014D01*
X169199054Y-75440485D01*
X169148259Y-75392512D01*
X169131463Y-75324692D01*
X169153999Y-75258556D01*
X169199054Y-75219515D01*
X169207816Y-75215051D01*
X169318254Y-75134814D01*
X169379786Y-75090109D01*
X169379788Y-75090106D01*
X169379792Y-75090104D01*
X169530104Y-74939792D01*
X169530106Y-74939788D01*
X169530109Y-74939786D01*
X169655048Y-74767820D01*
X169655047Y-74767820D01*
X169655051Y-74767816D01*
X169751557Y-74578412D01*
X169817246Y-74376243D01*
X169850500Y-74166287D01*
X169850500Y-73953713D01*
X169817246Y-73743757D01*
X169751557Y-73541588D01*
X169655051Y-73352184D01*
X169655049Y-73352181D01*
X169655048Y-73352179D01*
X169530109Y-73180213D01*
X169416569Y-73066673D01*
X169383084Y-73005350D01*
X169388068Y-72935658D01*
X169429940Y-72879725D01*
X169460915Y-72862810D01*
X169592331Y-72813796D01*
X169707546Y-72727546D01*
X169793796Y-72612331D01*
X169844091Y-72477483D01*
X169850500Y-72417873D01*
X169850499Y-70622128D01*
X169844824Y-70569334D01*
X169844091Y-70562516D01*
X169793797Y-70427671D01*
X169793793Y-70427664D01*
X169707547Y-70312455D01*
X169707544Y-70312452D01*
X169592335Y-70226206D01*
X169592328Y-70226202D01*
X169457482Y-70175908D01*
X169457483Y-70175908D01*
X169397883Y-70169501D01*
X169397881Y-70169500D01*
X169397873Y-70169500D01*
X169397864Y-70169500D01*
X167602129Y-70169500D01*
X167602123Y-70169501D01*
X167542516Y-70175908D01*
X167407671Y-70226202D01*
X167407664Y-70226206D01*
X167292455Y-70312452D01*
X167292452Y-70312455D01*
X167206206Y-70427664D01*
X167206202Y-70427671D01*
X167155908Y-70562517D01*
X167149501Y-70622116D01*
X167149501Y-70622123D01*
X167149500Y-70622135D01*
X167149500Y-70695500D01*
X167129815Y-70762539D01*
X167077011Y-70808294D01*
X167025500Y-70819500D01*
X153961519Y-70819500D01*
X153894480Y-70799815D01*
X153873838Y-70783181D01*
X150871275Y-67780618D01*
X150788460Y-67697803D01*
X160800000Y-67697803D01*
X160800000Y-67750121D01*
X161753590Y-67750121D01*
X161703963Y-67836077D01*
X161675000Y-67944169D01*
X161675000Y-68056073D01*
X161703963Y-68164165D01*
X161753590Y-68250121D01*
X160800000Y-68250121D01*
X160800000Y-68302438D01*
X160832009Y-68504538D01*
X160895244Y-68699152D01*
X160988140Y-68881470D01*
X161108417Y-69047015D01*
X161108417Y-69047016D01*
X161253104Y-69191703D01*
X161418650Y-69311980D01*
X161600968Y-69404875D01*
X161795578Y-69468109D01*
X161850000Y-69476728D01*
X161850000Y-68346530D01*
X161935956Y-68396158D01*
X162044048Y-68425121D01*
X162155952Y-68425121D01*
X162264044Y-68396158D01*
X162350000Y-68346530D01*
X162350000Y-69476727D01*
X162404421Y-69468109D01*
X162599031Y-69404875D01*
X162781349Y-69311980D01*
X162946894Y-69191703D01*
X162946895Y-69191703D01*
X163091582Y-69047016D01*
X163091582Y-69047015D01*
X163211859Y-68881470D01*
X163304755Y-68699152D01*
X163367990Y-68504538D01*
X163400000Y-68302438D01*
X163400000Y-68250121D01*
X162446410Y-68250121D01*
X162496037Y-68164165D01*
X162525000Y-68056073D01*
X162525000Y-67944169D01*
X162496037Y-67836077D01*
X162446410Y-67750121D01*
X163400000Y-67750121D01*
X163400000Y-67697803D01*
X163367990Y-67495703D01*
X163304755Y-67301089D01*
X163211859Y-67118771D01*
X163091582Y-66953226D01*
X163091582Y-66953225D01*
X162946895Y-66808538D01*
X162781349Y-66688261D01*
X162599029Y-66595365D01*
X162404413Y-66532130D01*
X162350000Y-66523511D01*
X162350000Y-67653711D01*
X162264044Y-67604084D01*
X162155952Y-67575121D01*
X162044048Y-67575121D01*
X161935956Y-67604084D01*
X161850000Y-67653711D01*
X161850000Y-66523511D01*
X161795586Y-66532130D01*
X161600970Y-66595365D01*
X161418650Y-66688261D01*
X161253105Y-66808538D01*
X161253104Y-66808538D01*
X161108417Y-66953225D01*
X161108417Y-66953226D01*
X160988140Y-67118771D01*
X160895244Y-67301089D01*
X160832009Y-67495703D01*
X160800000Y-67697803D01*
X150788460Y-67697803D01*
X147046546Y-63955888D01*
X147046545Y-63955887D01*
X146931807Y-63879222D01*
X146804332Y-63826421D01*
X146804322Y-63826418D01*
X146668996Y-63799500D01*
X146668994Y-63799500D01*
X146668993Y-63799500D01*
X137968994Y-63799500D01*
X137831006Y-63799500D01*
X137831004Y-63799500D01*
X137695677Y-63826418D01*
X137695667Y-63826421D01*
X137568192Y-63879222D01*
X137453454Y-63955887D01*
X137453453Y-63955888D01*
X136546162Y-64863181D01*
X136484839Y-64896666D01*
X136458481Y-64899500D01*
X131509798Y-64899500D01*
X131442759Y-64879815D01*
X131404259Y-64840597D01*
X131367712Y-64781344D01*
X131243656Y-64657288D01*
X131243655Y-64657287D01*
X131171902Y-64613029D01*
X131125178Y-64561081D01*
X131113000Y-64507491D01*
X131113000Y-64233445D01*
X131113000Y-64233443D01*
X131072077Y-64080716D01*
X131046840Y-64037003D01*
X130993024Y-63943790D01*
X130993021Y-63943786D01*
X130993020Y-63943784D01*
X130881216Y-63831980D01*
X130881215Y-63831979D01*
X130876885Y-63827649D01*
X130876874Y-63827639D01*
X130852922Y-63803687D01*
X130819437Y-63742364D01*
X130824421Y-63672672D01*
X130866293Y-63616739D01*
X130901600Y-63598300D01*
X131019117Y-63559359D01*
X131019124Y-63559356D01*
X131168345Y-63467315D01*
X131292315Y-63343345D01*
X131384356Y-63194124D01*
X131384358Y-63194119D01*
X131439505Y-63027697D01*
X131439506Y-63027690D01*
X131449999Y-62924986D01*
X131450000Y-62924973D01*
X131450000Y-62650000D01*
X130574000Y-62650000D01*
X130506961Y-62630315D01*
X130461206Y-62577511D01*
X130450000Y-62526000D01*
X130450000Y-62274000D01*
X130469685Y-62206961D01*
X130522489Y-62161206D01*
X130574000Y-62150000D01*
X131449999Y-62150000D01*
X131449999Y-61875028D01*
X131449998Y-61875013D01*
X131439505Y-61772302D01*
X131384358Y-61605880D01*
X131384355Y-61605873D01*
X131374316Y-61589598D01*
X131355875Y-61522206D01*
X131376797Y-61455542D01*
X131430438Y-61410772D01*
X131479854Y-61400500D01*
X154513331Y-61400500D01*
X154513347Y-61400501D01*
X154520943Y-61400501D01*
X154679054Y-61400501D01*
X154679057Y-61400501D01*
X154831785Y-61359577D01*
X154881904Y-61330639D01*
X154968716Y-61280520D01*
X155080520Y-61168716D01*
X155080520Y-61168714D01*
X155090728Y-61158507D01*
X155090730Y-61158504D01*
X155998506Y-60250728D01*
X155998511Y-60250724D01*
X156008714Y-60240520D01*
X156008716Y-60240520D01*
X156120520Y-60128716D01*
X156183587Y-60019480D01*
X156199577Y-59991785D01*
X156240500Y-59839057D01*
X156240500Y-59680943D01*
X156240500Y-53885718D01*
X156260185Y-53818679D01*
X156308207Y-53775233D01*
X156347815Y-53755052D01*
X156347815Y-53755051D01*
X156347816Y-53755051D01*
X156466125Y-53669095D01*
X156519786Y-53630109D01*
X156519788Y-53630106D01*
X156519792Y-53630104D01*
X156670104Y-53479792D01*
X156670106Y-53479788D01*
X156670109Y-53479786D01*
X156744635Y-53377208D01*
X156795051Y-53307816D01*
X156799793Y-53298508D01*
X156847763Y-53247711D01*
X156915583Y-53230911D01*
X156981719Y-53253445D01*
X157020763Y-53298500D01*
X157025373Y-53307547D01*
X157064728Y-53361716D01*
X157697037Y-52729408D01*
X157714075Y-52792993D01*
X157779901Y-52907007D01*
X157872993Y-53000099D01*
X157987007Y-53065925D01*
X158050590Y-53082962D01*
X157418282Y-53715269D01*
X157418282Y-53715270D01*
X157472449Y-53754624D01*
X157661782Y-53851095D01*
X157863870Y-53916757D01*
X158073754Y-53950000D01*
X158286246Y-53950000D01*
X158496127Y-53916757D01*
X158496130Y-53916757D01*
X158698217Y-53851095D01*
X158887554Y-53754622D01*
X158941716Y-53715270D01*
X158941717Y-53715270D01*
X158309408Y-53082962D01*
X158372993Y-53065925D01*
X158487007Y-53000099D01*
X158580099Y-52907007D01*
X158645925Y-52792993D01*
X158662962Y-52729409D01*
X159295270Y-53361717D01*
X159295270Y-53361716D01*
X159334622Y-53307555D01*
X159339232Y-53298507D01*
X159387205Y-53247709D01*
X159455025Y-53230912D01*
X159521161Y-53253447D01*
X159560204Y-53298504D01*
X159564949Y-53307817D01*
X159689890Y-53479786D01*
X159689896Y-53479792D01*
X159840208Y-53630104D01*
X160012184Y-53755051D01*
X160031793Y-53765042D01*
X160082589Y-53813014D01*
X160099500Y-53875527D01*
X160099500Y-55158481D01*
X160079815Y-55225520D01*
X160063181Y-55246162D01*
X159646162Y-55663181D01*
X159584839Y-55696666D01*
X159558481Y-55699500D01*
X159045783Y-55699500D01*
X158978744Y-55679815D01*
X158958101Y-55663180D01*
X158917785Y-55622863D01*
X158917781Y-55622860D01*
X158753920Y-55513371D01*
X158753907Y-55513364D01*
X158571839Y-55437950D01*
X158571829Y-55437947D01*
X158378543Y-55399500D01*
X158378541Y-55399500D01*
X158181459Y-55399500D01*
X158181457Y-55399500D01*
X157988170Y-55437947D01*
X157988160Y-55437950D01*
X157806092Y-55513364D01*
X157806079Y-55513371D01*
X157642218Y-55622860D01*
X157642214Y-55622863D01*
X157502863Y-55762214D01*
X157502860Y-55762218D01*
X157393371Y-55926079D01*
X157393364Y-55926092D01*
X157317950Y-56108160D01*
X157317947Y-56108170D01*
X157279500Y-56301456D01*
X157279500Y-56301459D01*
X157279500Y-56498541D01*
X157279500Y-56498543D01*
X157279499Y-56498543D01*
X157317947Y-56691829D01*
X157317950Y-56691839D01*
X157393364Y-56873907D01*
X157393371Y-56873920D01*
X157502860Y-57037781D01*
X157502863Y-57037785D01*
X157642214Y-57177136D01*
X157642218Y-57177139D01*
X157806079Y-57286628D01*
X157806092Y-57286635D01*
X157912394Y-57330666D01*
X157988165Y-57362051D01*
X157988169Y-57362051D01*
X157988170Y-57362052D01*
X158181456Y-57400500D01*
X158181459Y-57400500D01*
X158378543Y-57400500D01*
X158508582Y-57374632D01*
X158571835Y-57362051D01*
X158753914Y-57286632D01*
X158917782Y-57177139D01*
X158958101Y-57136820D01*
X159019424Y-57103334D01*
X159045783Y-57100500D01*
X159968996Y-57100500D01*
X160060040Y-57082389D01*
X160104328Y-57073580D01*
X160190745Y-57037785D01*
X160231807Y-57020777D01*
X160231808Y-57020776D01*
X160231811Y-57020775D01*
X160346543Y-56944114D01*
X161344114Y-55946543D01*
X161420775Y-55831811D01*
X161473580Y-55704329D01*
X161495193Y-55595672D01*
X161500500Y-55568993D01*
X161500500Y-53765424D01*
X161520185Y-53698385D01*
X161540877Y-53673864D01*
X161545996Y-53669188D01*
X161599792Y-53630104D01*
X161715718Y-53514177D01*
X161717772Y-53512302D01*
X161746740Y-53498146D01*
X161775036Y-53482696D01*
X161777935Y-53482903D01*
X161780547Y-53481627D01*
X161812573Y-53485380D01*
X161844728Y-53487680D01*
X161847054Y-53489421D01*
X161849942Y-53489760D01*
X161874850Y-53510228D01*
X161900662Y-53529551D01*
X161902533Y-53532977D01*
X161903923Y-53534120D01*
X161905026Y-53537543D01*
X161917577Y-53560528D01*
X161966646Y-53692088D01*
X161966649Y-53692093D01*
X162052809Y-53807187D01*
X162052812Y-53807190D01*
X162167906Y-53893350D01*
X162167913Y-53893354D01*
X162302620Y-53943596D01*
X162302627Y-53943598D01*
X162362155Y-53949999D01*
X162362172Y-53950000D01*
X163010000Y-53950000D01*
X163010000Y-53033012D01*
X163067007Y-53065925D01*
X163194174Y-53100000D01*
X163325826Y-53100000D01*
X163452993Y-53065925D01*
X163510000Y-53033012D01*
X163510000Y-53950000D01*
X164157828Y-53950000D01*
X164157844Y-53949999D01*
X164217372Y-53943598D01*
X164217379Y-53943596D01*
X164352086Y-53893354D01*
X164352093Y-53893350D01*
X164467187Y-53807190D01*
X164467190Y-53807187D01*
X164553350Y-53692093D01*
X164553354Y-53692086D01*
X164603596Y-53557379D01*
X164603598Y-53557372D01*
X164609999Y-53497844D01*
X164610000Y-53497827D01*
X164610000Y-52850000D01*
X163693012Y-52850000D01*
X163725925Y-52792993D01*
X163760000Y-52665826D01*
X163760000Y-52534174D01*
X163746840Y-52485062D01*
X167046504Y-52485062D01*
X167046504Y-52714937D01*
X167067578Y-52875000D01*
X167076507Y-52942824D01*
X167091827Y-53000000D01*
X167135998Y-53164850D01*
X167223960Y-53377208D01*
X167223964Y-53377218D01*
X167338892Y-53576279D01*
X167478821Y-53758639D01*
X167478827Y-53758646D01*
X167641353Y-53921172D01*
X167641360Y-53921178D01*
X167823720Y-54061107D01*
X168022781Y-54176035D01*
X168022782Y-54176035D01*
X168022785Y-54176037D01*
X168235148Y-54264001D01*
X168457176Y-54323493D01*
X168685070Y-54353496D01*
X168685077Y-54353496D01*
X168914923Y-54353496D01*
X168914930Y-54353496D01*
X169142824Y-54323493D01*
X169364852Y-54264001D01*
X169577215Y-54176037D01*
X169776280Y-54061107D01*
X169958641Y-53921177D01*
X170121177Y-53758641D01*
X170261107Y-53576280D01*
X170376037Y-53377215D01*
X170464001Y-53164852D01*
X170523493Y-52942824D01*
X170553496Y-52714930D01*
X170553496Y-52485070D01*
X170523493Y-52257176D01*
X170464001Y-52035148D01*
X170376037Y-51822785D01*
X170261107Y-51623720D01*
X170189883Y-51530899D01*
X170121178Y-51441360D01*
X170121172Y-51441353D01*
X169958646Y-51278827D01*
X169958639Y-51278821D01*
X169776279Y-51138892D01*
X169577218Y-51023964D01*
X169577208Y-51023960D01*
X169364850Y-50935998D01*
X169253838Y-50906253D01*
X169142824Y-50876507D01*
X169104738Y-50871492D01*
X168914937Y-50846504D01*
X168914930Y-50846504D01*
X168685070Y-50846504D01*
X168685062Y-50846504D01*
X168468146Y-50875062D01*
X168457176Y-50876507D01*
X168410253Y-50889079D01*
X168235149Y-50935998D01*
X168022791Y-51023960D01*
X168022781Y-51023964D01*
X167823720Y-51138892D01*
X167641360Y-51278821D01*
X167641353Y-51278827D01*
X167478827Y-51441353D01*
X167478821Y-51441360D01*
X167338892Y-51623720D01*
X167223964Y-51822781D01*
X167223960Y-51822791D01*
X167135998Y-52035149D01*
X167076508Y-52257173D01*
X167076506Y-52257184D01*
X167046504Y-52485062D01*
X163746840Y-52485062D01*
X163725925Y-52407007D01*
X163693012Y-52350000D01*
X164610000Y-52350000D01*
X164610000Y-51702172D01*
X164609999Y-51702155D01*
X164603598Y-51642627D01*
X164603596Y-51642620D01*
X164553354Y-51507913D01*
X164553350Y-51507906D01*
X164467190Y-51392812D01*
X164467187Y-51392809D01*
X164352093Y-51306649D01*
X164352086Y-51306645D01*
X164217379Y-51256403D01*
X164217372Y-51256401D01*
X164157844Y-51250000D01*
X163510000Y-51250000D01*
X163510000Y-52166988D01*
X163452993Y-52134075D01*
X163325826Y-52100000D01*
X163194174Y-52100000D01*
X163067007Y-52134075D01*
X163010000Y-52166988D01*
X163010000Y-51250000D01*
X162362155Y-51250000D01*
X162302627Y-51256401D01*
X162302620Y-51256403D01*
X162167913Y-51306645D01*
X162167906Y-51306649D01*
X162052812Y-51392809D01*
X162052809Y-51392812D01*
X161966649Y-51507906D01*
X161966646Y-51507912D01*
X161917577Y-51639471D01*
X161875705Y-51695404D01*
X161810241Y-51719821D01*
X161741968Y-51704969D01*
X161713714Y-51683818D01*
X161599786Y-51569890D01*
X161427820Y-51444951D01*
X161238414Y-51348444D01*
X161238413Y-51348443D01*
X161238412Y-51348443D01*
X161036243Y-51282754D01*
X161036241Y-51282753D01*
X161036240Y-51282753D01*
X160874957Y-51257208D01*
X160826287Y-51249500D01*
X160613713Y-51249500D01*
X160565042Y-51257208D01*
X160403760Y-51282753D01*
X160201585Y-51348444D01*
X160012179Y-51444951D01*
X159840213Y-51569890D01*
X159689890Y-51720213D01*
X159564949Y-51892182D01*
X159560202Y-51901499D01*
X159512227Y-51952293D01*
X159444405Y-51969087D01*
X159378271Y-51946548D01*
X159339234Y-51901495D01*
X159334626Y-51892452D01*
X159295270Y-51838282D01*
X159295269Y-51838282D01*
X158662962Y-52470590D01*
X158645925Y-52407007D01*
X158580099Y-52292993D01*
X158487007Y-52199901D01*
X158372993Y-52134075D01*
X158309409Y-52117037D01*
X158941716Y-51484728D01*
X158887550Y-51445375D01*
X158698217Y-51348904D01*
X158496129Y-51283242D01*
X158286246Y-51250000D01*
X158073754Y-51250000D01*
X157863872Y-51283242D01*
X157863869Y-51283242D01*
X157661782Y-51348904D01*
X157472439Y-51445380D01*
X157418282Y-51484727D01*
X157418282Y-51484728D01*
X158050591Y-52117037D01*
X157987007Y-52134075D01*
X157872993Y-52199901D01*
X157779901Y-52292993D01*
X157714075Y-52407007D01*
X157697037Y-52470591D01*
X157064728Y-51838282D01*
X157064727Y-51838282D01*
X157025380Y-51892440D01*
X157025376Y-51892446D01*
X157020760Y-51901505D01*
X156972781Y-51952297D01*
X156904959Y-51969087D01*
X156838826Y-51946543D01*
X156799794Y-51901493D01*
X156795051Y-51892184D01*
X156795049Y-51892181D01*
X156795048Y-51892179D01*
X156670109Y-51720213D01*
X156519786Y-51569890D01*
X156347820Y-51444951D01*
X156158414Y-51348444D01*
X156158413Y-51348443D01*
X156158412Y-51348443D01*
X155956243Y-51282754D01*
X155956241Y-51282753D01*
X155956240Y-51282753D01*
X155794957Y-51257208D01*
X155746287Y-51249500D01*
X155533713Y-51249500D01*
X155485042Y-51257208D01*
X155323760Y-51282753D01*
X155121585Y-51348444D01*
X154932179Y-51444951D01*
X154760213Y-51569890D01*
X154609890Y-51720213D01*
X154484949Y-51892182D01*
X154480202Y-51901499D01*
X154432227Y-51952293D01*
X154364405Y-51969087D01*
X154298271Y-51946548D01*
X154259234Y-51901495D01*
X154254626Y-51892452D01*
X154215270Y-51838282D01*
X154215269Y-51838282D01*
X153582962Y-52470590D01*
X153565925Y-52407007D01*
X153500099Y-52292993D01*
X153407007Y-52199901D01*
X153292993Y-52134075D01*
X153229409Y-52117037D01*
X153861716Y-51484728D01*
X153807550Y-51445375D01*
X153618217Y-51348904D01*
X153416129Y-51283242D01*
X153206246Y-51250000D01*
X152993754Y-51250000D01*
X152783872Y-51283242D01*
X152783869Y-51283242D01*
X152581782Y-51348904D01*
X152392439Y-51445380D01*
X152338282Y-51484727D01*
X152338282Y-51484728D01*
X152970591Y-52117037D01*
X152907007Y-52134075D01*
X152792993Y-52199901D01*
X152699901Y-52292993D01*
X152634075Y-52407007D01*
X152617037Y-52470591D01*
X151984728Y-51838282D01*
X151984727Y-51838282D01*
X151945380Y-51892440D01*
X151945376Y-51892446D01*
X151940760Y-51901505D01*
X151892781Y-51952297D01*
X151824959Y-51969087D01*
X151758826Y-51946543D01*
X151719794Y-51901493D01*
X151715051Y-51892184D01*
X151715049Y-51892181D01*
X151715048Y-51892179D01*
X151590109Y-51720213D01*
X151439786Y-51569890D01*
X151267820Y-51444951D01*
X151078414Y-51348444D01*
X151078413Y-51348443D01*
X151078412Y-51348443D01*
X150876243Y-51282754D01*
X150876241Y-51282753D01*
X150876240Y-51282753D01*
X150714957Y-51257208D01*
X150666287Y-51249500D01*
X150453713Y-51249500D01*
X150405042Y-51257208D01*
X150243760Y-51282753D01*
X150041585Y-51348444D01*
X149852179Y-51444951D01*
X149680213Y-51569890D01*
X149529890Y-51720213D01*
X149404949Y-51892182D01*
X149400484Y-51900946D01*
X149352509Y-51951742D01*
X149284688Y-51968536D01*
X149218553Y-51945998D01*
X149179516Y-51900946D01*
X149175050Y-51892182D01*
X149050109Y-51720213D01*
X148899786Y-51569890D01*
X148727820Y-51444951D01*
X148538414Y-51348444D01*
X148538413Y-51348443D01*
X148538412Y-51348443D01*
X148336243Y-51282754D01*
X148336241Y-51282753D01*
X148336240Y-51282753D01*
X148174957Y-51257208D01*
X148126287Y-51249500D01*
X147913713Y-51249500D01*
X147865042Y-51257208D01*
X147703760Y-51282753D01*
X147501585Y-51348444D01*
X147312179Y-51444951D01*
X147140213Y-51569890D01*
X146989890Y-51720213D01*
X146864949Y-51892182D01*
X146860484Y-51900946D01*
X146812509Y-51951742D01*
X146744688Y-51968536D01*
X146678553Y-51945998D01*
X146639516Y-51900946D01*
X146635050Y-51892182D01*
X146510109Y-51720213D01*
X146359786Y-51569890D01*
X146187820Y-51444951D01*
X145998414Y-51348444D01*
X145998413Y-51348443D01*
X145998412Y-51348443D01*
X145796243Y-51282754D01*
X145796241Y-51282753D01*
X145796240Y-51282753D01*
X145634957Y-51257208D01*
X145586287Y-51249500D01*
X145373713Y-51249500D01*
X145325042Y-51257208D01*
X145163760Y-51282753D01*
X144961585Y-51348444D01*
X144772179Y-51444951D01*
X144600213Y-51569890D01*
X144449890Y-51720213D01*
X144324949Y-51892182D01*
X144320484Y-51900946D01*
X144272509Y-51951742D01*
X144204688Y-51968536D01*
X144138553Y-51945998D01*
X144099516Y-51900946D01*
X144095050Y-51892182D01*
X143970109Y-51720213D01*
X143819786Y-51569890D01*
X143647820Y-51444951D01*
X143458414Y-51348444D01*
X143458413Y-51348443D01*
X143458412Y-51348443D01*
X143256243Y-51282754D01*
X143256241Y-51282753D01*
X143256240Y-51282753D01*
X143094957Y-51257208D01*
X143046287Y-51249500D01*
X142833713Y-51249500D01*
X142785042Y-51257208D01*
X142623760Y-51282753D01*
X142421585Y-51348444D01*
X142232179Y-51444951D01*
X142060213Y-51569890D01*
X141909890Y-51720213D01*
X141784949Y-51892182D01*
X141780484Y-51900946D01*
X141732509Y-51951742D01*
X141664688Y-51968536D01*
X141598553Y-51945998D01*
X141559516Y-51900946D01*
X141555050Y-51892182D01*
X141430109Y-51720213D01*
X141279786Y-51569890D01*
X141107820Y-51444951D01*
X140918414Y-51348444D01*
X140918413Y-51348443D01*
X140918412Y-51348443D01*
X140716243Y-51282754D01*
X140716241Y-51282753D01*
X140716240Y-51282753D01*
X140554957Y-51257208D01*
X140506287Y-51249500D01*
X140293713Y-51249500D01*
X140245042Y-51257208D01*
X140083760Y-51282753D01*
X139881585Y-51348444D01*
X139692179Y-51444951D01*
X139520213Y-51569890D01*
X139369890Y-51720213D01*
X139244949Y-51892182D01*
X139240484Y-51900946D01*
X139192509Y-51951742D01*
X139124688Y-51968536D01*
X139058553Y-51945998D01*
X139019516Y-51900946D01*
X139015050Y-51892182D01*
X138890109Y-51720213D01*
X138739786Y-51569890D01*
X138567820Y-51444951D01*
X138378414Y-51348444D01*
X138378413Y-51348443D01*
X138378412Y-51348443D01*
X138176243Y-51282754D01*
X138176241Y-51282753D01*
X138176240Y-51282753D01*
X138014957Y-51257208D01*
X137966287Y-51249500D01*
X137753713Y-51249500D01*
X137705042Y-51257208D01*
X137543760Y-51282753D01*
X137341585Y-51348444D01*
X137152179Y-51444951D01*
X136980213Y-51569890D01*
X136829890Y-51720213D01*
X136704949Y-51892182D01*
X136700484Y-51900946D01*
X136652509Y-51951742D01*
X136584688Y-51968536D01*
X136518553Y-51945998D01*
X136479516Y-51900946D01*
X136475050Y-51892182D01*
X136350109Y-51720213D01*
X136199786Y-51569890D01*
X136027820Y-51444951D01*
X135838414Y-51348444D01*
X135838413Y-51348443D01*
X135838412Y-51348443D01*
X135636243Y-51282754D01*
X135636241Y-51282753D01*
X135636240Y-51282753D01*
X135474957Y-51257208D01*
X135426287Y-51249500D01*
X135213713Y-51249500D01*
X135165042Y-51257208D01*
X135003760Y-51282753D01*
X134801585Y-51348444D01*
X134612179Y-51444951D01*
X134440213Y-51569890D01*
X134289890Y-51720213D01*
X134164949Y-51892182D01*
X134160484Y-51900946D01*
X134112509Y-51951742D01*
X134044688Y-51968536D01*
X133978553Y-51945998D01*
X133939516Y-51900946D01*
X133935050Y-51892182D01*
X133810109Y-51720213D01*
X133659786Y-51569890D01*
X133487820Y-51444951D01*
X133298414Y-51348444D01*
X133298413Y-51348443D01*
X133298412Y-51348443D01*
X133096243Y-51282754D01*
X133096241Y-51282753D01*
X133096240Y-51282753D01*
X132934957Y-51257208D01*
X132886287Y-51249500D01*
X132673713Y-51249500D01*
X132625042Y-51257208D01*
X132463760Y-51282753D01*
X132261585Y-51348444D01*
X132072179Y-51444951D01*
X131900213Y-51569890D01*
X131749890Y-51720213D01*
X131624949Y-51892182D01*
X131620484Y-51900946D01*
X131572509Y-51951742D01*
X131504688Y-51968536D01*
X131438553Y-51945998D01*
X131399516Y-51900946D01*
X131395050Y-51892182D01*
X131270109Y-51720213D01*
X131119786Y-51569890D01*
X130947820Y-51444951D01*
X130758414Y-51348444D01*
X130758413Y-51348443D01*
X130758412Y-51348443D01*
X130556243Y-51282754D01*
X130556241Y-51282753D01*
X130556240Y-51282753D01*
X130394957Y-51257208D01*
X130346287Y-51249500D01*
X130133713Y-51249500D01*
X130085042Y-51257208D01*
X129923760Y-51282753D01*
X129721585Y-51348444D01*
X129532179Y-51444951D01*
X129360213Y-51569890D01*
X129209890Y-51720213D01*
X129084949Y-51892182D01*
X129080484Y-51900946D01*
X129032509Y-51951742D01*
X128964688Y-51968536D01*
X128898553Y-51945998D01*
X128859516Y-51900946D01*
X128855050Y-51892182D01*
X128730109Y-51720213D01*
X128579786Y-51569890D01*
X128407820Y-51444951D01*
X128218414Y-51348444D01*
X128218413Y-51348443D01*
X128218412Y-51348443D01*
X128016243Y-51282754D01*
X128016241Y-51282753D01*
X128016240Y-51282753D01*
X127854957Y-51257208D01*
X127806287Y-51249500D01*
X127593713Y-51249500D01*
X127545042Y-51257208D01*
X127383760Y-51282753D01*
X127181585Y-51348444D01*
X126992179Y-51444951D01*
X126820213Y-51569890D01*
X126669890Y-51720213D01*
X126544949Y-51892182D01*
X126540484Y-51900946D01*
X126492509Y-51951742D01*
X126424688Y-51968536D01*
X126358553Y-51945998D01*
X126319516Y-51900946D01*
X126315050Y-51892182D01*
X126190109Y-51720213D01*
X126039786Y-51569890D01*
X125867820Y-51444951D01*
X125678414Y-51348444D01*
X125678413Y-51348443D01*
X125678412Y-51348443D01*
X125476243Y-51282754D01*
X125476241Y-51282753D01*
X125476240Y-51282753D01*
X125314957Y-51257208D01*
X125266287Y-51249500D01*
X125053713Y-51249500D01*
X125005042Y-51257208D01*
X124843760Y-51282753D01*
X124641585Y-51348444D01*
X124452179Y-51444951D01*
X124280213Y-51569890D01*
X124129892Y-51720211D01*
X124073097Y-51798385D01*
X124017767Y-51841051D01*
X123972779Y-51849500D01*
X122295908Y-51849500D01*
X122228869Y-51829815D01*
X122190363Y-51785728D01*
X122188605Y-51786813D01*
X122184812Y-51780663D01*
X122092712Y-51631344D01*
X121968656Y-51507288D01*
X121868287Y-51445380D01*
X121819336Y-51415187D01*
X121819331Y-51415185D01*
X121817862Y-51414698D01*
X121652797Y-51360001D01*
X121652795Y-51360000D01*
X121550010Y-51349500D01*
X120449998Y-51349500D01*
X120449980Y-51349501D01*
X120347203Y-51360000D01*
X120347200Y-51360001D01*
X120180668Y-51415185D01*
X120180663Y-51415187D01*
X120031342Y-51507289D01*
X119907289Y-51631342D01*
X119815187Y-51780663D01*
X119815185Y-51780668D01*
X119796094Y-51838282D01*
X119760001Y-51947203D01*
X119760001Y-51947204D01*
X119760000Y-51947204D01*
X119749500Y-52049983D01*
X119749500Y-53150001D01*
X119749501Y-53150019D01*
X119760000Y-53252796D01*
X119760001Y-53252799D01*
X119801227Y-53377208D01*
X119815186Y-53419334D01*
X119907288Y-53568656D01*
X120031344Y-53692712D01*
X120180666Y-53784814D01*
X120347203Y-53839999D01*
X120449991Y-53850500D01*
X121550008Y-53850499D01*
X121550016Y-53850498D01*
X121550019Y-53850498D01*
X121606302Y-53844748D01*
X121652797Y-53839999D01*
X121819334Y-53784814D01*
X121968656Y-53692712D01*
X122092712Y-53568656D01*
X122184814Y-53419334D01*
X122184815Y-53419331D01*
X122188605Y-53413187D01*
X122190399Y-53414293D01*
X122229687Y-53369663D01*
X122295908Y-53350500D01*
X123972779Y-53350500D01*
X124039818Y-53370185D01*
X124073097Y-53401615D01*
X124129892Y-53479788D01*
X124280213Y-53630109D01*
X124452179Y-53755048D01*
X124452181Y-53755049D01*
X124452184Y-53755051D01*
X124641588Y-53851557D01*
X124843757Y-53917246D01*
X125053713Y-53950500D01*
X125053714Y-53950500D01*
X125266286Y-53950500D01*
X125266287Y-53950500D01*
X125476243Y-53917246D01*
X125678412Y-53851557D01*
X125867816Y-53755051D01*
X125922572Y-53715269D01*
X126039786Y-53630109D01*
X126039788Y-53630106D01*
X126039792Y-53630104D01*
X126190104Y-53479792D01*
X126190106Y-53479788D01*
X126190109Y-53479786D01*
X126315048Y-53307820D01*
X126315047Y-53307820D01*
X126315051Y-53307816D01*
X126319514Y-53299054D01*
X126367488Y-53248259D01*
X126435308Y-53231463D01*
X126501444Y-53253999D01*
X126540486Y-53299056D01*
X126544951Y-53307820D01*
X126669890Y-53479786D01*
X126820211Y-53630107D01*
X126873875Y-53669095D01*
X126948385Y-53723229D01*
X126991051Y-53778558D01*
X126999500Y-53823547D01*
X126999500Y-54858481D01*
X126979815Y-54925520D01*
X126963181Y-54946162D01*
X126846162Y-55063181D01*
X126784839Y-55096666D01*
X126758481Y-55099500D01*
X125865783Y-55099500D01*
X125798744Y-55079815D01*
X125778101Y-55063180D01*
X125737785Y-55022863D01*
X125737781Y-55022860D01*
X125573920Y-54913371D01*
X125573907Y-54913364D01*
X125391839Y-54837950D01*
X125391829Y-54837947D01*
X125198543Y-54799500D01*
X125198541Y-54799500D01*
X125001459Y-54799500D01*
X125001457Y-54799500D01*
X124808170Y-54837947D01*
X124808160Y-54837950D01*
X124626092Y-54913364D01*
X124626079Y-54913371D01*
X124462218Y-55022860D01*
X124462214Y-55022863D01*
X124322863Y-55162214D01*
X124322860Y-55162218D01*
X124213371Y-55326079D01*
X124213364Y-55326092D01*
X124137950Y-55508160D01*
X124137947Y-55508170D01*
X124099500Y-55701456D01*
X124099500Y-55701459D01*
X124099500Y-55898541D01*
X124099500Y-55898543D01*
X124099499Y-55898543D01*
X124137947Y-56091829D01*
X124137950Y-56091839D01*
X124213364Y-56273907D01*
X124213371Y-56273920D01*
X124322860Y-56437781D01*
X124322863Y-56437785D01*
X124462214Y-56577136D01*
X124462218Y-56577139D01*
X124626079Y-56686628D01*
X124626092Y-56686635D01*
X124808160Y-56762049D01*
X124808165Y-56762051D01*
X124808169Y-56762051D01*
X124808170Y-56762052D01*
X125001456Y-56800500D01*
X125001459Y-56800500D01*
X125198543Y-56800500D01*
X125328582Y-56774632D01*
X125391835Y-56762051D01*
X125573914Y-56686632D01*
X125737782Y-56577139D01*
X125778101Y-56536820D01*
X125839424Y-56503334D01*
X125865783Y-56500500D01*
X127168996Y-56500500D01*
X127260040Y-56482389D01*
X127304328Y-56473580D01*
X127390745Y-56437785D01*
X127431807Y-56420777D01*
X127431808Y-56420776D01*
X127431811Y-56420775D01*
X127546543Y-56344114D01*
X128244114Y-55646543D01*
X128320775Y-55531811D01*
X128373580Y-55404329D01*
X128390039Y-55321584D01*
X128400500Y-55268993D01*
X128400500Y-53823547D01*
X128420185Y-53756508D01*
X128451614Y-53723230D01*
X128579792Y-53630104D01*
X128730104Y-53479792D01*
X128730106Y-53479788D01*
X128730109Y-53479786D01*
X128855048Y-53307820D01*
X128855047Y-53307820D01*
X128855051Y-53307816D01*
X128859514Y-53299054D01*
X128907488Y-53248259D01*
X128975308Y-53231463D01*
X129041444Y-53253999D01*
X129080486Y-53299056D01*
X129084951Y-53307820D01*
X129209890Y-53479786D01*
X129360213Y-53630109D01*
X129532184Y-53755051D01*
X129532184Y-53755052D01*
X129571793Y-53775233D01*
X129622590Y-53823206D01*
X129639500Y-53885718D01*
X129639500Y-57759903D01*
X129619815Y-57826942D01*
X129603181Y-57847584D01*
X129287584Y-58163181D01*
X129226261Y-58196666D01*
X129199903Y-58199500D01*
X124858244Y-58199500D01*
X124858228Y-58199499D01*
X124850632Y-58199499D01*
X124692517Y-58199499D01*
X124616153Y-58219961D01*
X124539788Y-58240423D01*
X124539783Y-58240426D01*
X124402864Y-58319475D01*
X124402856Y-58319481D01*
X122412181Y-60310157D01*
X122350858Y-60343642D01*
X122281166Y-60338658D01*
X122225233Y-60296786D01*
X122200816Y-60231322D01*
X122200500Y-60222476D01*
X122200500Y-58689060D01*
X122200501Y-58689047D01*
X122200501Y-58520944D01*
X122193024Y-58493039D01*
X122159577Y-58368216D01*
X122115450Y-58291785D01*
X122080524Y-58231290D01*
X122080518Y-58231282D01*
X121468717Y-57619481D01*
X121468716Y-57619480D01*
X121453823Y-57610882D01*
X121388520Y-57573179D01*
X121388515Y-57573177D01*
X121381904Y-57569360D01*
X121331785Y-57540423D01*
X121275601Y-57525368D01*
X121267663Y-57522007D01*
X121247029Y-57505111D01*
X121224255Y-57491229D01*
X121218913Y-57482088D01*
X121213604Y-57477741D01*
X121210155Y-57467102D01*
X121198305Y-57446825D01*
X121159814Y-57330666D01*
X121067712Y-57181344D01*
X120943656Y-57057288D01*
X120794334Y-56965186D01*
X120627797Y-56910001D01*
X120627795Y-56910000D01*
X120525010Y-56899500D01*
X119899998Y-56899500D01*
X119899980Y-56899501D01*
X119797203Y-56910000D01*
X119797200Y-56910001D01*
X119630668Y-56965185D01*
X119630663Y-56965187D01*
X119481342Y-57057289D01*
X119387681Y-57150951D01*
X119326358Y-57184436D01*
X119256666Y-57179452D01*
X119212319Y-57150951D01*
X119124319Y-57062951D01*
X119090834Y-57001628D01*
X119088000Y-56975270D01*
X119088000Y-56292616D01*
X119107685Y-56225577D01*
X119139114Y-56192298D01*
X119274646Y-56093828D01*
X119413828Y-55954646D01*
X119529524Y-55795405D01*
X119618884Y-55620025D01*
X119679709Y-55432826D01*
X119684222Y-55404330D01*
X119710500Y-55238422D01*
X119710500Y-55041577D01*
X119679709Y-54847173D01*
X119618882Y-54659970D01*
X119529523Y-54484594D01*
X119413828Y-54325354D01*
X119274646Y-54186172D01*
X119115405Y-54070476D01*
X119097017Y-54061107D01*
X118940029Y-53981117D01*
X118752826Y-53920290D01*
X118558422Y-53889500D01*
X118558417Y-53889500D01*
X118361583Y-53889500D01*
X118361578Y-53889500D01*
X118167173Y-53920290D01*
X117979970Y-53981117D01*
X117804594Y-54070476D01*
X117713741Y-54136485D01*
X117645354Y-54186172D01*
X117645352Y-54186174D01*
X117645351Y-54186174D01*
X117506174Y-54325351D01*
X117506174Y-54325352D01*
X117506172Y-54325354D01*
X117485726Y-54353496D01*
X117390476Y-54484594D01*
X117301117Y-54659970D01*
X117240290Y-54847173D01*
X117209500Y-55041577D01*
X117209500Y-55238422D01*
X117240290Y-55432826D01*
X117301117Y-55620029D01*
X117373564Y-55762214D01*
X117390476Y-55795405D01*
X117506172Y-55954646D01*
X117506174Y-55954648D01*
X117648799Y-56097273D01*
X117647585Y-56098486D01*
X117681720Y-56150764D01*
X117687000Y-56186561D01*
X117687000Y-56975270D01*
X117667315Y-57042309D01*
X117650681Y-57062951D01*
X117532289Y-57181342D01*
X117440187Y-57330663D01*
X117440185Y-57330668D01*
X117417045Y-57400500D01*
X117385001Y-57497203D01*
X117385001Y-57497204D01*
X117385000Y-57497204D01*
X117374500Y-57599983D01*
X117374500Y-58600001D01*
X117374501Y-58600019D01*
X117385000Y-58702796D01*
X117385001Y-58702799D01*
X117425498Y-58825008D01*
X117440186Y-58869334D01*
X117524076Y-59005343D01*
X117542516Y-59072734D01*
X117521593Y-59139397D01*
X117512110Y-59150945D01*
X117512164Y-59150988D01*
X117507686Y-59156651D01*
X117415643Y-59305875D01*
X117415641Y-59305880D01*
X117360494Y-59472302D01*
X117360493Y-59472309D01*
X117350000Y-59575013D01*
X117350000Y-59850000D01*
X118226000Y-59850000D01*
X118293039Y-59869685D01*
X118338794Y-59922489D01*
X118350000Y-59974000D01*
X118350000Y-60226000D01*
X118330315Y-60293039D01*
X118277511Y-60338794D01*
X118226000Y-60350000D01*
X117350001Y-60350000D01*
X117350001Y-60624986D01*
X117360494Y-60727697D01*
X117415641Y-60894119D01*
X117415643Y-60894124D01*
X117507684Y-61043345D01*
X117631654Y-61167315D01*
X117780875Y-61259356D01*
X117787421Y-61262408D01*
X117786298Y-61264815D01*
X117833600Y-61297561D01*
X117860427Y-61362076D01*
X117848116Y-61430852D01*
X117800576Y-61482055D01*
X117737156Y-61499500D01*
X117386669Y-61499500D01*
X117386653Y-61499499D01*
X117379057Y-61499499D01*
X117220943Y-61499499D01*
X117136201Y-61522206D01*
X117068214Y-61540423D01*
X117055636Y-61547686D01*
X117055633Y-61547687D01*
X116931290Y-61619475D01*
X116931282Y-61619481D01*
X115719481Y-62831282D01*
X115719477Y-62831287D01*
X115672937Y-62911899D01*
X115672937Y-62911900D01*
X115640423Y-62968214D01*
X115637793Y-62978029D01*
X115599499Y-63120943D01*
X115599499Y-63120945D01*
X115599499Y-63234217D01*
X115579814Y-63301256D01*
X115563180Y-63321898D01*
X115422863Y-63462214D01*
X115422860Y-63462218D01*
X115313371Y-63626079D01*
X115313364Y-63626092D01*
X115237950Y-63808160D01*
X115237947Y-63808170D01*
X115199500Y-64001456D01*
X115199500Y-64001459D01*
X115199500Y-64198541D01*
X115199500Y-64198543D01*
X115199499Y-64198543D01*
X115237947Y-64391829D01*
X115237950Y-64391839D01*
X115313364Y-64573907D01*
X115313371Y-64573920D01*
X115422860Y-64737781D01*
X115422863Y-64737785D01*
X115562214Y-64877136D01*
X115562218Y-64877139D01*
X115726079Y-64986628D01*
X115726092Y-64986635D01*
X115894078Y-65056216D01*
X115908165Y-65062051D01*
X115908169Y-65062051D01*
X115908170Y-65062052D01*
X116101456Y-65100500D01*
X116101459Y-65100500D01*
X116298543Y-65100500D01*
X116456910Y-65068998D01*
X116491835Y-65062051D01*
X116673914Y-64986632D01*
X116837782Y-64877139D01*
X116977139Y-64737782D01*
X117086632Y-64573914D01*
X117162051Y-64391835D01*
X117193557Y-64233445D01*
X117200500Y-64198543D01*
X117200500Y-64001456D01*
X117162052Y-63808170D01*
X117162051Y-63808169D01*
X117162051Y-63808165D01*
X117134796Y-63742364D01*
X117086635Y-63626092D01*
X117086628Y-63626079D01*
X116977139Y-63462218D01*
X116977136Y-63462214D01*
X116969759Y-63454837D01*
X116936274Y-63393514D01*
X116941258Y-63323822D01*
X116969757Y-63279477D01*
X117512416Y-62736819D01*
X117573739Y-62703334D01*
X117600097Y-62700500D01*
X117618368Y-62700500D01*
X117685407Y-62720185D01*
X117731162Y-62772989D01*
X117741106Y-62842147D01*
X117732929Y-62871953D01*
X117688991Y-62978027D01*
X117688990Y-62978029D01*
X117674500Y-63088098D01*
X117674500Y-63286903D01*
X117688989Y-63396968D01*
X117691094Y-63404822D01*
X117687814Y-63405700D01*
X117693581Y-63459573D01*
X117690517Y-63470022D01*
X117691095Y-63470177D01*
X117688990Y-63478029D01*
X117674500Y-63588098D01*
X117674500Y-63786903D01*
X117688989Y-63896968D01*
X117691094Y-63904822D01*
X117687814Y-63905700D01*
X117693581Y-63959573D01*
X117690517Y-63970022D01*
X117691095Y-63970177D01*
X117688990Y-63978029D01*
X117674500Y-64088098D01*
X117674500Y-64286903D01*
X117688989Y-64396968D01*
X117691094Y-64404822D01*
X117687814Y-64405700D01*
X117693581Y-64459573D01*
X117690517Y-64470022D01*
X117691095Y-64470177D01*
X117688990Y-64478029D01*
X117674500Y-64588098D01*
X117674500Y-64786903D01*
X117688989Y-64896968D01*
X117691094Y-64904822D01*
X117687814Y-64905700D01*
X117693581Y-64959573D01*
X117690517Y-64970022D01*
X117691095Y-64970177D01*
X117688990Y-64978029D01*
X117674500Y-65088098D01*
X117674500Y-65286903D01*
X117688989Y-65396968D01*
X117691094Y-65404822D01*
X117687814Y-65405700D01*
X117693581Y-65459573D01*
X117690517Y-65470022D01*
X117691095Y-65470177D01*
X117688990Y-65478029D01*
X117674500Y-65588098D01*
X117674500Y-65786903D01*
X117688989Y-65896968D01*
X117691094Y-65904822D01*
X117687824Y-65905697D01*
X117688464Y-65911705D01*
X117695004Y-65929239D01*
X117692793Y-65952382D01*
X117693567Y-65959647D01*
X117692614Y-65964376D01*
X117690267Y-65974947D01*
X117688991Y-65978028D01*
X117688128Y-65984581D01*
X117686953Y-65989875D01*
X117672596Y-66015901D01*
X117660574Y-66043080D01*
X117655906Y-66046159D01*
X117653206Y-66051054D01*
X117627058Y-66065187D01*
X117602250Y-66081552D01*
X117594687Y-66082685D01*
X117591741Y-66084278D01*
X117586641Y-66083891D01*
X117565900Y-66087000D01*
X114699170Y-66087000D01*
X114699154Y-66086999D01*
X114691558Y-66086999D01*
X114533443Y-66086999D01*
X114457079Y-66107461D01*
X114380714Y-66127923D01*
X114380709Y-66127926D01*
X114243790Y-66206975D01*
X114243782Y-66206981D01*
X111287584Y-69163181D01*
X111226261Y-69196666D01*
X111199903Y-69199500D01*
X108805301Y-69199500D01*
X108738262Y-69179815D01*
X108692507Y-69127011D01*
X108687595Y-69114504D01*
X108685308Y-69107603D01*
X108659814Y-69030666D01*
X108567712Y-68881344D01*
X108443656Y-68757288D01*
X108294334Y-68665186D01*
X108127797Y-68610001D01*
X108127795Y-68610000D01*
X108025016Y-68599500D01*
X107614783Y-68599500D01*
X107547744Y-68579815D01*
X107501989Y-68527011D01*
X107492045Y-68457853D01*
X107521070Y-68394297D01*
X107527103Y-68387818D01*
X107578104Y-68336818D01*
X107639427Y-68303334D01*
X107665784Y-68300500D01*
X107813331Y-68300500D01*
X107813347Y-68300501D01*
X107820943Y-68300501D01*
X107979054Y-68300501D01*
X107979057Y-68300501D01*
X108131785Y-68259577D01*
X108194334Y-68223464D01*
X108268716Y-68180520D01*
X108380520Y-68068716D01*
X108380520Y-68068714D01*
X108390724Y-68058511D01*
X108390728Y-68058506D01*
X108858506Y-67590728D01*
X108858511Y-67590724D01*
X108868714Y-67580520D01*
X108868716Y-67580520D01*
X108980520Y-67468716D01*
X109052233Y-67344505D01*
X109059577Y-67331785D01*
X109100500Y-67179057D01*
X109100500Y-67020943D01*
X109100500Y-66636611D01*
X109120185Y-66569572D01*
X109172989Y-66523817D01*
X109231847Y-66513424D01*
X109231868Y-66512904D01*
X109234264Y-66512998D01*
X109234269Y-66512997D01*
X109234306Y-66513000D01*
X109234314Y-66513000D01*
X109665686Y-66513000D01*
X109665694Y-66513000D01*
X109702569Y-66510098D01*
X109702571Y-66510097D01*
X109702573Y-66510097D01*
X109758584Y-66493824D01*
X109860398Y-66464244D01*
X110001865Y-66380581D01*
X110033212Y-66349234D01*
X110094534Y-66315748D01*
X110164226Y-66320732D01*
X110208575Y-66349233D01*
X110403454Y-66544112D01*
X110518192Y-66620777D01*
X110642618Y-66672315D01*
X110645672Y-66673580D01*
X110645676Y-66673580D01*
X110645677Y-66673581D01*
X110781003Y-66700500D01*
X110781006Y-66700500D01*
X112868996Y-66700500D01*
X112960040Y-66682389D01*
X113004328Y-66673580D01*
X113079273Y-66642537D01*
X113131807Y-66620777D01*
X113131808Y-66620776D01*
X113131811Y-66620775D01*
X113246543Y-66544114D01*
X113744113Y-66046543D01*
X113744370Y-66046159D01*
X113745616Y-66044296D01*
X113820771Y-65931817D01*
X113820771Y-65931816D01*
X113820775Y-65931811D01*
X113858361Y-65841071D01*
X113873580Y-65804329D01*
X113881882Y-65762590D01*
X113914266Y-65700682D01*
X113915748Y-65699171D01*
X113977139Y-65637782D01*
X114086632Y-65473914D01*
X114162051Y-65291835D01*
X114198015Y-65111034D01*
X114200500Y-65098543D01*
X114200500Y-64901456D01*
X114162052Y-64708170D01*
X114162051Y-64708169D01*
X114162051Y-64708165D01*
X114136656Y-64646856D01*
X114086635Y-64526092D01*
X114086628Y-64526079D01*
X113977139Y-64362218D01*
X113977136Y-64362214D01*
X113837785Y-64222863D01*
X113837781Y-64222860D01*
X113673920Y-64113371D01*
X113673907Y-64113364D01*
X113491839Y-64037950D01*
X113491829Y-64037947D01*
X113298543Y-63999500D01*
X113298541Y-63999500D01*
X113101459Y-63999500D01*
X113101457Y-63999500D01*
X112908170Y-64037947D01*
X112908160Y-64037950D01*
X112726092Y-64113364D01*
X112726079Y-64113371D01*
X112562218Y-64222860D01*
X112562214Y-64222863D01*
X112422863Y-64362214D01*
X112422860Y-64362218D01*
X112313371Y-64526079D01*
X112313364Y-64526092D01*
X112237950Y-64708160D01*
X112237947Y-64708170D01*
X112199500Y-64901456D01*
X112199500Y-64901459D01*
X112199500Y-65098541D01*
X112199500Y-65098543D01*
X112199499Y-65098543D01*
X112209996Y-65151308D01*
X112203769Y-65220899D01*
X112160907Y-65276077D01*
X112095017Y-65299322D01*
X112088379Y-65299500D01*
X111205744Y-65299500D01*
X111138705Y-65279815D01*
X111092950Y-65227011D01*
X111083006Y-65157853D01*
X111084127Y-65151309D01*
X111100499Y-65068998D01*
X111100500Y-65068996D01*
X111100500Y-62431004D01*
X111073581Y-62295677D01*
X111073580Y-62295676D01*
X111073580Y-62295672D01*
X111037918Y-62209577D01*
X111036834Y-62206961D01*
X111033293Y-62198411D01*
X111020775Y-62168189D01*
X110944114Y-62053457D01*
X110944112Y-62053454D01*
X110177814Y-61287156D01*
X110144329Y-61225833D01*
X110149313Y-61156141D01*
X110159953Y-61134383D01*
X110197862Y-61072925D01*
X110252587Y-60907775D01*
X110263000Y-60805848D01*
X110263000Y-59794152D01*
X110252587Y-59692225D01*
X110197862Y-59527075D01*
X110197858Y-59527069D01*
X110197857Y-59527066D01*
X110120171Y-59401118D01*
X110101730Y-59333726D01*
X110122652Y-59267062D01*
X110138027Y-59248340D01*
X110142712Y-59243656D01*
X110234814Y-59094334D01*
X110289999Y-58927797D01*
X110300500Y-58825009D01*
X110300499Y-57774992D01*
X110289999Y-57672203D01*
X110234814Y-57505666D01*
X110142712Y-57356344D01*
X110124049Y-57337681D01*
X110090564Y-57276358D01*
X110095548Y-57206666D01*
X110124049Y-57162319D01*
X110142712Y-57143656D01*
X110234814Y-56994334D01*
X110289999Y-56827797D01*
X110300500Y-56725009D01*
X110300499Y-55674992D01*
X110299292Y-55663181D01*
X110289999Y-55572203D01*
X110289998Y-55572200D01*
X110270503Y-55513368D01*
X110234814Y-55405666D01*
X110142712Y-55256344D01*
X110124049Y-55237681D01*
X110090564Y-55176358D01*
X110095548Y-55106666D01*
X110124049Y-55062319D01*
X110142712Y-55043656D01*
X110234814Y-54894334D01*
X110289999Y-54727797D01*
X110300500Y-54625009D01*
X110300499Y-53574992D01*
X110299021Y-53560528D01*
X110289999Y-53472203D01*
X110289998Y-53472200D01*
X110234814Y-53305666D01*
X110142712Y-53156344D01*
X110018656Y-53032288D01*
X109891007Y-52953554D01*
X109869336Y-52940187D01*
X109869331Y-52940185D01*
X109808658Y-52920080D01*
X109702797Y-52885001D01*
X109702795Y-52885000D01*
X109600010Y-52874500D01*
X108999998Y-52874500D01*
X108999980Y-52874501D01*
X108897203Y-52885000D01*
X108897200Y-52885001D01*
X108730668Y-52940185D01*
X108730663Y-52940187D01*
X108581342Y-53032289D01*
X108457288Y-53156343D01*
X108457283Y-53156349D01*
X108455241Y-53159661D01*
X108453247Y-53161453D01*
X108452807Y-53162011D01*
X108452711Y-53161935D01*
X108403291Y-53206383D01*
X108334328Y-53217602D01*
X108270247Y-53189755D01*
X108244168Y-53159656D01*
X108242319Y-53156659D01*
X108242316Y-53156655D01*
X108118345Y-53032684D01*
X107969124Y-52940643D01*
X107969119Y-52940641D01*
X107802697Y-52885494D01*
X107802690Y-52885493D01*
X107699986Y-52875000D01*
X107650000Y-52875000D01*
X107650000Y-58176000D01*
X107630315Y-58243039D01*
X107577511Y-58288794D01*
X107526000Y-58300000D01*
X107400000Y-58300000D01*
X107400000Y-58426000D01*
X107380315Y-58493039D01*
X107327511Y-58538794D01*
X107276000Y-58550000D01*
X106400001Y-58550000D01*
X106400001Y-58824986D01*
X106410494Y-58927697D01*
X106465641Y-59094119D01*
X106465643Y-59094124D01*
X106561475Y-59249491D01*
X106560116Y-59250328D01*
X106583036Y-59307151D01*
X106569992Y-59375792D01*
X106565168Y-59384356D01*
X106477139Y-59527072D01*
X106477137Y-59527077D01*
X106422413Y-59692223D01*
X106412000Y-59794144D01*
X106412000Y-60805855D01*
X106421018Y-60894119D01*
X106422413Y-60907775D01*
X106466341Y-61040343D01*
X106477140Y-61072930D01*
X106486431Y-61087994D01*
X106504870Y-61155386D01*
X106483946Y-61222050D01*
X106468572Y-61240769D01*
X105955887Y-61753454D01*
X105879223Y-61868192D01*
X105826421Y-61995668D01*
X105826421Y-61995669D01*
X105826420Y-61995672D01*
X105811891Y-62068716D01*
X105811891Y-62068717D01*
X105799500Y-62131005D01*
X105799500Y-62778988D01*
X105779815Y-62846027D01*
X105727011Y-62891782D01*
X105657853Y-62901726D01*
X105636498Y-62896694D01*
X105602704Y-62885496D01*
X105602690Y-62885493D01*
X105499986Y-62875000D01*
X105250000Y-62875000D01*
X105250000Y-63763500D01*
X105230315Y-63830539D01*
X105177511Y-63876294D01*
X105126000Y-63887500D01*
X105000000Y-63887500D01*
X105000000Y-64013500D01*
X104980315Y-64080539D01*
X104927511Y-64126294D01*
X104876000Y-64137500D01*
X104010198Y-64137500D01*
X103992496Y-64147166D01*
X103966138Y-64150000D01*
X101500001Y-64150000D01*
X101486820Y-64163181D01*
X101425497Y-64196666D01*
X101399139Y-64199500D01*
X93579057Y-64199500D01*
X93420942Y-64199500D01*
X93268215Y-64240423D01*
X93268214Y-64240423D01*
X93268212Y-64240424D01*
X93268209Y-64240425D01*
X93218096Y-64269359D01*
X93218095Y-64269360D01*
X93174689Y-64294420D01*
X93131285Y-64319479D01*
X93131282Y-64319481D01*
X91819481Y-65631282D01*
X91819480Y-65631284D01*
X91779414Y-65700682D01*
X91769361Y-65718094D01*
X91769359Y-65718097D01*
X91751886Y-65748360D01*
X91701318Y-65796575D01*
X91632711Y-65809796D01*
X91567847Y-65783827D01*
X91527319Y-65726913D01*
X91520500Y-65686358D01*
X91520500Y-63587513D01*
X101500000Y-63587513D01*
X101500000Y-63650000D01*
X102450000Y-63650000D01*
X102450000Y-62887500D01*
X102950000Y-62887500D01*
X102950000Y-63650000D01*
X103689802Y-63650000D01*
X103707504Y-63640334D01*
X103733862Y-63637500D01*
X104750000Y-63637500D01*
X104750000Y-62875000D01*
X104500029Y-62875000D01*
X104500012Y-62875001D01*
X104397302Y-62885494D01*
X104230880Y-62940641D01*
X104230875Y-62940643D01*
X104081654Y-63032684D01*
X103957683Y-63156655D01*
X103957679Y-63156660D01*
X103951678Y-63166389D01*
X103899727Y-63213110D01*
X103830764Y-63224328D01*
X103766684Y-63196480D01*
X103747464Y-63174295D01*
X103746798Y-63174823D01*
X103742316Y-63169155D01*
X103618345Y-63045184D01*
X103469124Y-62953143D01*
X103469119Y-62953141D01*
X103302697Y-62897994D01*
X103302690Y-62897993D01*
X103199986Y-62887500D01*
X102950000Y-62887500D01*
X102450000Y-62887500D01*
X102200029Y-62887500D01*
X102200012Y-62887501D01*
X102097302Y-62897994D01*
X101930880Y-62953141D01*
X101930875Y-62953143D01*
X101781654Y-63045184D01*
X101657684Y-63169154D01*
X101565643Y-63318375D01*
X101565641Y-63318380D01*
X101510494Y-63484802D01*
X101510493Y-63484809D01*
X101500000Y-63587513D01*
X91520500Y-63587513D01*
X91520500Y-57775013D01*
X106400000Y-57775013D01*
X106400000Y-58050000D01*
X107150000Y-58050000D01*
X107150000Y-56450000D01*
X106400001Y-56450000D01*
X106400001Y-56724986D01*
X106410494Y-56827697D01*
X106465641Y-56994119D01*
X106465643Y-56994124D01*
X106557684Y-57143345D01*
X106576658Y-57162319D01*
X106610143Y-57223642D01*
X106605159Y-57293334D01*
X106576658Y-57337681D01*
X106557684Y-57356654D01*
X106465643Y-57505875D01*
X106465641Y-57505880D01*
X106410494Y-57672302D01*
X106410493Y-57672309D01*
X106400000Y-57775013D01*
X91520500Y-57775013D01*
X91520500Y-55675013D01*
X106400000Y-55675013D01*
X106400000Y-55950000D01*
X107150000Y-55950000D01*
X107150000Y-54350000D01*
X106400001Y-54350000D01*
X106400001Y-54624986D01*
X106410494Y-54727697D01*
X106465641Y-54894119D01*
X106465643Y-54894124D01*
X106557684Y-55043345D01*
X106576658Y-55062319D01*
X106610143Y-55123642D01*
X106605159Y-55193334D01*
X106576658Y-55237681D01*
X106557684Y-55256654D01*
X106465643Y-55405875D01*
X106465641Y-55405880D01*
X106410494Y-55572302D01*
X106410493Y-55572309D01*
X106400000Y-55675013D01*
X91520500Y-55675013D01*
X91520500Y-52485062D01*
X92046504Y-52485062D01*
X92046504Y-52714937D01*
X92067578Y-52875000D01*
X92076507Y-52942824D01*
X92091827Y-53000000D01*
X92135998Y-53164850D01*
X92223960Y-53377208D01*
X92223964Y-53377218D01*
X92338892Y-53576279D01*
X92478821Y-53758639D01*
X92478827Y-53758646D01*
X92641353Y-53921172D01*
X92641360Y-53921178D01*
X92823720Y-54061107D01*
X93022781Y-54176035D01*
X93022782Y-54176035D01*
X93022785Y-54176037D01*
X93235148Y-54264001D01*
X93457176Y-54323493D01*
X93685070Y-54353496D01*
X93685077Y-54353496D01*
X93914923Y-54353496D01*
X93914930Y-54353496D01*
X94142824Y-54323493D01*
X94364852Y-54264001D01*
X94577215Y-54176037D01*
X94776280Y-54061107D01*
X94958641Y-53921177D01*
X95121177Y-53758641D01*
X95261107Y-53576280D01*
X95261839Y-53575013D01*
X106400000Y-53575013D01*
X106400000Y-53850000D01*
X107150000Y-53850000D01*
X107150000Y-52875000D01*
X107149999Y-52874999D01*
X107100029Y-52875000D01*
X107100011Y-52875001D01*
X106997302Y-52885494D01*
X106830880Y-52940641D01*
X106830875Y-52940643D01*
X106681654Y-53032684D01*
X106557684Y-53156654D01*
X106465643Y-53305875D01*
X106465641Y-53305880D01*
X106410494Y-53472302D01*
X106410493Y-53472309D01*
X106400000Y-53575013D01*
X95261839Y-53575013D01*
X95376037Y-53377215D01*
X95464001Y-53164852D01*
X95523493Y-52942824D01*
X95553496Y-52714930D01*
X95553496Y-52501617D01*
X114670000Y-52501617D01*
X114670000Y-52698382D01*
X114700778Y-52892705D01*
X114761581Y-53079835D01*
X114850905Y-53255145D01*
X114876319Y-53290125D01*
X114876320Y-53290125D01*
X115520000Y-52646445D01*
X115520000Y-52652661D01*
X115547259Y-52754394D01*
X115599920Y-52845606D01*
X115674394Y-52920080D01*
X115765606Y-52972741D01*
X115867339Y-53000000D01*
X115873553Y-53000000D01*
X115229873Y-53643677D01*
X115229873Y-53643678D01*
X115264858Y-53669096D01*
X115440164Y-53758418D01*
X115627294Y-53819221D01*
X115821618Y-53850000D01*
X116018382Y-53850000D01*
X116212705Y-53819221D01*
X116399835Y-53758418D01*
X116575143Y-53669095D01*
X116610125Y-53643678D01*
X116610126Y-53643678D01*
X115966448Y-53000000D01*
X115972661Y-53000000D01*
X116074394Y-52972741D01*
X116165606Y-52920080D01*
X116240080Y-52845606D01*
X116292741Y-52754394D01*
X116320000Y-52652661D01*
X116320000Y-52646448D01*
X116963678Y-53290126D01*
X116963678Y-53290125D01*
X116989095Y-53255143D01*
X117078418Y-53079835D01*
X117139221Y-52892705D01*
X117170000Y-52698382D01*
X117170000Y-52501617D01*
X117139221Y-52307294D01*
X117078418Y-52120164D01*
X116989096Y-51944858D01*
X116963678Y-51909873D01*
X116963677Y-51909873D01*
X116320000Y-52553551D01*
X116320000Y-52547339D01*
X116292741Y-52445606D01*
X116240080Y-52354394D01*
X116165606Y-52279920D01*
X116074394Y-52227259D01*
X115972661Y-52200000D01*
X115966447Y-52200000D01*
X116610125Y-51556320D01*
X116610125Y-51556319D01*
X116575145Y-51530905D01*
X116399835Y-51441581D01*
X116212705Y-51380778D01*
X116018382Y-51350000D01*
X115821618Y-51350000D01*
X115627294Y-51380778D01*
X115440161Y-51441582D01*
X115264863Y-51530899D01*
X115264859Y-51530902D01*
X115229873Y-51556320D01*
X115229872Y-51556320D01*
X115873554Y-52200000D01*
X115867339Y-52200000D01*
X115765606Y-52227259D01*
X115674394Y-52279920D01*
X115599920Y-52354394D01*
X115547259Y-52445606D01*
X115520000Y-52547339D01*
X115520000Y-52553552D01*
X114876320Y-51909872D01*
X114876320Y-51909873D01*
X114850902Y-51944859D01*
X114850899Y-51944863D01*
X114761582Y-52120161D01*
X114700778Y-52307294D01*
X114670000Y-52501617D01*
X95553496Y-52501617D01*
X95553496Y-52485070D01*
X95523493Y-52257176D01*
X95464001Y-52035148D01*
X95376037Y-51822785D01*
X95355269Y-51786813D01*
X95285276Y-51665581D01*
X95285275Y-51665580D01*
X95265509Y-51631344D01*
X95261107Y-51623720D01*
X95209389Y-51556320D01*
X95121178Y-51441360D01*
X95121172Y-51441353D01*
X94958646Y-51278827D01*
X94958639Y-51278821D01*
X94776279Y-51138892D01*
X94577218Y-51023964D01*
X94577208Y-51023960D01*
X94364850Y-50935998D01*
X94253838Y-50906253D01*
X94142824Y-50876507D01*
X94104738Y-50871492D01*
X93914937Y-50846504D01*
X93914930Y-50846504D01*
X93685070Y-50846504D01*
X93685062Y-50846504D01*
X93468146Y-50875062D01*
X93457176Y-50876507D01*
X93410253Y-50889079D01*
X93235149Y-50935998D01*
X93022791Y-51023960D01*
X93022781Y-51023964D01*
X92823720Y-51138892D01*
X92641360Y-51278821D01*
X92641353Y-51278827D01*
X92478827Y-51441353D01*
X92478821Y-51441360D01*
X92338892Y-51623720D01*
X92223964Y-51822781D01*
X92223960Y-51822791D01*
X92135998Y-52035149D01*
X92076508Y-52257173D01*
X92076506Y-52257184D01*
X92046504Y-52485062D01*
X91520500Y-52485062D01*
X91520500Y-50434500D01*
X91540185Y-50367461D01*
X91592989Y-50321706D01*
X91644500Y-50310500D01*
X170895500Y-50310500D01*
X170962539Y-50330185D01*
G37*
%TD.AperFunction*%
%TA.AperFunction,Conductor*%
G36*
X115596387Y-69155361D02*
G01*
X115652320Y-69197233D01*
X115676737Y-69262697D01*
X115661885Y-69330970D01*
X115660440Y-69333542D01*
X115640425Y-69368207D01*
X115640424Y-69368210D01*
X115634036Y-69392051D01*
X115599499Y-69520943D01*
X115599499Y-69520945D01*
X115599499Y-69534217D01*
X115579814Y-69601256D01*
X115563180Y-69621898D01*
X115422863Y-69762214D01*
X115422860Y-69762218D01*
X115313371Y-69926079D01*
X115313364Y-69926092D01*
X115237950Y-70108160D01*
X115237947Y-70108170D01*
X115199500Y-70301456D01*
X115199500Y-70301459D01*
X115199500Y-70498541D01*
X115199500Y-70498543D01*
X115199499Y-70498543D01*
X115237947Y-70691829D01*
X115237950Y-70691839D01*
X115313366Y-70873912D01*
X115313367Y-70873914D01*
X115317738Y-70880455D01*
X115338615Y-70947132D01*
X115320130Y-71014512D01*
X115302317Y-71037024D01*
X115255887Y-71083454D01*
X115179222Y-71198192D01*
X115126421Y-71325667D01*
X115126420Y-71325671D01*
X115126420Y-71325672D01*
X115102005Y-71448416D01*
X115099500Y-71461007D01*
X115099500Y-74231006D01*
X115099500Y-74368994D01*
X115099500Y-74368996D01*
X115099499Y-74368996D01*
X115126418Y-74504322D01*
X115126421Y-74504332D01*
X115179222Y-74631807D01*
X115255887Y-74746545D01*
X115255888Y-74746546D01*
X116530354Y-76021011D01*
X116563839Y-76082334D01*
X116558855Y-76152026D01*
X116545777Y-76177580D01*
X116513372Y-76226079D01*
X116513364Y-76226093D01*
X116437950Y-76408160D01*
X116437947Y-76408170D01*
X116399500Y-76601456D01*
X116399500Y-76601459D01*
X116399500Y-76798541D01*
X116399500Y-76798543D01*
X116399499Y-76798543D01*
X116437947Y-76991829D01*
X116437950Y-76991839D01*
X116513364Y-77173907D01*
X116513371Y-77173920D01*
X116622860Y-77337781D01*
X116622863Y-77337785D01*
X116663180Y-77378101D01*
X116696666Y-77439424D01*
X116699500Y-77465783D01*
X116699500Y-77529091D01*
X116679815Y-77596130D01*
X116635731Y-77634641D01*
X116636813Y-77636395D01*
X116630667Y-77640185D01*
X116630666Y-77640186D01*
X116532419Y-77700784D01*
X116481342Y-77732289D01*
X116437681Y-77775951D01*
X116376358Y-77809436D01*
X116306666Y-77804452D01*
X116262319Y-77775951D01*
X116243657Y-77757289D01*
X116243656Y-77757288D01*
X116119191Y-77680518D01*
X116094336Y-77665187D01*
X116094331Y-77665185D01*
X116091141Y-77664128D01*
X115927797Y-77610001D01*
X115927795Y-77610000D01*
X115825010Y-77599500D01*
X114774998Y-77599500D01*
X114774980Y-77599501D01*
X114672203Y-77610000D01*
X114672200Y-77610001D01*
X114505668Y-77665185D01*
X114505663Y-77665187D01*
X114356342Y-77757289D01*
X114337681Y-77775951D01*
X114276358Y-77809436D01*
X114206666Y-77804452D01*
X114162319Y-77775951D01*
X114143657Y-77757289D01*
X114143656Y-77757288D01*
X114019191Y-77680518D01*
X113994336Y-77665187D01*
X113994331Y-77665185D01*
X113991141Y-77664128D01*
X113827797Y-77610001D01*
X113827795Y-77610000D01*
X113725010Y-77599500D01*
X112674998Y-77599500D01*
X112674980Y-77599501D01*
X112572203Y-77610000D01*
X112572200Y-77610001D01*
X112405668Y-77665185D01*
X112405663Y-77665187D01*
X112256342Y-77757289D01*
X112200451Y-77813181D01*
X112139128Y-77846666D01*
X112112770Y-77849500D01*
X111569828Y-77849500D01*
X111535233Y-77844576D01*
X111390073Y-77802402D01*
X111390067Y-77802401D01*
X111353201Y-77799500D01*
X111353194Y-77799500D01*
X110196806Y-77799500D01*
X110196798Y-77799500D01*
X110159932Y-77802401D01*
X110159926Y-77802402D01*
X110002106Y-77848254D01*
X110002103Y-77848255D01*
X109860637Y-77931917D01*
X109860629Y-77931923D01*
X109744423Y-78048129D01*
X109744414Y-78048140D01*
X109744229Y-78048455D01*
X109744019Y-78048650D01*
X109739639Y-78054298D01*
X109738727Y-78053591D01*
X109693157Y-78096136D01*
X109624415Y-78108637D01*
X109559827Y-78081988D01*
X109535643Y-78054078D01*
X109535361Y-78054298D01*
X109531323Y-78049092D01*
X109530771Y-78048455D01*
X109530585Y-78048140D01*
X109530576Y-78048129D01*
X109414370Y-77931923D01*
X109414362Y-77931917D01*
X109315715Y-77873578D01*
X109272898Y-77848256D01*
X109272897Y-77848255D01*
X109266183Y-77844285D01*
X109267194Y-77842574D01*
X109221532Y-77804564D01*
X109200524Y-77737927D01*
X109200500Y-77735473D01*
X109200500Y-77341519D01*
X109220185Y-77274480D01*
X109236819Y-77253838D01*
X110878838Y-75611819D01*
X110940161Y-75578334D01*
X110966519Y-75575500D01*
X111023543Y-75575500D01*
X111153582Y-75549632D01*
X111216835Y-75537051D01*
X111398914Y-75461632D01*
X111562782Y-75352139D01*
X111702139Y-75212782D01*
X111811632Y-75048914D01*
X111887051Y-74866835D01*
X111910978Y-74746546D01*
X111925500Y-74673543D01*
X111925500Y-74476456D01*
X111887052Y-74283170D01*
X111887051Y-74283169D01*
X111887051Y-74283165D01*
X111873314Y-74250000D01*
X111811635Y-74101092D01*
X111811628Y-74101079D01*
X111702139Y-73937218D01*
X111702136Y-73937214D01*
X111562785Y-73797863D01*
X111562781Y-73797860D01*
X111398920Y-73688371D01*
X111398907Y-73688364D01*
X111216839Y-73612950D01*
X111216829Y-73612947D01*
X111023543Y-73574500D01*
X111023541Y-73574500D01*
X110826459Y-73574500D01*
X110826457Y-73574500D01*
X110633170Y-73612947D01*
X110633160Y-73612950D01*
X110451092Y-73688364D01*
X110451079Y-73688371D01*
X110287218Y-73797860D01*
X110287214Y-73797863D01*
X110147863Y-73937214D01*
X110147860Y-73937218D01*
X110038371Y-74101079D01*
X110038364Y-74101092D01*
X109962950Y-74283160D01*
X109962947Y-74283170D01*
X109924500Y-74476456D01*
X109924500Y-74533480D01*
X109904815Y-74600519D01*
X109888181Y-74621161D01*
X107955888Y-76553453D01*
X107955887Y-76553454D01*
X107879222Y-76668192D01*
X107826421Y-76795667D01*
X107826418Y-76795679D01*
X107801906Y-76918906D01*
X107801907Y-76918907D01*
X107799500Y-76931008D01*
X107799500Y-77725500D01*
X107779815Y-77792539D01*
X107727011Y-77838294D01*
X107675500Y-77849500D01*
X106379729Y-77849500D01*
X106340725Y-77843206D01*
X106325902Y-77838294D01*
X106202797Y-77797501D01*
X106202795Y-77797500D01*
X106100010Y-77787000D01*
X105099998Y-77787000D01*
X105099980Y-77787001D01*
X104997203Y-77797500D01*
X104997200Y-77797501D01*
X104830668Y-77852685D01*
X104830663Y-77852687D01*
X104681342Y-77944789D01*
X104612951Y-78013181D01*
X104551628Y-78046666D01*
X104525270Y-78049500D01*
X103837230Y-78049500D01*
X103770191Y-78029815D01*
X103749549Y-78013181D01*
X103693657Y-77957289D01*
X103693656Y-77957288D01*
X103544334Y-77865186D01*
X103377797Y-77810001D01*
X103377795Y-77810000D01*
X103275010Y-77799500D01*
X102224998Y-77799500D01*
X102224980Y-77799501D01*
X102122203Y-77810000D01*
X102122200Y-77810001D01*
X101955668Y-77865185D01*
X101955663Y-77865187D01*
X101806342Y-77957289D01*
X101787681Y-77975951D01*
X101726358Y-78009436D01*
X101656666Y-78004452D01*
X101612319Y-77975951D01*
X101593657Y-77957289D01*
X101593656Y-77957288D01*
X101444334Y-77865186D01*
X101277797Y-77810001D01*
X101277795Y-77810000D01*
X101175010Y-77799500D01*
X100124998Y-77799500D01*
X100124980Y-77799501D01*
X100022203Y-77810000D01*
X100022200Y-77810001D01*
X99855668Y-77865185D01*
X99855663Y-77865187D01*
X99706342Y-77957289D01*
X99582289Y-78081342D01*
X99490187Y-78230663D01*
X99490185Y-78230668D01*
X99462349Y-78314670D01*
X99435001Y-78397203D01*
X99435001Y-78397204D01*
X99435000Y-78397204D01*
X99424500Y-78499983D01*
X99424500Y-79100001D01*
X99424501Y-79100019D01*
X99435000Y-79202796D01*
X99435001Y-79202799D01*
X99490185Y-79369331D01*
X99490187Y-79369336D01*
X99498588Y-79382956D01*
X99582288Y-79518656D01*
X99706344Y-79642712D01*
X99709628Y-79644737D01*
X99709653Y-79644753D01*
X99711445Y-79646746D01*
X99712011Y-79647193D01*
X99711934Y-79647289D01*
X99756379Y-79696699D01*
X99767603Y-79765661D01*
X99739761Y-79829744D01*
X99709665Y-79855826D01*
X99706660Y-79857679D01*
X99706655Y-79857683D01*
X99582684Y-79981654D01*
X99490643Y-80130875D01*
X99490641Y-80130880D01*
X99435494Y-80297302D01*
X99435493Y-80297309D01*
X99425000Y-80400013D01*
X99425000Y-80450000D01*
X103974999Y-80450000D01*
X103974999Y-80400028D01*
X103974998Y-80400013D01*
X103964505Y-80297302D01*
X103909358Y-80130880D01*
X103909356Y-80130875D01*
X103817315Y-79981654D01*
X103693344Y-79857683D01*
X103693341Y-79857681D01*
X103690339Y-79855829D01*
X103688713Y-79854021D01*
X103687677Y-79853202D01*
X103687817Y-79853024D01*
X103643617Y-79803880D01*
X103632397Y-79734917D01*
X103660243Y-79670836D01*
X103671157Y-79659341D01*
X103680036Y-79651112D01*
X103693656Y-79642712D01*
X103751214Y-79585153D01*
X103752947Y-79583548D01*
X103782197Y-79568991D01*
X103810872Y-79553334D01*
X103814428Y-79552951D01*
X103815499Y-79552419D01*
X103817419Y-79552630D01*
X103837230Y-79550500D01*
X104525270Y-79550500D01*
X104592309Y-79570185D01*
X104612951Y-79586819D01*
X104650951Y-79624819D01*
X104684436Y-79686142D01*
X104679452Y-79755834D01*
X104650951Y-79800181D01*
X104557289Y-79893842D01*
X104465187Y-80043163D01*
X104465185Y-80043168D01*
X104446356Y-80099991D01*
X104410001Y-80209703D01*
X104410001Y-80209704D01*
X104410000Y-80209704D01*
X104399500Y-80312483D01*
X104399500Y-80937501D01*
X104399501Y-80937508D01*
X104410000Y-81040296D01*
X104410001Y-81040299D01*
X104465185Y-81206831D01*
X104465187Y-81206836D01*
X104492887Y-81251745D01*
X104557288Y-81356156D01*
X104681344Y-81480212D01*
X104830666Y-81572314D01*
X104997203Y-81627499D01*
X105099991Y-81638000D01*
X106100008Y-81637999D01*
X106100016Y-81637998D01*
X106100019Y-81637998D01*
X106160849Y-81631784D01*
X106202797Y-81627499D01*
X106369334Y-81572314D01*
X106518656Y-81480212D01*
X106642712Y-81356156D01*
X106671549Y-81309402D01*
X106723497Y-81262679D01*
X106777088Y-81250500D01*
X107705172Y-81250500D01*
X107739767Y-81255424D01*
X107884926Y-81297597D01*
X107884929Y-81297597D01*
X107884931Y-81297598D01*
X107921806Y-81300500D01*
X107921814Y-81300500D01*
X109078186Y-81300500D01*
X109078194Y-81300500D01*
X109115069Y-81297598D01*
X109115071Y-81297597D01*
X109115073Y-81297597D01*
X109210195Y-81269961D01*
X109272898Y-81251744D01*
X109414365Y-81168081D01*
X109530581Y-81051865D01*
X109530767Y-81051549D01*
X109530977Y-81051353D01*
X109535361Y-81045702D01*
X109536272Y-81046409D01*
X109581836Y-81003866D01*
X109650577Y-80991362D01*
X109715167Y-81018006D01*
X109739355Y-81045921D01*
X109739639Y-81045702D01*
X109743679Y-81050911D01*
X109744232Y-81051548D01*
X109744419Y-81051865D01*
X109744421Y-81051867D01*
X109744423Y-81051870D01*
X109860629Y-81168076D01*
X109860633Y-81168079D01*
X109860635Y-81168081D01*
X110002102Y-81251744D01*
X110023002Y-81257816D01*
X110159926Y-81297597D01*
X110159929Y-81297597D01*
X110159931Y-81297598D01*
X110196806Y-81300500D01*
X110196814Y-81300500D01*
X111353186Y-81300500D01*
X111353194Y-81300500D01*
X111390069Y-81297598D01*
X111390071Y-81297597D01*
X111390073Y-81297597D01*
X111485195Y-81269961D01*
X111547898Y-81251744D01*
X111689365Y-81168081D01*
X111805581Y-81051865D01*
X111813845Y-81037890D01*
X111864913Y-80990207D01*
X111933654Y-80977701D01*
X111998244Y-81004346D01*
X112038175Y-81061680D01*
X112038283Y-81062003D01*
X112040640Y-81069117D01*
X112040643Y-81069124D01*
X112132684Y-81218345D01*
X112256654Y-81342315D01*
X112405875Y-81434356D01*
X112405880Y-81434358D01*
X112572302Y-81489505D01*
X112572309Y-81489506D01*
X112675019Y-81499999D01*
X112949999Y-81499999D01*
X113450000Y-81499999D01*
X113724972Y-81499999D01*
X113724986Y-81499998D01*
X113827697Y-81489505D01*
X113994119Y-81434358D01*
X113994124Y-81434356D01*
X114143345Y-81342315D01*
X114162319Y-81323342D01*
X114223642Y-81289857D01*
X114293334Y-81294841D01*
X114337681Y-81323342D01*
X114356654Y-81342315D01*
X114505875Y-81434356D01*
X114505880Y-81434358D01*
X114672302Y-81489505D01*
X114672309Y-81489506D01*
X114775019Y-81499999D01*
X115049999Y-81499999D01*
X115050000Y-81499998D01*
X115050000Y-80750000D01*
X113450000Y-80750000D01*
X113450000Y-81499999D01*
X112949999Y-81499999D01*
X112950000Y-81499998D01*
X112950000Y-80624000D01*
X112969685Y-80556961D01*
X113022489Y-80511206D01*
X113074000Y-80500000D01*
X113200000Y-80500000D01*
X113200000Y-80374000D01*
X113219685Y-80306961D01*
X113272489Y-80261206D01*
X113324000Y-80250000D01*
X115176000Y-80250000D01*
X115243039Y-80269685D01*
X115288794Y-80322489D01*
X115300000Y-80374000D01*
X115300000Y-80500000D01*
X115426000Y-80500000D01*
X115493039Y-80519685D01*
X115538794Y-80572489D01*
X115550000Y-80624000D01*
X115550000Y-81499999D01*
X115824972Y-81499999D01*
X115824981Y-81499998D01*
X115841086Y-81498353D01*
X115909779Y-81511121D01*
X115960664Y-81559001D01*
X115977586Y-81626791D01*
X115955172Y-81692967D01*
X115941371Y-81709392D01*
X115337582Y-82313181D01*
X115276259Y-82346666D01*
X115249901Y-82349500D01*
X114562129Y-82349500D01*
X114562123Y-82349501D01*
X114502516Y-82355908D01*
X114367671Y-82406202D01*
X114367664Y-82406206D01*
X114252455Y-82492452D01*
X114252452Y-82492455D01*
X114166206Y-82607664D01*
X114166202Y-82607671D01*
X114115908Y-82742517D01*
X114109501Y-82802116D01*
X114109500Y-82802135D01*
X114109500Y-84597870D01*
X114109501Y-84597879D01*
X114111046Y-84612248D01*
X114098639Y-84681007D01*
X114051027Y-84732143D01*
X113987756Y-84749500D01*
X98862230Y-84749500D01*
X98795191Y-84729815D01*
X98774549Y-84713181D01*
X97386819Y-83325451D01*
X97353334Y-83264128D01*
X97350500Y-83237770D01*
X97350500Y-80999986D01*
X99425001Y-80999986D01*
X99435494Y-81102697D01*
X99490641Y-81269119D01*
X99490643Y-81269124D01*
X99582684Y-81418345D01*
X99706654Y-81542315D01*
X99855875Y-81634356D01*
X99855880Y-81634358D01*
X100022302Y-81689505D01*
X100022309Y-81689506D01*
X100125019Y-81699999D01*
X100399999Y-81699999D01*
X100900000Y-81699999D01*
X101174972Y-81699999D01*
X101174986Y-81699998D01*
X101277697Y-81689505D01*
X101444119Y-81634358D01*
X101444124Y-81634356D01*
X101593345Y-81542315D01*
X101612319Y-81523342D01*
X101673642Y-81489857D01*
X101743334Y-81494841D01*
X101787681Y-81523342D01*
X101806654Y-81542315D01*
X101955875Y-81634356D01*
X101955880Y-81634358D01*
X102122302Y-81689505D01*
X102122309Y-81689506D01*
X102225019Y-81699999D01*
X102499999Y-81699999D01*
X103000000Y-81699999D01*
X103274972Y-81699999D01*
X103274986Y-81699998D01*
X103377697Y-81689505D01*
X103544119Y-81634358D01*
X103544124Y-81634356D01*
X103693345Y-81542315D01*
X103817315Y-81418345D01*
X103909356Y-81269124D01*
X103909358Y-81269119D01*
X103964505Y-81102697D01*
X103964506Y-81102690D01*
X103974999Y-80999986D01*
X103975000Y-80999973D01*
X103975000Y-80950000D01*
X103000000Y-80950000D01*
X103000000Y-81699999D01*
X102499999Y-81699999D01*
X102500000Y-81699998D01*
X102500000Y-80950000D01*
X100900000Y-80950000D01*
X100900000Y-81699999D01*
X100399999Y-81699999D01*
X100400000Y-81699998D01*
X100400000Y-80950000D01*
X99425001Y-80950000D01*
X99425001Y-80999986D01*
X97350500Y-80999986D01*
X97350500Y-80026080D01*
X97344405Y-79995442D01*
X97333461Y-79940423D01*
X97321659Y-79881088D01*
X97279099Y-79778341D01*
X97265084Y-79744505D01*
X97264998Y-79744377D01*
X97210205Y-79662373D01*
X97210204Y-79662372D01*
X97207071Y-79657683D01*
X97182952Y-79621585D01*
X95778416Y-78217048D01*
X95778415Y-78217047D01*
X95778413Y-78217045D01*
X95729029Y-78184049D01*
X95696105Y-78162051D01*
X95655495Y-78134916D01*
X95655494Y-78134915D01*
X95655492Y-78134914D01*
X95655490Y-78134913D01*
X95518917Y-78078343D01*
X95518907Y-78078340D01*
X95373920Y-78049500D01*
X95373918Y-78049500D01*
X93262230Y-78049500D01*
X93195191Y-78029815D01*
X93174549Y-78013181D01*
X92886819Y-77725451D01*
X92853334Y-77664128D01*
X92850500Y-77637770D01*
X92850500Y-76749077D01*
X92870185Y-76682038D01*
X92922989Y-76636283D01*
X92992147Y-76626339D01*
X93055703Y-76655364D01*
X93062181Y-76661396D01*
X93097533Y-76696748D01*
X93097537Y-76696751D01*
X93261315Y-76806185D01*
X93261328Y-76806192D01*
X93443306Y-76881569D01*
X93443318Y-76881572D01*
X93636504Y-76919999D01*
X93636508Y-76920000D01*
X93885000Y-76920000D01*
X93885000Y-76220000D01*
X94385000Y-76220000D01*
X94385000Y-76920000D01*
X94633492Y-76920000D01*
X94633495Y-76919999D01*
X94826681Y-76881572D01*
X94826693Y-76881569D01*
X95008671Y-76806192D01*
X95008684Y-76806185D01*
X95172462Y-76696751D01*
X95172466Y-76696748D01*
X95311748Y-76557466D01*
X95311751Y-76557462D01*
X95421185Y-76393684D01*
X95421192Y-76393671D01*
X95496569Y-76211692D01*
X95496569Y-76211690D01*
X95504862Y-76170000D01*
X94701988Y-76170000D01*
X94719205Y-76160060D01*
X94775060Y-76104205D01*
X94814556Y-76035796D01*
X94835000Y-75959496D01*
X94835000Y-75880504D01*
X94814556Y-75804204D01*
X94775060Y-75735795D01*
X94719205Y-75679940D01*
X94701988Y-75670000D01*
X95504862Y-75670000D01*
X95496569Y-75628309D01*
X95496569Y-75628307D01*
X95421192Y-75446328D01*
X95421185Y-75446315D01*
X95311751Y-75282537D01*
X95311748Y-75282533D01*
X95291396Y-75262181D01*
X95257911Y-75200858D01*
X95262895Y-75131166D01*
X95304767Y-75075233D01*
X95370231Y-75050816D01*
X95379077Y-75050500D01*
X95973920Y-75050500D01*
X96075392Y-75030315D01*
X96118913Y-75021658D01*
X96255495Y-74965084D01*
X96321557Y-74920943D01*
X96378416Y-74882952D01*
X96924548Y-74336818D01*
X96985871Y-74303334D01*
X97012229Y-74300500D01*
X97115500Y-74300500D01*
X97182539Y-74320185D01*
X97228294Y-74372989D01*
X97239500Y-74424500D01*
X97239500Y-74565766D01*
X97259109Y-74638950D01*
X97278719Y-74712136D01*
X97310869Y-74767820D01*
X97354485Y-74843365D01*
X97354486Y-74843366D01*
X97358549Y-74850403D01*
X97356346Y-74851674D01*
X97376959Y-74904983D01*
X97362923Y-74973428D01*
X97314112Y-75023420D01*
X97300845Y-75029866D01*
X97291324Y-75033809D01*
X97291315Y-75033814D01*
X97127537Y-75143248D01*
X97127533Y-75143251D01*
X96988251Y-75282533D01*
X96988248Y-75282537D01*
X96878814Y-75446315D01*
X96878807Y-75446328D01*
X96803430Y-75628307D01*
X96803430Y-75628309D01*
X96795138Y-75670000D01*
X97598012Y-75670000D01*
X97580795Y-75679940D01*
X97524940Y-75735795D01*
X97485444Y-75804204D01*
X97465000Y-75880504D01*
X97465000Y-75959496D01*
X97485444Y-76035796D01*
X97524940Y-76104205D01*
X97580795Y-76160060D01*
X97598012Y-76170000D01*
X96795138Y-76170000D01*
X96803430Y-76211690D01*
X96803430Y-76211692D01*
X96878807Y-76393671D01*
X96878814Y-76393684D01*
X96988248Y-76557462D01*
X96988251Y-76557466D01*
X97127533Y-76696748D01*
X97127537Y-76696751D01*
X97291315Y-76806185D01*
X97291328Y-76806192D01*
X97473306Y-76881569D01*
X97473318Y-76881572D01*
X97666504Y-76919999D01*
X97666508Y-76920000D01*
X98065000Y-76920000D01*
X98065000Y-76220000D01*
X98565000Y-76220000D01*
X98565000Y-76920000D01*
X98963492Y-76920000D01*
X98963495Y-76919999D01*
X99156681Y-76881572D01*
X99156693Y-76881569D01*
X99338671Y-76806192D01*
X99338684Y-76806185D01*
X99502462Y-76696751D01*
X99502466Y-76696748D01*
X99641748Y-76557466D01*
X99641751Y-76557462D01*
X99751185Y-76393684D01*
X99751192Y-76393671D01*
X99826569Y-76211692D01*
X99826569Y-76211690D01*
X99834862Y-76170000D01*
X99031988Y-76170000D01*
X99049205Y-76160060D01*
X99105060Y-76104205D01*
X99144556Y-76035796D01*
X99165000Y-75959496D01*
X99165000Y-75880504D01*
X99144556Y-75804204D01*
X99105060Y-75735795D01*
X99049205Y-75679940D01*
X99031988Y-75670000D01*
X99834862Y-75670000D01*
X99826569Y-75628309D01*
X99826569Y-75628307D01*
X99779008Y-75513483D01*
X99771539Y-75444014D01*
X99802814Y-75381535D01*
X99805889Y-75378348D01*
X99832683Y-75351553D01*
X99832686Y-75351550D01*
X99916281Y-75210198D01*
X99962100Y-75052486D01*
X99962295Y-75050001D01*
X99962295Y-75050000D01*
X99014000Y-75050000D01*
X98946961Y-75030315D01*
X98901206Y-74977511D01*
X98890000Y-74926000D01*
X98890000Y-74924500D01*
X98909685Y-74857461D01*
X98962489Y-74811706D01*
X99014000Y-74800500D01*
X99380686Y-74800500D01*
X99380694Y-74800500D01*
X99417569Y-74797598D01*
X99417571Y-74797597D01*
X99417573Y-74797597D01*
X99469374Y-74782547D01*
X99575398Y-74751744D01*
X99716865Y-74668081D01*
X99798628Y-74586317D01*
X99859949Y-74552834D01*
X99886308Y-74550000D01*
X99962295Y-74550000D01*
X99962295Y-74549998D01*
X99962100Y-74547508D01*
X99929555Y-74435491D01*
X99929555Y-74366302D01*
X99962598Y-74252569D01*
X99965500Y-74215694D01*
X99965500Y-74074500D01*
X99985185Y-74007461D01*
X100037989Y-73961706D01*
X100089500Y-73950500D01*
X102049903Y-73950500D01*
X102116942Y-73970185D01*
X102137584Y-73986819D01*
X102515139Y-74364374D01*
X102515149Y-74364385D01*
X102519479Y-74368715D01*
X102519480Y-74368716D01*
X102631284Y-74480520D01*
X102698767Y-74519481D01*
X102768215Y-74559577D01*
X102920943Y-74600501D01*
X102920946Y-74600501D01*
X103086653Y-74600501D01*
X103086669Y-74600500D01*
X104794699Y-74600500D01*
X104861738Y-74620185D01*
X104907493Y-74672989D01*
X104912403Y-74685492D01*
X104932635Y-74746546D01*
X104940185Y-74769331D01*
X104940187Y-74769336D01*
X104957619Y-74797597D01*
X105032288Y-74918656D01*
X105156344Y-75042712D01*
X105305666Y-75134814D01*
X105472203Y-75189999D01*
X105574991Y-75200500D01*
X106200008Y-75200499D01*
X106200016Y-75200498D01*
X106200019Y-75200498D01*
X106256302Y-75194748D01*
X106302797Y-75189999D01*
X106469334Y-75134814D01*
X106618656Y-75042712D01*
X106712675Y-74948692D01*
X106773994Y-74915210D01*
X106843686Y-74920194D01*
X106888034Y-74948695D01*
X106981654Y-75042315D01*
X107130875Y-75134356D01*
X107130880Y-75134358D01*
X107297302Y-75189505D01*
X107297309Y-75189506D01*
X107400019Y-75199999D01*
X107962500Y-75199999D01*
X108024972Y-75199999D01*
X108024986Y-75199998D01*
X108127697Y-75189505D01*
X108294119Y-75134358D01*
X108294124Y-75134356D01*
X108443345Y-75042315D01*
X108567315Y-74918345D01*
X108659356Y-74769124D01*
X108659358Y-74769119D01*
X108714505Y-74602697D01*
X108714506Y-74602690D01*
X108724999Y-74499986D01*
X108725000Y-74499973D01*
X108725000Y-74250000D01*
X107962500Y-74250000D01*
X107962500Y-75199999D01*
X107400019Y-75199999D01*
X107462499Y-75199998D01*
X107462500Y-75199998D01*
X107462500Y-74124000D01*
X107482185Y-74056961D01*
X107534989Y-74011206D01*
X107586500Y-74000000D01*
X107712500Y-74000000D01*
X107712500Y-73874000D01*
X107732185Y-73806961D01*
X107784989Y-73761206D01*
X107836500Y-73750000D01*
X108724999Y-73750000D01*
X108724999Y-73500028D01*
X108724998Y-73500013D01*
X108714505Y-73397302D01*
X108659358Y-73230880D01*
X108659356Y-73230875D01*
X108567315Y-73081654D01*
X108517445Y-73031784D01*
X108483960Y-72970461D01*
X108488944Y-72900769D01*
X108517444Y-72856423D01*
X108555212Y-72818656D01*
X108647314Y-72669334D01*
X108675095Y-72585495D01*
X108714868Y-72528051D01*
X108779384Y-72501228D01*
X108792801Y-72500500D01*
X110513331Y-72500500D01*
X110513347Y-72500501D01*
X110520943Y-72500501D01*
X110679054Y-72500501D01*
X110679057Y-72500501D01*
X110831785Y-72459577D01*
X110884647Y-72429057D01*
X110884648Y-72429057D01*
X110968709Y-72380524D01*
X110968708Y-72380524D01*
X110968716Y-72380520D01*
X111080520Y-72268716D01*
X111080520Y-72268714D01*
X111090724Y-72258511D01*
X111090727Y-72258506D01*
X112917820Y-70431413D01*
X112979142Y-70397930D01*
X113048834Y-70402914D01*
X113104767Y-70444786D01*
X113129184Y-70510250D01*
X113129500Y-70519096D01*
X113129500Y-71834216D01*
X113109815Y-71901255D01*
X113093181Y-71921897D01*
X112952863Y-72062214D01*
X112952860Y-72062218D01*
X112843371Y-72226079D01*
X112843364Y-72226092D01*
X112767950Y-72408160D01*
X112767947Y-72408170D01*
X112729500Y-72601456D01*
X112729500Y-72601459D01*
X112729500Y-72798541D01*
X112729500Y-72798543D01*
X112729499Y-72798543D01*
X112767947Y-72991829D01*
X112767950Y-72991839D01*
X112843364Y-73173907D01*
X112843371Y-73173920D01*
X112952860Y-73337781D01*
X112952863Y-73337785D01*
X113092214Y-73477136D01*
X113092218Y-73477139D01*
X113256079Y-73586628D01*
X113256092Y-73586635D01*
X113438160Y-73662049D01*
X113438165Y-73662051D01*
X113438169Y-73662051D01*
X113438170Y-73662052D01*
X113631456Y-73700500D01*
X113631459Y-73700500D01*
X113828543Y-73700500D01*
X113958582Y-73674632D01*
X114021835Y-73662051D01*
X114203914Y-73586632D01*
X114367782Y-73477139D01*
X114507139Y-73337782D01*
X114616632Y-73173914D01*
X114692051Y-72991835D01*
X114722651Y-72838000D01*
X114730500Y-72798543D01*
X114730500Y-72601456D01*
X114692052Y-72408170D01*
X114692051Y-72408169D01*
X114692051Y-72408165D01*
X114680599Y-72380518D01*
X114616635Y-72226092D01*
X114616628Y-72226079D01*
X114507139Y-72062218D01*
X114507136Y-72062214D01*
X114366819Y-71921897D01*
X114333334Y-71860574D01*
X114330500Y-71834216D01*
X114330500Y-70370097D01*
X114350185Y-70303058D01*
X114366819Y-70282416D01*
X114898777Y-69750458D01*
X115465374Y-69183860D01*
X115526695Y-69150377D01*
X115596387Y-69155361D01*
G37*
%TD.AperFunction*%
%TA.AperFunction,Conductor*%
G36*
X109813852Y-79240129D02*
G01*
X109853512Y-79264530D01*
X109854469Y-79263298D01*
X109860632Y-79268078D01*
X109860635Y-79268081D01*
X110002102Y-79351744D01*
X110014769Y-79355424D01*
X110159926Y-79397597D01*
X110159929Y-79397597D01*
X110159931Y-79397598D01*
X110196806Y-79400500D01*
X110196814Y-79400500D01*
X111353186Y-79400500D01*
X111353194Y-79400500D01*
X111390069Y-79397598D01*
X111390071Y-79397597D01*
X111390073Y-79397597D01*
X111535233Y-79355424D01*
X111569828Y-79350500D01*
X112112770Y-79350500D01*
X112179809Y-79370185D01*
X112197054Y-79383548D01*
X112198772Y-79385140D01*
X112256344Y-79442712D01*
X112269963Y-79451112D01*
X112278843Y-79459341D01*
X112290786Y-79479364D01*
X112306379Y-79496699D01*
X112308350Y-79508810D01*
X112314635Y-79519347D01*
X112313857Y-79542646D01*
X112317603Y-79565661D01*
X112312713Y-79576915D01*
X112312304Y-79589178D01*
X112299051Y-79608361D01*
X112289761Y-79629744D01*
X112276098Y-79641583D01*
X112272590Y-79646663D01*
X112268057Y-79648552D01*
X112259665Y-79655826D01*
X112256660Y-79657679D01*
X112256655Y-79657683D01*
X112132684Y-79781654D01*
X112040643Y-79930875D01*
X112040640Y-79930883D01*
X112038282Y-79937999D01*
X111998506Y-79995442D01*
X111933989Y-80022262D01*
X111865214Y-80009943D01*
X111814017Y-79962398D01*
X111813846Y-79962110D01*
X111805583Y-79948138D01*
X111805576Y-79948129D01*
X111689370Y-79831923D01*
X111689362Y-79831917D01*
X111547896Y-79748255D01*
X111547893Y-79748254D01*
X111390073Y-79702402D01*
X111390067Y-79702401D01*
X111353201Y-79699500D01*
X111353194Y-79699500D01*
X110196806Y-79699500D01*
X110196798Y-79699500D01*
X110159932Y-79702401D01*
X110159926Y-79702402D01*
X110002106Y-79748254D01*
X110002103Y-79748255D01*
X109860637Y-79831917D01*
X109854469Y-79836702D01*
X109853164Y-79835019D01*
X109801454Y-79863246D01*
X109731763Y-79858251D01*
X109684058Y-79826247D01*
X109659796Y-79800000D01*
X109394315Y-79800000D01*
X109331194Y-79782732D01*
X109272896Y-79748255D01*
X109272893Y-79748254D01*
X109115073Y-79702402D01*
X109115067Y-79702401D01*
X109078201Y-79699500D01*
X109078194Y-79699500D01*
X107921806Y-79699500D01*
X107921798Y-79699500D01*
X107884932Y-79702401D01*
X107884926Y-79702402D01*
X107739767Y-79744576D01*
X107669898Y-79744377D01*
X107611228Y-79706435D01*
X107582384Y-79642797D01*
X107581172Y-79625500D01*
X107581172Y-79619037D01*
X106742586Y-79748058D01*
X106673333Y-79738797D01*
X106620081Y-79693565D01*
X106599736Y-79626722D01*
X106618759Y-79559492D01*
X106636049Y-79537819D01*
X106639054Y-79534814D01*
X106642712Y-79531156D01*
X106717809Y-79409402D01*
X106769757Y-79362679D01*
X106823348Y-79350500D01*
X107705172Y-79350500D01*
X107739767Y-79355424D01*
X107884926Y-79397597D01*
X107884929Y-79397597D01*
X107884931Y-79397598D01*
X107921806Y-79400500D01*
X107921814Y-79400500D01*
X109078186Y-79400500D01*
X109078194Y-79400500D01*
X109115069Y-79397598D01*
X109115071Y-79397597D01*
X109115073Y-79397597D01*
X109163429Y-79383548D01*
X109272898Y-79351744D01*
X109331194Y-79317268D01*
X109394315Y-79300000D01*
X109659794Y-79300000D01*
X109684057Y-79273752D01*
X109744018Y-79237885D01*
X109813852Y-79240129D01*
G37*
%TD.AperFunction*%
%TA.AperFunction,Conductor*%
G36*
X146325520Y-65220185D02*
G01*
X146346162Y-65236819D01*
X152521662Y-71412319D01*
X152555147Y-71473642D01*
X152550163Y-71543334D01*
X152521662Y-71587681D01*
X147646162Y-76463181D01*
X147584839Y-76496666D01*
X147558481Y-76499500D01*
X132165783Y-76499500D01*
X132098744Y-76479815D01*
X132078101Y-76463180D01*
X132037785Y-76422863D01*
X132037781Y-76422860D01*
X131873920Y-76313371D01*
X131873907Y-76313364D01*
X131691839Y-76237950D01*
X131691829Y-76237947D01*
X131498543Y-76199500D01*
X131498541Y-76199500D01*
X131301459Y-76199500D01*
X131301457Y-76199500D01*
X131108170Y-76237947D01*
X131108160Y-76237950D01*
X130926092Y-76313364D01*
X130926079Y-76313371D01*
X130762218Y-76422860D01*
X130762214Y-76422863D01*
X130654838Y-76530240D01*
X130593515Y-76563725D01*
X130523823Y-76558741D01*
X130479476Y-76530240D01*
X130436819Y-76487583D01*
X130403334Y-76426260D01*
X130400500Y-76399902D01*
X130400500Y-74489059D01*
X130400501Y-74489046D01*
X130400501Y-74320945D01*
X130400501Y-74320943D01*
X130359577Y-74168215D01*
X130320820Y-74101086D01*
X130280520Y-74031284D01*
X130168716Y-73919480D01*
X130168715Y-73919479D01*
X130164385Y-73915149D01*
X130164374Y-73915139D01*
X129298916Y-73049681D01*
X129265431Y-72988358D01*
X129270415Y-72918666D01*
X129312287Y-72862733D01*
X129377751Y-72838316D01*
X129386597Y-72838000D01*
X140831496Y-72838000D01*
X140928741Y-72818656D01*
X140966828Y-72811080D01*
X141080181Y-72764128D01*
X141094307Y-72758277D01*
X141094308Y-72758276D01*
X141094311Y-72758275D01*
X141209043Y-72681614D01*
X142144114Y-71746543D01*
X142220775Y-71631811D01*
X142273580Y-71504328D01*
X142286973Y-71437000D01*
X142300500Y-71368996D01*
X142300500Y-69624620D01*
X142320185Y-69557581D01*
X142372989Y-69511826D01*
X142424500Y-69500620D01*
X142447871Y-69500620D01*
X142447872Y-69500620D01*
X142507483Y-69494212D01*
X142642331Y-69443917D01*
X142757546Y-69357667D01*
X142843796Y-69242452D01*
X142894091Y-69107604D01*
X142900500Y-69047994D01*
X142900499Y-66952249D01*
X142894557Y-66896972D01*
X142894091Y-66892637D01*
X142843797Y-66757792D01*
X142843793Y-66757785D01*
X142757547Y-66642576D01*
X142757544Y-66642573D01*
X142642335Y-66556327D01*
X142642328Y-66556323D01*
X142507482Y-66506029D01*
X142507483Y-66506029D01*
X142447883Y-66499622D01*
X142447881Y-66499621D01*
X142447873Y-66499621D01*
X142447864Y-66499621D01*
X140752129Y-66499621D01*
X140752123Y-66499622D01*
X140692516Y-66506029D01*
X140557671Y-66556323D01*
X140557664Y-66556327D01*
X140442455Y-66642573D01*
X140442452Y-66642576D01*
X140356206Y-66757785D01*
X140356202Y-66757792D01*
X140305908Y-66892638D01*
X140299501Y-66952237D01*
X140299501Y-66952244D01*
X140299500Y-66952256D01*
X140299500Y-69047991D01*
X140299501Y-69047997D01*
X140305908Y-69107604D01*
X140356202Y-69242449D01*
X140356206Y-69242456D01*
X140442452Y-69357665D01*
X140442455Y-69357668D01*
X140557664Y-69443914D01*
X140557671Y-69443918D01*
X140580866Y-69452569D01*
X140692517Y-69494212D01*
X140752127Y-69500621D01*
X140775497Y-69500620D01*
X140842536Y-69520302D01*
X140888292Y-69573104D01*
X140899500Y-69624620D01*
X140899500Y-70958481D01*
X140879815Y-71025520D01*
X140863181Y-71046162D01*
X140508662Y-71400681D01*
X140447339Y-71434166D01*
X140420981Y-71437000D01*
X138163099Y-71437000D01*
X138096060Y-71417315D01*
X138050305Y-71364511D01*
X138039741Y-71300397D01*
X138049999Y-71199986D01*
X138050000Y-71199973D01*
X138050000Y-70950000D01*
X137161500Y-70950000D01*
X137094461Y-70930315D01*
X137048706Y-70877511D01*
X137037500Y-70826000D01*
X137037500Y-70700000D01*
X136911500Y-70700000D01*
X136844461Y-70680315D01*
X136798706Y-70627511D01*
X136787500Y-70576000D01*
X136787500Y-70010197D01*
X136777834Y-69992496D01*
X136775000Y-69966138D01*
X136775000Y-69389802D01*
X137275000Y-69389802D01*
X137284666Y-69407504D01*
X137287500Y-69433862D01*
X137287500Y-70450000D01*
X138049999Y-70450000D01*
X138049999Y-70200028D01*
X138049998Y-70200013D01*
X138039505Y-70097302D01*
X137984358Y-69930880D01*
X137984356Y-69930875D01*
X137892315Y-69781654D01*
X137891254Y-69780593D01*
X137890757Y-69779684D01*
X137887839Y-69775993D01*
X137888469Y-69775494D01*
X137857769Y-69719270D01*
X137862753Y-69649578D01*
X137876665Y-69624886D01*
X137876025Y-69624491D01*
X137971856Y-69469124D01*
X137971858Y-69469119D01*
X138027005Y-69302697D01*
X138027006Y-69302690D01*
X138037499Y-69199986D01*
X138037500Y-69199973D01*
X138037500Y-68950000D01*
X137275000Y-68950000D01*
X137275000Y-69389802D01*
X136775000Y-69389802D01*
X136775000Y-68450000D01*
X137275000Y-68450000D01*
X138037499Y-68450000D01*
X138037499Y-68200028D01*
X138037498Y-68200013D01*
X138027005Y-68097302D01*
X137971858Y-67930880D01*
X137971856Y-67930875D01*
X137879815Y-67781654D01*
X137755845Y-67657684D01*
X137606624Y-67565643D01*
X137606619Y-67565641D01*
X137440197Y-67510494D01*
X137440190Y-67510493D01*
X137337486Y-67500000D01*
X137275000Y-67500000D01*
X137275000Y-68450000D01*
X136775000Y-68450000D01*
X136775000Y-67500000D01*
X136774999Y-67499999D01*
X136712528Y-67500000D01*
X136712511Y-67500001D01*
X136609802Y-67510494D01*
X136443380Y-67565641D01*
X136443375Y-67565643D01*
X136294157Y-67657682D01*
X136200534Y-67751305D01*
X136139210Y-67784789D01*
X136069519Y-67779805D01*
X136025172Y-67751304D01*
X135931157Y-67657289D01*
X135931156Y-67657288D01*
X135818982Y-67588099D01*
X135781836Y-67565187D01*
X135781831Y-67565185D01*
X135764844Y-67559556D01*
X135615297Y-67510001D01*
X135615295Y-67510000D01*
X135512510Y-67499500D01*
X134887498Y-67499500D01*
X134887480Y-67499501D01*
X134784703Y-67510000D01*
X134784700Y-67510001D01*
X134618168Y-67565185D01*
X134618163Y-67565187D01*
X134468842Y-67657289D01*
X134344789Y-67781342D01*
X134266927Y-67907577D01*
X134214979Y-67954302D01*
X134146016Y-67965523D01*
X134099389Y-67949868D01*
X134021646Y-67904984D01*
X134007769Y-67896972D01*
X133961785Y-67870423D01*
X133809057Y-67829499D01*
X133650943Y-67829499D01*
X133643347Y-67829499D01*
X133643331Y-67829500D01*
X133165784Y-67829500D01*
X133098745Y-67809815D01*
X133078103Y-67793181D01*
X132937785Y-67652863D01*
X132937781Y-67652860D01*
X132773920Y-67543371D01*
X132773907Y-67543364D01*
X132591839Y-67467950D01*
X132591829Y-67467947D01*
X132398543Y-67429500D01*
X132398541Y-67429500D01*
X132201459Y-67429500D01*
X132201457Y-67429500D01*
X132008170Y-67467947D01*
X132008160Y-67467950D01*
X131826092Y-67543364D01*
X131826079Y-67543371D01*
X131662218Y-67652860D01*
X131662214Y-67652863D01*
X131521897Y-67793181D01*
X131460574Y-67826666D01*
X131434216Y-67829500D01*
X129430097Y-67829500D01*
X129363058Y-67809815D01*
X129342416Y-67793181D01*
X128661415Y-67112180D01*
X128627930Y-67050857D01*
X128632914Y-66981165D01*
X128674786Y-66925232D01*
X128740250Y-66900815D01*
X128749096Y-66900499D01*
X129000002Y-66900499D01*
X129000008Y-66900499D01*
X129102797Y-66889999D01*
X129269334Y-66834814D01*
X129418656Y-66742712D01*
X129512319Y-66649049D01*
X129573642Y-66615564D01*
X129643334Y-66620548D01*
X129687681Y-66649049D01*
X129781344Y-66742712D01*
X129930666Y-66834814D01*
X130097203Y-66889999D01*
X130199991Y-66900500D01*
X130825008Y-66900499D01*
X130825016Y-66900498D01*
X130825019Y-66900498D01*
X130881302Y-66894748D01*
X130927797Y-66889999D01*
X131094334Y-66834814D01*
X131243656Y-66742712D01*
X131367712Y-66618656D01*
X131459814Y-66469334D01*
X131487595Y-66385495D01*
X131527368Y-66328051D01*
X131591884Y-66301228D01*
X131605301Y-66300500D01*
X136868996Y-66300500D01*
X136972053Y-66280000D01*
X137004328Y-66273580D01*
X137068069Y-66247177D01*
X137131807Y-66220777D01*
X137131808Y-66220776D01*
X137131811Y-66220775D01*
X137246543Y-66144114D01*
X138153838Y-65236819D01*
X138215161Y-65203334D01*
X138241519Y-65200500D01*
X146258481Y-65200500D01*
X146325520Y-65220185D01*
G37*
%TD.AperFunction*%
%TA.AperFunction,Conductor*%
G36*
X124793039Y-73332185D02*
G01*
X124838794Y-73384989D01*
X124850000Y-73436500D01*
X124850000Y-74324999D01*
X125099972Y-74324999D01*
X125099986Y-74324998D01*
X125202697Y-74314505D01*
X125369119Y-74259358D01*
X125369124Y-74259356D01*
X125518345Y-74167315D01*
X125642315Y-74043345D01*
X125734356Y-73894124D01*
X125734359Y-73894117D01*
X125760665Y-73814730D01*
X125800437Y-73757285D01*
X125864952Y-73730461D01*
X125933728Y-73742775D01*
X125966052Y-73766052D01*
X125987500Y-73787500D01*
X127088500Y-73787500D01*
X127155539Y-73807185D01*
X127201294Y-73859989D01*
X127212500Y-73911500D01*
X127212500Y-74163500D01*
X127192815Y-74230539D01*
X127140011Y-74276294D01*
X127088500Y-74287500D01*
X125987501Y-74287500D01*
X125987501Y-74337486D01*
X125997994Y-74440201D01*
X125999411Y-74446819D01*
X125997136Y-74447305D01*
X125999173Y-74506310D01*
X125963449Y-74566356D01*
X125900932Y-74597556D01*
X125879062Y-74599500D01*
X124700097Y-74599500D01*
X124633058Y-74579815D01*
X124612416Y-74563181D01*
X124386319Y-74337084D01*
X124352834Y-74275761D01*
X124350000Y-74249403D01*
X124350000Y-73436500D01*
X124369685Y-73369461D01*
X124422489Y-73323706D01*
X124474000Y-73312500D01*
X124726000Y-73312500D01*
X124793039Y-73332185D01*
G37*
%TD.AperFunction*%
%TA.AperFunction,Conductor*%
G36*
X101442539Y-65420185D02*
G01*
X101488294Y-65472989D01*
X101499500Y-65524500D01*
X101499500Y-66037501D01*
X101499501Y-66037519D01*
X101510000Y-66140296D01*
X101510001Y-66140299D01*
X101565185Y-66306831D01*
X101565187Y-66306836D01*
X101572338Y-66318430D01*
X101657288Y-66456156D01*
X101781344Y-66580212D01*
X101930666Y-66672314D01*
X102014505Y-66700095D01*
X102071948Y-66739866D01*
X102098772Y-66804382D01*
X102099500Y-66817800D01*
X102099500Y-67399902D01*
X102079815Y-67466941D01*
X102063181Y-67487583D01*
X100177181Y-69373583D01*
X100115858Y-69407068D01*
X100046166Y-69402084D01*
X99990233Y-69360212D01*
X99965816Y-69294748D01*
X99965500Y-69285902D01*
X99965500Y-68984313D01*
X99965499Y-68984298D01*
X99962598Y-68947432D01*
X99962597Y-68947429D01*
X99958108Y-68931978D01*
X99929555Y-68833697D01*
X99929555Y-68764507D01*
X99962100Y-68652490D01*
X99962295Y-68650001D01*
X99962295Y-68650000D01*
X99886308Y-68650000D01*
X99819269Y-68630315D01*
X99798631Y-68613685D01*
X99716865Y-68531919D01*
X99694739Y-68518834D01*
X99594010Y-68459263D01*
X99575398Y-68448256D01*
X99575397Y-68448255D01*
X99575396Y-68448255D01*
X99575393Y-68448254D01*
X99417573Y-68402402D01*
X99417567Y-68402401D01*
X99380701Y-68399500D01*
X99380694Y-68399500D01*
X99014000Y-68399500D01*
X98946961Y-68379815D01*
X98901206Y-68327011D01*
X98890000Y-68275500D01*
X98890000Y-68274000D01*
X98909685Y-68206961D01*
X98962489Y-68161206D01*
X99014000Y-68150000D01*
X99962295Y-68150000D01*
X99962295Y-68149998D01*
X99962100Y-68147513D01*
X99916281Y-67989801D01*
X99832685Y-67848447D01*
X99832678Y-67848438D01*
X99805888Y-67821648D01*
X99772403Y-67760325D01*
X99777387Y-67690633D01*
X99779008Y-67686514D01*
X99826570Y-67571689D01*
X99834862Y-67530000D01*
X99031988Y-67530000D01*
X99049205Y-67520060D01*
X99105060Y-67464205D01*
X99144556Y-67395796D01*
X99165000Y-67319496D01*
X99165000Y-67240504D01*
X99144556Y-67164204D01*
X99105060Y-67095795D01*
X99049205Y-67039940D01*
X99031988Y-67030000D01*
X99834862Y-67030000D01*
X99826569Y-66988309D01*
X99826569Y-66988307D01*
X99751192Y-66806328D01*
X99751185Y-66806315D01*
X99641751Y-66642537D01*
X99641748Y-66642533D01*
X99502466Y-66503251D01*
X99502462Y-66503248D01*
X99338684Y-66393814D01*
X99338671Y-66393807D01*
X99156693Y-66318430D01*
X99156681Y-66318427D01*
X98963495Y-66280000D01*
X98565000Y-66280000D01*
X98565000Y-66980000D01*
X98065000Y-66980000D01*
X98065000Y-66280000D01*
X97666504Y-66280000D01*
X97473318Y-66318427D01*
X97473306Y-66318430D01*
X97291328Y-66393807D01*
X97291315Y-66393814D01*
X97127537Y-66503248D01*
X97127533Y-66503251D01*
X96988251Y-66642533D01*
X96988248Y-66642537D01*
X96878814Y-66806315D01*
X96878807Y-66806328D01*
X96803430Y-66988307D01*
X96803430Y-66988309D01*
X96795138Y-67030000D01*
X97598012Y-67030000D01*
X97580795Y-67039940D01*
X97524940Y-67095795D01*
X97485444Y-67164204D01*
X97465000Y-67240504D01*
X97465000Y-67319496D01*
X97485444Y-67395796D01*
X97524940Y-67464205D01*
X97580795Y-67520060D01*
X97598012Y-67530000D01*
X96795138Y-67530000D01*
X96803430Y-67571690D01*
X96803430Y-67571692D01*
X96878807Y-67753671D01*
X96878814Y-67753684D01*
X96988248Y-67917462D01*
X96988251Y-67917466D01*
X97127533Y-68056748D01*
X97127537Y-68056751D01*
X97291315Y-68166185D01*
X97291328Y-68166192D01*
X97300838Y-68170131D01*
X97355243Y-68213970D01*
X97377310Y-68280264D01*
X97360033Y-68347963D01*
X97356350Y-68353405D01*
X97278719Y-68487863D01*
X97239500Y-68634234D01*
X97239500Y-68775500D01*
X97219815Y-68842539D01*
X97167011Y-68888294D01*
X97115500Y-68899500D01*
X97089766Y-68899500D01*
X97022727Y-68879815D01*
X97020875Y-68878602D01*
X96955500Y-68834919D01*
X96955487Y-68834912D01*
X96818916Y-68778343D01*
X96818904Y-68778340D01*
X96673921Y-68749501D01*
X96673917Y-68749501D01*
X96526082Y-68749501D01*
X96526077Y-68749501D01*
X96381094Y-68778340D01*
X96381082Y-68778343D01*
X96244511Y-68834912D01*
X96244498Y-68834919D01*
X96121584Y-68917048D01*
X96121580Y-68917051D01*
X95317052Y-69721578D01*
X95317049Y-69721581D01*
X95277668Y-69780519D01*
X95277669Y-69780520D01*
X95234993Y-69844390D01*
X95181381Y-69889196D01*
X95131890Y-69899500D01*
X93800097Y-69899500D01*
X93733058Y-69879815D01*
X93712416Y-69863181D01*
X92936819Y-69087584D01*
X92903334Y-69026261D01*
X92900500Y-68999903D01*
X92900500Y-68157083D01*
X92920185Y-68090044D01*
X92972989Y-68044289D01*
X93042147Y-68034345D01*
X93093391Y-68053981D01*
X93261315Y-68166185D01*
X93261328Y-68166192D01*
X93443306Y-68241569D01*
X93443318Y-68241572D01*
X93636504Y-68279999D01*
X93636508Y-68280000D01*
X93885000Y-68280000D01*
X93885000Y-67580000D01*
X94385000Y-67580000D01*
X94385000Y-68280000D01*
X94633492Y-68280000D01*
X94633495Y-68279999D01*
X94826681Y-68241572D01*
X94826693Y-68241569D01*
X95008671Y-68166192D01*
X95008684Y-68166185D01*
X95172462Y-68056751D01*
X95172466Y-68056748D01*
X95311748Y-67917466D01*
X95311751Y-67917462D01*
X95421185Y-67753684D01*
X95421192Y-67753671D01*
X95496569Y-67571692D01*
X95496569Y-67571690D01*
X95504862Y-67530000D01*
X94701988Y-67530000D01*
X94719205Y-67520060D01*
X94775060Y-67464205D01*
X94814556Y-67395796D01*
X94835000Y-67319496D01*
X94835000Y-67240504D01*
X94814556Y-67164204D01*
X94775060Y-67095795D01*
X94719205Y-67039940D01*
X94701988Y-67030000D01*
X95504862Y-67030000D01*
X95496569Y-66988309D01*
X95496569Y-66988307D01*
X95421192Y-66806328D01*
X95421185Y-66806315D01*
X95311751Y-66642537D01*
X95311748Y-66642533D01*
X95172466Y-66503251D01*
X95172462Y-66503248D01*
X95008684Y-66393814D01*
X95008671Y-66393807D01*
X94826693Y-66318430D01*
X94826681Y-66318427D01*
X94633495Y-66280000D01*
X94385000Y-66280000D01*
X94385000Y-66980000D01*
X93885000Y-66980000D01*
X93885000Y-66280000D01*
X93636504Y-66280000D01*
X93443318Y-66318427D01*
X93443306Y-66318430D01*
X93261328Y-66393807D01*
X93261315Y-66393814D01*
X93093391Y-66506018D01*
X93026713Y-66526896D01*
X92959333Y-66508411D01*
X92912643Y-66456432D01*
X92900500Y-66402916D01*
X92900500Y-66300097D01*
X92920185Y-66233058D01*
X92936819Y-66212416D01*
X93712416Y-65436819D01*
X93773739Y-65403334D01*
X93800097Y-65400500D01*
X101375500Y-65400500D01*
X101442539Y-65420185D01*
G37*
%TD.AperFunction*%
%TA.AperFunction,Conductor*%
G36*
X119814258Y-63286711D02*
G01*
X119831636Y-63286377D01*
X119841102Y-63292205D01*
X119858081Y-63295681D01*
X119875515Y-63306885D01*
X119876529Y-63307662D01*
X119884950Y-63319206D01*
X119891131Y-63323012D01*
X119897685Y-63336661D01*
X119917707Y-63364106D01*
X119925000Y-63406005D01*
X119925000Y-63434124D01*
X120009343Y-63423021D01*
X120017195Y-63420918D01*
X120018165Y-63424541D01*
X120070116Y-63418419D01*
X120082518Y-63421994D01*
X120082677Y-63421405D01*
X120090526Y-63423508D01*
X120090528Y-63423509D01*
X120200599Y-63438000D01*
X120399400Y-63437999D01*
X120399401Y-63437999D01*
X120416087Y-63435802D01*
X120509472Y-63423509D01*
X120509475Y-63423507D01*
X120517326Y-63421405D01*
X120518210Y-63424707D01*
X120571925Y-63418892D01*
X120582514Y-63422001D01*
X120582674Y-63421405D01*
X120590524Y-63423508D01*
X120590526Y-63423508D01*
X120590528Y-63423509D01*
X120700599Y-63438000D01*
X120899400Y-63437999D01*
X120899401Y-63437999D01*
X120916087Y-63435802D01*
X121009472Y-63423509D01*
X121009475Y-63423507D01*
X121017326Y-63421405D01*
X121018210Y-63424707D01*
X121071925Y-63418892D01*
X121082514Y-63422001D01*
X121082674Y-63421405D01*
X121090524Y-63423508D01*
X121090526Y-63423508D01*
X121090528Y-63423509D01*
X121200599Y-63438000D01*
X121399400Y-63437999D01*
X121399401Y-63437999D01*
X121416087Y-63435802D01*
X121509472Y-63423509D01*
X121509475Y-63423507D01*
X121517326Y-63421405D01*
X121518210Y-63424707D01*
X121571925Y-63418892D01*
X121582514Y-63422001D01*
X121582674Y-63421405D01*
X121590524Y-63423508D01*
X121590526Y-63423508D01*
X121590528Y-63423509D01*
X121700599Y-63438000D01*
X121899400Y-63437999D01*
X121899401Y-63437999D01*
X121916087Y-63435802D01*
X122009472Y-63423509D01*
X122009475Y-63423507D01*
X122017326Y-63421405D01*
X122018210Y-63424707D01*
X122071925Y-63418892D01*
X122082514Y-63422001D01*
X122082674Y-63421405D01*
X122090524Y-63423508D01*
X122090526Y-63423508D01*
X122090528Y-63423509D01*
X122200599Y-63438000D01*
X122399400Y-63437999D01*
X122399401Y-63437999D01*
X122416087Y-63435802D01*
X122509472Y-63423509D01*
X122509475Y-63423507D01*
X122517326Y-63421405D01*
X122518210Y-63424707D01*
X122571925Y-63418892D01*
X122582514Y-63422001D01*
X122582674Y-63421405D01*
X122590524Y-63423508D01*
X122590526Y-63423508D01*
X122590528Y-63423509D01*
X122700599Y-63438000D01*
X122899400Y-63437999D01*
X122899401Y-63437999D01*
X122916087Y-63435802D01*
X123009472Y-63423509D01*
X123009475Y-63423507D01*
X123017326Y-63421405D01*
X123018210Y-63424707D01*
X123071925Y-63418892D01*
X123082514Y-63422001D01*
X123082674Y-63421405D01*
X123090524Y-63423508D01*
X123090526Y-63423508D01*
X123090528Y-63423509D01*
X123200599Y-63438000D01*
X123399400Y-63437999D01*
X123399401Y-63437999D01*
X123416087Y-63435802D01*
X123509472Y-63423509D01*
X123509475Y-63423507D01*
X123517326Y-63421405D01*
X123518210Y-63424707D01*
X123571925Y-63418892D01*
X123582514Y-63422001D01*
X123582674Y-63421405D01*
X123590524Y-63423508D01*
X123590526Y-63423508D01*
X123590528Y-63423509D01*
X123700599Y-63438000D01*
X123899400Y-63437999D01*
X123899401Y-63437999D01*
X123916087Y-63435802D01*
X124009472Y-63423509D01*
X124009475Y-63423507D01*
X124017326Y-63421405D01*
X124018210Y-63424707D01*
X124071925Y-63418892D01*
X124082514Y-63422001D01*
X124082674Y-63421405D01*
X124090524Y-63423508D01*
X124090526Y-63423508D01*
X124090528Y-63423509D01*
X124200599Y-63438000D01*
X124399400Y-63437999D01*
X124412039Y-63436335D01*
X124481073Y-63447100D01*
X124533329Y-63493480D01*
X124552215Y-63560749D01*
X124551164Y-63575452D01*
X124549500Y-63588096D01*
X124549500Y-63786903D01*
X124563989Y-63896968D01*
X124566094Y-63904822D01*
X124562814Y-63905700D01*
X124568581Y-63959573D01*
X124565517Y-63970022D01*
X124566095Y-63970177D01*
X124563990Y-63978029D01*
X124549500Y-64088098D01*
X124549500Y-64286903D01*
X124563989Y-64396968D01*
X124566094Y-64404822D01*
X124562814Y-64405700D01*
X124568581Y-64459573D01*
X124565517Y-64470022D01*
X124566095Y-64470177D01*
X124563990Y-64478029D01*
X124549500Y-64588098D01*
X124549500Y-64786903D01*
X124563989Y-64896968D01*
X124566094Y-64904822D01*
X124563010Y-64905648D01*
X124568849Y-64960237D01*
X124566014Y-64970153D01*
X124566582Y-64970306D01*
X124564478Y-64978158D01*
X124553373Y-65062500D01*
X124581494Y-65062500D01*
X124648533Y-65082185D01*
X124679885Y-65111034D01*
X124680652Y-65112034D01*
X124705833Y-65177208D01*
X124691781Y-65245650D01*
X124680652Y-65262966D01*
X124679885Y-65263966D01*
X124623466Y-65305181D01*
X124581494Y-65312500D01*
X124553374Y-65312500D01*
X124564478Y-65396846D01*
X124566582Y-65404697D01*
X124563313Y-65405572D01*
X124568648Y-65460012D01*
X124565650Y-65470054D01*
X124566095Y-65470173D01*
X124563991Y-65478024D01*
X124549500Y-65588098D01*
X124549500Y-65786903D01*
X124563989Y-65896968D01*
X124566094Y-65904822D01*
X124562814Y-65905700D01*
X124568581Y-65959573D01*
X124565517Y-65970022D01*
X124566095Y-65970177D01*
X124563990Y-65978029D01*
X124549500Y-66088098D01*
X124549500Y-66286903D01*
X124563989Y-66396968D01*
X124566094Y-66404822D01*
X124562814Y-66405700D01*
X124568581Y-66459573D01*
X124565517Y-66470022D01*
X124566095Y-66470177D01*
X124563990Y-66478029D01*
X124549500Y-66588098D01*
X124549500Y-66786903D01*
X124563989Y-66896968D01*
X124566094Y-66904822D01*
X124562814Y-66905700D01*
X124568581Y-66959573D01*
X124565517Y-66970022D01*
X124566095Y-66970177D01*
X124563990Y-66978029D01*
X124549500Y-67088098D01*
X124549500Y-67286903D01*
X124563989Y-67396968D01*
X124566094Y-67404822D01*
X124562814Y-67405700D01*
X124568581Y-67459573D01*
X124565517Y-67470022D01*
X124566095Y-67470177D01*
X124563990Y-67478029D01*
X124549500Y-67588098D01*
X124549500Y-67786903D01*
X124563989Y-67896968D01*
X124566094Y-67904822D01*
X124562814Y-67905700D01*
X124568581Y-67959573D01*
X124565517Y-67970022D01*
X124566095Y-67970177D01*
X124563990Y-67978029D01*
X124549500Y-68088098D01*
X124549500Y-68286896D01*
X124551233Y-68300055D01*
X124540465Y-68369090D01*
X124523554Y-68395618D01*
X124396261Y-68548375D01*
X124390252Y-68552402D01*
X124376466Y-68567385D01*
X124375466Y-68568152D01*
X124354898Y-68576098D01*
X124338222Y-68587276D01*
X124325325Y-68587524D01*
X124310292Y-68593333D01*
X124285717Y-68588287D01*
X124268365Y-68588622D01*
X124258869Y-68582775D01*
X124241850Y-68579281D01*
X124224534Y-68568152D01*
X124223534Y-68567385D01*
X124215079Y-68555811D01*
X124208870Y-68551988D01*
X124202316Y-68538340D01*
X124182319Y-68510966D01*
X124175000Y-68468994D01*
X124175000Y-68440873D01*
X124090658Y-68451978D01*
X124082806Y-68454082D01*
X124081917Y-68450764D01*
X124027804Y-68456209D01*
X124017444Y-68453130D01*
X124017320Y-68453594D01*
X124009472Y-68451491D01*
X123899401Y-68437000D01*
X123700596Y-68437000D01*
X123590531Y-68451489D01*
X123582678Y-68453594D01*
X123581802Y-68450324D01*
X123527853Y-68456067D01*
X123517477Y-68453018D01*
X123517323Y-68453595D01*
X123509470Y-68451490D01*
X123399401Y-68437000D01*
X123200596Y-68437000D01*
X123090531Y-68451489D01*
X123082678Y-68453594D01*
X123081802Y-68450324D01*
X123027853Y-68456067D01*
X123017477Y-68453018D01*
X123017323Y-68453595D01*
X123009470Y-68451490D01*
X122899401Y-68437000D01*
X122700596Y-68437000D01*
X122590531Y-68451489D01*
X122582678Y-68453594D01*
X122581802Y-68450324D01*
X122527853Y-68456067D01*
X122517477Y-68453018D01*
X122517323Y-68453595D01*
X122509470Y-68451490D01*
X122399401Y-68437000D01*
X122200596Y-68437000D01*
X122090531Y-68451489D01*
X122082678Y-68453594D01*
X122081802Y-68450324D01*
X122027853Y-68456067D01*
X122017477Y-68453018D01*
X122017323Y-68453595D01*
X122009470Y-68451490D01*
X121899401Y-68437000D01*
X121700596Y-68437000D01*
X121590531Y-68451489D01*
X121582678Y-68453594D01*
X121581802Y-68450324D01*
X121527853Y-68456067D01*
X121517477Y-68453018D01*
X121517323Y-68453595D01*
X121509470Y-68451490D01*
X121399401Y-68437000D01*
X121200596Y-68437000D01*
X121090531Y-68451489D01*
X121082678Y-68453594D01*
X121081802Y-68450324D01*
X121027853Y-68456067D01*
X121017477Y-68453018D01*
X121017323Y-68453595D01*
X121009470Y-68451490D01*
X120899401Y-68437000D01*
X120700596Y-68437000D01*
X120590531Y-68451489D01*
X120582678Y-68453594D01*
X120581802Y-68450324D01*
X120527853Y-68456067D01*
X120517477Y-68453018D01*
X120517323Y-68453595D01*
X120509470Y-68451490D01*
X120399401Y-68437000D01*
X120200596Y-68437000D01*
X120090531Y-68451489D01*
X120082678Y-68453594D01*
X120081802Y-68450324D01*
X120027853Y-68456067D01*
X120017477Y-68453018D01*
X120017323Y-68453595D01*
X120009470Y-68451490D01*
X119899401Y-68437000D01*
X119700603Y-68437000D01*
X119689765Y-68438427D01*
X119687443Y-68438732D01*
X119618409Y-68427965D01*
X119591880Y-68411054D01*
X119439124Y-68283761D01*
X119435095Y-68277750D01*
X119420115Y-68263966D01*
X119419348Y-68262966D01*
X119411401Y-68242397D01*
X119400224Y-68225721D01*
X119399975Y-68212825D01*
X119394167Y-68197792D01*
X119399212Y-68173217D01*
X119398878Y-68155865D01*
X119404724Y-68146369D01*
X119408219Y-68129350D01*
X119419348Y-68112034D01*
X119420115Y-68111034D01*
X119431687Y-68102579D01*
X119435512Y-68096369D01*
X119449162Y-68089814D01*
X119476534Y-68069819D01*
X119518506Y-68062500D01*
X119546626Y-68062500D01*
X119535521Y-67978159D01*
X119533418Y-67970307D01*
X119537041Y-67969335D01*
X119530919Y-67917384D01*
X119534495Y-67904984D01*
X119533905Y-67904826D01*
X119536009Y-67896972D01*
X119542397Y-67848447D01*
X119550500Y-67786901D01*
X119550499Y-67588100D01*
X119548790Y-67575121D01*
X119544610Y-67543364D01*
X119536009Y-67478028D01*
X119536008Y-67478025D01*
X119533905Y-67470174D01*
X119537207Y-67469289D01*
X119531392Y-67415575D01*
X119534501Y-67404985D01*
X119533905Y-67404826D01*
X119536008Y-67396975D01*
X119536008Y-67396974D01*
X119536009Y-67396972D01*
X119550500Y-67286901D01*
X119550499Y-67088100D01*
X119536009Y-66978028D01*
X119536008Y-66978025D01*
X119533905Y-66970174D01*
X119537207Y-66969289D01*
X119531392Y-66915575D01*
X119534501Y-66904985D01*
X119533905Y-66904826D01*
X119536008Y-66896975D01*
X119536008Y-66896974D01*
X119536009Y-66896972D01*
X119550500Y-66786901D01*
X119550499Y-66588100D01*
X119549460Y-66580210D01*
X119542442Y-66526896D01*
X119536009Y-66478028D01*
X119536008Y-66478025D01*
X119533905Y-66470174D01*
X119537207Y-66469289D01*
X119531392Y-66415575D01*
X119534501Y-66404985D01*
X119533905Y-66404826D01*
X119536008Y-66396975D01*
X119536008Y-66396974D01*
X119536009Y-66396972D01*
X119550500Y-66286901D01*
X119550499Y-66088100D01*
X119536009Y-65978028D01*
X119536008Y-65978025D01*
X119533905Y-65970174D01*
X119537207Y-65969289D01*
X119531392Y-65915575D01*
X119534501Y-65904985D01*
X119533905Y-65904826D01*
X119536008Y-65896975D01*
X119536008Y-65896974D01*
X119536009Y-65896972D01*
X119550500Y-65786901D01*
X119550499Y-65588100D01*
X119536009Y-65478028D01*
X119536008Y-65478025D01*
X119533905Y-65470174D01*
X119537207Y-65469289D01*
X119531392Y-65415575D01*
X119534501Y-65404985D01*
X119533905Y-65404826D01*
X119536008Y-65396975D01*
X119536008Y-65396974D01*
X119536009Y-65396972D01*
X119550500Y-65286901D01*
X119550499Y-65088100D01*
X119550258Y-65086272D01*
X119543368Y-65033929D01*
X119536009Y-64978028D01*
X119536008Y-64978025D01*
X119533905Y-64970174D01*
X119537207Y-64969289D01*
X119531392Y-64915575D01*
X119534501Y-64904985D01*
X119533905Y-64904826D01*
X119536008Y-64896975D01*
X119536008Y-64896974D01*
X119536009Y-64896972D01*
X119550500Y-64786901D01*
X119550499Y-64588100D01*
X119549181Y-64578091D01*
X119540103Y-64509129D01*
X119536009Y-64478028D01*
X119536008Y-64478025D01*
X119533905Y-64470174D01*
X119537207Y-64469289D01*
X119531392Y-64415575D01*
X119534501Y-64404985D01*
X119533905Y-64404826D01*
X119536008Y-64396975D01*
X119536008Y-64396974D01*
X119536009Y-64396972D01*
X119550500Y-64286901D01*
X119550499Y-64088100D01*
X119536009Y-63978028D01*
X119536008Y-63978025D01*
X119533905Y-63970174D01*
X119537207Y-63969289D01*
X119531392Y-63915575D01*
X119534501Y-63904985D01*
X119533905Y-63904826D01*
X119536008Y-63896975D01*
X119536008Y-63896974D01*
X119536009Y-63896972D01*
X119550500Y-63786901D01*
X119550499Y-63588100D01*
X119548767Y-63574945D01*
X119559532Y-63505911D01*
X119576446Y-63479378D01*
X119703740Y-63326623D01*
X119709722Y-63322613D01*
X119723469Y-63307663D01*
X119724475Y-63306891D01*
X119745078Y-63298916D01*
X119761779Y-63287723D01*
X119774635Y-63287475D01*
X119789630Y-63281671D01*
X119814258Y-63286711D01*
G37*
%TD.AperFunction*%
%TA.AperFunction,Conductor*%
G36*
X129766942Y-64420185D02*
G01*
X129787584Y-64436819D01*
X129810673Y-64459908D01*
X129844158Y-64521231D01*
X129839174Y-64590923D01*
X129797302Y-64646856D01*
X129791393Y-64649059D01*
X129787011Y-64652807D01*
X129781343Y-64657288D01*
X129687681Y-64750951D01*
X129626358Y-64784436D01*
X129556666Y-64779452D01*
X129512319Y-64750951D01*
X129418655Y-64657287D01*
X129374478Y-64630039D01*
X129327753Y-64578091D01*
X129316530Y-64509129D01*
X129344373Y-64445047D01*
X129402442Y-64406190D01*
X129439574Y-64400500D01*
X129699903Y-64400500D01*
X129766942Y-64420185D01*
G37*
%TD.AperFunction*%
%TA.AperFunction,Conductor*%
G36*
X119379156Y-61010236D02*
G01*
X119405243Y-61040341D01*
X119407288Y-61043656D01*
X119531344Y-61167712D01*
X119590596Y-61204258D01*
X119637321Y-61256204D01*
X119649500Y-61309797D01*
X119649500Y-61453531D01*
X119629815Y-61520570D01*
X119577011Y-61566325D01*
X119509315Y-61576470D01*
X119399402Y-61562000D01*
X119202384Y-61562000D01*
X119171078Y-61557983D01*
X119154878Y-61553756D01*
X119144366Y-61547687D01*
X119131785Y-61540423D01*
X118979057Y-61499499D01*
X118946936Y-61499499D01*
X118931541Y-61495482D01*
X118914678Y-61485354D01*
X118895808Y-61479814D01*
X118885344Y-61467738D01*
X118871643Y-61459510D01*
X118862932Y-61441873D01*
X118850053Y-61427010D01*
X118847778Y-61411191D01*
X118840702Y-61396864D01*
X118842908Y-61377321D01*
X118840109Y-61357852D01*
X118846748Y-61343314D01*
X118848541Y-61327436D01*
X118860962Y-61312188D01*
X118869134Y-61294296D01*
X118883166Y-61284934D01*
X118892671Y-61273267D01*
X118908323Y-61268149D01*
X118913611Y-61264621D01*
X118912579Y-61262408D01*
X118919124Y-61259356D01*
X119068345Y-61167315D01*
X119192318Y-61043342D01*
X119194165Y-61040348D01*
X119195969Y-61038724D01*
X119196798Y-61037677D01*
X119196976Y-61037818D01*
X119246110Y-60993621D01*
X119315073Y-60982396D01*
X119379156Y-61010236D01*
G37*
%TD.AperFunction*%
%TA.AperFunction,Conductor*%
G36*
X154215270Y-53361717D02*
G01*
X154215270Y-53361716D01*
X154254622Y-53307555D01*
X154259232Y-53298507D01*
X154307205Y-53247709D01*
X154375025Y-53230912D01*
X154441161Y-53253447D01*
X154480204Y-53298504D01*
X154484949Y-53307817D01*
X154609890Y-53479786D01*
X154760213Y-53630109D01*
X154932184Y-53755051D01*
X154932184Y-53755052D01*
X154971793Y-53775233D01*
X155022590Y-53823206D01*
X155039500Y-53885718D01*
X155039500Y-59459903D01*
X155019815Y-59526942D01*
X155003181Y-59547584D01*
X154387584Y-60163181D01*
X154326261Y-60196666D01*
X154299903Y-60199500D01*
X150749098Y-60199500D01*
X150682059Y-60179815D01*
X150636304Y-60127011D01*
X150626360Y-60057853D01*
X150655385Y-59994297D01*
X150661417Y-59987819D01*
X150849736Y-59799500D01*
X151040520Y-59608716D01*
X151119577Y-59471784D01*
X151160501Y-59319057D01*
X151160501Y-59160942D01*
X151160501Y-59153347D01*
X151160500Y-59153329D01*
X151160500Y-53885718D01*
X151180185Y-53818679D01*
X151228207Y-53775233D01*
X151267815Y-53755052D01*
X151267815Y-53755051D01*
X151267816Y-53755051D01*
X151386125Y-53669095D01*
X151439786Y-53630109D01*
X151439788Y-53630106D01*
X151439792Y-53630104D01*
X151590104Y-53479792D01*
X151590106Y-53479788D01*
X151590109Y-53479786D01*
X151664635Y-53377208D01*
X151715051Y-53307816D01*
X151719793Y-53298508D01*
X151767763Y-53247711D01*
X151835583Y-53230911D01*
X151901719Y-53253445D01*
X151940763Y-53298500D01*
X151945373Y-53307547D01*
X151984728Y-53361716D01*
X152617037Y-52729408D01*
X152634075Y-52792993D01*
X152699901Y-52907007D01*
X152792993Y-53000099D01*
X152907007Y-53065925D01*
X152970590Y-53082962D01*
X152338282Y-53715269D01*
X152338282Y-53715270D01*
X152392449Y-53754624D01*
X152581782Y-53851095D01*
X152783870Y-53916757D01*
X152993754Y-53950000D01*
X153206246Y-53950000D01*
X153416127Y-53916757D01*
X153416130Y-53916757D01*
X153618217Y-53851095D01*
X153807554Y-53754622D01*
X153861716Y-53715270D01*
X153861717Y-53715270D01*
X153229408Y-53082962D01*
X153292993Y-53065925D01*
X153407007Y-53000099D01*
X153500099Y-52907007D01*
X153565925Y-52792993D01*
X153582962Y-52729408D01*
X154215270Y-53361717D01*
G37*
%TD.AperFunction*%
%TD*%
M02*
