%TF.GenerationSoftware,KiCad,Pcbnew,10.0.0*%
%TF.CreationDate,2026-04-22T16:36:54+05:30*%
%TF.ProjectId,F411-TableClock,46343131-2d54-4616-926c-65436c6f636b,rev?*%
%TF.SameCoordinates,Original*%
%TF.FileFunction,Copper,L2,Bot*%
%TF.FilePolarity,Positive*%
%FSLAX46Y46*%
G04 Gerber Fmt 4.6, Leading zero omitted, Abs format (unit mm)*
G04 Created by KiCad (PCBNEW 10.0.0) date 2026-04-22 16:36:54*
%MOMM*%
%LPD*%
G01*
G04 APERTURE LIST*
G04 Aperture macros list*
%AMRoundRect*
0 Rectangle with rounded corners*
0 $1 Rounding radius*
0 $2 $3 $4 $5 $6 $7 $8 $9 X,Y pos of 4 corners*
0 Add a 4 corners polygon primitive as box body*
4,1,4,$2,$3,$4,$5,$6,$7,$8,$9,$2,$3,0*
0 Add four circle primitives for the rounded corners*
1,1,$1+$1,$2,$3*
1,1,$1+$1,$4,$5*
1,1,$1+$1,$6,$7*
1,1,$1+$1,$8,$9*
0 Add four rect primitives between the rounded corners*
20,1,$1+$1,$2,$3,$4,$5,0*
20,1,$1+$1,$4,$5,$6,$7,0*
20,1,$1+$1,$6,$7,$8,$9,0*
20,1,$1+$1,$8,$9,$2,$3,0*%
G04 Aperture macros list end*
%TA.AperFunction,ComponentPad*%
%ADD10O,2.100000X1.000000*%
%TD*%
%TA.AperFunction,ComponentPad*%
%ADD11O,1.800000X1.000000*%
%TD*%
%TA.AperFunction,ComponentPad*%
%ADD12R,1.700000X1.700000*%
%TD*%
%TA.AperFunction,ComponentPad*%
%ADD13C,1.700000*%
%TD*%
%TA.AperFunction,ComponentPad*%
%ADD14RoundRect,0.250000X0.500000X0.500000X-0.500000X0.500000X-0.500000X-0.500000X0.500000X-0.500000X0*%
%TD*%
%TA.AperFunction,ComponentPad*%
%ADD15C,1.500000*%
%TD*%
%TA.AperFunction,ComponentPad*%
%ADD16C,1.000000*%
%TD*%
%TA.AperFunction,ComponentPad*%
%ADD17RoundRect,0.249999X-1.250001X-1.250001X1.250001X-1.250001X1.250001X1.250001X-1.250001X1.250001X0*%
%TD*%
%TA.AperFunction,ComponentPad*%
%ADD18C,3.000000*%
%TD*%
%TA.AperFunction,ComponentPad*%
%ADD19R,1.600000X2.000000*%
%TD*%
%TA.AperFunction,ComponentPad*%
%ADD20O,1.600000X2.000000*%
%TD*%
%TA.AperFunction,ViaPad*%
%ADD21C,0.600000*%
%TD*%
%TA.AperFunction,ViaPad*%
%ADD22C,1.000000*%
%TD*%
%TA.AperFunction,Conductor*%
%ADD23C,0.200000*%
%TD*%
G04 APERTURE END LIST*
D10*
%TO.P,J1,SH,SHIELD_SH*%
%TO.N,GND*%
X98315000Y-67280000D03*
D11*
X94135000Y-67280000D03*
D10*
X98315000Y-75920000D03*
D11*
X94135000Y-75920000D03*
%TD*%
D12*
%TO.P,J5,1,Pin_1_1*%
%TO.N,/UP*%
X115460000Y-83700000D03*
D13*
%TO.P,J5,2,Pin_2_2*%
%TO.N,/DOWN*%
X118000000Y-83700000D03*
%TO.P,J5,3,Pin_3_3*%
%TO.N,/ENTER*%
X120540000Y-83700000D03*
%TO.P,J5,4,Pin_4_4*%
%TO.N,/BACK*%
X123080000Y-83700000D03*
%TO.P,J5,5,Pin_5_5*%
%TO.N,+BATT*%
X125620000Y-83700000D03*
%TO.P,J5,6,Pin_6_6*%
%TO.N,+5V*%
X128160000Y-83700000D03*
%TO.P,J5,7,Pin_7_7*%
%TO.N,/EXT*%
X130700000Y-83700000D03*
%TO.P,J5,8,Pin_8_8*%
%TO.N,GND*%
X133240000Y-83700000D03*
%TD*%
D14*
%TO.P,Q2,1,C_1*%
%TO.N,Net-(J2-Pin_16)*%
X121000000Y-52600000D03*
D15*
%TO.P,Q2,2,B_2*%
%TO.N,Net-(Q2-B)*%
X118460000Y-55140000D03*
%TO.P,Q2,3,E_3*%
%TO.N,GND*%
X115920000Y-52600000D03*
%TD*%
D16*
%TO.P,Y1,1,1_1*%
%TO.N,Net-(U1-PC15)*%
X132300000Y-68430000D03*
%TO.P,Y1,2,2_2*%
%TO.N,Net-(U1-PC14)*%
X132300000Y-70970000D03*
%TD*%
D17*
%TO.P,BT1,1,+_1*%
%TO.N,+BATT_1*%
X94410000Y-109500000D03*
D18*
%TO.P,BT1,2,-_2*%
%TO.N,GND_1*%
X167310000Y-109500000D03*
%TD*%
D12*
%TO.P,J4,1,Pin_1_1*%
%TO.N,+3.3V*%
X168500000Y-71520000D03*
D13*
%TO.P,J4,2,Pin_2_2*%
%TO.N,/SWDIO*%
X168500000Y-74060000D03*
%TO.P,J4,3,Pin_3_3*%
%TO.N,/SWCLK*%
X168500000Y-76600000D03*
%TO.P,J4,4,Pin_4_4*%
%TO.N,GND*%
X168500000Y-79140000D03*
%TD*%
D12*
%TO.P,J2,1,Pin_1_1*%
%TO.N,GND*%
X163260000Y-52600000D03*
D13*
%TO.P,J2,2,Pin_2_2*%
%TO.N,VBUS*%
X160720000Y-52600000D03*
%TO.P,J2,3,Pin_3_3*%
%TO.N,GND*%
X158180000Y-52600000D03*
%TO.P,J2,4,Pin_4_4*%
%TO.N,/RS*%
X155640000Y-52600000D03*
%TO.P,J2,5,Pin_5_5*%
%TO.N,GND*%
X153100000Y-52600000D03*
%TO.P,J2,6,Pin_6_6*%
%TO.N,/E*%
X150560000Y-52600000D03*
%TO.P,J2,7,Pin_7_7*%
%TO.N,unconnected-(J2-Pin_7-Pad7)*%
X148020000Y-52600000D03*
%TO.P,J2,8,Pin_8_8*%
%TO.N,unconnected-(J2-Pin_8-Pad8)*%
X145480000Y-52600000D03*
%TO.P,J2,9,Pin_9_9*%
%TO.N,unconnected-(J2-Pin_9-Pad9)*%
X142940000Y-52600000D03*
%TO.P,J2,10,Pin_10_10*%
%TO.N,unconnected-(J2-Pin_10-Pad10)*%
X140400000Y-52600000D03*
%TO.P,J2,11,Pin_11_11*%
%TO.N,/D4*%
X137860000Y-52600000D03*
%TO.P,J2,12,Pin_12_12*%
%TO.N,/D5*%
X135320000Y-52600000D03*
%TO.P,J2,13,Pin_13_13*%
%TO.N,/D6*%
X132780000Y-52600000D03*
%TO.P,J2,14,Pin_14_14*%
%TO.N,/D7*%
X130240000Y-52600000D03*
%TO.P,J2,15,Pin_15_15*%
%TO.N,+3.3V*%
X127700000Y-52600000D03*
%TO.P,J2,16,Pin_16_16*%
%TO.N,Net-(J2-Pin_16)*%
X125160000Y-52600000D03*
%TD*%
D12*
%TO.P,J6,1,Pin_1_1*%
%TO.N,/UP_1*%
X115220000Y-123200000D03*
D13*
%TO.P,J6,2,Pin_2_2*%
%TO.N,/DOWN_2*%
X117760000Y-123200000D03*
%TO.P,J6,3,Pin_3_3*%
%TO.N,/ENTER_3*%
X120300000Y-123200000D03*
%TO.P,J6,4,Pin_4_4*%
%TO.N,/BACK_4*%
X122840000Y-123200000D03*
%TO.P,J6,5,Pin_5_5*%
%TO.N,+BATT_1*%
X125380000Y-123200000D03*
%TO.P,J6,6,Pin_6_6*%
%TO.N,+5V_1*%
X127920000Y-123200000D03*
%TO.P,J6,7,Pin_7_7*%
%TO.N,unconnected-(J6-Pin_7-Pad7)*%
X130460000Y-123200000D03*
%TO.P,J6,8,Pin_8_8*%
%TO.N,GND_1*%
X133000000Y-123200000D03*
%TD*%
D19*
%TO.P,BT2,1,+_1*%
%TO.N,+BATT_2*%
X141600000Y-68000121D03*
D20*
%TO.P,BT2,2,-_2*%
%TO.N,GND*%
X162100000Y-68000121D03*
%TD*%
D21*
%TO.N,GND*%
X153200000Y-58600000D03*
X152500000Y-59300000D03*
X153200000Y-59300000D03*
X152500000Y-58600000D03*
X156400000Y-63900000D03*
X147400000Y-71900000D03*
X147700000Y-82800000D03*
X155700000Y-64600000D03*
X147700000Y-82100000D03*
X145300000Y-71900000D03*
X146000000Y-70500000D03*
X157100000Y-63200000D03*
X156400000Y-65300000D03*
X97800000Y-55000000D03*
X98500000Y-56400000D03*
X148100000Y-70500000D03*
X99900000Y-56400000D03*
X147400000Y-71200000D03*
X97800000Y-54300000D03*
X166700000Y-57900000D03*
X99200000Y-54300000D03*
X148100000Y-71200000D03*
X166000000Y-57900000D03*
X99200000Y-56400000D03*
X145300000Y-70500000D03*
X168100000Y-58600000D03*
X145600000Y-83500000D03*
X98500000Y-54300000D03*
X145300000Y-69800000D03*
X99900000Y-55000000D03*
X100600000Y-55000000D03*
X99200000Y-55000000D03*
X166700000Y-59300000D03*
X146300000Y-84200000D03*
X147000000Y-84200000D03*
X148100000Y-71900000D03*
X167400000Y-57200000D03*
X168100000Y-57900000D03*
X98500000Y-55000000D03*
X155700000Y-63900000D03*
X154300000Y-63200000D03*
X146000000Y-69800000D03*
X168800000Y-57900000D03*
X156400000Y-63200000D03*
X146300000Y-82100000D03*
X146700000Y-71900000D03*
X155700000Y-65300000D03*
X97800000Y-55700000D03*
X147400000Y-70500000D03*
X154300000Y-64600000D03*
X156400000Y-64600000D03*
X146300000Y-83500000D03*
X100600000Y-56400000D03*
X155000000Y-64600000D03*
X148100000Y-69800000D03*
X166000000Y-59300000D03*
X145600000Y-84200000D03*
X157100000Y-63900000D03*
X168100000Y-59300000D03*
X147700000Y-84200000D03*
X148400000Y-82800000D03*
X166000000Y-57200000D03*
X155000000Y-63900000D03*
X146000000Y-71900000D03*
X145300000Y-71200000D03*
X166700000Y-57200000D03*
X157100000Y-65300000D03*
X99200000Y-55700000D03*
X168800000Y-57200000D03*
X147000000Y-82100000D03*
X100600000Y-55700000D03*
X146700000Y-69800000D03*
X154300000Y-65300000D03*
X168800000Y-58600000D03*
X166000000Y-58600000D03*
X148400000Y-84200000D03*
X154300000Y-63900000D03*
X145600000Y-82800000D03*
X167400000Y-59300000D03*
X147000000Y-82800000D03*
X167400000Y-57900000D03*
X148400000Y-83500000D03*
X146300000Y-82800000D03*
X147400000Y-69800000D03*
X148400000Y-82100000D03*
X166700000Y-58600000D03*
X146000000Y-71200000D03*
X99900000Y-54300000D03*
X157100000Y-64600000D03*
X168800000Y-59300000D03*
X155700000Y-63200000D03*
X146700000Y-71200000D03*
X99900000Y-55700000D03*
X146700000Y-70500000D03*
X147700000Y-83500000D03*
X145600000Y-82100000D03*
X155000000Y-65300000D03*
X155000000Y-63200000D03*
X168100000Y-57200000D03*
X147000000Y-83500000D03*
X167400000Y-58600000D03*
X98500000Y-55700000D03*
X100600000Y-54300000D03*
X97800000Y-56400000D03*
D22*
%TO.N,VBUS*%
X110925000Y-74575000D03*
X113200000Y-65000000D03*
X158280000Y-56400000D03*
%TO.N,+3.3V*%
X116200000Y-64100000D03*
X117400000Y-76700000D03*
X120000000Y-76800000D03*
X125800000Y-76700000D03*
X131400000Y-77200000D03*
X116200000Y-70400000D03*
X122900000Y-76800000D03*
X125100000Y-55800000D03*
%TO.N,+BATT*%
X106800000Y-67700000D03*
%TO.N,/SWDIO*%
X113730000Y-72700000D03*
%TO.N,/SWCLK*%
X117900000Y-74100000D03*
%TD*%
%TO.N,/SWDIO*%
D23*
X122960000Y-74060000D02*
X168500000Y-74060000D01*
X121300000Y-72400000D02*
X122960000Y-74060000D01*
X115175000Y-72400000D02*
X121300000Y-72400000D01*
X114875000Y-72700000D02*
X115175000Y-72400000D01*
X113730000Y-72700000D02*
X114875000Y-72700000D01*
%TO.N,VBUS*%
X111800000Y-67900000D02*
X113200000Y-66500000D01*
X111800000Y-73700000D02*
X111800000Y-67900000D01*
X110925000Y-74575000D02*
X111800000Y-73700000D01*
X113200000Y-66500000D02*
X113200000Y-65000000D01*
%TO.N,/SWCLK*%
X164300000Y-76600000D02*
X168500000Y-76600000D01*
X122200000Y-75000000D02*
X162700000Y-75000000D01*
X162700000Y-75000000D02*
X164300000Y-76600000D01*
X121300000Y-74100000D02*
X122200000Y-75000000D01*
X117900000Y-74100000D02*
X121300000Y-74100000D01*
%TO.N,GND*%
X94135000Y-67280000D02*
X94135000Y-75920000D01*
%TO.N,VBUS*%
X131300000Y-56400000D02*
X158280000Y-56400000D01*
X129500000Y-54600000D02*
X131300000Y-56400000D01*
X121500000Y-54600000D02*
X129500000Y-54600000D01*
X113200000Y-62900000D02*
X121500000Y-54600000D01*
X113200000Y-65000000D02*
X113200000Y-62900000D01*
%TO.N,+3.3V*%
X128300000Y-76700000D02*
X125800000Y-76700000D01*
X116200000Y-61500000D02*
X121900000Y-55800000D01*
X116200000Y-70400000D02*
X116200000Y-64100000D01*
X121900000Y-55800000D02*
X125100000Y-55800000D01*
X119900000Y-76700000D02*
X120000000Y-76800000D01*
X131400000Y-77200000D02*
X128800000Y-77200000D01*
X125700000Y-76800000D02*
X125800000Y-76700000D01*
X122900000Y-76800000D02*
X125700000Y-76800000D01*
X128800000Y-77200000D02*
X128300000Y-76700000D01*
X117400000Y-76700000D02*
X119900000Y-76700000D01*
X120000000Y-76800000D02*
X122900000Y-76800000D01*
X116200000Y-64100000D02*
X116200000Y-61500000D01*
%TO.N,+BATT*%
X106800000Y-67700000D02*
X106800000Y-81800000D01*
X110500000Y-85500000D02*
X123820000Y-85500000D01*
X106800000Y-81800000D02*
X110500000Y-85500000D01*
X123820000Y-85500000D02*
X125620000Y-83700000D01*
%TD*%
%TA.AperFunction,Conductor*%
%TO.N,GND*%
G36*
X170962539Y-50330185D02*
G01*
X171008294Y-50382989D01*
X171019500Y-50434500D01*
X171019500Y-85685500D01*
X170999815Y-85752539D01*
X170947011Y-85798294D01*
X170895500Y-85809500D01*
X124659097Y-85809500D01*
X124592058Y-85789815D01*
X124546303Y-85737011D01*
X124536359Y-85667853D01*
X124565384Y-85604297D01*
X124571416Y-85597819D01*
X124993199Y-85176035D01*
X125135478Y-85033755D01*
X125196799Y-85000272D01*
X125261473Y-85003506D01*
X125303757Y-85017246D01*
X125513713Y-85050500D01*
X125513714Y-85050500D01*
X125726286Y-85050500D01*
X125726287Y-85050500D01*
X125936243Y-85017246D01*
X126138412Y-84951557D01*
X126327816Y-84855051D01*
X126401029Y-84801859D01*
X126499786Y-84730109D01*
X126499788Y-84730106D01*
X126499792Y-84730104D01*
X126650104Y-84579792D01*
X126650106Y-84579788D01*
X126650109Y-84579786D01*
X126775048Y-84407820D01*
X126775047Y-84407820D01*
X126775051Y-84407816D01*
X126779514Y-84399054D01*
X126827488Y-84348259D01*
X126895308Y-84331463D01*
X126961444Y-84353999D01*
X127000486Y-84399056D01*
X127004951Y-84407820D01*
X127129890Y-84579786D01*
X127280213Y-84730109D01*
X127452179Y-84855048D01*
X127452181Y-84855049D01*
X127452184Y-84855051D01*
X127641588Y-84951557D01*
X127843757Y-85017246D01*
X128053713Y-85050500D01*
X128053714Y-85050500D01*
X128266286Y-85050500D01*
X128266287Y-85050500D01*
X128476243Y-85017246D01*
X128678412Y-84951557D01*
X128867816Y-84855051D01*
X128941029Y-84801859D01*
X129039786Y-84730109D01*
X129039788Y-84730106D01*
X129039792Y-84730104D01*
X129190104Y-84579792D01*
X129190106Y-84579788D01*
X129190109Y-84579786D01*
X129315048Y-84407820D01*
X129315047Y-84407820D01*
X129315051Y-84407816D01*
X129319514Y-84399054D01*
X129367488Y-84348259D01*
X129435308Y-84331463D01*
X129501444Y-84353999D01*
X129540486Y-84399056D01*
X129544951Y-84407820D01*
X129669890Y-84579786D01*
X129820213Y-84730109D01*
X129992179Y-84855048D01*
X129992181Y-84855049D01*
X129992184Y-84855051D01*
X130181588Y-84951557D01*
X130383757Y-85017246D01*
X130593713Y-85050500D01*
X130593714Y-85050500D01*
X130806286Y-85050500D01*
X130806287Y-85050500D01*
X131016243Y-85017246D01*
X131218412Y-84951557D01*
X131407816Y-84855051D01*
X131481029Y-84801859D01*
X131579786Y-84730109D01*
X131579788Y-84730106D01*
X131579792Y-84730104D01*
X131730104Y-84579792D01*
X131730106Y-84579788D01*
X131730109Y-84579786D01*
X131815890Y-84461717D01*
X131855051Y-84407816D01*
X131859793Y-84398508D01*
X131907763Y-84347711D01*
X131975583Y-84330911D01*
X132041719Y-84353445D01*
X132080763Y-84398500D01*
X132085373Y-84407547D01*
X132124728Y-84461716D01*
X132757037Y-83829408D01*
X132774075Y-83892993D01*
X132839901Y-84007007D01*
X132932993Y-84100099D01*
X133047007Y-84165925D01*
X133110590Y-84182962D01*
X132478282Y-84815269D01*
X132478282Y-84815270D01*
X132532449Y-84854624D01*
X132721782Y-84951095D01*
X132923870Y-85016757D01*
X133133754Y-85050000D01*
X133346246Y-85050000D01*
X133556127Y-85016757D01*
X133556130Y-85016757D01*
X133758217Y-84951095D01*
X133947554Y-84854622D01*
X134001716Y-84815270D01*
X134001717Y-84815270D01*
X133369408Y-84182962D01*
X133432993Y-84165925D01*
X133547007Y-84100099D01*
X133640099Y-84007007D01*
X133705925Y-83892993D01*
X133722962Y-83829408D01*
X134355270Y-84461717D01*
X134355270Y-84461716D01*
X134394622Y-84407554D01*
X134491095Y-84218217D01*
X134556757Y-84016130D01*
X134556757Y-84016127D01*
X134590000Y-83806246D01*
X134590000Y-83593752D01*
X134575216Y-83500408D01*
X134572785Y-83485062D01*
X167046504Y-83485062D01*
X167046504Y-83714937D01*
X167058526Y-83806246D01*
X167076507Y-83942824D01*
X167106177Y-84053554D01*
X167135998Y-84164850D01*
X167223960Y-84377208D01*
X167223964Y-84377218D01*
X167338892Y-84576279D01*
X167478821Y-84758639D01*
X167478827Y-84758646D01*
X167641353Y-84921172D01*
X167641360Y-84921178D01*
X167823720Y-85061107D01*
X168022781Y-85176035D01*
X168022782Y-85176035D01*
X168022785Y-85176037D01*
X168235148Y-85264001D01*
X168457176Y-85323493D01*
X168685070Y-85353496D01*
X168685077Y-85353496D01*
X168914923Y-85353496D01*
X168914930Y-85353496D01*
X169142824Y-85323493D01*
X169364852Y-85264001D01*
X169577215Y-85176037D01*
X169776280Y-85061107D01*
X169958641Y-84921177D01*
X170121177Y-84758641D01*
X170261107Y-84576280D01*
X170376037Y-84377215D01*
X170464001Y-84164852D01*
X170523493Y-83942824D01*
X170553496Y-83714930D01*
X170553496Y-83485070D01*
X170523493Y-83257176D01*
X170464001Y-83035148D01*
X170376037Y-82822785D01*
X170369770Y-82811931D01*
X170261107Y-82623720D01*
X170121178Y-82441360D01*
X170121172Y-82441353D01*
X169958646Y-82278827D01*
X169958639Y-82278821D01*
X169776279Y-82138892D01*
X169577218Y-82023964D01*
X169577208Y-82023960D01*
X169364850Y-81935998D01*
X169253838Y-81906253D01*
X169142824Y-81876507D01*
X169104738Y-81871492D01*
X168914937Y-81846504D01*
X168914930Y-81846504D01*
X168685070Y-81846504D01*
X168685062Y-81846504D01*
X168468146Y-81875062D01*
X168457176Y-81876507D01*
X168410253Y-81889079D01*
X168235149Y-81935998D01*
X168022791Y-82023960D01*
X168022781Y-82023964D01*
X167823720Y-82138892D01*
X167641360Y-82278821D01*
X167641353Y-82278827D01*
X167478827Y-82441353D01*
X167478821Y-82441360D01*
X167338892Y-82623720D01*
X167223964Y-82822781D01*
X167223960Y-82822791D01*
X167135998Y-83035149D01*
X167076508Y-83257173D01*
X167076506Y-83257184D01*
X167046504Y-83485062D01*
X134572785Y-83485062D01*
X134556757Y-83383872D01*
X134556757Y-83383869D01*
X134491095Y-83181782D01*
X134394624Y-82992449D01*
X134355270Y-82938282D01*
X134355269Y-82938282D01*
X133722962Y-83570590D01*
X133705925Y-83507007D01*
X133640099Y-83392993D01*
X133547007Y-83299901D01*
X133432993Y-83234075D01*
X133369409Y-83217037D01*
X134001716Y-82584728D01*
X133947550Y-82545375D01*
X133758217Y-82448904D01*
X133556129Y-82383242D01*
X133346246Y-82350000D01*
X133133754Y-82350000D01*
X132923872Y-82383242D01*
X132923869Y-82383242D01*
X132721782Y-82448904D01*
X132532439Y-82545380D01*
X132478282Y-82584727D01*
X132478282Y-82584728D01*
X133110591Y-83217037D01*
X133047007Y-83234075D01*
X132932993Y-83299901D01*
X132839901Y-83392993D01*
X132774075Y-83507007D01*
X132757037Y-83570591D01*
X132124728Y-82938282D01*
X132124727Y-82938282D01*
X132085380Y-82992440D01*
X132085376Y-82992446D01*
X132080760Y-83001505D01*
X132032781Y-83052297D01*
X131964959Y-83069087D01*
X131898826Y-83046543D01*
X131859794Y-83001493D01*
X131855051Y-82992184D01*
X131855049Y-82992181D01*
X131855048Y-82992179D01*
X131730109Y-82820213D01*
X131579786Y-82669890D01*
X131407820Y-82544951D01*
X131218414Y-82448444D01*
X131218413Y-82448443D01*
X131218412Y-82448443D01*
X131016243Y-82382754D01*
X131016241Y-82382753D01*
X131016240Y-82382753D01*
X130854957Y-82357208D01*
X130806287Y-82349500D01*
X130593713Y-82349500D01*
X130545042Y-82357208D01*
X130383760Y-82382753D01*
X130181585Y-82448444D01*
X129992179Y-82544951D01*
X129820213Y-82669890D01*
X129669890Y-82820213D01*
X129544949Y-82992182D01*
X129540484Y-83000946D01*
X129492509Y-83051742D01*
X129424688Y-83068536D01*
X129358553Y-83045998D01*
X129319516Y-83000946D01*
X129315050Y-82992182D01*
X129190109Y-82820213D01*
X129039786Y-82669890D01*
X128867820Y-82544951D01*
X128678414Y-82448444D01*
X128678413Y-82448443D01*
X128678412Y-82448443D01*
X128476243Y-82382754D01*
X128476241Y-82382753D01*
X128476240Y-82382753D01*
X128314957Y-82357208D01*
X128266287Y-82349500D01*
X128053713Y-82349500D01*
X128005042Y-82357208D01*
X127843760Y-82382753D01*
X127641585Y-82448444D01*
X127452179Y-82544951D01*
X127280213Y-82669890D01*
X127129890Y-82820213D01*
X127004949Y-82992182D01*
X127000484Y-83000946D01*
X126952509Y-83051742D01*
X126884688Y-83068536D01*
X126818553Y-83045998D01*
X126779516Y-83000946D01*
X126775050Y-82992182D01*
X126650109Y-82820213D01*
X126499786Y-82669890D01*
X126327820Y-82544951D01*
X126138414Y-82448444D01*
X126138413Y-82448443D01*
X126138412Y-82448443D01*
X125936243Y-82382754D01*
X125936241Y-82382753D01*
X125936240Y-82382753D01*
X125774957Y-82357208D01*
X125726287Y-82349500D01*
X125513713Y-82349500D01*
X125465042Y-82357208D01*
X125303760Y-82382753D01*
X125101585Y-82448444D01*
X124912179Y-82544951D01*
X124740213Y-82669890D01*
X124589890Y-82820213D01*
X124464949Y-82992182D01*
X124460484Y-83000946D01*
X124412509Y-83051742D01*
X124344688Y-83068536D01*
X124278553Y-83045998D01*
X124239516Y-83000946D01*
X124235050Y-82992182D01*
X124110109Y-82820213D01*
X123959786Y-82669890D01*
X123787820Y-82544951D01*
X123598414Y-82448444D01*
X123598413Y-82448443D01*
X123598412Y-82448443D01*
X123396243Y-82382754D01*
X123396241Y-82382753D01*
X123396240Y-82382753D01*
X123234957Y-82357208D01*
X123186287Y-82349500D01*
X122973713Y-82349500D01*
X122925042Y-82357208D01*
X122763760Y-82382753D01*
X122561585Y-82448444D01*
X122372179Y-82544951D01*
X122200213Y-82669890D01*
X122049890Y-82820213D01*
X121924949Y-82992182D01*
X121920484Y-83000946D01*
X121872509Y-83051742D01*
X121804688Y-83068536D01*
X121738553Y-83045998D01*
X121699516Y-83000946D01*
X121695050Y-82992182D01*
X121570109Y-82820213D01*
X121419786Y-82669890D01*
X121247820Y-82544951D01*
X121058414Y-82448444D01*
X121058413Y-82448443D01*
X121058412Y-82448443D01*
X120856243Y-82382754D01*
X120856241Y-82382753D01*
X120856240Y-82382753D01*
X120694957Y-82357208D01*
X120646287Y-82349500D01*
X120433713Y-82349500D01*
X120385042Y-82357208D01*
X120223760Y-82382753D01*
X120021585Y-82448444D01*
X119832179Y-82544951D01*
X119660213Y-82669890D01*
X119509890Y-82820213D01*
X119384949Y-82992182D01*
X119380484Y-83000946D01*
X119332509Y-83051742D01*
X119264688Y-83068536D01*
X119198553Y-83045998D01*
X119159516Y-83000946D01*
X119155050Y-82992182D01*
X119030109Y-82820213D01*
X118879786Y-82669890D01*
X118707820Y-82544951D01*
X118518414Y-82448444D01*
X118518413Y-82448443D01*
X118518412Y-82448443D01*
X118316243Y-82382754D01*
X118316241Y-82382753D01*
X118316240Y-82382753D01*
X118154957Y-82357208D01*
X118106287Y-82349500D01*
X117893713Y-82349500D01*
X117845042Y-82357208D01*
X117683760Y-82382753D01*
X117481585Y-82448444D01*
X117292179Y-82544951D01*
X117120215Y-82669889D01*
X117006673Y-82783431D01*
X116945350Y-82816915D01*
X116875658Y-82811931D01*
X116819725Y-82770059D01*
X116802810Y-82739082D01*
X116753797Y-82607671D01*
X116753793Y-82607664D01*
X116667547Y-82492455D01*
X116667544Y-82492452D01*
X116552335Y-82406206D01*
X116552328Y-82406202D01*
X116417482Y-82355908D01*
X116417483Y-82355908D01*
X116357883Y-82349501D01*
X116357881Y-82349500D01*
X116357873Y-82349500D01*
X116357864Y-82349500D01*
X114562129Y-82349500D01*
X114562123Y-82349501D01*
X114502516Y-82355908D01*
X114367671Y-82406202D01*
X114367664Y-82406206D01*
X114252455Y-82492452D01*
X114252452Y-82492455D01*
X114166206Y-82607664D01*
X114166202Y-82607671D01*
X114115908Y-82742517D01*
X114109501Y-82802116D01*
X114109500Y-82802135D01*
X114109500Y-84597870D01*
X114109501Y-84597876D01*
X114115908Y-84657483D01*
X114143764Y-84732167D01*
X114148748Y-84801859D01*
X114115263Y-84863182D01*
X114053939Y-84896666D01*
X114027582Y-84899500D01*
X110800097Y-84899500D01*
X110733058Y-84879815D01*
X110712416Y-84863181D01*
X107436819Y-81587584D01*
X107403334Y-81526261D01*
X107400500Y-81499903D01*
X107400500Y-74673543D01*
X109924499Y-74673543D01*
X109962947Y-74866829D01*
X109962950Y-74866839D01*
X110038364Y-75048907D01*
X110038371Y-75048920D01*
X110147860Y-75212781D01*
X110147863Y-75212785D01*
X110287214Y-75352136D01*
X110287218Y-75352139D01*
X110451079Y-75461628D01*
X110451092Y-75461635D01*
X110617685Y-75530639D01*
X110633165Y-75537051D01*
X110633169Y-75537051D01*
X110633170Y-75537052D01*
X110826456Y-75575500D01*
X110826459Y-75575500D01*
X111023543Y-75575500D01*
X111153582Y-75549632D01*
X111216835Y-75537051D01*
X111398914Y-75461632D01*
X111562782Y-75352139D01*
X111702139Y-75212782D01*
X111811632Y-75048914D01*
X111817890Y-75033807D01*
X111837430Y-74986632D01*
X111887051Y-74866835D01*
X111906747Y-74767816D01*
X111925500Y-74673543D01*
X111925500Y-74475096D01*
X111945185Y-74408057D01*
X111961819Y-74387415D01*
X111972995Y-74376239D01*
X112158506Y-74190728D01*
X112158511Y-74190724D01*
X112168714Y-74180520D01*
X112168716Y-74180520D01*
X112280520Y-74068716D01*
X112303170Y-74029485D01*
X112331195Y-73980944D01*
X112359575Y-73931788D01*
X112359574Y-73931788D01*
X112359577Y-73931785D01*
X112400501Y-73779057D01*
X112400501Y-73620943D01*
X112400501Y-73613348D01*
X112400500Y-73613330D01*
X112400500Y-72798543D01*
X112729499Y-72798543D01*
X112767947Y-72991829D01*
X112767950Y-72991839D01*
X112843364Y-73173907D01*
X112843371Y-73173920D01*
X112952860Y-73337781D01*
X112952863Y-73337785D01*
X113092214Y-73477136D01*
X113092218Y-73477139D01*
X113256079Y-73586628D01*
X113256092Y-73586635D01*
X113438160Y-73662049D01*
X113438165Y-73662051D01*
X113438169Y-73662051D01*
X113438170Y-73662052D01*
X113631456Y-73700500D01*
X113631459Y-73700500D01*
X113828543Y-73700500D01*
X113958582Y-73674632D01*
X114021835Y-73662051D01*
X114203914Y-73586632D01*
X114367782Y-73477139D01*
X114426088Y-73418833D01*
X114508103Y-73336819D01*
X114569426Y-73303334D01*
X114595784Y-73300500D01*
X114788331Y-73300500D01*
X114788347Y-73300501D01*
X114795943Y-73300501D01*
X114954054Y-73300501D01*
X114954057Y-73300501D01*
X115106785Y-73259577D01*
X115176233Y-73219481D01*
X115243716Y-73180520D01*
X115355520Y-73068716D01*
X115355520Y-73068715D01*
X115365729Y-73058507D01*
X115365732Y-73058502D01*
X115387418Y-73036817D01*
X115448742Y-73003333D01*
X115475097Y-73000500D01*
X117335891Y-73000500D01*
X117402930Y-73020185D01*
X117448685Y-73072989D01*
X117458629Y-73142147D01*
X117429604Y-73205703D01*
X117404782Y-73227602D01*
X117262218Y-73322860D01*
X117262214Y-73322863D01*
X117122863Y-73462214D01*
X117122860Y-73462218D01*
X117013371Y-73626079D01*
X117013364Y-73626092D01*
X116937950Y-73808160D01*
X116937947Y-73808170D01*
X116899500Y-74001456D01*
X116899500Y-74001459D01*
X116899500Y-74198541D01*
X116899500Y-74198543D01*
X116899499Y-74198543D01*
X116937947Y-74391829D01*
X116937950Y-74391839D01*
X117013364Y-74573907D01*
X117013371Y-74573919D01*
X117122860Y-74737781D01*
X117122863Y-74737785D01*
X117262214Y-74877136D01*
X117262218Y-74877139D01*
X117426079Y-74986628D01*
X117426092Y-74986635D01*
X117608160Y-75062049D01*
X117608165Y-75062051D01*
X117608169Y-75062051D01*
X117608170Y-75062052D01*
X117801456Y-75100500D01*
X117801459Y-75100500D01*
X117998543Y-75100500D01*
X118128582Y-75074632D01*
X118191835Y-75062051D01*
X118373914Y-74986632D01*
X118537782Y-74877139D01*
X118604063Y-74810858D01*
X118678103Y-74736819D01*
X118739426Y-74703334D01*
X118765784Y-74700500D01*
X120999903Y-74700500D01*
X121066942Y-74720185D01*
X121087584Y-74736819D01*
X121715139Y-75364374D01*
X121715149Y-75364385D01*
X121719479Y-75368715D01*
X121719480Y-75368716D01*
X121831284Y-75480520D01*
X121918095Y-75530639D01*
X121918097Y-75530641D01*
X121968213Y-75559576D01*
X121968215Y-75559577D01*
X122120942Y-75600500D01*
X122120943Y-75600500D01*
X122558028Y-75600500D01*
X122625067Y-75620185D01*
X122670822Y-75672989D01*
X122680766Y-75742147D01*
X122651741Y-75805703D01*
X122605480Y-75839061D01*
X122426092Y-75913364D01*
X122426079Y-75913371D01*
X122262218Y-76022860D01*
X122262214Y-76022863D01*
X122121897Y-76163181D01*
X122060574Y-76196666D01*
X122034216Y-76199500D01*
X120865784Y-76199500D01*
X120798745Y-76179815D01*
X120778103Y-76163181D01*
X120637785Y-76022863D01*
X120637781Y-76022860D01*
X120473920Y-75913371D01*
X120473907Y-75913364D01*
X120291839Y-75837950D01*
X120291829Y-75837947D01*
X120098543Y-75799500D01*
X120098541Y-75799500D01*
X119901459Y-75799500D01*
X119901457Y-75799500D01*
X119708170Y-75837947D01*
X119708160Y-75837950D01*
X119526092Y-75913364D01*
X119526079Y-75913371D01*
X119362218Y-76022860D01*
X119362214Y-76022863D01*
X119321899Y-76063180D01*
X119260576Y-76096666D01*
X119234217Y-76099500D01*
X118265784Y-76099500D01*
X118198745Y-76079815D01*
X118178103Y-76063181D01*
X118037785Y-75922863D01*
X118037781Y-75922860D01*
X117873920Y-75813371D01*
X117873907Y-75813364D01*
X117691839Y-75737950D01*
X117691829Y-75737947D01*
X117498543Y-75699500D01*
X117498541Y-75699500D01*
X117301459Y-75699500D01*
X117301457Y-75699500D01*
X117108170Y-75737947D01*
X117108160Y-75737950D01*
X116926092Y-75813364D01*
X116926079Y-75813371D01*
X116762218Y-75922860D01*
X116762214Y-75922863D01*
X116622863Y-76062214D01*
X116622860Y-76062218D01*
X116513371Y-76226079D01*
X116513364Y-76226092D01*
X116437950Y-76408160D01*
X116437947Y-76408170D01*
X116399500Y-76601456D01*
X116399500Y-76601459D01*
X116399500Y-76798541D01*
X116399500Y-76798543D01*
X116399499Y-76798543D01*
X116437947Y-76991829D01*
X116437950Y-76991839D01*
X116513364Y-77173907D01*
X116513371Y-77173920D01*
X116622860Y-77337781D01*
X116622863Y-77337785D01*
X116762214Y-77477136D01*
X116762218Y-77477139D01*
X116926079Y-77586628D01*
X116926092Y-77586635D01*
X117108160Y-77662049D01*
X117108165Y-77662051D01*
X117108169Y-77662051D01*
X117108170Y-77662052D01*
X117301456Y-77700500D01*
X117301459Y-77700500D01*
X117498543Y-77700500D01*
X117632196Y-77673914D01*
X117691835Y-77662051D01*
X117873914Y-77586632D01*
X118037782Y-77477139D01*
X118094736Y-77420185D01*
X118178103Y-77336819D01*
X118239426Y-77303334D01*
X118265784Y-77300500D01*
X119064853Y-77300500D01*
X119131892Y-77320185D01*
X119167954Y-77355608D01*
X119197950Y-77400500D01*
X119222862Y-77437784D01*
X119362214Y-77577136D01*
X119362218Y-77577139D01*
X119526079Y-77686628D01*
X119526092Y-77686635D01*
X119708160Y-77762049D01*
X119708165Y-77762051D01*
X119708169Y-77762051D01*
X119708170Y-77762052D01*
X119901456Y-77800500D01*
X119901459Y-77800500D01*
X120098543Y-77800500D01*
X120228582Y-77774632D01*
X120291835Y-77762051D01*
X120473914Y-77686632D01*
X120637782Y-77577139D01*
X120637785Y-77577136D01*
X120778103Y-77436819D01*
X120839426Y-77403334D01*
X120865784Y-77400500D01*
X122034216Y-77400500D01*
X122101255Y-77420185D01*
X122121897Y-77436819D01*
X122262214Y-77577136D01*
X122262218Y-77577139D01*
X122426079Y-77686628D01*
X122426092Y-77686635D01*
X122608160Y-77762049D01*
X122608165Y-77762051D01*
X122608169Y-77762051D01*
X122608170Y-77762052D01*
X122801456Y-77800500D01*
X122801459Y-77800500D01*
X122998543Y-77800500D01*
X123128582Y-77774632D01*
X123191835Y-77762051D01*
X123373914Y-77686632D01*
X123537782Y-77577139D01*
X123537785Y-77577136D01*
X123678103Y-77436819D01*
X123739426Y-77403334D01*
X123765784Y-77400500D01*
X125034217Y-77400500D01*
X125101256Y-77420185D01*
X125121899Y-77436820D01*
X125162214Y-77477136D01*
X125162218Y-77477139D01*
X125326079Y-77586628D01*
X125326092Y-77586635D01*
X125508160Y-77662049D01*
X125508165Y-77662051D01*
X125508169Y-77662051D01*
X125508170Y-77662052D01*
X125701456Y-77700500D01*
X125701459Y-77700500D01*
X125898543Y-77700500D01*
X126032196Y-77673914D01*
X126091835Y-77662051D01*
X126273914Y-77586632D01*
X126437782Y-77477139D01*
X126494736Y-77420185D01*
X126578103Y-77336819D01*
X126639426Y-77303334D01*
X126665784Y-77300500D01*
X127999903Y-77300500D01*
X128066942Y-77320185D01*
X128087583Y-77336818D01*
X128431284Y-77680520D01*
X128431286Y-77680521D01*
X128431290Y-77680524D01*
X128560371Y-77755048D01*
X128568216Y-77759577D01*
X128720943Y-77800501D01*
X128720945Y-77800501D01*
X128886654Y-77800501D01*
X128886670Y-77800500D01*
X130534216Y-77800500D01*
X130601255Y-77820185D01*
X130621897Y-77836819D01*
X130762214Y-77977136D01*
X130762218Y-77977139D01*
X130926079Y-78086628D01*
X130926092Y-78086635D01*
X131108160Y-78162049D01*
X131108165Y-78162051D01*
X131108169Y-78162051D01*
X131108170Y-78162052D01*
X131301456Y-78200500D01*
X131301459Y-78200500D01*
X131498543Y-78200500D01*
X131628582Y-78174632D01*
X131691835Y-78162051D01*
X131873914Y-78086632D01*
X132037782Y-77977139D01*
X132177139Y-77837782D01*
X132286632Y-77673914D01*
X132362051Y-77491835D01*
X132392694Y-77337785D01*
X132400500Y-77298543D01*
X132400500Y-77101456D01*
X132362052Y-76908170D01*
X132362051Y-76908169D01*
X132362051Y-76908165D01*
X132319810Y-76806185D01*
X132286635Y-76726092D01*
X132286628Y-76726079D01*
X132177139Y-76562218D01*
X132177136Y-76562214D01*
X132037785Y-76422863D01*
X132037781Y-76422860D01*
X131873920Y-76313371D01*
X131873907Y-76313364D01*
X131691839Y-76237950D01*
X131691829Y-76237947D01*
X131498543Y-76199500D01*
X131498541Y-76199500D01*
X131301459Y-76199500D01*
X131301457Y-76199500D01*
X131108170Y-76237947D01*
X131108160Y-76237950D01*
X130926092Y-76313364D01*
X130926079Y-76313371D01*
X130762218Y-76422860D01*
X130762214Y-76422863D01*
X130621897Y-76563181D01*
X130560574Y-76596666D01*
X130534216Y-76599500D01*
X129100098Y-76599500D01*
X129033059Y-76579815D01*
X129012417Y-76563181D01*
X128668717Y-76219481D01*
X128668716Y-76219480D01*
X128581904Y-76169360D01*
X128581904Y-76169359D01*
X128581900Y-76169358D01*
X128531785Y-76140423D01*
X128379057Y-76099499D01*
X128220943Y-76099499D01*
X128213347Y-76099499D01*
X128213331Y-76099500D01*
X126665784Y-76099500D01*
X126598745Y-76079815D01*
X126578103Y-76063181D01*
X126437785Y-75922863D01*
X126437781Y-75922860D01*
X126295218Y-75827602D01*
X126250413Y-75773990D01*
X126241706Y-75704665D01*
X126271861Y-75641637D01*
X126331304Y-75604918D01*
X126364109Y-75600500D01*
X162399903Y-75600500D01*
X162466942Y-75620185D01*
X162487583Y-75636818D01*
X163931284Y-77080520D01*
X163931286Y-77080521D01*
X163931290Y-77080524D01*
X164068209Y-77159573D01*
X164068216Y-77159577D01*
X164220943Y-77200501D01*
X164220945Y-77200501D01*
X164386654Y-77200501D01*
X164386670Y-77200500D01*
X167214281Y-77200500D01*
X167281320Y-77220185D01*
X167324765Y-77268205D01*
X167344947Y-77307814D01*
X167344948Y-77307815D01*
X167469890Y-77479786D01*
X167620213Y-77630109D01*
X167792179Y-77755048D01*
X167792181Y-77755049D01*
X167792184Y-77755051D01*
X167801493Y-77759794D01*
X167852290Y-77807766D01*
X167869087Y-77875587D01*
X167846552Y-77941722D01*
X167801505Y-77980760D01*
X167792446Y-77985376D01*
X167792440Y-77985380D01*
X167738282Y-78024727D01*
X167738282Y-78024728D01*
X168370591Y-78657037D01*
X168307007Y-78674075D01*
X168192993Y-78739901D01*
X168099901Y-78832993D01*
X168034075Y-78947007D01*
X168017037Y-79010591D01*
X167384728Y-78378282D01*
X167384727Y-78378282D01*
X167345380Y-78432439D01*
X167248904Y-78621782D01*
X167183242Y-78823869D01*
X167183242Y-78823872D01*
X167150000Y-79033753D01*
X167150000Y-79246246D01*
X167183242Y-79456127D01*
X167183242Y-79456130D01*
X167248904Y-79658217D01*
X167345375Y-79847550D01*
X167384728Y-79901716D01*
X168017037Y-79269408D01*
X168034075Y-79332993D01*
X168099901Y-79447007D01*
X168192993Y-79540099D01*
X168307007Y-79605925D01*
X168370590Y-79622962D01*
X167738282Y-80255269D01*
X167738282Y-80255270D01*
X167792449Y-80294624D01*
X167981782Y-80391095D01*
X168183870Y-80456757D01*
X168393754Y-80490000D01*
X168606246Y-80490000D01*
X168816127Y-80456757D01*
X168816130Y-80456757D01*
X169018217Y-80391095D01*
X169207554Y-80294622D01*
X169261716Y-80255270D01*
X169261717Y-80255270D01*
X168629408Y-79622962D01*
X168692993Y-79605925D01*
X168807007Y-79540099D01*
X168900099Y-79447007D01*
X168965925Y-79332993D01*
X168982962Y-79269409D01*
X169615270Y-79901717D01*
X169615270Y-79901716D01*
X169654622Y-79847554D01*
X169751095Y-79658217D01*
X169816757Y-79456130D01*
X169816757Y-79456127D01*
X169850000Y-79246246D01*
X169850000Y-79033753D01*
X169816757Y-78823872D01*
X169816757Y-78823869D01*
X169751095Y-78621782D01*
X169654624Y-78432449D01*
X169615270Y-78378282D01*
X169615269Y-78378282D01*
X168982962Y-79010590D01*
X168965925Y-78947007D01*
X168900099Y-78832993D01*
X168807007Y-78739901D01*
X168692993Y-78674075D01*
X168629409Y-78657037D01*
X169261716Y-78024728D01*
X169207547Y-77985373D01*
X169207547Y-77985372D01*
X169198500Y-77980763D01*
X169147706Y-77932788D01*
X169130912Y-77864966D01*
X169153451Y-77798832D01*
X169198508Y-77759793D01*
X169207816Y-77755051D01*
X169301993Y-77686628D01*
X169379786Y-77630109D01*
X169379788Y-77630106D01*
X169379792Y-77630104D01*
X169530104Y-77479792D01*
X169530106Y-77479788D01*
X169530109Y-77479786D01*
X169655048Y-77307820D01*
X169655047Y-77307820D01*
X169655051Y-77307816D01*
X169751557Y-77118412D01*
X169817246Y-76916243D01*
X169850500Y-76706287D01*
X169850500Y-76493713D01*
X169817246Y-76283757D01*
X169751557Y-76081588D01*
X169655051Y-75892184D01*
X169655049Y-75892181D01*
X169655048Y-75892179D01*
X169530109Y-75720213D01*
X169379786Y-75569890D01*
X169207820Y-75444951D01*
X169207115Y-75444591D01*
X169199054Y-75440485D01*
X169148259Y-75392512D01*
X169131463Y-75324692D01*
X169153999Y-75258556D01*
X169199054Y-75219515D01*
X169207816Y-75215051D01*
X169306645Y-75143248D01*
X169379786Y-75090109D01*
X169379788Y-75090106D01*
X169379792Y-75090104D01*
X169530104Y-74939792D01*
X169530106Y-74939788D01*
X169530109Y-74939786D01*
X169655048Y-74767820D01*
X169655047Y-74767820D01*
X169655051Y-74767816D01*
X169751557Y-74578412D01*
X169817246Y-74376243D01*
X169850500Y-74166287D01*
X169850500Y-73953713D01*
X169817246Y-73743757D01*
X169751557Y-73541588D01*
X169655051Y-73352184D01*
X169655049Y-73352181D01*
X169655048Y-73352179D01*
X169530109Y-73180213D01*
X169416569Y-73066673D01*
X169383084Y-73005350D01*
X169388068Y-72935658D01*
X169429940Y-72879725D01*
X169460915Y-72862810D01*
X169592331Y-72813796D01*
X169707546Y-72727546D01*
X169793796Y-72612331D01*
X169844091Y-72477483D01*
X169850500Y-72417873D01*
X169850499Y-70622128D01*
X169844091Y-70562517D01*
X169820230Y-70498543D01*
X169793797Y-70427671D01*
X169793793Y-70427664D01*
X169707547Y-70312455D01*
X169707544Y-70312452D01*
X169592335Y-70226206D01*
X169592328Y-70226202D01*
X169457482Y-70175908D01*
X169457483Y-70175908D01*
X169397883Y-70169501D01*
X169397881Y-70169500D01*
X169397873Y-70169500D01*
X169397864Y-70169500D01*
X167602129Y-70169500D01*
X167602123Y-70169501D01*
X167542516Y-70175908D01*
X167407671Y-70226202D01*
X167407664Y-70226206D01*
X167292455Y-70312452D01*
X167292452Y-70312455D01*
X167206206Y-70427664D01*
X167206202Y-70427671D01*
X167155908Y-70562517D01*
X167149501Y-70622116D01*
X167149501Y-70622123D01*
X167149500Y-70622135D01*
X167149500Y-72417870D01*
X167149501Y-72417876D01*
X167155908Y-72477483D01*
X167206202Y-72612328D01*
X167206206Y-72612335D01*
X167292452Y-72727544D01*
X167292455Y-72727547D01*
X167407664Y-72813793D01*
X167407671Y-72813797D01*
X167539082Y-72862810D01*
X167595016Y-72904681D01*
X167619433Y-72970145D01*
X167604582Y-73038418D01*
X167583431Y-73066673D01*
X167469889Y-73180215D01*
X167344948Y-73352184D01*
X167344947Y-73352185D01*
X167324765Y-73391795D01*
X167276791Y-73442591D01*
X167214281Y-73459500D01*
X123260098Y-73459500D01*
X123193059Y-73439815D01*
X123172417Y-73423181D01*
X121787590Y-72038355D01*
X121787588Y-72038352D01*
X121668717Y-71919481D01*
X121668716Y-71919480D01*
X121581904Y-71869360D01*
X121581904Y-71869359D01*
X121581900Y-71869358D01*
X121531785Y-71840423D01*
X121379057Y-71799499D01*
X121220943Y-71799499D01*
X121213347Y-71799499D01*
X121213331Y-71799500D01*
X115254057Y-71799500D01*
X115095943Y-71799500D01*
X114943215Y-71840423D01*
X114943214Y-71840423D01*
X114943212Y-71840424D01*
X114943209Y-71840425D01*
X114893096Y-71869359D01*
X114893095Y-71869360D01*
X114849689Y-71894420D01*
X114806285Y-71919479D01*
X114806282Y-71919481D01*
X114694480Y-72031284D01*
X114694476Y-72031288D01*
X114673019Y-72052743D01*
X114651149Y-72064683D01*
X114611697Y-72086225D01*
X114611694Y-72086224D01*
X114611694Y-72086225D01*
X114596736Y-72085154D01*
X114542006Y-72081239D01*
X114542004Y-72081238D01*
X114542003Y-72081238D01*
X114541994Y-72081231D01*
X114497661Y-72052739D01*
X114367785Y-71922863D01*
X114367781Y-71922860D01*
X114203920Y-71813371D01*
X114203907Y-71813364D01*
X114021839Y-71737950D01*
X114021829Y-71737947D01*
X113828543Y-71699500D01*
X113828541Y-71699500D01*
X113631459Y-71699500D01*
X113631457Y-71699500D01*
X113438170Y-71737947D01*
X113438160Y-71737950D01*
X113256092Y-71813364D01*
X113256079Y-71813371D01*
X113092218Y-71922860D01*
X113092214Y-71922863D01*
X112952863Y-72062214D01*
X112952860Y-72062218D01*
X112843371Y-72226079D01*
X112843364Y-72226092D01*
X112767950Y-72408160D01*
X112767947Y-72408170D01*
X112729500Y-72601456D01*
X112729500Y-72601459D01*
X112729500Y-72798541D01*
X112729500Y-72798543D01*
X112729499Y-72798543D01*
X112400500Y-72798543D01*
X112400500Y-68200096D01*
X112420185Y-68133057D01*
X112436814Y-68112419D01*
X113558506Y-66990727D01*
X113558511Y-66990724D01*
X113568714Y-66980520D01*
X113568716Y-66980520D01*
X113680520Y-66868716D01*
X113756018Y-66737949D01*
X113759577Y-66731785D01*
X113800501Y-66579057D01*
X113800501Y-66420943D01*
X113800501Y-66413348D01*
X113800500Y-66413330D01*
X113800500Y-65865784D01*
X113820185Y-65798745D01*
X113836819Y-65778103D01*
X113977136Y-65637785D01*
X113977139Y-65637782D01*
X114086632Y-65473914D01*
X114162051Y-65291835D01*
X114200500Y-65098541D01*
X114200500Y-64901459D01*
X114200500Y-64901456D01*
X114162052Y-64708170D01*
X114162051Y-64708169D01*
X114162051Y-64708165D01*
X114162049Y-64708160D01*
X114086635Y-64526092D01*
X114086628Y-64526079D01*
X113977139Y-64362218D01*
X113977136Y-64362214D01*
X113836819Y-64221897D01*
X113803334Y-64160574D01*
X113800500Y-64134216D01*
X113800500Y-63200097D01*
X113820185Y-63133058D01*
X113836819Y-63112416D01*
X115387819Y-61561416D01*
X115449142Y-61527931D01*
X115518834Y-61532915D01*
X115574767Y-61574787D01*
X115599184Y-61640251D01*
X115599500Y-61649097D01*
X115599500Y-63234216D01*
X115579815Y-63301255D01*
X115563181Y-63321897D01*
X115422863Y-63462214D01*
X115422860Y-63462218D01*
X115313371Y-63626079D01*
X115313364Y-63626092D01*
X115237950Y-63808160D01*
X115237947Y-63808170D01*
X115199500Y-64001456D01*
X115199500Y-64001459D01*
X115199500Y-64198541D01*
X115199500Y-64198543D01*
X115199499Y-64198543D01*
X115237947Y-64391829D01*
X115237950Y-64391839D01*
X115313364Y-64573907D01*
X115313371Y-64573920D01*
X115422860Y-64737781D01*
X115422863Y-64737785D01*
X115563181Y-64878103D01*
X115596666Y-64939426D01*
X115599500Y-64965784D01*
X115599500Y-69534216D01*
X115579815Y-69601255D01*
X115563181Y-69621897D01*
X115422863Y-69762214D01*
X115422860Y-69762218D01*
X115313371Y-69926079D01*
X115313364Y-69926092D01*
X115237950Y-70108160D01*
X115237947Y-70108170D01*
X115199500Y-70301456D01*
X115199500Y-70301459D01*
X115199500Y-70498541D01*
X115199500Y-70498543D01*
X115199499Y-70498543D01*
X115237947Y-70691829D01*
X115237950Y-70691839D01*
X115313364Y-70873907D01*
X115313371Y-70873920D01*
X115422860Y-71037781D01*
X115422863Y-71037785D01*
X115562214Y-71177136D01*
X115562218Y-71177139D01*
X115726079Y-71286628D01*
X115726092Y-71286635D01*
X115908160Y-71362049D01*
X115908165Y-71362051D01*
X115908169Y-71362051D01*
X115908170Y-71362052D01*
X116101456Y-71400500D01*
X116101459Y-71400500D01*
X116298543Y-71400500D01*
X116428582Y-71374632D01*
X116491835Y-71362051D01*
X116673914Y-71286632D01*
X116837782Y-71177139D01*
X116946378Y-71068543D01*
X131299499Y-71068543D01*
X131337947Y-71261829D01*
X131337950Y-71261839D01*
X131413364Y-71443907D01*
X131413371Y-71443920D01*
X131522860Y-71607781D01*
X131522863Y-71607785D01*
X131662214Y-71747136D01*
X131662218Y-71747139D01*
X131826079Y-71856628D01*
X131826092Y-71856635D01*
X131985978Y-71922861D01*
X132008165Y-71932051D01*
X132008169Y-71932051D01*
X132008170Y-71932052D01*
X132201456Y-71970500D01*
X132201459Y-71970500D01*
X132398543Y-71970500D01*
X132528582Y-71944632D01*
X132591835Y-71932051D01*
X132743188Y-71869359D01*
X132773907Y-71856635D01*
X132773907Y-71856634D01*
X132773914Y-71856632D01*
X132937782Y-71747139D01*
X133077139Y-71607782D01*
X133186632Y-71443914D01*
X133262051Y-71261835D01*
X133300500Y-71068541D01*
X133300500Y-70871459D01*
X133300500Y-70871456D01*
X133262052Y-70678170D01*
X133262051Y-70678169D01*
X133262051Y-70678165D01*
X133238843Y-70622135D01*
X133186635Y-70496092D01*
X133186628Y-70496079D01*
X133077139Y-70332218D01*
X133077136Y-70332214D01*
X132937785Y-70192863D01*
X132937781Y-70192860D01*
X132773920Y-70083371D01*
X132773907Y-70083364D01*
X132591839Y-70007950D01*
X132591829Y-70007947D01*
X132398543Y-69969500D01*
X132398541Y-69969500D01*
X132201459Y-69969500D01*
X132201457Y-69969500D01*
X132008170Y-70007947D01*
X132008160Y-70007950D01*
X131826092Y-70083364D01*
X131826079Y-70083371D01*
X131662218Y-70192860D01*
X131662214Y-70192863D01*
X131522863Y-70332214D01*
X131522860Y-70332218D01*
X131413371Y-70496079D01*
X131413364Y-70496092D01*
X131337950Y-70678160D01*
X131337947Y-70678170D01*
X131299500Y-70871456D01*
X131299500Y-70871459D01*
X131299500Y-71068541D01*
X131299500Y-71068543D01*
X131299499Y-71068543D01*
X116946378Y-71068543D01*
X116977139Y-71037782D01*
X117086632Y-70873914D01*
X117162051Y-70691835D01*
X117187774Y-70562517D01*
X117200500Y-70498543D01*
X117200500Y-70301456D01*
X117162052Y-70108170D01*
X117162051Y-70108169D01*
X117162051Y-70108165D01*
X117120541Y-70007950D01*
X117086635Y-69926092D01*
X117086628Y-69926079D01*
X116977139Y-69762218D01*
X116977136Y-69762214D01*
X116836819Y-69621897D01*
X116803334Y-69560574D01*
X116800500Y-69534216D01*
X116800500Y-68528543D01*
X131299499Y-68528543D01*
X131337947Y-68721829D01*
X131337950Y-68721839D01*
X131413364Y-68903907D01*
X131413371Y-68903920D01*
X131522860Y-69067781D01*
X131522863Y-69067785D01*
X131662214Y-69207136D01*
X131662218Y-69207139D01*
X131826079Y-69316628D01*
X131826092Y-69316635D01*
X131925156Y-69357668D01*
X132008165Y-69392051D01*
X132008169Y-69392051D01*
X132008170Y-69392052D01*
X132201456Y-69430500D01*
X132201459Y-69430500D01*
X132398543Y-69430500D01*
X132528582Y-69404632D01*
X132591835Y-69392051D01*
X132773914Y-69316632D01*
X132937782Y-69207139D01*
X133077139Y-69067782D01*
X133186632Y-68903914D01*
X133262051Y-68721835D01*
X133300500Y-68528541D01*
X133300500Y-68331459D01*
X133300500Y-68331456D01*
X133262052Y-68138170D01*
X133262051Y-68138169D01*
X133262051Y-68138165D01*
X133251385Y-68112415D01*
X133186635Y-67956092D01*
X133186628Y-67956079D01*
X133077139Y-67792218D01*
X133077136Y-67792214D01*
X132937785Y-67652863D01*
X132937781Y-67652860D01*
X132773920Y-67543371D01*
X132773907Y-67543364D01*
X132591839Y-67467950D01*
X132591829Y-67467947D01*
X132398543Y-67429500D01*
X132398541Y-67429500D01*
X132201459Y-67429500D01*
X132201457Y-67429500D01*
X132008170Y-67467947D01*
X132008160Y-67467950D01*
X131826092Y-67543364D01*
X131826079Y-67543371D01*
X131662218Y-67652860D01*
X131662214Y-67652863D01*
X131522863Y-67792214D01*
X131522860Y-67792218D01*
X131413371Y-67956079D01*
X131413364Y-67956092D01*
X131337950Y-68138160D01*
X131337947Y-68138170D01*
X131299500Y-68331456D01*
X131299500Y-68331459D01*
X131299500Y-68528541D01*
X131299500Y-68528543D01*
X131299499Y-68528543D01*
X116800500Y-68528543D01*
X116800500Y-66952256D01*
X140299500Y-66952256D01*
X140299500Y-69047991D01*
X140299501Y-69047997D01*
X140305908Y-69107604D01*
X140356202Y-69242449D01*
X140356206Y-69242456D01*
X140442452Y-69357665D01*
X140442455Y-69357668D01*
X140557664Y-69443914D01*
X140557671Y-69443918D01*
X140692517Y-69494212D01*
X140692516Y-69494212D01*
X140699444Y-69494956D01*
X140752127Y-69500621D01*
X142447872Y-69500620D01*
X142507483Y-69494212D01*
X142642331Y-69443917D01*
X142757546Y-69357667D01*
X142843796Y-69242452D01*
X142894091Y-69107604D01*
X142900500Y-69047994D01*
X142900499Y-67697803D01*
X160800000Y-67697803D01*
X160800000Y-67750121D01*
X161753590Y-67750121D01*
X161703963Y-67836077D01*
X161675000Y-67944169D01*
X161675000Y-68056073D01*
X161703963Y-68164165D01*
X161753590Y-68250121D01*
X160800000Y-68250121D01*
X160800000Y-68302438D01*
X160832009Y-68504538D01*
X160895244Y-68699152D01*
X160988140Y-68881470D01*
X161108417Y-69047015D01*
X161108417Y-69047016D01*
X161253104Y-69191703D01*
X161418650Y-69311980D01*
X161600968Y-69404875D01*
X161795578Y-69468109D01*
X161850000Y-69476728D01*
X161850000Y-68346530D01*
X161935956Y-68396158D01*
X162044048Y-68425121D01*
X162155952Y-68425121D01*
X162264044Y-68396158D01*
X162350000Y-68346530D01*
X162350000Y-69476727D01*
X162404421Y-69468109D01*
X162599031Y-69404875D01*
X162781349Y-69311980D01*
X162946894Y-69191703D01*
X162946895Y-69191703D01*
X163091582Y-69047016D01*
X163091582Y-69047015D01*
X163211859Y-68881470D01*
X163304755Y-68699152D01*
X163367990Y-68504538D01*
X163400000Y-68302438D01*
X163400000Y-68250121D01*
X162446410Y-68250121D01*
X162496037Y-68164165D01*
X162525000Y-68056073D01*
X162525000Y-67944169D01*
X162496037Y-67836077D01*
X162446410Y-67750121D01*
X163400000Y-67750121D01*
X163400000Y-67697803D01*
X163367990Y-67495703D01*
X163304755Y-67301089D01*
X163211859Y-67118771D01*
X163091582Y-66953226D01*
X163091582Y-66953225D01*
X162946895Y-66808538D01*
X162781349Y-66688261D01*
X162599029Y-66595365D01*
X162404413Y-66532130D01*
X162350000Y-66523511D01*
X162350000Y-67653711D01*
X162264044Y-67604084D01*
X162155952Y-67575121D01*
X162044048Y-67575121D01*
X161935956Y-67604084D01*
X161850000Y-67653711D01*
X161850000Y-66523511D01*
X161795586Y-66532130D01*
X161600970Y-66595365D01*
X161418650Y-66688261D01*
X161253105Y-66808538D01*
X161253104Y-66808538D01*
X161108417Y-66953225D01*
X161108417Y-66953226D01*
X160988140Y-67118771D01*
X160895244Y-67301089D01*
X160832009Y-67495703D01*
X160800000Y-67697803D01*
X142900499Y-67697803D01*
X142900499Y-66952249D01*
X142894091Y-66892638D01*
X142885168Y-66868715D01*
X142843797Y-66757792D01*
X142843793Y-66757785D01*
X142757547Y-66642576D01*
X142757544Y-66642573D01*
X142642335Y-66556327D01*
X142642328Y-66556323D01*
X142507482Y-66506029D01*
X142507483Y-66506029D01*
X142447883Y-66499622D01*
X142447881Y-66499621D01*
X142447873Y-66499621D01*
X142447864Y-66499621D01*
X140752129Y-66499621D01*
X140752123Y-66499622D01*
X140692516Y-66506029D01*
X140557671Y-66556323D01*
X140557664Y-66556327D01*
X140442455Y-66642573D01*
X140442452Y-66642576D01*
X140356206Y-66757785D01*
X140356202Y-66757792D01*
X140305908Y-66892638D01*
X140302659Y-66922863D01*
X140299501Y-66952244D01*
X140299500Y-66952256D01*
X116800500Y-66952256D01*
X116800500Y-64965784D01*
X116820185Y-64898745D01*
X116836819Y-64878103D01*
X116977136Y-64737785D01*
X116977139Y-64737782D01*
X117086632Y-64573914D01*
X117162051Y-64391835D01*
X117174632Y-64328582D01*
X117200500Y-64198543D01*
X117200500Y-64001456D01*
X117162052Y-63808170D01*
X117162051Y-63808169D01*
X117162051Y-63808165D01*
X117162049Y-63808160D01*
X117086635Y-63626092D01*
X117086628Y-63626079D01*
X116977139Y-63462218D01*
X116977136Y-63462214D01*
X116836819Y-63321897D01*
X116803334Y-63260574D01*
X116800500Y-63234216D01*
X116800500Y-61800097D01*
X116820185Y-61733058D01*
X116836819Y-61712416D01*
X122112416Y-56436819D01*
X122173739Y-56403334D01*
X122200097Y-56400500D01*
X124234216Y-56400500D01*
X124301255Y-56420185D01*
X124321897Y-56436819D01*
X124462214Y-56577136D01*
X124462218Y-56577139D01*
X124626079Y-56686628D01*
X124626092Y-56686635D01*
X124808160Y-56762049D01*
X124808165Y-56762051D01*
X124808169Y-56762051D01*
X124808170Y-56762052D01*
X125001456Y-56800500D01*
X125001459Y-56800500D01*
X125198543Y-56800500D01*
X125380101Y-56764385D01*
X125391835Y-56762051D01*
X125573914Y-56686632D01*
X125737782Y-56577139D01*
X125877139Y-56437782D01*
X125986632Y-56273914D01*
X126062051Y-56091835D01*
X126074632Y-56028582D01*
X126100500Y-55898543D01*
X126100500Y-55701456D01*
X126062052Y-55508170D01*
X126062051Y-55508169D01*
X126062051Y-55508165D01*
X126062049Y-55508160D01*
X126005631Y-55371952D01*
X125998162Y-55302483D01*
X126029438Y-55240004D01*
X126089527Y-55204352D01*
X126120192Y-55200500D01*
X129199903Y-55200500D01*
X129266942Y-55220185D01*
X129287584Y-55236819D01*
X130815139Y-56764374D01*
X130815149Y-56764385D01*
X130819479Y-56768715D01*
X130819480Y-56768716D01*
X130931284Y-56880520D01*
X130931286Y-56880521D01*
X130931290Y-56880524D01*
X131068209Y-56959573D01*
X131068216Y-56959577D01*
X131180019Y-56989534D01*
X131220942Y-57000500D01*
X131220943Y-57000500D01*
X157414216Y-57000500D01*
X157481255Y-57020185D01*
X157501897Y-57036819D01*
X157642214Y-57177136D01*
X157642218Y-57177139D01*
X157806079Y-57286628D01*
X157806092Y-57286635D01*
X157988160Y-57362049D01*
X157988165Y-57362051D01*
X157988169Y-57362051D01*
X157988170Y-57362052D01*
X158181456Y-57400500D01*
X158181459Y-57400500D01*
X158378543Y-57400500D01*
X158508582Y-57374632D01*
X158571835Y-57362051D01*
X158753914Y-57286632D01*
X158917782Y-57177139D01*
X159057139Y-57037782D01*
X159166632Y-56873914D01*
X159242051Y-56691835D01*
X159254632Y-56628582D01*
X159280500Y-56498543D01*
X159280500Y-56301456D01*
X159242052Y-56108170D01*
X159242051Y-56108169D01*
X159242051Y-56108165D01*
X159242049Y-56108160D01*
X159166635Y-55926092D01*
X159166628Y-55926079D01*
X159057139Y-55762218D01*
X159057136Y-55762214D01*
X158917785Y-55622863D01*
X158917781Y-55622860D01*
X158753920Y-55513371D01*
X158753907Y-55513364D01*
X158571839Y-55437950D01*
X158571829Y-55437947D01*
X158378543Y-55399500D01*
X158378541Y-55399500D01*
X158181459Y-55399500D01*
X158181457Y-55399500D01*
X157988170Y-55437947D01*
X157988160Y-55437950D01*
X157806092Y-55513364D01*
X157806079Y-55513371D01*
X157642218Y-55622860D01*
X157642214Y-55622863D01*
X157501897Y-55763181D01*
X157440574Y-55796666D01*
X157414216Y-55799500D01*
X131600097Y-55799500D01*
X131533058Y-55779815D01*
X131512416Y-55763181D01*
X129987590Y-54238355D01*
X129980521Y-54231286D01*
X129980520Y-54231284D01*
X129887916Y-54138680D01*
X129860636Y-54088718D01*
X129854434Y-54077360D01*
X129854639Y-54074500D01*
X129859418Y-54007668D01*
X129901290Y-53951735D01*
X129906966Y-53949618D01*
X129966754Y-53927318D01*
X129966755Y-53927318D01*
X129994993Y-53928528D01*
X130133713Y-53950500D01*
X130133714Y-53950500D01*
X130346286Y-53950500D01*
X130346287Y-53950500D01*
X130556243Y-53917246D01*
X130758412Y-53851557D01*
X130947816Y-53755051D01*
X131034478Y-53692088D01*
X131119786Y-53630109D01*
X131119788Y-53630106D01*
X131119792Y-53630104D01*
X131270104Y-53479792D01*
X131270106Y-53479788D01*
X131270109Y-53479786D01*
X131386131Y-53320094D01*
X131395051Y-53307816D01*
X131399514Y-53299054D01*
X131447488Y-53248259D01*
X131515308Y-53231463D01*
X131581444Y-53253999D01*
X131620486Y-53299056D01*
X131624951Y-53307820D01*
X131749890Y-53479786D01*
X131900213Y-53630109D01*
X132072179Y-53755048D01*
X132072181Y-53755049D01*
X132072184Y-53755051D01*
X132261588Y-53851557D01*
X132463757Y-53917246D01*
X132673713Y-53950500D01*
X132673714Y-53950500D01*
X132886286Y-53950500D01*
X132886287Y-53950500D01*
X133096243Y-53917246D01*
X133298412Y-53851557D01*
X133487816Y-53755051D01*
X133574478Y-53692088D01*
X133659786Y-53630109D01*
X133659788Y-53630106D01*
X133659792Y-53630104D01*
X133810104Y-53479792D01*
X133810106Y-53479788D01*
X133810109Y-53479786D01*
X133926131Y-53320094D01*
X133935051Y-53307816D01*
X133939514Y-53299054D01*
X133987488Y-53248259D01*
X134055308Y-53231463D01*
X134121444Y-53253999D01*
X134160486Y-53299056D01*
X134164951Y-53307820D01*
X134289890Y-53479786D01*
X134440213Y-53630109D01*
X134612179Y-53755048D01*
X134612181Y-53755049D01*
X134612184Y-53755051D01*
X134801588Y-53851557D01*
X135003757Y-53917246D01*
X135213713Y-53950500D01*
X135213714Y-53950500D01*
X135426286Y-53950500D01*
X135426287Y-53950500D01*
X135636243Y-53917246D01*
X135838412Y-53851557D01*
X136027816Y-53755051D01*
X136114478Y-53692088D01*
X136199786Y-53630109D01*
X136199788Y-53630106D01*
X136199792Y-53630104D01*
X136350104Y-53479792D01*
X136350106Y-53479788D01*
X136350109Y-53479786D01*
X136466131Y-53320094D01*
X136475051Y-53307816D01*
X136479514Y-53299054D01*
X136527488Y-53248259D01*
X136595308Y-53231463D01*
X136661444Y-53253999D01*
X136700486Y-53299056D01*
X136704951Y-53307820D01*
X136829890Y-53479786D01*
X136980213Y-53630109D01*
X137152179Y-53755048D01*
X137152181Y-53755049D01*
X137152184Y-53755051D01*
X137341588Y-53851557D01*
X137543757Y-53917246D01*
X137753713Y-53950500D01*
X137753714Y-53950500D01*
X137966286Y-53950500D01*
X137966287Y-53950500D01*
X138176243Y-53917246D01*
X138378412Y-53851557D01*
X138567816Y-53755051D01*
X138654478Y-53692088D01*
X138739786Y-53630109D01*
X138739788Y-53630106D01*
X138739792Y-53630104D01*
X138890104Y-53479792D01*
X138890106Y-53479788D01*
X138890109Y-53479786D01*
X139006131Y-53320094D01*
X139015051Y-53307816D01*
X139019514Y-53299054D01*
X139067488Y-53248259D01*
X139135308Y-53231463D01*
X139201444Y-53253999D01*
X139240486Y-53299056D01*
X139244951Y-53307820D01*
X139369890Y-53479786D01*
X139520213Y-53630109D01*
X139692179Y-53755048D01*
X139692181Y-53755049D01*
X139692184Y-53755051D01*
X139881588Y-53851557D01*
X140083757Y-53917246D01*
X140293713Y-53950500D01*
X140293714Y-53950500D01*
X140506286Y-53950500D01*
X140506287Y-53950500D01*
X140716243Y-53917246D01*
X140918412Y-53851557D01*
X141107816Y-53755051D01*
X141194478Y-53692088D01*
X141279786Y-53630109D01*
X141279788Y-53630106D01*
X141279792Y-53630104D01*
X141430104Y-53479792D01*
X141430106Y-53479788D01*
X141430109Y-53479786D01*
X141546131Y-53320094D01*
X141555051Y-53307816D01*
X141559514Y-53299054D01*
X141607488Y-53248259D01*
X141675308Y-53231463D01*
X141741444Y-53253999D01*
X141780486Y-53299056D01*
X141784951Y-53307820D01*
X141909890Y-53479786D01*
X142060213Y-53630109D01*
X142232179Y-53755048D01*
X142232181Y-53755049D01*
X142232184Y-53755051D01*
X142421588Y-53851557D01*
X142623757Y-53917246D01*
X142833713Y-53950500D01*
X142833714Y-53950500D01*
X143046286Y-53950500D01*
X143046287Y-53950500D01*
X143256243Y-53917246D01*
X143458412Y-53851557D01*
X143647816Y-53755051D01*
X143734478Y-53692088D01*
X143819786Y-53630109D01*
X143819788Y-53630106D01*
X143819792Y-53630104D01*
X143970104Y-53479792D01*
X143970106Y-53479788D01*
X143970109Y-53479786D01*
X144086131Y-53320094D01*
X144095051Y-53307816D01*
X144099514Y-53299054D01*
X144147488Y-53248259D01*
X144215308Y-53231463D01*
X144281444Y-53253999D01*
X144320486Y-53299056D01*
X144324951Y-53307820D01*
X144449890Y-53479786D01*
X144600213Y-53630109D01*
X144772179Y-53755048D01*
X144772181Y-53755049D01*
X144772184Y-53755051D01*
X144961588Y-53851557D01*
X145163757Y-53917246D01*
X145373713Y-53950500D01*
X145373714Y-53950500D01*
X145586286Y-53950500D01*
X145586287Y-53950500D01*
X145796243Y-53917246D01*
X145998412Y-53851557D01*
X146187816Y-53755051D01*
X146274478Y-53692088D01*
X146359786Y-53630109D01*
X146359788Y-53630106D01*
X146359792Y-53630104D01*
X146510104Y-53479792D01*
X146510106Y-53479788D01*
X146510109Y-53479786D01*
X146626131Y-53320094D01*
X146635051Y-53307816D01*
X146639514Y-53299054D01*
X146687488Y-53248259D01*
X146755308Y-53231463D01*
X146821444Y-53253999D01*
X146860486Y-53299056D01*
X146864951Y-53307820D01*
X146989890Y-53479786D01*
X147140213Y-53630109D01*
X147312179Y-53755048D01*
X147312181Y-53755049D01*
X147312184Y-53755051D01*
X147501588Y-53851557D01*
X147703757Y-53917246D01*
X147913713Y-53950500D01*
X147913714Y-53950500D01*
X148126286Y-53950500D01*
X148126287Y-53950500D01*
X148336243Y-53917246D01*
X148538412Y-53851557D01*
X148727816Y-53755051D01*
X148814478Y-53692088D01*
X148899786Y-53630109D01*
X148899788Y-53630106D01*
X148899792Y-53630104D01*
X149050104Y-53479792D01*
X149050106Y-53479788D01*
X149050109Y-53479786D01*
X149166131Y-53320094D01*
X149175051Y-53307816D01*
X149179514Y-53299054D01*
X149227488Y-53248259D01*
X149295308Y-53231463D01*
X149361444Y-53253999D01*
X149400486Y-53299056D01*
X149404951Y-53307820D01*
X149529890Y-53479786D01*
X149680213Y-53630109D01*
X149852179Y-53755048D01*
X149852181Y-53755049D01*
X149852184Y-53755051D01*
X150041588Y-53851557D01*
X150243757Y-53917246D01*
X150453713Y-53950500D01*
X150453714Y-53950500D01*
X150666286Y-53950500D01*
X150666287Y-53950500D01*
X150876243Y-53917246D01*
X151078412Y-53851557D01*
X151267816Y-53755051D01*
X151354478Y-53692088D01*
X151439786Y-53630109D01*
X151439788Y-53630106D01*
X151439792Y-53630104D01*
X151590104Y-53479792D01*
X151590106Y-53479788D01*
X151590109Y-53479786D01*
X151675890Y-53361717D01*
X151715051Y-53307816D01*
X151719793Y-53298508D01*
X151767763Y-53247711D01*
X151835583Y-53230911D01*
X151901719Y-53253445D01*
X151940763Y-53298500D01*
X151945373Y-53307547D01*
X151984728Y-53361716D01*
X152617037Y-52729408D01*
X152634075Y-52792993D01*
X152699901Y-52907007D01*
X152792993Y-53000099D01*
X152907007Y-53065925D01*
X152970590Y-53082962D01*
X152338282Y-53715269D01*
X152338282Y-53715270D01*
X152392449Y-53754624D01*
X152581782Y-53851095D01*
X152783870Y-53916757D01*
X152993754Y-53950000D01*
X153206246Y-53950000D01*
X153416127Y-53916757D01*
X153416130Y-53916757D01*
X153618217Y-53851095D01*
X153807554Y-53754622D01*
X153861716Y-53715270D01*
X153861717Y-53715270D01*
X153229408Y-53082962D01*
X153292993Y-53065925D01*
X153407007Y-53000099D01*
X153500099Y-52907007D01*
X153565925Y-52792993D01*
X153582962Y-52729408D01*
X154215270Y-53361717D01*
X154215270Y-53361716D01*
X154254622Y-53307555D01*
X154259232Y-53298507D01*
X154307205Y-53247709D01*
X154375025Y-53230912D01*
X154441161Y-53253447D01*
X154480204Y-53298504D01*
X154484949Y-53307817D01*
X154609890Y-53479786D01*
X154760213Y-53630109D01*
X154932179Y-53755048D01*
X154932181Y-53755049D01*
X154932184Y-53755051D01*
X155121588Y-53851557D01*
X155323757Y-53917246D01*
X155533713Y-53950500D01*
X155533714Y-53950500D01*
X155746286Y-53950500D01*
X155746287Y-53950500D01*
X155956243Y-53917246D01*
X156158412Y-53851557D01*
X156347816Y-53755051D01*
X156434478Y-53692088D01*
X156519786Y-53630109D01*
X156519788Y-53630106D01*
X156519792Y-53630104D01*
X156670104Y-53479792D01*
X156670106Y-53479788D01*
X156670109Y-53479786D01*
X156755890Y-53361717D01*
X156795051Y-53307816D01*
X156799793Y-53298508D01*
X156847763Y-53247711D01*
X156915583Y-53230911D01*
X156981719Y-53253445D01*
X157020763Y-53298500D01*
X157025373Y-53307547D01*
X157064728Y-53361716D01*
X157697037Y-52729408D01*
X157714075Y-52792993D01*
X157779901Y-52907007D01*
X157872993Y-53000099D01*
X157987007Y-53065925D01*
X158050590Y-53082962D01*
X157418282Y-53715269D01*
X157418282Y-53715270D01*
X157472449Y-53754624D01*
X157661782Y-53851095D01*
X157863870Y-53916757D01*
X158073754Y-53950000D01*
X158286246Y-53950000D01*
X158496127Y-53916757D01*
X158496130Y-53916757D01*
X158698217Y-53851095D01*
X158887554Y-53754622D01*
X158941716Y-53715270D01*
X158941717Y-53715270D01*
X158309408Y-53082962D01*
X158372993Y-53065925D01*
X158487007Y-53000099D01*
X158580099Y-52907007D01*
X158645925Y-52792993D01*
X158662962Y-52729409D01*
X159295270Y-53361717D01*
X159295270Y-53361716D01*
X159334622Y-53307555D01*
X159339232Y-53298507D01*
X159387205Y-53247709D01*
X159455025Y-53230912D01*
X159521161Y-53253447D01*
X159560204Y-53298504D01*
X159564949Y-53307817D01*
X159689890Y-53479786D01*
X159840213Y-53630109D01*
X160012179Y-53755048D01*
X160012181Y-53755049D01*
X160012184Y-53755051D01*
X160201588Y-53851557D01*
X160403757Y-53917246D01*
X160613713Y-53950500D01*
X160613714Y-53950500D01*
X160826286Y-53950500D01*
X160826287Y-53950500D01*
X161036243Y-53917246D01*
X161238412Y-53851557D01*
X161427816Y-53755051D01*
X161514478Y-53692088D01*
X161599784Y-53630110D01*
X161599784Y-53630109D01*
X161599792Y-53630104D01*
X161713717Y-53516178D01*
X161775036Y-53482696D01*
X161844728Y-53487680D01*
X161900662Y-53529551D01*
X161917577Y-53560528D01*
X161966646Y-53692088D01*
X161966649Y-53692093D01*
X162052809Y-53807187D01*
X162052812Y-53807190D01*
X162167906Y-53893350D01*
X162167913Y-53893354D01*
X162302620Y-53943596D01*
X162302627Y-53943598D01*
X162362155Y-53949999D01*
X162362172Y-53950000D01*
X163010000Y-53950000D01*
X163010000Y-53033012D01*
X163067007Y-53065925D01*
X163194174Y-53100000D01*
X163325826Y-53100000D01*
X163452993Y-53065925D01*
X163510000Y-53033012D01*
X163510000Y-53950000D01*
X164157828Y-53950000D01*
X164157844Y-53949999D01*
X164217372Y-53943598D01*
X164217379Y-53943596D01*
X164352086Y-53893354D01*
X164352093Y-53893350D01*
X164467187Y-53807190D01*
X164467190Y-53807187D01*
X164553350Y-53692093D01*
X164553354Y-53692086D01*
X164603596Y-53557379D01*
X164603598Y-53557372D01*
X164609999Y-53497844D01*
X164610000Y-53497827D01*
X164610000Y-52850000D01*
X163693012Y-52850000D01*
X163725925Y-52792993D01*
X163760000Y-52665826D01*
X163760000Y-52534174D01*
X163746840Y-52485062D01*
X167046504Y-52485062D01*
X167046504Y-52714937D01*
X167056781Y-52792993D01*
X167076507Y-52942824D01*
X167091827Y-53000000D01*
X167135998Y-53164850D01*
X167223960Y-53377208D01*
X167223964Y-53377218D01*
X167338892Y-53576279D01*
X167478821Y-53758639D01*
X167478827Y-53758646D01*
X167641353Y-53921172D01*
X167641360Y-53921178D01*
X167823720Y-54061107D01*
X168022781Y-54176035D01*
X168022782Y-54176035D01*
X168022785Y-54176037D01*
X168235148Y-54264001D01*
X168457176Y-54323493D01*
X168685070Y-54353496D01*
X168685077Y-54353496D01*
X168914923Y-54353496D01*
X168914930Y-54353496D01*
X169142824Y-54323493D01*
X169364852Y-54264001D01*
X169577215Y-54176037D01*
X169776280Y-54061107D01*
X169958641Y-53921177D01*
X170121177Y-53758641D01*
X170261107Y-53576280D01*
X170376037Y-53377215D01*
X170464001Y-53164852D01*
X170523493Y-52942824D01*
X170553496Y-52714930D01*
X170553496Y-52485070D01*
X170523493Y-52257176D01*
X170464001Y-52035148D01*
X170376037Y-51822785D01*
X170261107Y-51623720D01*
X170189883Y-51530899D01*
X170121178Y-51441360D01*
X170121172Y-51441353D01*
X169958646Y-51278827D01*
X169958639Y-51278821D01*
X169776279Y-51138892D01*
X169577218Y-51023964D01*
X169577208Y-51023960D01*
X169364850Y-50935998D01*
X169253838Y-50906253D01*
X169142824Y-50876507D01*
X169104738Y-50871492D01*
X168914937Y-50846504D01*
X168914930Y-50846504D01*
X168685070Y-50846504D01*
X168685062Y-50846504D01*
X168468146Y-50875062D01*
X168457176Y-50876507D01*
X168410253Y-50889079D01*
X168235149Y-50935998D01*
X168022791Y-51023960D01*
X168022781Y-51023964D01*
X167823720Y-51138892D01*
X167641360Y-51278821D01*
X167641353Y-51278827D01*
X167478827Y-51441353D01*
X167478821Y-51441360D01*
X167338892Y-51623720D01*
X167223964Y-51822781D01*
X167223960Y-51822791D01*
X167135998Y-52035149D01*
X167076508Y-52257173D01*
X167076506Y-52257184D01*
X167046504Y-52485062D01*
X163746840Y-52485062D01*
X163725925Y-52407007D01*
X163693012Y-52350000D01*
X164610000Y-52350000D01*
X164610000Y-51702172D01*
X164609999Y-51702155D01*
X164603598Y-51642627D01*
X164603596Y-51642620D01*
X164553354Y-51507913D01*
X164553350Y-51507906D01*
X164467190Y-51392812D01*
X164467187Y-51392809D01*
X164352093Y-51306649D01*
X164352086Y-51306645D01*
X164217379Y-51256403D01*
X164217372Y-51256401D01*
X164157844Y-51250000D01*
X163510000Y-51250000D01*
X163510000Y-52166988D01*
X163452993Y-52134075D01*
X163325826Y-52100000D01*
X163194174Y-52100000D01*
X163067007Y-52134075D01*
X163010000Y-52166988D01*
X163010000Y-51250000D01*
X162362155Y-51250000D01*
X162302627Y-51256401D01*
X162302620Y-51256403D01*
X162167913Y-51306645D01*
X162167906Y-51306649D01*
X162052812Y-51392809D01*
X162052809Y-51392812D01*
X161966649Y-51507906D01*
X161966646Y-51507912D01*
X161917577Y-51639471D01*
X161875705Y-51695404D01*
X161810241Y-51719821D01*
X161741968Y-51704969D01*
X161713714Y-51683818D01*
X161599786Y-51569890D01*
X161427820Y-51444951D01*
X161238414Y-51348444D01*
X161238413Y-51348443D01*
X161238412Y-51348443D01*
X161036243Y-51282754D01*
X161036241Y-51282753D01*
X161036240Y-51282753D01*
X160874957Y-51257208D01*
X160826287Y-51249500D01*
X160613713Y-51249500D01*
X160565042Y-51257208D01*
X160403760Y-51282753D01*
X160201585Y-51348444D01*
X160012179Y-51444951D01*
X159840213Y-51569890D01*
X159689890Y-51720213D01*
X159564949Y-51892182D01*
X159560202Y-51901499D01*
X159512227Y-51952293D01*
X159444405Y-51969087D01*
X159378271Y-51946548D01*
X159339234Y-51901495D01*
X159334626Y-51892452D01*
X159295270Y-51838282D01*
X159295269Y-51838282D01*
X158662962Y-52470590D01*
X158645925Y-52407007D01*
X158580099Y-52292993D01*
X158487007Y-52199901D01*
X158372993Y-52134075D01*
X158309409Y-52117037D01*
X158941716Y-51484728D01*
X158887550Y-51445375D01*
X158698217Y-51348904D01*
X158496129Y-51283242D01*
X158286246Y-51250000D01*
X158073754Y-51250000D01*
X157863872Y-51283242D01*
X157863869Y-51283242D01*
X157661782Y-51348904D01*
X157472439Y-51445380D01*
X157418282Y-51484727D01*
X157418282Y-51484728D01*
X158050591Y-52117037D01*
X157987007Y-52134075D01*
X157872993Y-52199901D01*
X157779901Y-52292993D01*
X157714075Y-52407007D01*
X157697037Y-52470591D01*
X157064728Y-51838282D01*
X157064727Y-51838282D01*
X157025380Y-51892440D01*
X157025376Y-51892446D01*
X157020760Y-51901505D01*
X156972781Y-51952297D01*
X156904959Y-51969087D01*
X156838826Y-51946543D01*
X156799794Y-51901493D01*
X156795051Y-51892184D01*
X156795049Y-51892181D01*
X156795048Y-51892179D01*
X156670109Y-51720213D01*
X156519786Y-51569890D01*
X156347820Y-51444951D01*
X156158414Y-51348444D01*
X156158413Y-51348443D01*
X156158412Y-51348443D01*
X155956243Y-51282754D01*
X155956241Y-51282753D01*
X155956240Y-51282753D01*
X155794957Y-51257208D01*
X155746287Y-51249500D01*
X155533713Y-51249500D01*
X155485042Y-51257208D01*
X155323760Y-51282753D01*
X155121585Y-51348444D01*
X154932179Y-51444951D01*
X154760213Y-51569890D01*
X154609890Y-51720213D01*
X154484949Y-51892182D01*
X154480202Y-51901499D01*
X154432227Y-51952293D01*
X154364405Y-51969087D01*
X154298271Y-51946548D01*
X154259234Y-51901495D01*
X154254626Y-51892452D01*
X154215270Y-51838282D01*
X154215269Y-51838282D01*
X153582962Y-52470590D01*
X153565925Y-52407007D01*
X153500099Y-52292993D01*
X153407007Y-52199901D01*
X153292993Y-52134075D01*
X153229409Y-52117037D01*
X153861716Y-51484728D01*
X153807550Y-51445375D01*
X153618217Y-51348904D01*
X153416129Y-51283242D01*
X153206246Y-51250000D01*
X152993754Y-51250000D01*
X152783872Y-51283242D01*
X152783869Y-51283242D01*
X152581782Y-51348904D01*
X152392439Y-51445380D01*
X152338282Y-51484727D01*
X152338282Y-51484728D01*
X152970591Y-52117037D01*
X152907007Y-52134075D01*
X152792993Y-52199901D01*
X152699901Y-52292993D01*
X152634075Y-52407007D01*
X152617037Y-52470591D01*
X151984728Y-51838282D01*
X151984727Y-51838282D01*
X151945380Y-51892440D01*
X151945376Y-51892446D01*
X151940760Y-51901505D01*
X151892781Y-51952297D01*
X151824959Y-51969087D01*
X151758826Y-51946543D01*
X151719794Y-51901493D01*
X151715051Y-51892184D01*
X151715049Y-51892181D01*
X151715048Y-51892179D01*
X151590109Y-51720213D01*
X151439786Y-51569890D01*
X151267820Y-51444951D01*
X151078414Y-51348444D01*
X151078413Y-51348443D01*
X151078412Y-51348443D01*
X150876243Y-51282754D01*
X150876241Y-51282753D01*
X150876240Y-51282753D01*
X150714957Y-51257208D01*
X150666287Y-51249500D01*
X150453713Y-51249500D01*
X150405042Y-51257208D01*
X150243760Y-51282753D01*
X150041585Y-51348444D01*
X149852179Y-51444951D01*
X149680213Y-51569890D01*
X149529890Y-51720213D01*
X149404949Y-51892182D01*
X149400484Y-51900946D01*
X149352509Y-51951742D01*
X149284688Y-51968536D01*
X149218553Y-51945998D01*
X149179516Y-51900946D01*
X149175050Y-51892182D01*
X149050109Y-51720213D01*
X148899786Y-51569890D01*
X148727820Y-51444951D01*
X148538414Y-51348444D01*
X148538413Y-51348443D01*
X148538412Y-51348443D01*
X148336243Y-51282754D01*
X148336241Y-51282753D01*
X148336240Y-51282753D01*
X148174957Y-51257208D01*
X148126287Y-51249500D01*
X147913713Y-51249500D01*
X147865042Y-51257208D01*
X147703760Y-51282753D01*
X147501585Y-51348444D01*
X147312179Y-51444951D01*
X147140213Y-51569890D01*
X146989890Y-51720213D01*
X146864949Y-51892182D01*
X146860484Y-51900946D01*
X146812509Y-51951742D01*
X146744688Y-51968536D01*
X146678553Y-51945998D01*
X146639516Y-51900946D01*
X146635050Y-51892182D01*
X146510109Y-51720213D01*
X146359786Y-51569890D01*
X146187820Y-51444951D01*
X145998414Y-51348444D01*
X145998413Y-51348443D01*
X145998412Y-51348443D01*
X145796243Y-51282754D01*
X145796241Y-51282753D01*
X145796240Y-51282753D01*
X145634957Y-51257208D01*
X145586287Y-51249500D01*
X145373713Y-51249500D01*
X145325042Y-51257208D01*
X145163760Y-51282753D01*
X144961585Y-51348444D01*
X144772179Y-51444951D01*
X144600213Y-51569890D01*
X144449890Y-51720213D01*
X144324949Y-51892182D01*
X144320484Y-51900946D01*
X144272509Y-51951742D01*
X144204688Y-51968536D01*
X144138553Y-51945998D01*
X144099516Y-51900946D01*
X144095050Y-51892182D01*
X143970109Y-51720213D01*
X143819786Y-51569890D01*
X143647820Y-51444951D01*
X143458414Y-51348444D01*
X143458413Y-51348443D01*
X143458412Y-51348443D01*
X143256243Y-51282754D01*
X143256241Y-51282753D01*
X143256240Y-51282753D01*
X143094957Y-51257208D01*
X143046287Y-51249500D01*
X142833713Y-51249500D01*
X142785042Y-51257208D01*
X142623760Y-51282753D01*
X142421585Y-51348444D01*
X142232179Y-51444951D01*
X142060213Y-51569890D01*
X141909890Y-51720213D01*
X141784949Y-51892182D01*
X141780484Y-51900946D01*
X141732509Y-51951742D01*
X141664688Y-51968536D01*
X141598553Y-51945998D01*
X141559516Y-51900946D01*
X141555050Y-51892182D01*
X141430109Y-51720213D01*
X141279786Y-51569890D01*
X141107820Y-51444951D01*
X140918414Y-51348444D01*
X140918413Y-51348443D01*
X140918412Y-51348443D01*
X140716243Y-51282754D01*
X140716241Y-51282753D01*
X140716240Y-51282753D01*
X140554957Y-51257208D01*
X140506287Y-51249500D01*
X140293713Y-51249500D01*
X140245042Y-51257208D01*
X140083760Y-51282753D01*
X139881585Y-51348444D01*
X139692179Y-51444951D01*
X139520213Y-51569890D01*
X139369890Y-51720213D01*
X139244949Y-51892182D01*
X139240484Y-51900946D01*
X139192509Y-51951742D01*
X139124688Y-51968536D01*
X139058553Y-51945998D01*
X139019516Y-51900946D01*
X139015050Y-51892182D01*
X138890109Y-51720213D01*
X138739786Y-51569890D01*
X138567820Y-51444951D01*
X138378414Y-51348444D01*
X138378413Y-51348443D01*
X138378412Y-51348443D01*
X138176243Y-51282754D01*
X138176241Y-51282753D01*
X138176240Y-51282753D01*
X138014957Y-51257208D01*
X137966287Y-51249500D01*
X137753713Y-51249500D01*
X137705042Y-51257208D01*
X137543760Y-51282753D01*
X137341585Y-51348444D01*
X137152179Y-51444951D01*
X136980213Y-51569890D01*
X136829890Y-51720213D01*
X136704949Y-51892182D01*
X136700484Y-51900946D01*
X136652509Y-51951742D01*
X136584688Y-51968536D01*
X136518553Y-51945998D01*
X136479516Y-51900946D01*
X136475050Y-51892182D01*
X136350109Y-51720213D01*
X136199786Y-51569890D01*
X136027820Y-51444951D01*
X135838414Y-51348444D01*
X135838413Y-51348443D01*
X135838412Y-51348443D01*
X135636243Y-51282754D01*
X135636241Y-51282753D01*
X135636240Y-51282753D01*
X135474957Y-51257208D01*
X135426287Y-51249500D01*
X135213713Y-51249500D01*
X135165042Y-51257208D01*
X135003760Y-51282753D01*
X134801585Y-51348444D01*
X134612179Y-51444951D01*
X134440213Y-51569890D01*
X134289890Y-51720213D01*
X134164949Y-51892182D01*
X134160484Y-51900946D01*
X134112509Y-51951742D01*
X134044688Y-51968536D01*
X133978553Y-51945998D01*
X133939516Y-51900946D01*
X133935050Y-51892182D01*
X133810109Y-51720213D01*
X133659786Y-51569890D01*
X133487820Y-51444951D01*
X133298414Y-51348444D01*
X133298413Y-51348443D01*
X133298412Y-51348443D01*
X133096243Y-51282754D01*
X133096241Y-51282753D01*
X133096240Y-51282753D01*
X132934957Y-51257208D01*
X132886287Y-51249500D01*
X132673713Y-51249500D01*
X132625042Y-51257208D01*
X132463760Y-51282753D01*
X132261585Y-51348444D01*
X132072179Y-51444951D01*
X131900213Y-51569890D01*
X131749890Y-51720213D01*
X131624949Y-51892182D01*
X131620484Y-51900946D01*
X131572509Y-51951742D01*
X131504688Y-51968536D01*
X131438553Y-51945998D01*
X131399516Y-51900946D01*
X131395050Y-51892182D01*
X131270109Y-51720213D01*
X131119786Y-51569890D01*
X130947820Y-51444951D01*
X130758414Y-51348444D01*
X130758413Y-51348443D01*
X130758412Y-51348443D01*
X130556243Y-51282754D01*
X130556241Y-51282753D01*
X130556240Y-51282753D01*
X130394957Y-51257208D01*
X130346287Y-51249500D01*
X130133713Y-51249500D01*
X130085042Y-51257208D01*
X129923760Y-51282753D01*
X129721585Y-51348444D01*
X129532179Y-51444951D01*
X129360213Y-51569890D01*
X129209890Y-51720213D01*
X129084949Y-51892182D01*
X129080484Y-51900946D01*
X129032509Y-51951742D01*
X128964688Y-51968536D01*
X128898553Y-51945998D01*
X128859516Y-51900946D01*
X128855050Y-51892182D01*
X128730109Y-51720213D01*
X128579786Y-51569890D01*
X128407820Y-51444951D01*
X128218414Y-51348444D01*
X128218413Y-51348443D01*
X128218412Y-51348443D01*
X128016243Y-51282754D01*
X128016241Y-51282753D01*
X128016240Y-51282753D01*
X127854957Y-51257208D01*
X127806287Y-51249500D01*
X127593713Y-51249500D01*
X127545042Y-51257208D01*
X127383760Y-51282753D01*
X127181585Y-51348444D01*
X126992179Y-51444951D01*
X126820213Y-51569890D01*
X126669890Y-51720213D01*
X126544949Y-51892182D01*
X126540484Y-51900946D01*
X126492509Y-51951742D01*
X126424688Y-51968536D01*
X126358553Y-51945998D01*
X126319516Y-51900946D01*
X126315050Y-51892182D01*
X126190109Y-51720213D01*
X126039786Y-51569890D01*
X125867820Y-51444951D01*
X125678414Y-51348444D01*
X125678413Y-51348443D01*
X125678412Y-51348443D01*
X125476243Y-51282754D01*
X125476241Y-51282753D01*
X125476240Y-51282753D01*
X125314957Y-51257208D01*
X125266287Y-51249500D01*
X125053713Y-51249500D01*
X125005042Y-51257208D01*
X124843760Y-51282753D01*
X124641585Y-51348444D01*
X124452179Y-51444951D01*
X124280213Y-51569890D01*
X124129890Y-51720213D01*
X124004951Y-51892179D01*
X123908444Y-52081585D01*
X123842753Y-52283760D01*
X123841291Y-52292993D01*
X123809500Y-52493713D01*
X123809500Y-52706287D01*
X123842754Y-52916243D01*
X123895110Y-53077378D01*
X123908444Y-53118414D01*
X124004951Y-53307820D01*
X124129890Y-53479786D01*
X124280213Y-53630109D01*
X124452182Y-53755050D01*
X124471739Y-53765015D01*
X124522536Y-53812989D01*
X124539331Y-53880810D01*
X124516794Y-53946945D01*
X124462079Y-53990397D01*
X124415445Y-53999500D01*
X121908511Y-53999500D01*
X121841472Y-53979815D01*
X121795717Y-53927011D01*
X121785773Y-53857853D01*
X121814798Y-53794297D01*
X121843412Y-53769962D01*
X121968656Y-53692712D01*
X122092712Y-53568656D01*
X122184814Y-53419334D01*
X122239999Y-53252797D01*
X122250500Y-53150009D01*
X122250499Y-52049992D01*
X122242234Y-51969087D01*
X122239999Y-51947203D01*
X122239998Y-51947200D01*
X122217699Y-51879906D01*
X122184814Y-51780666D01*
X122092712Y-51631344D01*
X121968656Y-51507288D01*
X121868287Y-51445380D01*
X121819336Y-51415187D01*
X121819331Y-51415185D01*
X121817862Y-51414698D01*
X121652797Y-51360001D01*
X121652795Y-51360000D01*
X121550010Y-51349500D01*
X120449998Y-51349500D01*
X120449980Y-51349501D01*
X120347203Y-51360000D01*
X120347200Y-51360001D01*
X120180668Y-51415185D01*
X120180663Y-51415187D01*
X120031342Y-51507289D01*
X119907289Y-51631342D01*
X119815187Y-51780663D01*
X119815186Y-51780666D01*
X119760001Y-51947203D01*
X119760001Y-51947204D01*
X119760000Y-51947204D01*
X119749500Y-52049983D01*
X119749500Y-53150001D01*
X119749501Y-53150019D01*
X119760000Y-53252796D01*
X119760001Y-53252799D01*
X119801227Y-53377208D01*
X119815186Y-53419334D01*
X119907288Y-53568656D01*
X120031344Y-53692712D01*
X120180666Y-53784814D01*
X120347203Y-53839999D01*
X120449991Y-53850500D01*
X121134399Y-53850499D01*
X121201437Y-53870183D01*
X121247192Y-53922987D01*
X121257136Y-53992146D01*
X121228111Y-54055702D01*
X121196398Y-54081886D01*
X121131287Y-54119477D01*
X121131282Y-54119481D01*
X119922181Y-55328582D01*
X119860858Y-55362067D01*
X119791166Y-55357083D01*
X119735233Y-55315211D01*
X119710816Y-55249747D01*
X119710500Y-55240901D01*
X119710500Y-55041577D01*
X119679709Y-54847173D01*
X119618882Y-54659970D01*
X119529523Y-54484594D01*
X119413828Y-54325354D01*
X119274646Y-54186172D01*
X119115405Y-54070476D01*
X119097017Y-54061107D01*
X118940029Y-53981117D01*
X118752826Y-53920290D01*
X118558422Y-53889500D01*
X118558417Y-53889500D01*
X118361583Y-53889500D01*
X118361578Y-53889500D01*
X118167173Y-53920290D01*
X117979970Y-53981117D01*
X117804594Y-54070476D01*
X117737151Y-54119477D01*
X117645354Y-54186172D01*
X117645352Y-54186174D01*
X117645351Y-54186174D01*
X117506174Y-54325351D01*
X117506174Y-54325352D01*
X117506172Y-54325354D01*
X117485726Y-54353496D01*
X117390476Y-54484594D01*
X117301117Y-54659970D01*
X117240290Y-54847173D01*
X117209500Y-55041577D01*
X117209500Y-55238422D01*
X117240290Y-55432826D01*
X117301117Y-55620029D01*
X117390476Y-55795405D01*
X117506172Y-55954646D01*
X117645354Y-56093828D01*
X117804595Y-56209524D01*
X117887455Y-56251743D01*
X117979970Y-56298882D01*
X117979972Y-56298882D01*
X117979975Y-56298884D01*
X118080317Y-56331487D01*
X118167173Y-56359709D01*
X118361578Y-56390500D01*
X118560901Y-56390500D01*
X118627940Y-56410185D01*
X118673695Y-56462989D01*
X118683639Y-56532147D01*
X118654614Y-56595703D01*
X118648582Y-56602181D01*
X112831286Y-62419478D01*
X112719481Y-62531282D01*
X112719479Y-62531285D01*
X112669361Y-62618094D01*
X112669359Y-62618096D01*
X112640425Y-62668209D01*
X112640424Y-62668210D01*
X112640423Y-62668215D01*
X112599499Y-62820943D01*
X112599499Y-62820945D01*
X112599499Y-62989046D01*
X112599500Y-62989059D01*
X112599500Y-64134216D01*
X112579815Y-64201255D01*
X112563181Y-64221897D01*
X112422863Y-64362214D01*
X112422860Y-64362218D01*
X112313371Y-64526079D01*
X112313364Y-64526092D01*
X112237950Y-64708160D01*
X112237947Y-64708170D01*
X112199500Y-64901456D01*
X112199500Y-64901459D01*
X112199500Y-65098541D01*
X112199500Y-65098543D01*
X112199499Y-65098543D01*
X112237947Y-65291829D01*
X112237950Y-65291839D01*
X112313364Y-65473907D01*
X112313371Y-65473920D01*
X112422860Y-65637781D01*
X112422863Y-65637785D01*
X112563181Y-65778103D01*
X112596666Y-65839426D01*
X112599500Y-65865784D01*
X112599500Y-66199902D01*
X112579815Y-66266941D01*
X112563181Y-66287583D01*
X111319481Y-67531282D01*
X111319479Y-67531284D01*
X111303157Y-67559556D01*
X111278965Y-67601459D01*
X111259694Y-67634837D01*
X111240423Y-67668214D01*
X111240423Y-67668215D01*
X111199499Y-67820943D01*
X111199499Y-67820945D01*
X111199499Y-67989046D01*
X111199500Y-67989059D01*
X111199500Y-73399901D01*
X111179815Y-73466940D01*
X111163181Y-73487582D01*
X111112582Y-73538181D01*
X111051259Y-73571666D01*
X111024901Y-73574500D01*
X110826457Y-73574500D01*
X110633170Y-73612947D01*
X110633160Y-73612950D01*
X110451092Y-73688364D01*
X110451079Y-73688371D01*
X110287218Y-73797860D01*
X110287214Y-73797863D01*
X110147863Y-73937214D01*
X110147860Y-73937218D01*
X110038371Y-74101079D01*
X110038364Y-74101092D01*
X109962950Y-74283160D01*
X109962947Y-74283170D01*
X109924500Y-74476456D01*
X109924500Y-74476459D01*
X109924500Y-74673541D01*
X109924500Y-74673543D01*
X109924499Y-74673543D01*
X107400500Y-74673543D01*
X107400500Y-68565784D01*
X107420185Y-68498745D01*
X107436819Y-68478103D01*
X107577136Y-68337785D01*
X107577139Y-68337782D01*
X107686632Y-68173914D01*
X107689834Y-68166185D01*
X107709703Y-68118215D01*
X107762051Y-67991835D01*
X107800500Y-67798541D01*
X107800500Y-67601459D01*
X107800500Y-67601458D01*
X107800500Y-67601456D01*
X107762052Y-67408170D01*
X107762051Y-67408169D01*
X107762051Y-67408165D01*
X107756928Y-67395796D01*
X107686635Y-67226092D01*
X107686628Y-67226079D01*
X107577139Y-67062218D01*
X107577136Y-67062214D01*
X107437785Y-66922863D01*
X107437781Y-66922860D01*
X107273920Y-66813371D01*
X107273907Y-66813364D01*
X107091839Y-66737950D01*
X107091829Y-66737947D01*
X106898543Y-66699500D01*
X106898541Y-66699500D01*
X106701459Y-66699500D01*
X106701457Y-66699500D01*
X106508170Y-66737947D01*
X106508160Y-66737950D01*
X106326092Y-66813364D01*
X106326079Y-66813371D01*
X106162218Y-66922860D01*
X106162214Y-66922863D01*
X106022863Y-67062214D01*
X106022860Y-67062218D01*
X105913371Y-67226079D01*
X105913364Y-67226092D01*
X105837950Y-67408160D01*
X105837947Y-67408170D01*
X105799500Y-67601456D01*
X105799500Y-67601458D01*
X105799500Y-67601459D01*
X105799500Y-67798541D01*
X105799500Y-67798543D01*
X105799499Y-67798543D01*
X105837947Y-67991829D01*
X105837950Y-67991839D01*
X105913364Y-68173907D01*
X105913371Y-68173920D01*
X106022860Y-68337781D01*
X106022863Y-68337785D01*
X106163181Y-68478103D01*
X106196666Y-68539426D01*
X106199500Y-68565784D01*
X106199500Y-81713330D01*
X106199499Y-81713348D01*
X106199499Y-81879054D01*
X106199498Y-81879054D01*
X106240423Y-82031785D01*
X106269358Y-82081900D01*
X106269359Y-82081904D01*
X106269360Y-82081904D01*
X106302261Y-82138892D01*
X106319479Y-82168714D01*
X106319481Y-82168717D01*
X106438349Y-82287585D01*
X106438355Y-82287590D01*
X109748584Y-85597819D01*
X109782069Y-85659142D01*
X109777085Y-85728834D01*
X109735213Y-85784767D01*
X109669749Y-85809184D01*
X109660903Y-85809500D01*
X91644500Y-85809500D01*
X91577461Y-85789815D01*
X91531706Y-85737011D01*
X91520500Y-85685500D01*
X91520500Y-83485062D01*
X92046504Y-83485062D01*
X92046504Y-83714937D01*
X92058526Y-83806246D01*
X92076507Y-83942824D01*
X92106177Y-84053554D01*
X92135998Y-84164850D01*
X92223960Y-84377208D01*
X92223964Y-84377218D01*
X92338892Y-84576279D01*
X92478821Y-84758639D01*
X92478827Y-84758646D01*
X92641353Y-84921172D01*
X92641360Y-84921178D01*
X92823720Y-85061107D01*
X93022781Y-85176035D01*
X93022782Y-85176035D01*
X93022785Y-85176037D01*
X93235148Y-85264001D01*
X93457176Y-85323493D01*
X93685070Y-85353496D01*
X93685077Y-85353496D01*
X93914923Y-85353496D01*
X93914930Y-85353496D01*
X94142824Y-85323493D01*
X94364852Y-85264001D01*
X94577215Y-85176037D01*
X94776280Y-85061107D01*
X94958641Y-84921177D01*
X95121177Y-84758641D01*
X95261107Y-84576280D01*
X95376037Y-84377215D01*
X95464001Y-84164852D01*
X95523493Y-83942824D01*
X95553496Y-83714930D01*
X95553496Y-83485070D01*
X95523493Y-83257176D01*
X95464001Y-83035148D01*
X95376037Y-82822785D01*
X95369770Y-82811931D01*
X95261107Y-82623720D01*
X95121178Y-82441360D01*
X95121172Y-82441353D01*
X94958646Y-82278827D01*
X94958639Y-82278821D01*
X94776279Y-82138892D01*
X94577218Y-82023964D01*
X94577208Y-82023960D01*
X94364850Y-81935998D01*
X94253838Y-81906253D01*
X94142824Y-81876507D01*
X94104738Y-81871492D01*
X93914937Y-81846504D01*
X93914930Y-81846504D01*
X93685070Y-81846504D01*
X93685062Y-81846504D01*
X93468146Y-81875062D01*
X93457176Y-81876507D01*
X93410253Y-81889079D01*
X93235149Y-81935998D01*
X93022791Y-82023960D01*
X93022781Y-82023964D01*
X92823720Y-82138892D01*
X92641360Y-82278821D01*
X92641353Y-82278827D01*
X92478827Y-82441353D01*
X92478821Y-82441360D01*
X92338892Y-82623720D01*
X92223964Y-82822781D01*
X92223960Y-82822791D01*
X92135998Y-83035149D01*
X92076508Y-83257173D01*
X92076506Y-83257184D01*
X92046504Y-83485062D01*
X91520500Y-83485062D01*
X91520500Y-75670000D01*
X92765138Y-75670000D01*
X93568012Y-75670000D01*
X93550795Y-75679940D01*
X93494940Y-75735795D01*
X93455444Y-75804204D01*
X93435000Y-75880504D01*
X93435000Y-75959496D01*
X93455444Y-76035796D01*
X93494940Y-76104205D01*
X93550795Y-76160060D01*
X93568012Y-76170000D01*
X92765138Y-76170000D01*
X92773430Y-76211690D01*
X92773430Y-76211692D01*
X92848807Y-76393671D01*
X92848814Y-76393684D01*
X92958248Y-76557462D01*
X92958251Y-76557466D01*
X93097533Y-76696748D01*
X93097537Y-76696751D01*
X93261315Y-76806185D01*
X93261328Y-76806192D01*
X93443306Y-76881569D01*
X93443318Y-76881572D01*
X93636504Y-76919999D01*
X93636508Y-76920000D01*
X93885000Y-76920000D01*
X93885000Y-76220000D01*
X94385000Y-76220000D01*
X94385000Y-76920000D01*
X94633492Y-76920000D01*
X94633495Y-76919999D01*
X94826681Y-76881572D01*
X94826693Y-76881569D01*
X95008671Y-76806192D01*
X95008684Y-76806185D01*
X95172462Y-76696751D01*
X95172466Y-76696748D01*
X95311748Y-76557466D01*
X95311751Y-76557462D01*
X95421185Y-76393684D01*
X95421192Y-76393671D01*
X95496569Y-76211692D01*
X95496569Y-76211690D01*
X95504862Y-76170000D01*
X94701988Y-76170000D01*
X94719205Y-76160060D01*
X94775060Y-76104205D01*
X94814556Y-76035796D01*
X94835000Y-75959496D01*
X94835000Y-75880504D01*
X94814556Y-75804204D01*
X94775060Y-75735795D01*
X94719205Y-75679940D01*
X94701988Y-75670000D01*
X95504862Y-75670000D01*
X96795138Y-75670000D01*
X97598012Y-75670000D01*
X97580795Y-75679940D01*
X97524940Y-75735795D01*
X97485444Y-75804204D01*
X97465000Y-75880504D01*
X97465000Y-75959496D01*
X97485444Y-76035796D01*
X97524940Y-76104205D01*
X97580795Y-76160060D01*
X97598012Y-76170000D01*
X96795138Y-76170000D01*
X96803430Y-76211690D01*
X96803430Y-76211692D01*
X96878807Y-76393671D01*
X96878814Y-76393684D01*
X96988248Y-76557462D01*
X96988251Y-76557466D01*
X97127533Y-76696748D01*
X97127537Y-76696751D01*
X97291315Y-76806185D01*
X97291328Y-76806192D01*
X97473306Y-76881569D01*
X97473318Y-76881572D01*
X97666504Y-76919999D01*
X97666508Y-76920000D01*
X98065000Y-76920000D01*
X98065000Y-76220000D01*
X98565000Y-76220000D01*
X98565000Y-76920000D01*
X98963492Y-76920000D01*
X98963495Y-76919999D01*
X99156681Y-76881572D01*
X99156693Y-76881569D01*
X99338671Y-76806192D01*
X99338684Y-76806185D01*
X99502462Y-76696751D01*
X99502466Y-76696748D01*
X99641748Y-76557466D01*
X99641751Y-76557462D01*
X99751185Y-76393684D01*
X99751192Y-76393671D01*
X99826569Y-76211692D01*
X99826569Y-76211690D01*
X99834862Y-76170000D01*
X99031988Y-76170000D01*
X99049205Y-76160060D01*
X99105060Y-76104205D01*
X99144556Y-76035796D01*
X99165000Y-75959496D01*
X99165000Y-75880504D01*
X99144556Y-75804204D01*
X99105060Y-75735795D01*
X99049205Y-75679940D01*
X99031988Y-75670000D01*
X99834862Y-75670000D01*
X99826569Y-75628309D01*
X99826569Y-75628307D01*
X99751192Y-75446328D01*
X99751185Y-75446315D01*
X99641751Y-75282537D01*
X99641748Y-75282533D01*
X99502466Y-75143251D01*
X99502462Y-75143248D01*
X99338684Y-75033814D01*
X99338671Y-75033807D01*
X99156693Y-74958430D01*
X99156681Y-74958427D01*
X98963495Y-74920000D01*
X98565000Y-74920000D01*
X98565000Y-75620000D01*
X98065000Y-75620000D01*
X98065000Y-75081784D01*
X98084685Y-75014745D01*
X98127000Y-74974397D01*
X98168365Y-74950515D01*
X98275515Y-74843365D01*
X98276372Y-74841879D01*
X98296721Y-74806637D01*
X98351279Y-74712138D01*
X98351281Y-74712135D01*
X98390500Y-74565766D01*
X98390500Y-74414234D01*
X98351281Y-74267865D01*
X98275515Y-74136635D01*
X98168365Y-74029485D01*
X98084288Y-73980943D01*
X98037136Y-73953719D01*
X97955275Y-73931785D01*
X97890766Y-73914500D01*
X97739234Y-73914500D01*
X97592863Y-73953719D01*
X97461635Y-74029485D01*
X97461632Y-74029487D01*
X97354487Y-74136632D01*
X97354485Y-74136635D01*
X97278719Y-74267863D01*
X97246686Y-74387415D01*
X97239500Y-74414234D01*
X97239500Y-74565766D01*
X97242889Y-74578414D01*
X97278719Y-74712136D01*
X97310869Y-74767820D01*
X97354485Y-74843365D01*
X97354486Y-74843366D01*
X97358549Y-74850403D01*
X97356346Y-74851674D01*
X97376959Y-74904983D01*
X97362923Y-74973428D01*
X97314112Y-75023420D01*
X97300845Y-75029866D01*
X97291324Y-75033809D01*
X97291315Y-75033814D01*
X97127537Y-75143248D01*
X97127533Y-75143251D01*
X96988251Y-75282533D01*
X96988248Y-75282537D01*
X96878814Y-75446315D01*
X96878807Y-75446328D01*
X96803430Y-75628307D01*
X96803430Y-75628309D01*
X96795138Y-75670000D01*
X95504862Y-75670000D01*
X95496569Y-75628309D01*
X95496569Y-75628307D01*
X95421192Y-75446328D01*
X95421185Y-75446315D01*
X95311751Y-75282537D01*
X95311748Y-75282533D01*
X95172466Y-75143251D01*
X95172462Y-75143248D01*
X95008684Y-75033814D01*
X95008671Y-75033807D01*
X94826693Y-74958430D01*
X94826681Y-74958427D01*
X94633495Y-74920000D01*
X94385000Y-74920000D01*
X94385000Y-75620000D01*
X93885000Y-75620000D01*
X93885000Y-74920000D01*
X93636504Y-74920000D01*
X93443318Y-74958427D01*
X93443306Y-74958430D01*
X93261328Y-75033807D01*
X93261315Y-75033814D01*
X93097537Y-75143248D01*
X93097533Y-75143251D01*
X92958251Y-75282533D01*
X92958248Y-75282537D01*
X92848814Y-75446315D01*
X92848807Y-75446328D01*
X92773430Y-75628307D01*
X92773430Y-75628309D01*
X92765138Y-75670000D01*
X91520500Y-75670000D01*
X91520500Y-67030000D01*
X92765138Y-67030000D01*
X93568012Y-67030000D01*
X93550795Y-67039940D01*
X93494940Y-67095795D01*
X93455444Y-67164204D01*
X93435000Y-67240504D01*
X93435000Y-67319496D01*
X93455444Y-67395796D01*
X93494940Y-67464205D01*
X93550795Y-67520060D01*
X93568012Y-67530000D01*
X92765138Y-67530000D01*
X92773430Y-67571690D01*
X92773430Y-67571692D01*
X92848807Y-67753671D01*
X92848814Y-67753684D01*
X92958248Y-67917462D01*
X92958251Y-67917466D01*
X93097533Y-68056748D01*
X93097537Y-68056751D01*
X93261315Y-68166185D01*
X93261328Y-68166192D01*
X93443306Y-68241569D01*
X93443318Y-68241572D01*
X93636504Y-68279999D01*
X93636508Y-68280000D01*
X93885000Y-68280000D01*
X93885000Y-67580000D01*
X94385000Y-67580000D01*
X94385000Y-68280000D01*
X94633492Y-68280000D01*
X94633495Y-68279999D01*
X94826681Y-68241572D01*
X94826693Y-68241569D01*
X95008671Y-68166192D01*
X95008684Y-68166185D01*
X95172462Y-68056751D01*
X95172466Y-68056748D01*
X95311748Y-67917466D01*
X95311751Y-67917462D01*
X95421185Y-67753684D01*
X95421192Y-67753671D01*
X95496569Y-67571692D01*
X95496569Y-67571690D01*
X95504862Y-67530000D01*
X94701988Y-67530000D01*
X94719205Y-67520060D01*
X94775060Y-67464205D01*
X94814556Y-67395796D01*
X94835000Y-67319496D01*
X94835000Y-67240504D01*
X94814556Y-67164204D01*
X94775060Y-67095795D01*
X94719205Y-67039940D01*
X94701988Y-67030000D01*
X95504862Y-67030000D01*
X96795138Y-67030000D01*
X97598012Y-67030000D01*
X97580795Y-67039940D01*
X97524940Y-67095795D01*
X97485444Y-67164204D01*
X97465000Y-67240504D01*
X97465000Y-67319496D01*
X97485444Y-67395796D01*
X97524940Y-67464205D01*
X97580795Y-67520060D01*
X97598012Y-67530000D01*
X96795138Y-67530000D01*
X96803430Y-67571690D01*
X96803430Y-67571692D01*
X96878807Y-67753671D01*
X96878814Y-67753684D01*
X96988248Y-67917462D01*
X96988251Y-67917466D01*
X97127533Y-68056748D01*
X97127537Y-68056751D01*
X97291315Y-68166185D01*
X97291328Y-68166192D01*
X97300838Y-68170131D01*
X97355243Y-68213970D01*
X97377310Y-68280264D01*
X97360033Y-68347963D01*
X97356350Y-68353405D01*
X97278719Y-68487863D01*
X97239500Y-68634234D01*
X97239500Y-68785765D01*
X97278719Y-68932136D01*
X97316602Y-68997750D01*
X97354485Y-69063365D01*
X97461635Y-69170515D01*
X97592865Y-69246281D01*
X97739234Y-69285500D01*
X97739236Y-69285500D01*
X97890764Y-69285500D01*
X97890766Y-69285500D01*
X98037135Y-69246281D01*
X98168365Y-69170515D01*
X98275515Y-69063365D01*
X98351281Y-68932135D01*
X98390500Y-68785766D01*
X98390500Y-68634234D01*
X98351281Y-68487865D01*
X98275515Y-68356635D01*
X98168365Y-68249485D01*
X98154654Y-68241569D01*
X98126998Y-68225601D01*
X98078784Y-68175033D01*
X98065000Y-68118215D01*
X98065000Y-67580000D01*
X98565000Y-67580000D01*
X98565000Y-68280000D01*
X98963492Y-68280000D01*
X98963495Y-68279999D01*
X99156681Y-68241572D01*
X99156693Y-68241569D01*
X99338671Y-68166192D01*
X99338684Y-68166185D01*
X99502462Y-68056751D01*
X99502466Y-68056748D01*
X99641748Y-67917466D01*
X99641751Y-67917462D01*
X99751185Y-67753684D01*
X99751192Y-67753671D01*
X99826569Y-67571692D01*
X99826569Y-67571690D01*
X99834862Y-67530000D01*
X99031988Y-67530000D01*
X99049205Y-67520060D01*
X99105060Y-67464205D01*
X99144556Y-67395796D01*
X99165000Y-67319496D01*
X99165000Y-67240504D01*
X99144556Y-67164204D01*
X99105060Y-67095795D01*
X99049205Y-67039940D01*
X99031988Y-67030000D01*
X99834862Y-67030000D01*
X99826569Y-66988309D01*
X99826569Y-66988307D01*
X99751192Y-66806328D01*
X99751185Y-66806315D01*
X99641751Y-66642537D01*
X99641748Y-66642533D01*
X99502466Y-66503251D01*
X99502462Y-66503248D01*
X99338684Y-66393814D01*
X99338671Y-66393807D01*
X99156693Y-66318430D01*
X99156681Y-66318427D01*
X98963495Y-66280000D01*
X98565000Y-66280000D01*
X98565000Y-66980000D01*
X98065000Y-66980000D01*
X98065000Y-66280000D01*
X97666504Y-66280000D01*
X97473318Y-66318427D01*
X97473306Y-66318430D01*
X97291328Y-66393807D01*
X97291315Y-66393814D01*
X97127537Y-66503248D01*
X97127533Y-66503251D01*
X96988251Y-66642533D01*
X96988248Y-66642537D01*
X96878814Y-66806315D01*
X96878807Y-66806328D01*
X96803430Y-66988307D01*
X96803430Y-66988309D01*
X96795138Y-67030000D01*
X95504862Y-67030000D01*
X95496569Y-66988309D01*
X95496569Y-66988307D01*
X95421192Y-66806328D01*
X95421185Y-66806315D01*
X95311751Y-66642537D01*
X95311748Y-66642533D01*
X95172466Y-66503251D01*
X95172462Y-66503248D01*
X95008684Y-66393814D01*
X95008671Y-66393807D01*
X94826693Y-66318430D01*
X94826681Y-66318427D01*
X94633495Y-66280000D01*
X94385000Y-66280000D01*
X94385000Y-66980000D01*
X93885000Y-66980000D01*
X93885000Y-66280000D01*
X93636504Y-66280000D01*
X93443318Y-66318427D01*
X93443306Y-66318430D01*
X93261328Y-66393807D01*
X93261315Y-66393814D01*
X93097537Y-66503248D01*
X93097533Y-66503251D01*
X92958251Y-66642533D01*
X92958248Y-66642537D01*
X92848814Y-66806315D01*
X92848807Y-66806328D01*
X92773430Y-66988307D01*
X92773430Y-66988309D01*
X92765138Y-67030000D01*
X91520500Y-67030000D01*
X91520500Y-52485062D01*
X92046504Y-52485062D01*
X92046504Y-52714937D01*
X92056781Y-52792993D01*
X92076507Y-52942824D01*
X92091827Y-53000000D01*
X92135998Y-53164850D01*
X92223960Y-53377208D01*
X92223964Y-53377218D01*
X92338892Y-53576279D01*
X92478821Y-53758639D01*
X92478827Y-53758646D01*
X92641353Y-53921172D01*
X92641360Y-53921178D01*
X92823720Y-54061107D01*
X93022781Y-54176035D01*
X93022782Y-54176035D01*
X93022785Y-54176037D01*
X93235148Y-54264001D01*
X93457176Y-54323493D01*
X93685070Y-54353496D01*
X93685077Y-54353496D01*
X93914923Y-54353496D01*
X93914930Y-54353496D01*
X94142824Y-54323493D01*
X94364852Y-54264001D01*
X94577215Y-54176037D01*
X94776280Y-54061107D01*
X94958641Y-53921177D01*
X95121177Y-53758641D01*
X95261107Y-53576280D01*
X95273070Y-53555558D01*
X95285276Y-53534419D01*
X95376035Y-53377218D01*
X95376037Y-53377215D01*
X95464001Y-53164852D01*
X95523493Y-52942824D01*
X95553496Y-52714930D01*
X95553496Y-52501617D01*
X114670000Y-52501617D01*
X114670000Y-52698382D01*
X114700778Y-52892705D01*
X114761581Y-53079835D01*
X114850905Y-53255145D01*
X114876319Y-53290125D01*
X114876320Y-53290125D01*
X115520000Y-52646445D01*
X115520000Y-52652661D01*
X115547259Y-52754394D01*
X115599920Y-52845606D01*
X115674394Y-52920080D01*
X115765606Y-52972741D01*
X115867339Y-53000000D01*
X115873553Y-53000000D01*
X115229873Y-53643677D01*
X115229873Y-53643678D01*
X115264858Y-53669096D01*
X115440164Y-53758418D01*
X115627294Y-53819221D01*
X115821618Y-53850000D01*
X116018382Y-53850000D01*
X116212705Y-53819221D01*
X116399835Y-53758418D01*
X116575143Y-53669095D01*
X116610125Y-53643678D01*
X116610126Y-53643678D01*
X115966448Y-53000000D01*
X115972661Y-53000000D01*
X116074394Y-52972741D01*
X116165606Y-52920080D01*
X116240080Y-52845606D01*
X116292741Y-52754394D01*
X116320000Y-52652661D01*
X116320000Y-52646448D01*
X116963678Y-53290126D01*
X116963678Y-53290125D01*
X116989095Y-53255143D01*
X117078418Y-53079835D01*
X117139221Y-52892705D01*
X117170000Y-52698382D01*
X117170000Y-52501617D01*
X117139221Y-52307294D01*
X117078418Y-52120164D01*
X116989096Y-51944858D01*
X116963678Y-51909873D01*
X116963677Y-51909873D01*
X116320000Y-52553551D01*
X116320000Y-52547339D01*
X116292741Y-52445606D01*
X116240080Y-52354394D01*
X116165606Y-52279920D01*
X116074394Y-52227259D01*
X115972661Y-52200000D01*
X115966447Y-52200000D01*
X116610125Y-51556320D01*
X116610125Y-51556319D01*
X116575145Y-51530905D01*
X116399835Y-51441581D01*
X116212705Y-51380778D01*
X116018382Y-51350000D01*
X115821618Y-51350000D01*
X115627294Y-51380778D01*
X115440161Y-51441582D01*
X115264863Y-51530899D01*
X115264859Y-51530902D01*
X115229873Y-51556320D01*
X115229872Y-51556320D01*
X115873554Y-52200000D01*
X115867339Y-52200000D01*
X115765606Y-52227259D01*
X115674394Y-52279920D01*
X115599920Y-52354394D01*
X115547259Y-52445606D01*
X115520000Y-52547339D01*
X115520000Y-52553552D01*
X114876320Y-51909872D01*
X114876320Y-51909873D01*
X114850902Y-51944859D01*
X114850899Y-51944863D01*
X114761582Y-52120161D01*
X114700778Y-52307294D01*
X114670000Y-52501617D01*
X95553496Y-52501617D01*
X95553496Y-52485070D01*
X95523493Y-52257176D01*
X95464001Y-52035148D01*
X95376037Y-51822785D01*
X95351718Y-51780663D01*
X95285276Y-51665581D01*
X95285275Y-51665580D01*
X95265509Y-51631344D01*
X95261107Y-51623720D01*
X95209389Y-51556320D01*
X95121178Y-51441360D01*
X95121172Y-51441353D01*
X94958646Y-51278827D01*
X94958639Y-51278821D01*
X94776279Y-51138892D01*
X94577218Y-51023964D01*
X94577208Y-51023960D01*
X94364850Y-50935998D01*
X94253838Y-50906253D01*
X94142824Y-50876507D01*
X94104738Y-50871492D01*
X93914937Y-50846504D01*
X93914930Y-50846504D01*
X93685070Y-50846504D01*
X93685062Y-50846504D01*
X93468146Y-50875062D01*
X93457176Y-50876507D01*
X93410253Y-50889079D01*
X93235149Y-50935998D01*
X93022791Y-51023960D01*
X93022781Y-51023964D01*
X92823720Y-51138892D01*
X92641360Y-51278821D01*
X92641353Y-51278827D01*
X92478827Y-51441353D01*
X92478821Y-51441360D01*
X92338892Y-51623720D01*
X92223964Y-51822781D01*
X92223960Y-51822791D01*
X92135998Y-52035149D01*
X92076508Y-52257173D01*
X92076506Y-52257184D01*
X92046504Y-52485062D01*
X91520500Y-52485062D01*
X91520500Y-50434500D01*
X91540185Y-50367461D01*
X91592989Y-50321706D01*
X91644500Y-50310500D01*
X170895500Y-50310500D01*
X170962539Y-50330185D01*
G37*
%TD.AperFunction*%
%TD*%
M02*
