%TF.GenerationSoftware,KiCad,Pcbnew,10.0.0*%
%TF.CreationDate,2026-04-22T16:36:54+05:30*%
%TF.ProjectId,F411-TableClock,46343131-2d54-4616-926c-65436c6f636b,rev?*%
%TF.SameCoordinates,Original*%
%TF.FileFunction,Paste,Top*%
%TF.FilePolarity,Positive*%
%FSLAX46Y46*%
G04 Gerber Fmt 4.6, Leading zero omitted, Abs format (unit mm)*
G04 Created by KiCad (PCBNEW 10.0.0) date 2026-04-22 16:36:54*
%MOMM*%
%LPD*%
G01*
G04 APERTURE LIST*
G04 Aperture macros list*
%AMRoundRect*
0 Rectangle with rounded corners*
0 $1 Rounding radius*
0 $2 $3 $4 $5 $6 $7 $8 $9 X,Y pos of 4 corners*
0 Add a 4 corners polygon primitive as box body*
4,1,4,$2,$3,$4,$5,$6,$7,$8,$9,$2,$3,0*
0 Add four circle primitives for the rounded corners*
1,1,$1+$1,$2,$3*
1,1,$1+$1,$4,$5*
1,1,$1+$1,$6,$7*
1,1,$1+$1,$8,$9*
0 Add four rect primitives between the rounded corners*
20,1,$1+$1,$2,$3,$4,$5,0*
20,1,$1+$1,$4,$5,$6,$7,0*
20,1,$1+$1,$6,$7,$8,$9,0*
20,1,$1+$1,$8,$9,$2,$3,0*%
G04 Aperture macros list end*
%ADD10RoundRect,0.250000X-0.475000X0.250000X-0.475000X-0.250000X0.475000X-0.250000X0.475000X0.250000X0*%
%ADD11RoundRect,0.250000X0.250000X0.475000X-0.250000X0.475000X-0.250000X-0.475000X0.250000X-0.475000X0*%
%ADD12RoundRect,0.250000X-0.262500X-0.450000X0.262500X-0.450000X0.262500X0.450000X-0.262500X0.450000X0*%
%ADD13RoundRect,0.150000X-0.512500X-0.150000X0.512500X-0.150000X0.512500X0.150000X-0.512500X0.150000X0*%
%ADD14RoundRect,0.250000X-0.450000X0.262500X-0.450000X-0.262500X0.450000X-0.262500X0.450000X0.262500X0*%
%ADD15RoundRect,0.243750X0.243750X0.456250X-0.243750X0.456250X-0.243750X-0.456250X0.243750X-0.456250X0*%
%ADD16R,1.700000X1.000000*%
%ADD17RoundRect,0.250000X0.475000X-0.250000X0.475000X0.250000X-0.475000X0.250000X-0.475000X-0.250000X0*%
%ADD18RoundRect,0.150000X-0.425000X0.150000X-0.425000X-0.150000X0.425000X-0.150000X0.425000X0.150000X0*%
%ADD19RoundRect,0.075000X-0.500000X0.075000X-0.500000X-0.075000X0.500000X-0.075000X0.500000X0.075000X0*%
%ADD20O,2.100000X1.000000*%
%ADD21O,1.800000X1.000000*%
%ADD22RoundRect,0.250000X0.450000X-0.262500X0.450000X0.262500X-0.450000X0.262500X-0.450000X-0.262500X0*%
%ADD23RoundRect,0.150000X0.150000X-0.587500X0.150000X0.587500X-0.150000X0.587500X-0.150000X-0.587500X0*%
%ADD24RoundRect,0.250000X0.262500X0.450000X-0.262500X0.450000X-0.262500X-0.450000X0.262500X-0.450000X0*%
%ADD25RoundRect,0.250000X0.270000X0.270000X-0.270000X0.270000X-0.270000X-0.270000X0.270000X-0.270000X0*%
%ADD26RoundRect,0.062500X0.375000X0.062500X-0.375000X0.062500X-0.375000X-0.062500X0.375000X-0.062500X0*%
%ADD27RoundRect,0.062500X0.062500X0.375000X-0.062500X0.375000X-0.062500X-0.375000X0.062500X-0.375000X0*%
%ADD28RoundRect,0.250000X-0.250000X-0.475000X0.250000X-0.475000X0.250000X0.475000X-0.250000X0.475000X0*%
G04 APERTURE END LIST*
D10*
%TO.C,C7*%
X102750000Y-78800000D03*
X102750000Y-80700000D03*
%TD*%
D11*
%TO.C,C10*%
X120250000Y-60100000D03*
X118350000Y-60100000D03*
%TD*%
D12*
%TO.C,C12*%
X135200000Y-68700000D03*
X137025000Y-68700000D03*
%TD*%
D13*
%TO.C,U2*%
X108500000Y-78600000D03*
X108500000Y-79550000D03*
X108500000Y-80500000D03*
X110775000Y-80500000D03*
X110775000Y-78600000D03*
%TD*%
D14*
%TO.C,R14*%
X105600000Y-78800000D03*
X105600000Y-80625000D03*
%TD*%
%TO.C,R11*%
X122900000Y-78600000D03*
X122900000Y-80425000D03*
%TD*%
D15*
%TO.C,D1*%
X109275000Y-60300000D03*
X107400000Y-60300000D03*
%TD*%
D16*
%TO.C,SW1*%
X113100000Y-95200000D03*
X106800000Y-95200000D03*
X113100000Y-91400000D03*
X106800000Y-91400000D03*
%TD*%
D17*
%TO.C,C5*%
X108700000Y-124200000D03*
X108700000Y-122300000D03*
%TD*%
D18*
%TO.C,J1*%
X98890000Y-68400000D03*
X98890000Y-69200000D03*
D19*
X98890000Y-70350000D03*
X98890000Y-71350000D03*
X98890000Y-71850000D03*
X98890000Y-72850000D03*
D18*
X98890000Y-74000000D03*
X98890000Y-74800000D03*
X98890000Y-74800000D03*
X98890000Y-74000000D03*
D19*
X98890000Y-73350000D03*
X98890000Y-72350000D03*
X98890000Y-70850000D03*
X98890000Y-69850000D03*
D18*
X98890000Y-69200000D03*
X98890000Y-68400000D03*
D20*
X98315000Y-67280000D03*
D21*
X94135000Y-67280000D03*
D20*
X98315000Y-75920000D03*
D21*
X94135000Y-75920000D03*
%TD*%
D14*
%TO.C,R6*%
X124600000Y-71487500D03*
X124600000Y-73312500D03*
%TD*%
%TO.C,R5*%
X105000000Y-63887500D03*
X105000000Y-65712500D03*
%TD*%
D22*
%TO.C,R3*%
X102700000Y-65725000D03*
X102700000Y-63900000D03*
%TD*%
D11*
%TO.C,C1*%
X109300000Y-56200000D03*
X107400000Y-56200000D03*
%TD*%
D16*
%TO.C,SW2*%
X121950000Y-95200000D03*
X115650000Y-95200000D03*
X121950000Y-91400000D03*
X115650000Y-91400000D03*
%TD*%
D23*
%TO.C,Q1*%
X107550000Y-65275000D03*
X109450000Y-65275000D03*
X108500000Y-63400000D03*
%TD*%
D10*
%TO.C,C4*%
X127212500Y-72137500D03*
X127212500Y-74037500D03*
%TD*%
D24*
%TO.C,R7*%
X130512500Y-65700000D03*
X128687500Y-65700000D03*
%TD*%
D11*
%TO.C,C3*%
X109300000Y-58300000D03*
X107400000Y-58300000D03*
%TD*%
D16*
%TO.C,SW3*%
X130750000Y-95200000D03*
X124450000Y-95200000D03*
X130750000Y-91400000D03*
X124450000Y-91400000D03*
%TD*%
D10*
%TO.C,C8*%
X115300000Y-78600000D03*
X115300000Y-80500000D03*
%TD*%
D14*
%TO.C,R10*%
X125800000Y-78600000D03*
X125800000Y-80425000D03*
%TD*%
D11*
%TO.C,C2*%
X109300000Y-54100000D03*
X107400000Y-54100000D03*
%TD*%
D24*
%TO.C,C11*%
X137037500Y-70700000D03*
X135212500Y-70700000D03*
%TD*%
%TO.C,R12*%
X120212500Y-58100000D03*
X118387500Y-58100000D03*
%TD*%
D10*
%TO.C,C6*%
X100650000Y-78800000D03*
X100650000Y-80700000D03*
%TD*%
D12*
%TO.C,R4*%
X105887500Y-74000000D03*
X107712500Y-74000000D03*
%TD*%
D14*
%TO.C,R9*%
X120000000Y-78587500D03*
X120000000Y-80412500D03*
%TD*%
D25*
%TO.C,U1*%
X123985000Y-67872500D03*
X123985000Y-66582500D03*
X123985000Y-65292500D03*
X123985000Y-64002500D03*
X122695000Y-67872500D03*
X122695000Y-66582500D03*
X122695000Y-65292500D03*
X122695000Y-64002500D03*
X121405000Y-67872500D03*
X121405000Y-66582500D03*
X121405000Y-65292500D03*
X121405000Y-64002500D03*
X120115000Y-67872500D03*
X120115000Y-66582500D03*
X120115000Y-65292500D03*
X120115000Y-64002500D03*
D26*
X125487500Y-68687500D03*
X125487500Y-68187500D03*
X125487500Y-67687500D03*
X125487500Y-67187500D03*
X125487500Y-66687500D03*
X125487500Y-66187500D03*
X125487500Y-65687500D03*
X125487500Y-65187500D03*
X125487500Y-64687500D03*
X125487500Y-64187500D03*
X125487500Y-63687500D03*
X125487500Y-63187500D03*
D27*
X124800000Y-62500000D03*
X124300000Y-62500000D03*
X123800000Y-62500000D03*
X123300000Y-62500000D03*
X122800000Y-62500000D03*
X122300000Y-62500000D03*
X121800000Y-62500000D03*
X121300000Y-62500000D03*
X120800000Y-62500000D03*
X120300000Y-62500000D03*
X119800000Y-62500000D03*
X119300000Y-62500000D03*
D26*
X118612500Y-63187500D03*
X118612500Y-63687500D03*
X118612500Y-64187500D03*
X118612500Y-64687500D03*
X118612500Y-65187500D03*
X118612500Y-65687500D03*
X118612500Y-66187500D03*
X118612500Y-66687500D03*
X118612500Y-67187500D03*
X118612500Y-67687500D03*
X118612500Y-68187500D03*
X118612500Y-68687500D03*
D27*
X119300000Y-69375000D03*
X119800000Y-69375000D03*
X120300000Y-69375000D03*
X120800000Y-69375000D03*
X121300000Y-69375000D03*
X121800000Y-69375000D03*
X122300000Y-69375000D03*
X122800000Y-69375000D03*
X123300000Y-69375000D03*
X123800000Y-69375000D03*
X124300000Y-69375000D03*
X124800000Y-69375000D03*
%TD*%
D24*
%TO.C,R1*%
X107712500Y-69800000D03*
X105887500Y-69800000D03*
%TD*%
D14*
%TO.C,R8*%
X117400000Y-78587500D03*
X117400000Y-80412500D03*
%TD*%
D10*
%TO.C,C9*%
X113200000Y-78600000D03*
X113200000Y-80500000D03*
%TD*%
D28*
%TO.C,C13*%
X128550000Y-62400000D03*
X130450000Y-62400000D03*
%TD*%
D24*
%TO.C,R2*%
X107700000Y-71900000D03*
X105875000Y-71900000D03*
%TD*%
D16*
%TO.C,SW4*%
X139550000Y-95200000D03*
X133250000Y-95200000D03*
X139550000Y-91400000D03*
X133250000Y-91400000D03*
%TD*%
M02*
